<?xml version="1.0" encoding="UTF-8"?>
<!DOCTYPE svg PUBLIC "-//W3C//DTD SVG 1.1//EN" "http://www.w3.org/Graphics/SVG/1.1/DTD/svg11.dtd">
<svg xmlns="http://www.w3.org/2000/svg" version="1.1" width="64px" height="64px" style="shape-rendering:geometricPrecision; text-rendering:geometricPrecision; image-rendering:optimizeQuality; fill-rule:evenodd; clip-rule:evenodd" xmlns:xlink="http://www.w3.org/1999/xlink">
<g><path style="opacity:0.98" fill="#eae6df" d="M 21.5,-0.5 C 28.1667,-0.5 34.8333,-0.5 41.5,-0.5C 52.2564,3.9224 59.5897,11.5891 63.5,22.5C 63.5,28.5 63.5,34.5 63.5,40.5C 59.5897,51.4109 52.2564,59.0776 41.5,63.5C 34.8333,63.5 28.1667,63.5 21.5,63.5C 10.7436,59.0776 3.41031,51.4109 -0.5,40.5C -0.5,34.5 -0.5,28.5 -0.5,22.5C 3.41031,11.5891 10.7436,3.9224 21.5,-0.5 Z"/></g>
<g><path style="opacity:1" fill="#1a1a30" d="M 43.5,19.5 C 34.4103,19.7162 26.4103,22.7162 19.5,28.5C 20.9274,25.2364 23.2608,22.7364 26.5,21C 31.8871,18.4229 37.5538,16.9229 43.5,16.5C 43.5,17.5 43.5,18.5 43.5,19.5 Z"/></g>
<g><path style="opacity:1" fill="#1537ec" d="M 43.5,19.5 C 43.5,20.1667 43.5,20.8333 43.5,21.5C 34.3078,22.0997 26.3078,25.433 19.5,31.5C 19.5,30.5 19.5,29.5 19.5,28.5C 26.4103,22.7162 34.4103,19.7162 43.5,19.5 Z"/></g>
<g><path style="opacity:1" fill="#9aaafd" d="M 43.5,21.5 C 43.4226,22.7498 42.756,23.5831 41.5,24C 33.3367,25.0491 26.17,28.2158 20,33.5C 19.5357,32.9056 19.369,32.2389 19.5,31.5C 26.3078,25.433 34.3078,22.0997 43.5,21.5 Z"/></g>
<g><path style="opacity:1" fill="#fc321f" d="M 28.5,33.5 C 27.5084,33.3284 26.8417,33.6618 26.5,34.5C 24.5956,34.7376 23.2623,35.7376 22.5,37.5C 21.3552,38.7927 21.6885,39.9593 23.5,41C 26.8931,43.0757 30.5598,44.2424 34.5,44.5C 33.791,45.404 32.791,45.7373 31.5,45.5C 26.9327,45.479 23.0993,43.8123 20,40.5C 19.3486,38.765 19.5153,37.0983 20.5,35.5C 27.1906,29.6375 34.8573,26.9709 43.5,27.5C 43.2907,28.086 42.9574,28.586 42.5,29C 37.3799,29.43 32.7132,30.93 28.5,33.5 Z"/></g>
<g><path style="opacity:1" fill="#615e66" d="M 26.5,34.5 C 26.8417,33.6618 27.5084,33.3284 28.5,33.5C 33.1272,34.4381 37.7939,35.2714 42.5,36C 39.5184,36.498 36.5184,36.6646 33.5,36.5C 32.5,36.5 31.5,36.5 30.5,36.5C 29.713,34.8958 28.3797,34.2291 26.5,34.5 Z"/></g>
<g><path style="opacity:1" fill="#4863f7" d="M 30.5,36.5 C 31.5,36.5 32.5,36.5 33.5,36.5C 34.5676,37.4345 35.901,37.7678 37.5,37.5C 37.5,38.1667 37.1667,38.5 36.5,38.5C 34.8333,38.5 33.1667,38.5 31.5,38.5C 29.6115,37.678 27.6115,36.8447 25.5,36C 27.1966,35.6155 28.8632,35.7822 30.5,36.5 Z"/></g>
<g><path style="opacity:1" fill="#8d9ced" d="M 37.5,37.5 C 39.288,37.2148 40.9547,37.5481 42.5,38.5C 40.3635,39.7928 38.3635,39.7928 36.5,38.5C 37.1667,38.5 37.5,38.1667 37.5,37.5 Z"/></g>
<g><path style="opacity:1" fill="#b3baef" d="M 26.5,34.5 C 28.3797,34.2291 29.713,34.8958 30.5,36.5C 28.8632,35.7822 27.1966,35.6155 25.5,36C 27.6115,36.8447 29.6115,37.678 31.5,38.5C 34.3307,39.8948 37.9974,40.7281 42.5,41C 35.3237,42.0622 28.657,40.8955 22.5,37.5C 23.2623,35.7376 24.5956,34.7376 26.5,34.5 Z"/></g>
<g><path style="opacity:1" fill="#f77263" d="M 34.5,44.5 C 37.1656,44.933 39.8323,45.433 42.5,46C 38.6425,46.8099 34.9758,46.6433 31.5,45.5C 32.791,45.7373 33.791,45.404 34.5,44.5 Z"/></g>
</svg>
