<?xml version="1.0" encoding="UTF-8"?>
<!DOCTYPE svg PUBLIC "-//W3C//DTD SVG 1.1//EN" "http://www.w3.org/Graphics/SVG/1.1/DTD/svg11.dtd">
<svg xmlns="http://www.w3.org/2000/svg" version="1.1" width="256px" height="256px" style="shape-rendering:geometricPrecision; text-rendering:geometricPrecision; image-rendering:optimizeQuality; fill-rule:evenodd; clip-rule:evenodd" xmlns:xlink="http://www.w3.org/1999/xlink">
<g><path style="opacity:0.994" fill="#2d374b" d="M 111.5,-0.5 C 122.167,-0.5 132.833,-0.5 143.5,-0.5C 193.489,7.98005 228.323,35.6467 248,82.5C 251.314,92.0953 253.814,101.762 255.5,111.5C 255.5,122.167 255.5,132.833 255.5,143.5C 247.02,193.489 219.353,228.323 172.5,248C 162.905,251.314 153.238,253.814 143.5,255.5C 132.833,255.5 122.167,255.5 111.5,255.5C 61.5108,247.02 26.6775,219.353 7,172.5C 3.68558,162.905 1.18558,153.238 -0.5,143.5C -0.5,132.833 -0.5,122.167 -0.5,111.5C 7.98005,61.5108 35.6467,26.6775 82.5,7C 92.0953,3.68558 101.762,1.18558 111.5,-0.5 Z"/></g>
<g><path style="opacity:1" fill="#94bcda" d="M 90.5,202.5 C 92.1101,198.9 94.1101,195.566 96.5,192.5C 104.635,196.735 112.635,201.235 120.5,206C 123.881,208.245 127.548,208.912 131.5,208C 139.23,203.474 146.896,198.974 154.5,194.5C 162.836,190.335 170.836,185.668 178.5,180.5C 181.331,179.921 183.664,178.588 185.5,176.5C 191.021,174.155 196.188,171.155 201,167.5C 201.499,162.845 201.666,158.179 201.5,153.5C 201.831,130.994 201.497,108.66 200.5,86.5C 177.72,72.2691 154.387,58.7691 130.5,46C 128.5,45.3333 126.5,45.3333 124.5,46C 101.087,59.1214 77.9207,72.6214 55,86.5C 54.1707,107.337 54.3374,128.004 55.5,148.5C 51.1546,154.538 46.8212,160.538 42.5,166.5C 42.3334,138.831 42.5,111.165 43,83.5C 45.5,78.3333 49.3333,74.5 54.5,72C 75.423,60.7337 96.0896,49.067 116.5,37C 122.191,33.3717 128.191,32.7051 134.5,35C 158.005,48.5866 181.671,61.9199 205.5,75C 208.433,77.2643 210.6,80.0976 212,83.5C 212.667,112.833 212.667,142.167 212,171.5C 210.6,174.902 208.433,177.736 205.5,180C 180.802,193.681 156.135,207.348 131.5,221C 128.5,221.667 125.5,221.667 122.5,221C 111.607,215.059 100.94,208.892 90.5,202.5 Z"/></g>
<g><path style="opacity:1" fill="#2e384c" d="M 200.5,86.5 C 200.831,108.34 200.497,130.006 199.5,151.5C 187.84,132.852 175.673,114.518 163,96.5C 158.667,103.5 154.333,110.5 150,117.5C 149.48,119.289 149.813,120.956 151,122.5C 162.76,140.359 174.26,158.359 185.5,176.5C 183.664,178.588 181.331,179.921 178.5,180.5C 167.677,163.528 156.844,146.528 146,129.5C 145.282,128.549 144.449,128.383 143.5,129C 138.493,137.35 133.493,145.683 128.5,154C 137.046,167.597 145.713,181.097 154.5,194.5C 146.896,198.974 139.23,203.474 131.5,208C 127.548,208.912 123.881,208.245 120.5,206C 112.635,201.235 104.635,196.735 96.5,192.5C 116.915,158.001 137.582,123.667 158.5,89.5C 159.043,89.44 159.376,89.1067 159.5,88.5C 150.008,87.1778 140.675,87.1778 131.5,88.5C 112.736,119.038 93.7362,149.371 74.5,179.5C 71.6061,178.744 69.6061,177.077 68.5,174.5C 86.5,146.167 104.5,117.833 122.5,89.5C 123.043,89.44 123.376,89.1067 123.5,88.5C 117.012,87.1826 110.678,87.1826 104.5,88.5C 98.8801,89.7269 94.0467,92.3936 90,96.5C 78.2415,113.69 66.7415,131.023 55.5,148.5C 54.3374,128.004 54.1707,107.337 55,86.5C 77.9207,72.6214 101.087,59.1214 124.5,46C 126.5,45.3333 128.5,45.3333 130.5,46C 154.387,58.7691 177.72,72.2691 200.5,86.5 Z"/></g>
<g><path style="opacity:1" fill="#bec1c7" d="M 104.5,88.5 C 110.678,87.1826 117.012,87.1826 123.5,88.5C 123.376,89.1067 123.043,89.44 122.5,89.5C 116.69,88.5104 110.69,88.1771 104.5,88.5 Z"/></g>
<g><path style="opacity:1" fill="#c6c9ce" d="M 131.5,88.5 C 140.675,87.1778 150.008,87.1778 159.5,88.5C 159.376,89.1067 159.043,89.44 158.5,89.5C 149.682,88.5067 140.682,88.1734 131.5,88.5 Z"/></g>
<g><path style="opacity:1" fill="#fcfcfc" d="M 104.5,88.5 C 110.69,88.1771 116.69,88.5104 122.5,89.5C 104.5,117.833 86.5,146.167 68.5,174.5C 66.5299,177.328 64.6966,180.328 63,183.5C 62.1841,184.823 61.0174,185.489 59.5,185.5C 54.443,182.887 49.6097,179.887 45,176.5C 42.9937,173.464 42.1604,170.131 42.5,166.5C 46.8212,160.538 51.1546,154.538 55.5,148.5C 66.7415,131.023 78.2415,113.69 90,96.5C 94.0467,92.3936 98.8801,89.7269 104.5,88.5 Z"/></g>
<g><path style="opacity:1" fill="#fcfcfc" d="M 131.5,88.5 C 140.682,88.1734 149.682,88.5067 158.5,89.5C 137.582,123.667 116.915,158.001 96.5,192.5C 94.1101,195.566 92.1101,198.9 90.5,202.5C 82.8736,199.02 75.5403,195.02 68.5,190.5C 70.2336,186.7 72.2336,183.034 74.5,179.5C 93.7362,149.371 112.736,119.038 131.5,88.5 Z"/></g>
<g><path style="opacity:1" fill="#617b94" d="M 200.5,86.5 C 201.497,108.66 201.831,130.994 201.5,153.5C 200.5,153.167 199.833,152.5 199.5,151.5C 200.497,130.006 200.831,108.34 200.5,86.5 Z"/></g>
<g><path style="opacity:1" fill="#299eee" d="M 199.5,151.5 C 199.833,152.5 200.5,153.167 201.5,153.5C 201.666,158.179 201.499,162.845 201,167.5C 196.188,171.155 191.021,174.155 185.5,176.5C 174.26,158.359 162.76,140.359 151,122.5C 149.813,120.956 149.48,119.289 150,117.5C 154.333,110.5 158.667,103.5 163,96.5C 175.673,114.518 187.84,132.852 199.5,151.5 Z"/></g>
<g><path style="opacity:1" fill="#289eed" d="M 178.5,180.5 C 170.836,185.668 162.836,190.335 154.5,194.5C 145.713,181.097 137.046,167.597 128.5,154C 133.493,145.683 138.493,137.35 143.5,129C 144.449,128.383 145.282,128.549 146,129.5C 156.844,146.528 167.677,163.528 178.5,180.5 Z"/></g>
<g><path style="opacity:1" fill="#96bbd8" d="M 68.5,174.5 C 69.6061,177.077 71.6061,178.744 74.5,179.5C 72.2336,183.034 70.2336,186.7 68.5,190.5C 65.2718,189.057 62.2718,187.39 59.5,185.5C 61.0174,185.489 62.1841,184.823 63,183.5C 64.6966,180.328 66.5299,177.328 68.5,174.5 Z"/></g>
</svg>
