<?xml version="1.0" encoding="UTF-8"?>
<!DOCTYPE svg PUBLIC "-//W3C//DTD SVG 1.1//EN" "http://www.w3.org/Graphics/SVG/1.1/DTD/svg11.dtd">
<svg xmlns="http://www.w3.org/2000/svg" version="1.1" width="64px" height="64px" style="shape-rendering:geometricPrecision; text-rendering:geometricPrecision; image-rendering:optimizeQuality; fill-rule:evenodd; clip-rule:evenodd" xmlns:xlink="http://www.w3.org/1999/xlink">
<g><path style="opacity:0.606" fill="#c4bcb0" d="M 21.5,-0.5 C 28.1667,-0.5 34.8333,-0.5 41.5,-0.5C 51.8333,3.83333 59.1667,11.1667 63.5,21.5C 63.5,28.1667 63.5,34.8333 63.5,41.5C 59.1667,51.8333 51.8333,59.1667 41.5,63.5C 34.8333,63.5 28.1667,63.5 21.5,63.5C 11.1667,59.1667 3.83333,51.8333 -0.5,41.5C -0.5,34.8333 -0.5,28.1667 -0.5,21.5C 3.83333,11.1667 11.1667,3.83333 21.5,-0.5 Z"/></g>
<g><path style="opacity:1" fill="#f2ebe1" d="M 22.5,3.5 C 48.8408,1.34146 61.0075,13.3415 59,39.5C 52.3889,56.0594 40.2222,62.5594 22.5,59C 6.67953,51.8604 0.512863,39.6938 4,22.5C 7.68711,13.6475 13.8538,7.31412 22.5,3.5 Z"/></g>
<g><path style="opacity:1" fill="#98948e" d="M 41.5,15.5 C 42.404,16.209 42.7373,17.209 42.5,18.5C 44.7354,18.2053 46.7354,18.5386 48.5,19.5C 46.1667,19.5 43.8333,19.5 41.5,19.5C 41.5,18.1667 41.5,16.8333 41.5,15.5 Z"/></g>
<g><path style="opacity:1" fill="#0d0d0c" d="M 29.5,15.5 C 29.5,16.8333 29.5,18.1667 29.5,19.5C 31.1667,19.5 32.8333,19.5 34.5,19.5C 34.5,18.1667 34.5,16.8333 34.5,15.5C 35.1342,14.0532 36.3009,13.3866 38,13.5C 39.6991,13.3866 40.8658,14.0532 41.5,15.5C 41.5,16.8333 41.5,18.1667 41.5,19.5C 43.8333,19.5 46.1667,19.5 48.5,19.5C 49.5966,23.6683 48.0966,27.0016 44,29.5C 46.6467,45.5209 40.1467,52.0209 24.5,49C 23.3333,47.8333 22.1667,46.6667 21,45.5C 19.7677,40.2793 19.1011,34.9459 19,29.5C 15.3228,27.1431 13.4894,23.8098 13.5,19.5C 16.1667,19.5 18.8333,19.5 21.5,19.5C 21.329,14.5057 23.6624,12.6724 28.5,14C 29.056,14.3826 29.3893,14.8826 29.5,15.5 Z"/></g>
<g><path style="opacity:1" fill="#b9b4ac" d="M 35.5,31.5 C 36.8333,31.5 38.1667,31.5 39.5,31.5C 39.5,32.5 39.5,33.5 39.5,34.5C 38.1667,34.5 36.8333,34.5 35.5,34.5C 35.5,33.5 35.5,32.5 35.5,31.5 Z"/></g>
<g><path style="opacity:1" fill="#e7e1d7" d="M 20.5,23.5 C 22.8333,23.5 25.1667,23.5 27.5,23.5C 27.2627,24.791 27.596,25.791 28.5,26.5C 29.4424,33.0828 33.109,37.0828 39.5,38.5C 40.0414,41.6516 39.0414,44.1516 36.5,46C 33.1667,46.6667 29.8333,46.6667 26.5,46C 25.6667,45.1667 24.8333,44.3333 24,43.5C 23.6667,38.5 23.3333,33.5 23,28.5C 21.117,27.3474 20.2837,25.6807 20.5,23.5 Z"/></g>
<g><path style="opacity:1" fill="#201f1e" d="M 25.5,31.5 C 26.5,31.5 27.5,31.5 28.5,31.5C 28.5,32.5 28.5,33.5 28.5,34.5C 27.5,34.5 26.5,34.5 25.5,34.5C 25.5,33.5 25.5,32.5 25.5,31.5 Z"/></g>
<g><path style="opacity:1" fill="#73706b" d="M 20.5,23.5 C 22.9479,22.5269 25.6146,22.1936 28.5,22.5C 28.5,23.8333 28.5,25.1667 28.5,26.5C 27.596,25.791 27.2627,24.791 27.5,23.5C 25.1667,23.5 22.8333,23.5 20.5,23.5 Z"/></g>
<g><path style="opacity:1" fill="#9d9992" d="M 29.5,15.5 C 30.404,16.209 30.7373,17.209 30.5,18.5C 31.5,18.5 32.5,18.5 33.5,18.5C 33.2627,17.209 33.596,16.209 34.5,15.5C 34.5,16.8333 34.5,18.1667 34.5,19.5C 32.8333,19.5 31.1667,19.5 29.5,19.5C 29.5,18.1667 29.5,16.8333 29.5,15.5 Z"/></g>
</svg>
