<?xml version="1.0" encoding="UTF-8"?>
<!DOCTYPE svg PUBLIC "-//W3C//DTD SVG 1.1//EN" "http://www.w3.org/Graphics/SVG/1.1/DTD/svg11.dtd">
<svg xmlns="http://www.w3.org/2000/svg" version="1.1" width="96px" height="96px" style="shape-rendering:geometricPrecision; text-rendering:geometricPrecision; image-rendering:optimizeQuality; fill-rule:evenodd; clip-rule:evenodd" xmlns:xlink="http://www.w3.org/1999/xlink">
<g><path style="opacity:0.986" fill="#0c0f10" d="M 37.5,-0.5 C 44.1667,-0.5 50.8333,-0.5 57.5,-0.5C 77.193,5.193 89.8597,17.8597 95.5,37.5C 95.5,44.1667 95.5,50.8333 95.5,57.5C 89.807,77.193 77.1403,89.8597 57.5,95.5C 50.8333,95.5 44.1667,95.5 37.5,95.5C 17.807,89.807 5.14032,77.1403 -0.5,57.5C -0.5,50.8333 -0.5,44.1667 -0.5,37.5C 5.193,17.807 17.8597,5.14032 37.5,-0.5 Z"/></g>
<g><path style="opacity:1" fill="#eab50b" d="M 46.5,15.5 C 49.8991,17.3883 52.8991,19.8883 55.5,23C 48.6667,29.8333 41.8333,36.6667 35,43.5C 32.3167,40.9841 29.8167,38.3174 27.5,35.5C 33.8549,28.8129 40.1882,22.1462 46.5,15.5 Z"/></g>
<g><path style="opacity:1" fill="#e5b10b" d="M 58.5,27.5 C 61.7311,29.2199 64.5644,31.5532 67,34.5C 67.6667,35.1667 67.6667,35.8333 67,36.5C 56.8333,46.6667 46.6667,56.8333 36.5,67C 33.224,65.7635 30.3906,63.5968 28,60.5C 27.3333,59.8333 27.3333,59.1667 28,58.5C 38.3688,48.2984 48.5355,37.9651 58.5,27.5 Z"/></g>
<g><path style="opacity:1" fill="#ecb60b" d="M 22.5,39.5 C 25.4789,41.8123 28.1456,44.4789 30.5,47.5C 28.1833,50.3174 25.6833,52.9841 23,55.5C 20.3167,52.9841 17.8167,50.3174 15.5,47.5C 17.8558,44.8136 20.1891,42.147 22.5,39.5 Z"/></g>
<g><path style="opacity:1" fill="#ecb60b" d="M 71.5,39.5 C 75.0454,41.8565 77.5454,44.8565 79,48.5C 68.8333,58.6667 58.6667,68.8333 48.5,79C 45.0548,77.5926 42.0548,75.2593 39.5,72C 50.3688,61.2984 61.0354,50.4651 71.5,39.5 Z"/></g>
</svg>
