<?xml version="1.0" encoding="UTF-8"?>
<!DOCTYPE svg PUBLIC "-//W3C//DTD SVG 1.1//EN" "http://www.w3.org/Graphics/SVG/1.1/DTD/svg11.dtd">
<svg xmlns="http://www.w3.org/2000/svg" version="1.1" width="246px" height="244px" style="shape-rendering:geometricPrecision; text-rendering:geometricPrecision; image-rendering:optimizeQuality; fill-rule:evenodd; clip-rule:evenodd" xmlns:xlink="http://www.w3.org/1999/xlink">
<g><path style="opacity:1" fill="#30ae5a" d="M 105.5,1.5 C 153.645,-2.92047 192.645,13.7462 222.5,51.5C 223.5,51.8333 224.167,52.5 224.5,53.5C 223.761,53.369 223.094,53.5357 222.5,54C 228.526,63.5593 233.86,73.3926 238.5,83.5C 239.167,83.5 239.5,83.8333 239.5,84.5C 238.522,84.811 237.855,85.4777 237.5,86.5C 241.548,98.1274 243.215,110.127 242.5,122.5C 241.167,122.5 239.833,122.5 238.5,122.5C 238.5,120.5 238.5,118.5 238.5,116.5C 238.259,103.294 235.592,90.6274 230.5,78.5C 226.093,68.0081 220.426,58.3415 213.5,49.5C 208.374,42.54 202.374,36.3733 195.5,31C 192.765,30.9526 190.599,32.1193 189,34.5C 188.329,33.7476 187.496,33.4142 186.5,33.5C 183.366,32.0991 180.366,30.4325 177.5,28.5C 158.408,17.3655 137.741,12.3655 115.5,13.5C 116.975,11.5905 118.975,10.4238 121.5,10C 126.761,8.61452 132.094,7.61452 137.5,7C 134.7,5.76814 131.7,5.10147 128.5,5C 123.845,4.50085 119.179,4.33418 114.5,4.5C 111.848,2.71077 108.848,1.71077 105.5,1.5 Z"/></g>
<g><path style="opacity:0.149" fill="#72dd6c" d="M 103.5,-0.5 C 115.833,-0.5 128.167,-0.5 140.5,-0.5C 169.291,4.81471 193.791,18.148 214,39.5C 217.098,43.3828 219.932,47.3828 222.5,51.5C 192.645,13.7462 153.645,-2.92047 105.5,1.5C 90.4251,3.1916 76.4251,7.85826 63.5,15.5C 47.9276,23.4539 34.9276,34.4539 24.5,48.5C 24.1667,48.5 23.8333,48.5 23.5,48.5C 33.071,34.7637 45.071,23.597 59.5,15C 73.4507,7.51808 88.1173,2.35141 103.5,-0.5 Z"/></g>
<g><path style="opacity:1" fill="#2ba866" d="M 105.5,1.5 C 108.848,1.71077 111.848,2.71077 114.5,4.5C 97.5911,6.13725 81.5911,10.8039 66.5,18.5C 65.5,17.5 64.5,16.5 63.5,15.5C 76.4251,7.85826 90.4251,3.1916 105.5,1.5 Z"/></g>
<g><path style="opacity:1" fill="#2e3754" d="M 193.5,50.5 C 190.755,50.6625 188.755,49.1625 187.5,46C 179.597,40.7955 171.43,35.9621 163,31.5C 161.989,31.8919 161.489,32.5585 161.5,33.5C 147.509,27.0489 132.842,24.5489 117.5,26C 120.84,26.4534 124.174,26.9534 127.5,27.5C 135.109,29.6053 142.442,32.4386 149.5,36C 149.167,36.3333 148.833,36.6667 148.5,37C 150.324,37.66 151.657,38.8267 152.5,40.5C 144.766,37.5895 136.766,35.9229 128.5,35.5C 121.646,35.176 114.979,35.5093 108.5,36.5C 103.808,36.4249 99.4742,37.4249 95.5,39.5C 88.4605,41.1882 82.1271,44.1882 76.5,48.5C 70.8983,51.7705 65.8983,55.7705 61.5,60.5C 58.1195,62.8797 55.4528,65.8797 53.5,69.5C 49.3774,74.6411 46.0441,80.3078 43.5,86.5C 39.1543,94.8793 36.8209,103.879 36.5,113.5C 36.3337,120.175 36.5004,126.842 37,133.5C 37.5898,139.206 39.0898,144.54 41.5,149.5C 45.0109,160.19 50.3443,169.857 57.5,178.5C 54.1729,179.929 51.6729,178.929 50,175.5C 49.6667,175.833 49.3333,176.167 49,176.5C 45.3253,171.854 41.6586,167.854 38,164.5C 35.8804,159.758 33.3804,155.258 30.5,151C 30.1119,149.475 30.1119,147.808 30.5,146C 29.1509,145.228 28.3176,144.061 28,142.5C 27.3333,145.833 27.3333,149.167 28,152.5C 31.2173,162.654 34.7173,172.654 38.5,182.5C 30.3755,171.584 24.3755,159.584 20.5,146.5C 19.9418,141.484 19.2751,136.484 18.5,131.5C 18.3341,126.489 18.5007,121.489 19,116.5C 19.2326,114.108 20.0659,111.608 21.5,109C 21.5894,107.284 21.2561,105.451 20.5,103.5C 20.9702,101.226 21.9702,99.2262 23.5,97.5C 23.2907,96.914 22.9574,96.414 22.5,96C 24.7764,94.9698 25.4431,93.4698 24.5,91.5C 26.2577,89.3493 27.9243,87.1826 29.5,85C 29.1667,84.6667 28.8333,84.3333 28.5,84C 29.8095,81.3842 31.4762,79.0509 33.5,77C 33.1667,76.6667 32.8333,76.3333 32.5,76C 34.0366,73.2538 36.0366,70.9205 38.5,69C 37.7203,67.927 37.887,66.7604 39,65.5C 40.4911,62.6697 42.9911,60.1697 46.5,58C 46.1667,57.6667 45.8333,57.3333 45.5,57C 46.448,56.5172 47.448,56.3505 48.5,56.5C 50.2054,53.4579 52.2054,50.4579 54.5,47.5C 55.5904,46.273 56.9238,45.4396 58.5,45C 57.5494,44.2825 57.3828,43.4491 58,42.5C 59.7687,40.0551 61.602,37.7218 63.5,35.5C 71.1176,29.2803 79.7843,24.947 89.5,22.5C 103.261,20.451 117.094,19.1177 131,18.5C 136.58,19.291 142.08,20.4577 147.5,22C 163.456,28.9733 178.456,37.4733 192.5,47.5C 193.386,48.325 193.719,49.325 193.5,50.5 Z"/></g>
<g><path style="opacity:1" fill="#226d44" d="M 114.5,13.5 C 114.833,13.5 115.167,13.5 115.5,13.5C 137.741,12.3655 158.408,17.3655 177.5,28.5C 177.539,29.5832 177.873,30.5832 178.5,31.5C 183.611,35.0444 188.277,39.0444 192.5,43.5C 169.434,24.2568 142.767,15.5902 112.5,17.5C 115.305,16.6805 118.305,16.1805 121.5,16C 117.833,15.6667 114.167,15.3333 110.5,15C 112.058,14.79 113.391,14.29 114.5,13.5 Z"/></g>
<g><path style="opacity:1" fill="#2d345a" d="M 193.5,50.5 C 196.49,53.9905 199.657,57.3239 203,60.5C 205.409,64.569 207.909,68.569 210.5,72.5C 211.961,75.3939 212.794,78.3939 213,81.5C 211.098,77.2608 208.765,73.2608 206,69.5C 205.536,70.0944 205.369,70.7611 205.5,71.5C 199.922,63.4181 193.422,56.0847 186,49.5C 189.255,55.3087 192.422,61.3087 195.5,67.5C 195.291,68.086 194.957,68.586 194.5,69C 195.554,71.3822 196.221,73.8822 196.5,76.5C 189.024,64.1917 179.024,54.3584 166.5,47C 163.029,44.9281 159.362,43.4281 155.5,42.5C 154.71,41.5987 153.71,40.9321 152.5,40.5C 151.657,38.8267 150.324,37.66 148.5,37C 148.833,36.6667 149.167,36.3333 149.5,36C 142.442,32.4386 135.109,29.6053 127.5,27.5C 124.174,26.9534 120.84,26.4534 117.5,26C 132.842,24.5489 147.509,27.0489 161.5,33.5C 161.489,32.5585 161.989,31.8919 163,31.5C 171.43,35.9621 179.597,40.7955 187.5,46C 188.755,49.1625 190.755,50.6625 193.5,50.5 Z"/></g>
<g><path style="opacity:1" fill="#2f853a" d="M 114.5,13.5 C 113.391,14.29 112.058,14.79 110.5,15C 114.167,15.3333 117.833,15.6667 121.5,16C 118.305,16.1805 115.305,16.6805 112.5,17.5C 104.42,17.7808 96.7532,19.4475 89.5,22.5C 79.7843,24.947 71.1176,29.2803 63.5,35.5C 61.9382,35.7329 60.6049,36.3995 59.5,37.5C 59.1961,36.8501 58.8627,36.1835 58.5,35.5C 60.9448,33.5917 63.6115,32.0917 66.5,31C 65.5842,30.7216 64.9175,30.2216 64.5,29.5C 79.6362,19.5664 96.3029,14.233 114.5,13.5 Z"/></g>
<g><path style="opacity:1" fill="#29a26b" d="M 63.5,15.5 C 64.5,16.5 65.5,17.5 66.5,18.5C 46.8547,29.8124 31.188,45.1457 19.5,64.5C 18.4863,63.3263 17.153,62.6596 15.5,62.5C 18.5,57.8333 21.5,53.1667 24.5,48.5C 34.9276,34.4539 47.9276,23.4539 63.5,15.5 Z"/></g>
<g><path style="opacity:1" fill="#2fa13a" d="M 114.5,4.5 C 119.179,4.33418 123.845,4.50085 128.5,5C 131.7,5.10147 134.7,5.76814 137.5,7C 132.094,7.61452 126.761,8.61452 121.5,10C 118.975,10.4238 116.975,11.5905 115.5,13.5C 115.167,13.5 114.833,13.5 114.5,13.5C 96.3029,14.233 79.6362,19.5664 64.5,29.5C 48.0872,39.2468 35.4205,52.5802 26.5,69.5C 21.9514,78.247 18.2847,87.247 15.5,96.5C 14.065,98.5976 12.8984,100.931 12,103.5C 9.99182,111.476 7.82515,119.142 5.5,126.5C 4.69157,104.535 9.35824,83.868 19.5,64.5C 31.188,45.1457 46.8547,29.8124 66.5,18.5C 81.5911,10.8039 97.5911,6.13725 114.5,4.5 Z"/></g>
<g><path style="opacity:1" fill="#0ebfa2" d="M 108.5,36.5 C 114.979,35.5093 121.646,35.176 128.5,35.5C 128.507,40.1825 130.174,44.1825 133.5,47.5C 130.956,48.9374 130.956,50.4374 133.5,52C 132.207,52.49 130.873,52.6567 129.5,52.5C 126.5,52.5 123.5,52.5 120.5,52.5C 120.804,51.8501 121.137,51.1835 121.5,50.5C 119.031,46.1993 116.364,42.0326 113.5,38C 113.833,37.6667 114.167,37.3333 114.5,37C 112.527,36.5045 110.527,36.3379 108.5,36.5 Z"/></g>
<g><path style="opacity:1" fill="#16bc93" d="M 108.5,36.5 C 110.527,36.3379 112.527,36.5045 114.5,37C 114.167,37.3333 113.833,37.6667 113.5,38C 116.364,42.0326 119.031,46.1993 121.5,50.5C 121.137,51.1835 120.804,51.8501 120.5,52.5C 116.785,52.423 113.119,52.7564 109.5,53.5C 105.753,49.0159 102.753,44.0159 100.5,38.5C 98.9291,39.3094 97.2624,39.6427 95.5,39.5C 99.4742,37.4249 103.808,36.4249 108.5,36.5 Z"/></g>
<g><path style="opacity:1" fill="#1e2741" d="M 112.5,17.5 C 142.767,15.5902 169.434,24.2568 192.5,43.5C 195.529,46.859 198.529,50.1924 201.5,53.5C 209.279,62.7139 215.279,73.0473 219.5,84.5C 215.927,82.6669 214.093,79.6669 214,75.5C 212.961,74.2899 211.794,73.2899 210.5,72.5C 207.909,68.569 205.409,64.569 203,60.5C 199.657,57.3239 196.49,53.9905 193.5,50.5C 193.719,49.325 193.386,48.325 192.5,47.5C 178.456,37.4733 163.456,28.9733 147.5,22C 142.08,20.4577 136.58,19.291 131,18.5C 117.094,19.1177 103.261,20.451 89.5,22.5C 96.7532,19.4475 104.42,17.7808 112.5,17.5 Z"/></g>
<g><path style="opacity:1" fill="#2bae70" d="M 213.5,49.5 C 211.348,50.0768 211.015,51.2435 212.5,53C 211.901,54.6225 211.234,56.1225 210.5,57.5C 207.864,54.6902 205.364,51.6902 203,48.5C 197.305,43.6342 191.805,38.6342 186.5,33.5C 187.496,33.4142 188.329,33.7476 189,34.5C 190.599,32.1193 192.765,30.9526 195.5,31C 202.374,36.3733 208.374,42.54 213.5,49.5 Z"/></g>
<g><path style="opacity:1" fill="#1ebc85" d="M 109.5,53.5 C 103.897,54.3681 98.5636,56.0347 93.5,58.5C 90.0722,54.5689 87.2388,50.2356 85,45.5C 83.3761,47.1581 81.7094,48.8248 80,50.5C 79.1841,49.1772 78.0174,48.5106 76.5,48.5C 82.1271,44.1882 88.4605,41.1882 95.5,39.5C 97.2624,39.6427 98.9291,39.3094 100.5,38.5C 102.753,44.0159 105.753,49.0159 109.5,53.5 Z"/></g>
<g><path style="opacity:1" fill="#2f3e51" d="M 63.5,35.5 C 61.602,37.7218 59.7687,40.0551 58,42.5C 57.3828,43.4491 57.5494,44.2825 58.5,45C 56.9238,45.4396 55.5904,46.273 54.5,47.5C 52.2054,50.4579 50.2054,53.4579 48.5,56.5C 47.448,56.3505 46.448,56.5172 45.5,57C 45.8333,57.3333 46.1667,57.6667 46.5,58C 42.9911,60.1697 40.4911,62.6697 39,65.5C 37.887,66.7604 37.7203,67.927 38.5,69C 36.0366,70.9205 34.0366,73.2538 32.5,76C 32.8333,76.3333 33.1667,76.6667 33.5,77C 31.4762,79.0509 29.8095,81.3842 28.5,84C 28.8333,84.3333 29.1667,84.6667 29.5,85C 27.9243,87.1826 26.2577,89.3493 24.5,91.5C 25.4431,93.4698 24.7764,94.9698 22.5,96C 22.9574,96.414 23.2907,96.914 23.5,97.5C 21.9702,99.2262 20.9702,101.226 20.5,103.5C 21.2561,105.451 21.5894,107.284 21.5,109C 20.0659,111.608 19.2326,114.108 19,116.5C 18.5007,121.489 18.3341,126.489 18.5,131.5C 17.3443,124.011 17.1777,116.345 18,108.5C 19.3243,100.366 21.1576,92.3657 23.5,84.5C 31.392,65.73 43.392,50.0634 59.5,37.5C 60.6049,36.3995 61.9382,35.7329 63.5,35.5 Z"/></g>
<g><path style="opacity:1" fill="#08bfb3" d="M 128.5,35.5 C 136.766,35.9229 144.766,37.5895 152.5,40.5C 153.71,40.9321 154.71,41.5987 155.5,42.5C 165.837,62.0328 181.17,77.0328 201.5,87.5C 205.366,94.9478 207.699,102.948 208.5,111.5C 207.5,111.5 206.5,111.5 205.5,111.5C 206.234,110.292 206.567,108.959 206.5,107.5C 200.147,105.823 194.481,102.823 189.5,98.5C 188.614,99.325 188.281,100.325 188.5,101.5C 184.167,101.5 179.833,101.5 175.5,101.5C 179.298,100.517 183.298,100.183 187.5,100.5C 181.902,81.234 169.902,67.5673 151.5,59.5C 144.53,55.954 137.196,53.6206 129.5,52.5C 130.873,52.6567 132.207,52.49 133.5,52C 130.956,50.4374 130.956,48.9374 133.5,47.5C 130.174,44.1825 128.507,40.1825 128.5,35.5 Z"/></g>
<g><path style="opacity:1" fill="#03c0bc" d="M 155.5,42.5 C 159.362,43.4281 163.029,44.9281 166.5,47C 179.024,54.3584 189.024,64.1917 196.5,76.5C 198.438,80.0432 200.105,83.7099 201.5,87.5C 181.17,77.0328 165.837,62.0328 155.5,42.5 Z"/></g>
<g><path style="opacity:1" fill="#333b5e" d="M 120.5,52.5 C 123.5,52.5 126.5,52.5 129.5,52.5C 137.196,53.6206 144.53,55.954 151.5,59.5C 149.058,59.1192 148.391,59.7859 149.5,61.5C 148.471,61.2964 147.471,61.7964 146.5,63C 147.34,64.6665 146.84,64.8331 145,63.5C 144.888,66.4471 143.388,67.7804 140.5,67.5C 140.795,69.7354 140.461,71.7354 139.5,73.5C 139.5,70.5 139.5,67.5 139.5,64.5C 135.66,63.6648 131.994,63.6648 128.5,64.5C 128.5,66.8333 128.5,69.1667 128.5,71.5C 128.5,77.8333 128.5,84.1667 128.5,90.5C 128.5,90.8333 128.5,91.1667 128.5,91.5C 127.511,86.0247 127.178,80.358 127.5,74.5C 126.178,74.67 125.011,74.3366 124,73.5C 121.246,75.0688 118.746,77.4021 116.5,80.5C 116.5,74.8333 116.5,69.1667 116.5,63.5C 112.21,63.1977 108.21,63.8643 104.5,65.5C 104.829,71.5368 104.496,77.5368 103.5,83.5C 96.2525,86.7498 90.5858,91.7498 86.5,98.5C 84.8333,101.167 83.1667,103.833 81.5,106.5C 80.0662,106.404 78.7329,105.404 77.5,103.5C 76.2888,104.274 76.2888,105.107 77.5,106C 76.1667,106.333 74.8333,106.667 73.5,107C 73.6192,108.281 73.1192,109.448 72,110.5C 71.6667,109.833 71.3333,109.167 71,108.5C 69.2091,110.029 67.5424,111.696 66,113.5C 64.6124,112.446 63.1124,112.28 61.5,113C 62.6537,113.914 62.487,114.747 61,115.5C 60.3333,111.5 59.6667,111.5 59,115.5C 58.6667,115.167 58.3333,114.833 58,114.5C 57,117.167 56,117.167 55,114.5C 54.7216,115.416 54.2216,116.082 53.5,116.5C 53.721,109.284 55.0544,102.284 57.5,95.5C 60.5663,89.7043 63.8997,84.0377 67.5,78.5C 68.5,78.1667 69.1667,77.5 69.5,76.5C 76.4267,69.0401 84.4267,63.0401 93.5,58.5C 98.5636,56.0347 103.897,54.3681 109.5,53.5C 113.119,52.7564 116.785,52.423 120.5,52.5 Z"/></g>
<g><path style="opacity:1" fill="#389d42" d="M 64.5,29.5 C 64.9175,30.2216 65.5842,30.7216 66.5,31C 63.6115,32.0917 60.9448,33.5917 58.5,35.5C 58.8627,36.1835 59.1961,36.8501 59.5,37.5C 43.392,50.0634 31.392,65.73 23.5,84.5C 24.0212,79.451 25.6878,74.7844 28.5,70.5C 28.0431,69.7025 27.3764,69.3691 26.5,69.5C 35.4205,52.5802 48.0872,39.2468 64.5,29.5 Z"/></g>
<g><path style="opacity:1" fill="#298864" d="M 177.5,28.5 C 180.366,30.4325 183.366,32.0991 186.5,33.5C 191.805,38.6342 197.305,43.6342 203,48.5C 205.364,51.6902 207.864,54.6902 210.5,57.5C 217.429,68.0265 222.762,79.3598 226.5,91.5C 228.351,96.5934 229.351,101.927 229.5,107.5C 228.883,112.269 228.216,116.936 227.5,121.5C 227.701,112.003 226.535,102.67 224,93.5C 223.623,92.0577 222.79,91.0577 221.5,90.5C 220.962,88.8828 220.629,87.2161 220.5,85.5C 217.205,74.577 212.038,64.577 205,55.5C 204.184,54.1772 203.017,53.5106 201.5,53.5C 198.529,50.1924 195.529,46.859 192.5,43.5C 188.277,39.0444 183.611,35.0444 178.5,31.5C 177.873,30.5832 177.539,29.5832 177.5,28.5 Z"/></g>
<g><path style="opacity:1" fill="#2db869" d="M 93.5,58.5 C 84.4267,63.0401 76.4267,69.0401 69.5,76.5C 69.0136,73.2447 70.0136,70.578 72.5,68.5C 69.3771,65.0376 65.7104,62.371 61.5,60.5C 65.8983,55.7705 70.8983,51.7705 76.5,48.5C 78.0174,48.5106 79.1841,49.1772 80,50.5C 81.7094,48.8248 83.3761,47.1581 85,45.5C 87.2388,50.2356 90.0722,54.5689 93.5,58.5 Z"/></g>
<g><path style="opacity:1" fill="#2e3561" d="M 151.5,59.5 C 169.902,67.5673 181.902,81.234 187.5,100.5C 183.298,100.183 179.298,100.517 175.5,101.5C 170.156,101.666 164.823,101.499 159.5,101C 154.57,92.9012 147.903,86.7345 139.5,82.5C 139.5,79.5 139.5,76.5 139.5,73.5C 140.461,71.7354 140.795,69.7354 140.5,67.5C 143.388,67.7804 144.888,66.4471 145,63.5C 146.84,64.8331 147.34,64.6665 146.5,63C 147.471,61.7964 148.471,61.2964 149.5,61.5C 148.391,59.7859 149.058,59.1192 151.5,59.5 Z"/></g>
<g><path style="opacity:1" fill="#35b859" d="M 61.5,60.5 C 65.7104,62.371 69.3771,65.0376 72.5,68.5C 70.0136,70.578 69.0136,73.2447 69.5,76.5C 69.1667,77.5 68.5,78.1667 67.5,78.5C 67.5858,77.5041 67.2524,76.6708 66.5,76C 62.6912,72.7623 58.3579,70.5956 53.5,69.5C 55.4528,65.8797 58.1195,62.8797 61.5,60.5 Z"/></g>
<g><path style="opacity:1" fill="#13674b" d="M 201.5,53.5 C 203.017,53.5106 204.184,54.1772 205,55.5C 212.038,64.577 217.205,74.577 220.5,85.5C 219.833,85.5 219.5,85.1667 219.5,84.5C 215.279,73.0473 209.279,62.7139 201.5,53.5 Z"/></g>
<g><path style="opacity:1" fill="#28ae7c" d="M 213.5,49.5 C 220.426,58.3415 226.093,68.0081 230.5,78.5C 229.307,78.9704 228.64,79.9704 228.5,81.5C 227.658,83.7653 227.658,85.932 228.5,88C 227.915,89.3024 227.249,90.469 226.5,91.5C 222.762,79.3598 217.429,68.0265 210.5,57.5C 211.234,56.1225 211.901,54.6225 212.5,53C 211.015,51.2435 211.348,50.0768 213.5,49.5 Z"/></g>
<g><path style="opacity:0.851" fill="#73dd68" d="M 224.5,53.5 C 230.777,62.7221 235.444,72.7221 238.5,83.5C 233.86,73.3926 228.526,63.5593 222.5,54C 223.094,53.5357 223.761,53.369 224.5,53.5 Z"/></g>
<g><path style="opacity:1" fill="#2a305e" d="M 205.5,71.5 C 206.462,74.7568 207.962,77.7568 210,80.5C 210.761,83.0529 211.594,85.5529 212.5,88C 212.167,88.3333 211.833,88.6667 211.5,89C 212.416,89.2784 213.082,89.7784 213.5,90.5C 213.062,90.4346 212.728,90.6012 212.5,91C 213.167,93.6667 213.833,96.3333 214.5,99C 213.696,102.461 213.696,106.461 214.5,111C 214.01,114.938 212.344,118.605 209.5,122C 210.167,122.667 210.833,123.333 211.5,124C 210.151,124.772 209.318,125.939 209,127.5C 208.667,126.833 208.333,126.167 208,125.5C 207.51,126.793 207.343,128.127 207.5,129.5C 205.302,129.12 203.635,129.787 202.5,131.5C 185.666,130.678 168.999,130.678 152.5,131.5C 151.029,134.552 149.362,137.552 147.5,140.5C 142.819,146.603 136.652,150.603 129,152.5C 128.502,155.817 128.335,159.15 128.5,162.5C 128.5,168.167 128.5,173.833 128.5,179.5C 130.5,179.167 132.5,178.833 134.5,178.5C 136.042,177.699 137.708,177.366 139.5,177.5C 139.607,179.379 139.107,179.712 138,178.5C 136.667,180.5 135,182.167 133,183.5C 132.667,182.833 132.333,182.167 132,181.5C 131.89,184.646 130.557,185.646 128,184.5C 127.5,185 127,185.5 126.5,186C 127.705,187.376 129.038,188.542 130.5,189.5C 127.038,190.482 123.371,190.815 119.5,190.5C 102.945,189.545 88.6113,183.545 76.5,172.5C 76.3433,171.127 76.51,169.793 77,168.5C 77.4226,169.956 78.2559,170.456 79.5,170C 79.0426,169.586 78.7093,169.086 78.5,168.5C 79.2739,167.289 80.1072,167.289 81,168.5C 81.49,167.207 81.6567,165.873 81.5,164.5C 83.5273,164.662 85.5273,164.495 87.5,164C 88.8333,163.333 88.8333,162.667 87.5,162C 88.91,161.632 89.91,160.799 90.5,159.5C 92.7427,158.526 95.076,158.192 97.5,158.5C 97.259,161.999 98.0924,162.332 100,159.5C 101.011,160.337 102.178,160.67 103.5,160.5C 104.489,165.975 104.822,171.642 104.5,177.5C 107.127,178.092 109.794,178.425 112.5,178.5C 113.568,179.434 114.901,179.768 116.5,179.5C 116.827,170.318 116.493,161.318 115.5,152.5C 114.833,152.167 114.167,151.833 113.5,151.5C 110.759,151.293 108.426,150.293 106.5,148.5C 107.32,146.86 108.153,145.193 109,143.5C 109.333,143.833 109.667,144.167 110,144.5C 110.374,143.584 110.874,142.75 111.5,142C 113.608,141.64 115.608,140.973 117.5,140C 116.542,138.853 116.875,137.853 118.5,137C 123.01,134.943 126.843,132.109 130,128.5C 130.333,128.833 130.667,129.167 131,129.5C 131.862,127.913 132.529,126.246 133,124.5C 134.686,127.022 136.019,126.689 137,123.5C 137.414,123.957 137.914,124.291 138.5,124.5C 142.512,121.684 146.512,118.184 150.5,114C 157.679,113.829 164.679,113.329 171.5,112.5C 175.5,112.5 179.5,112.5 183.5,112.5C 186.059,112.802 188.393,112.468 190.5,111.5C 195.5,111.5 200.5,111.5 205.5,111.5C 206.5,111.5 207.5,111.5 208.5,111.5C 207.699,102.948 205.366,94.9478 201.5,87.5C 200.105,83.7099 198.438,80.0432 196.5,76.5C 196.221,73.8822 195.554,71.3822 194.5,69C 194.957,68.586 195.291,68.086 195.5,67.5C 192.422,61.3087 189.255,55.3087 186,49.5C 193.422,56.0847 199.922,63.4181 205.5,71.5 Z"/></g>
<g><path style="opacity:0.824" fill="#6dc876" d="M 23.5,48.5 C 23.8333,48.5 24.1667,48.5 24.5,48.5C 21.5,53.1667 18.5,57.8333 15.5,62.5C 8.02551,75.9234 3.35885,90.2567 1.5,105.5C 1.16667,105.5 0.833333,105.5 0.5,105.5C 2.90975,84.2478 10.5764,65.2478 23.5,48.5 Z"/></g>
<g><path style="opacity:1" fill="#1ebd8d" d="M 128.5,64.5 C 131.994,63.6648 135.66,63.6648 139.5,64.5C 139.5,67.5 139.5,70.5 139.5,73.5C 139.5,76.5 139.5,79.5 139.5,82.5C 137.205,76.6783 135.205,70.6783 133.5,64.5C 131.833,64.5 130.167,64.5 128.5,64.5 Z"/></g>
<g><path style="opacity:1" fill="#25af84" d="M 116.5,80.5 C 116.815,84.3714 116.482,88.0381 115.5,91.5C 116.009,85.8807 115.176,80.5473 113,75.5C 110.973,72.7789 109.473,69.7789 108.5,66.5C 107.311,65.5713 105.978,65.238 104.5,65.5C 108.21,63.8643 112.21,63.1977 116.5,63.5C 116.5,69.1667 116.5,74.8333 116.5,80.5 Z"/></g>
<g><path style="opacity:1" fill="#2f355e" d="M 128.5,91.5 C 129.5,91.5 130.5,91.5 131.5,91.5C 141.569,95.2366 148.236,102.237 151.5,112.5C 155.5,112.5 159.5,112.5 163.5,112.5C 166.167,112.5 168.833,112.5 171.5,112.5C 164.679,113.329 157.679,113.829 150.5,114C 146.512,118.184 142.512,121.684 138.5,124.5C 137.914,124.291 137.414,123.957 137,123.5C 136.019,126.689 134.686,127.022 133,124.5C 132.529,126.246 131.862,127.913 131,129.5C 130.667,129.167 130.333,128.833 130,128.5C 126.843,132.109 123.01,134.943 118.5,137C 116.875,137.853 116.542,138.853 117.5,140C 115.608,140.973 113.608,141.64 111.5,142C 110.874,142.75 110.374,143.584 110,144.5C 109.667,144.167 109.333,143.833 109,143.5C 108.153,145.193 107.32,146.86 106.5,148.5C 94.3459,140.856 89.1792,129.856 91,115.5C 91.8806,112.353 93.0472,109.353 94.5,106.5C 98.6061,99.727 104.273,94.727 111.5,91.5C 112.833,91.5 114.167,91.5 115.5,91.5C 116.482,88.0381 116.815,84.3714 116.5,80.5C 118.746,77.4021 121.246,75.0688 124,73.5C 125.011,74.3366 126.178,74.67 127.5,74.5C 127.178,80.358 127.511,86.0247 128.5,91.5 Z"/></g>
<g><path style="opacity:1" fill="#39c05f" d="M 128.5,64.5 C 130.167,64.5 131.833,64.5 133.5,64.5C 135.205,70.6783 137.205,76.6783 139.5,82.5C 139.5,85.5 139.5,88.5 139.5,91.5C 136.833,91.5 134.167,91.5 131.5,91.5C 130.5,91.5 129.5,91.5 128.5,91.5C 128.5,91.1667 128.5,90.8333 128.5,90.5C 130.833,90.5 133.167,90.5 135.5,90.5C 134.152,83.7892 131.819,77.4558 128.5,71.5C 128.5,69.1667 128.5,66.8333 128.5,64.5 Z"/></g>
<g><path style="opacity:1" fill="#3fb646" d="M 53.5,69.5 C 58.3579,70.5956 62.6912,72.7623 66.5,76C 67.2524,76.6708 67.5858,77.5041 67.5,78.5C 63.8997,84.0377 60.5663,89.7043 57.5,95.5C 57.6495,94.448 57.4828,93.448 57,92.5C 53.497,88.328 48.997,86.328 43.5,86.5C 46.0441,80.3078 49.3774,74.6411 53.5,69.5 Z"/></g>
<g><path style="opacity:1" fill="#50c037" d="M 128.5,71.5 C 131.819,77.4558 134.152,83.7892 135.5,90.5C 133.167,90.5 130.833,90.5 128.5,90.5C 128.5,84.1667 128.5,77.8333 128.5,71.5 Z"/></g>
<g><path style="opacity:1" fill="#36bb5f" d="M 104.5,65.5 C 105.978,65.238 107.311,65.5713 108.5,66.5C 109.473,69.7789 110.973,72.7789 113,75.5C 115.176,80.5473 116.009,85.8807 115.5,91.5C 114.167,91.5 112.833,91.5 111.5,91.5C 104.273,94.727 98.6061,99.727 94.5,106.5C 92.8333,102.833 90.1667,100.167 86.5,98.5C 90.5858,91.7498 96.2525,86.7498 103.5,83.5C 104.496,77.5368 104.829,71.5368 104.5,65.5 Z"/></g>
<g><path style="opacity:1" fill="#4ebe38" d="M 111.5,91.5 C 109.5,91.5 107.5,91.5 105.5,91.5C 105.334,85.4908 105.501,79.4908 106,73.5C 108.656,79.3035 111.49,84.9702 114.5,90.5C 113.209,90.2627 112.209,90.596 111.5,91.5 Z"/></g>
<g><path style="opacity:1" fill="#4ab433" d="M 43.5,86.5 C 48.997,86.328 53.497,88.328 57,92.5C 57.4828,93.448 57.6495,94.448 57.5,95.5C 55.0544,102.284 53.721,109.284 53.5,116.5C 53.5,119.833 53.5,123.167 53.5,126.5C 52.6753,122.353 52.1753,118.019 52,113.5C 47.7756,110.698 43.2756,108.365 38.5,106.5C 37.8319,108.969 37.1653,111.302 36.5,113.5C 36.8209,103.879 39.1543,94.8793 43.5,86.5 Z"/></g>
<g><path style="opacity:1" fill="#15bf9c" d="M 139.5,82.5 C 147.903,86.7345 154.57,92.9012 159.5,101C 164.823,101.499 170.156,101.666 175.5,101.5C 179.833,101.5 184.167,101.5 188.5,101.5C 188.281,100.325 188.614,99.325 189.5,98.5C 194.481,102.823 200.147,105.823 206.5,107.5C 206.567,108.959 206.234,110.292 205.5,111.5C 200.5,111.5 195.5,111.5 190.5,111.5C 190.5,110.833 190.5,110.167 190.5,109.5C 189.962,107.883 189.629,106.216 189.5,104.5C 182.516,103.725 175.516,103.059 168.5,102.5C 165.833,102.833 163.167,103.167 160.5,103.5C 160.624,104.107 160.957,104.44 161.5,104.5C 161.796,106.403 162.463,108.07 163.5,109.5C 163.5,110.5 163.5,111.5 163.5,112.5C 159.5,112.5 155.5,112.5 151.5,112.5C 148.236,102.237 141.569,95.2366 131.5,91.5C 134.167,91.5 136.833,91.5 139.5,91.5C 139.5,88.5 139.5,85.5 139.5,82.5 Z"/></g>
<g><path style="opacity:1" fill="#22ae8f" d="M 230.5,78.5 C 235.592,90.6274 238.259,103.294 238.5,116.5C 236.44,111.886 235.106,106.886 234.5,101.5C 233.068,105.013 232.235,108.68 232,112.5C 231.617,113.056 231.117,113.389 230.5,113.5C 230.795,111.265 230.461,109.265 229.5,107.5C 229.351,101.927 228.351,96.5934 226.5,91.5C 227.249,90.469 227.915,89.3024 228.5,88C 227.658,85.932 227.658,83.7653 228.5,81.5C 228.64,79.9704 229.307,78.9704 230.5,78.5 Z"/></g>
<g><path style="opacity:1" fill="#24295c" d="M 213.5,90.5 C 218.394,103.88 220.894,117.546 221,131.5C 221.333,126.5 221.667,121.5 222,116.5C 223.131,131.451 221.631,146.118 217.5,160.5C 211.255,175.411 202.255,188.411 190.5,199.5C 178.8,208.851 165.8,215.851 151.5,220.5C 135.312,224.766 118.979,225.433 102.5,222.5C 100.901,222.768 99.5676,222.434 98.5,221.5C 98.0825,220.778 97.4158,220.278 96.5,220C 96.8333,219.667 97.1667,219.333 97.5,219C 96.2624,219.077 95.2624,218.911 94.5,218.5C 95.5217,217.646 96.3551,216.646 97,215.5C 97.5613,216.022 98.228,216.355 99,216.5C 102.113,214.338 105.28,212.171 108.5,210C 107.137,207.871 107.471,207.371 109.5,208.5C 116.63,207.866 123.63,207.199 130.5,206.5C 141.45,205.514 151.784,202.514 161.5,197.5C 168.188,194.492 174.188,190.492 179.5,185.5C 183.212,182.789 186.212,179.456 188.5,175.5C 193.071,171.369 196.404,166.369 198.5,160.5C 200.008,158.819 201.008,156.819 201.5,154.5C 204.888,147.283 206.888,139.616 207.5,131.5C 205.833,131.5 204.167,131.5 202.5,131.5C 203.635,129.787 205.302,129.12 207.5,129.5C 207.343,128.127 207.51,126.793 208,125.5C 208.333,126.167 208.667,126.833 209,127.5C 209.318,125.939 210.151,124.772 211.5,124C 210.833,123.333 210.167,122.667 209.5,122C 212.344,118.605 214.01,114.938 214.5,111C 213.696,106.461 213.696,102.461 214.5,99C 213.833,96.3333 213.167,93.6667 212.5,91C 212.728,90.6012 213.062,90.4346 213.5,90.5 Z"/></g>
<g><path style="opacity:1" fill="#1d244e" d="M 210.5,72.5 C 211.794,73.2899 212.961,74.2899 214,75.5C 214.093,79.6669 215.927,82.6669 219.5,84.5C 219.5,85.1667 219.833,85.5 220.5,85.5C 220.629,87.2161 220.962,88.8828 221.5,90.5C 225.582,106.607 226.582,122.94 224.5,139.5C 222.922,146.837 220.589,153.837 217.5,160.5C 221.631,146.118 223.131,131.451 222,116.5C 221.667,121.5 221.333,126.5 221,131.5C 220.894,117.546 218.394,103.88 213.5,90.5C 213.082,89.7784 212.416,89.2784 211.5,89C 211.833,88.6667 212.167,88.3333 212.5,88C 211.594,85.5529 210.761,83.0529 210,80.5C 207.962,77.7568 206.462,74.7568 205.5,71.5C 205.369,70.7611 205.536,70.0944 206,69.5C 208.765,73.2608 211.098,77.2608 213,81.5C 212.794,78.3939 211.961,75.3939 210.5,72.5 Z"/></g>
<g><path style="opacity:0.424" fill="#4bc43b" d="M 239.5,84.5 C 243.035,96.9118 244.702,109.578 244.5,122.5C 243.833,122.5 243.167,122.5 242.5,122.5C 243.215,110.127 241.548,98.1274 237.5,86.5C 237.855,85.4777 238.522,84.811 239.5,84.5 Z"/></g>
<g><path style="opacity:1" fill="#2f365c" d="M 81.5,106.5 C 80.317,111.419 79.6504,116.419 79.5,121.5C 79.3629,125.447 80.0296,129.114 81.5,132.5C 84.4379,145.102 91.7712,154.102 103.5,159.5C 103.5,159.833 103.5,160.167 103.5,160.5C 102.178,160.67 101.011,160.337 100,159.5C 98.0924,162.332 97.259,161.999 97.5,158.5C 95.076,158.192 92.7427,158.526 90.5,159.5C 89.91,160.799 88.91,161.632 87.5,162C 88.8333,162.667 88.8333,163.333 87.5,164C 85.5273,164.495 83.5273,164.662 81.5,164.5C 81.6567,165.873 81.49,167.207 81,168.5C 80.1072,167.289 79.2739,167.289 78.5,168.5C 78.7093,169.086 79.0426,169.586 79.5,170C 78.2559,170.456 77.4226,169.956 77,168.5C 76.51,169.793 76.3433,171.127 76.5,172.5C 62.4873,160.475 54.8206,145.141 53.5,126.5C 53.5,123.167 53.5,119.833 53.5,116.5C 54.2216,116.082 54.7216,115.416 55,114.5C 56,117.167 57,117.167 58,114.5C 58.3333,114.833 58.6667,115.167 59,115.5C 59.6667,111.5 60.3333,111.5 61,115.5C 62.487,114.747 62.6537,113.914 61.5,113C 63.1124,112.28 64.6124,112.446 66,113.5C 67.5424,111.696 69.2091,110.029 71,108.5C 71.3333,109.167 71.6667,109.833 72,110.5C 73.1192,109.448 73.6192,108.281 73.5,107C 74.8333,106.667 76.1667,106.333 77.5,106C 76.2888,105.107 76.2888,104.274 77.5,103.5C 78.7329,105.404 80.0662,106.404 81.5,106.5 Z"/></g>
<g><path style="opacity:1" fill="#2bc375" d="M 190.5,109.5 C 181.565,107.397 172.565,105.397 163.5,103.5C 162.584,103.543 161.917,103.876 161.5,104.5C 160.957,104.44 160.624,104.107 160.5,103.5C 163.167,103.167 165.833,102.833 168.5,102.5C 175.516,103.059 182.516,103.725 189.5,104.5C 189.629,106.216 189.962,107.883 190.5,109.5 Z"/></g>
<g><path style="opacity:1" fill="#116556" d="M 221.5,90.5 C 222.79,91.0577 223.623,92.0577 224,93.5C 226.535,102.67 227.701,112.003 227.5,121.5C 227.468,127.801 226.468,133.801 224.5,139.5C 226.582,122.94 225.582,106.607 221.5,90.5 Z"/></g>
<g><path style="opacity:1" fill="#3cc258" d="M 190.5,109.5 C 190.5,110.167 190.5,110.833 190.5,111.5C 188.393,112.468 186.059,112.802 183.5,112.5C 184.263,111.732 185.263,111.232 186.5,111C 179.574,110.394 172.74,109.227 166,107.5C 164.624,107.684 163.791,108.351 163.5,109.5C 162.463,108.07 161.796,106.403 161.5,104.5C 161.917,103.876 162.584,103.543 163.5,103.5C 172.565,105.397 181.565,107.397 190.5,109.5 Z"/></g>
<g><path style="opacity:1" fill="#4fc239" d="M 183.5,112.5 C 179.5,112.5 175.5,112.5 171.5,112.5C 168.833,112.5 166.167,112.5 163.5,112.5C 163.5,111.5 163.5,110.5 163.5,109.5C 163.791,108.351 164.624,107.684 166,107.5C 172.74,109.227 179.574,110.394 186.5,111C 185.263,111.232 184.263,111.732 183.5,112.5 Z"/></g>
<g><path style="opacity:1" fill="#39af52" d="M 26.5,69.5 C 27.3764,69.3691 28.0431,69.7025 28.5,70.5C 25.6878,74.7844 24.0212,79.451 23.5,84.5C 21.1576,92.3657 19.3243,100.366 18,108.5C 17.1777,116.345 17.3443,124.011 18.5,131.5C 19.2751,136.484 19.9418,141.484 20.5,146.5C 20.6646,149.518 20.498,152.518 20,155.5C 19.7216,154.584 19.2216,153.918 18.5,153.5C 16.5637,148.422 15.2304,143.088 14.5,137.5C 13.0147,123.786 13.348,110.119 15.5,96.5C 18.2847,87.247 21.9514,78.247 26.5,69.5 Z"/></g>
<g><path style="opacity:1" fill="#4eb835" d="M 86.5,98.5 C 90.1667,100.167 92.8333,102.833 94.5,106.5C 93.0472,109.353 91.8806,112.353 91,115.5C 89.1792,129.856 94.3459,140.856 106.5,148.5C 108.426,150.293 110.759,151.293 113.5,151.5C 112.081,152.451 110.415,152.784 108.5,152.5C 107.5,152.5 106.5,152.5 105.5,152.5C 106.644,157.076 107.811,161.743 109,166.5C 110.557,170.55 112.724,174.217 115.5,177.5C 114.791,178.404 113.791,178.737 112.5,178.5C 109.794,178.425 107.127,178.092 104.5,177.5C 104.822,171.642 104.489,165.975 103.5,160.5C 103.5,160.167 103.5,159.833 103.5,159.5C 104.851,156.228 104.684,152.894 103,149.5C 96,143.167 89,136.833 82,130.5C 81.5357,131.094 81.369,131.761 81.5,132.5C 80.0296,129.114 79.3629,125.447 79.5,121.5C 79.6504,116.419 80.317,111.419 81.5,106.5C 83.1667,103.833 84.8333,101.167 86.5,98.5 Z"/></g>
<g><path style="opacity:1" fill="#2b9946" d="M 15.5,96.5 C 13.348,110.119 13.0147,123.786 14.5,137.5C 13.7803,141.7 13.1136,146.033 12.5,150.5C 12.7093,151.086 13.0426,151.586 13.5,152C 12.8828,154.277 12.2161,156.444 11.5,158.5C 8.21082,148.101 6.21082,137.435 5.5,126.5C 7.82515,119.142 9.99182,111.476 12,103.5C 12.8984,100.931 14.065,98.5976 15.5,96.5 Z"/></g>
<g><path style="opacity:1" fill="#2ebd71" d="M 152.5,131.5 C 165.233,130.418 177.566,132.084 189.5,136.5C 189.768,138.099 189.434,139.432 188.5,140.5C 180.852,138.503 173.185,136.503 165.5,134.5C 162.448,135.266 160.781,137.266 160.5,140.5C 163.642,141.167 166.642,141.834 169.5,142.5C 166.15,142.335 162.817,142.502 159.5,143C 158.267,144.667 156.933,146.167 155.5,147.5C 154.062,143.726 151.395,141.393 147.5,140.5C 149.362,137.552 151.029,134.552 152.5,131.5 Z"/></g>
<g><path style="opacity:1" fill="#1ebb8c" d="M 152.5,131.5 C 168.999,130.678 185.666,130.678 202.5,131.5C 204.167,131.5 205.833,131.5 207.5,131.5C 206.888,139.616 204.888,147.283 201.5,154.5C 201.66,152.801 201.494,151.134 201,149.5C 198,147.167 195,144.833 192,142.5C 191.155,140.389 190.322,138.389 189.5,136.5C 177.566,132.084 165.233,130.418 152.5,131.5 Z"/></g>
<g><path style="opacity:1" fill="#59b921" d="M 103.5,159.5 C 91.7712,154.102 84.4379,145.102 81.5,132.5C 81.369,131.761 81.5357,131.094 82,130.5C 89,136.833 96,143.167 103,149.5C 104.684,152.894 104.851,156.228 103.5,159.5 Z"/></g>
<g><path style="opacity:0.133" fill="#42b880" d="M 242.5,122.5 C 243.167,122.5 243.833,122.5 244.5,122.5C 244.377,136.779 241.71,150.446 236.5,163.5C 236.196,162.85 235.863,162.183 235.5,161.5C 240.276,148.953 242.609,135.953 242.5,122.5 Z"/></g>
<g><path style="opacity:1" fill="#4dc03d" d="M 188.5,140.5 C 186.012,142.388 183.012,143.055 179.5,142.5C 176.167,142.5 172.833,142.5 169.5,142.5C 166.642,141.834 163.642,141.167 160.5,140.5C 160.781,137.266 162.448,135.266 165.5,134.5C 173.185,136.503 180.852,138.503 188.5,140.5 Z"/></g>
<g><path style="opacity:0.6" fill="#3da650" d="M -0.5,105.5 C -0.166667,105.5 0.166667,105.5 0.5,105.5C 0.833333,105.5 1.16667,105.5 1.5,105.5C -0.356684,125.647 1.97665,145.314 8.5,164.5C 8.5,165.167 8.16667,165.5 7.5,165.5C 3.87591,155.665 1.20924,145.665 -0.5,135.5C -0.5,125.5 -0.5,115.5 -0.5,105.5 Z"/></g>
<g><path style="opacity:1" fill="#282c5f" d="M 169.5,142.5 C 172.833,142.5 176.167,142.5 179.5,142.5C 182.028,143.166 184.694,143.832 187.5,144.5C 186.253,146.323 185.586,148.323 185.5,150.5C 182.846,154.463 180.18,158.463 177.5,162.5C 174.167,166.167 170.833,169.833 167.5,173.5C 162.08,177.594 156.413,181.261 150.5,184.5C 143.997,186.793 137.33,188.459 130.5,189.5C 129.038,188.542 127.705,187.376 126.5,186C 127,185.5 127.5,185 128,184.5C 130.557,185.646 131.89,184.646 132,181.5C 132.333,182.167 132.667,182.833 133,183.5C 135,182.167 136.667,180.5 138,178.5C 139.107,179.712 139.607,179.379 139.5,177.5C 139.5,174.5 139.5,171.5 139.5,168.5C 139.5,165.833 139.5,163.167 139.5,160.5C 146.068,157.591 151.401,153.257 155.5,147.5C 156.933,146.167 158.267,144.667 159.5,143C 162.817,142.502 166.15,142.335 169.5,142.5 Z"/></g>
<g><path style="opacity:1" fill="#25bc7f" d="M 189.5,136.5 C 190.322,138.389 191.155,140.389 192,142.5C 195,144.833 198,147.167 201,149.5C 201.494,151.134 201.66,152.801 201.5,154.5C 201.008,156.819 200.008,158.819 198.5,160.5C 194.742,156.408 190.409,153.074 185.5,150.5C 185.586,148.323 186.253,146.323 187.5,144.5C 184.694,143.832 182.028,143.166 179.5,142.5C 183.012,143.055 186.012,142.388 188.5,140.5C 189.434,139.432 189.768,138.099 189.5,136.5 Z"/></g>
<g><path style="opacity:1" fill="#3abc5a" d="M 147.5,140.5 C 151.395,141.393 154.062,143.726 155.5,147.5C 151.401,153.257 146.068,157.591 139.5,160.5C 139.5,157.833 139.5,155.167 139.5,152.5C 137.5,152.5 135.5,152.5 133.5,152.5C 134.429,156.127 135.263,159.793 136,163.5C 136.697,165.584 137.864,167.251 139.5,168.5C 139.5,171.5 139.5,174.5 139.5,177.5C 137.708,177.366 136.042,177.699 134.5,178.5C 134.662,176.473 134.495,174.473 134,172.5C 133.004,168.651 131.17,165.318 128.5,162.5C 128.335,159.15 128.502,155.817 129,152.5C 136.652,150.603 142.819,146.603 147.5,140.5 Z"/></g>
<g><path style="opacity:1" fill="#68b707" d="M 97.5,203.5 C 82.9307,198.886 70.264,191.219 59.5,180.5C 59.1667,179.5 58.5,178.833 57.5,178.5C 50.3443,169.857 45.0109,160.19 41.5,149.5C 53.0613,156.302 64.0613,164.636 74.5,174.5C 78.8744,178.872 82.8744,183.539 86.5,188.5C 88.1667,189.333 89.8333,190.167 91.5,191C 90.8333,191.333 90.1667,191.667 89.5,192C 93.312,195.153 95.9787,198.987 97.5,203.5 Z"/></g>
<g><path style="opacity:1" fill="#1cbc8c" d="M 139.5,160.5 C 139.5,163.167 139.5,165.833 139.5,168.5C 137.864,167.251 136.697,165.584 136,163.5C 135.263,159.793 134.429,156.127 133.5,152.5C 135.5,152.5 137.5,152.5 139.5,152.5C 139.5,155.167 139.5,157.833 139.5,160.5 Z"/></g>
<g><path style="opacity:1" fill="#20bd86" d="M 113.5,151.5 C 114.167,151.833 114.833,152.167 115.5,152.5C 115.5,157.5 115.5,162.5 115.5,167.5C 114.398,164.193 112.565,161.193 110,158.5C 109.495,156.482 108.995,154.482 108.5,152.5C 110.415,152.784 112.081,152.451 113.5,151.5 Z"/></g>
<g><path style="opacity:1" fill="#2cbf70" d="M 185.5,150.5 C 190.409,153.074 194.742,156.408 198.5,160.5C 196.404,166.369 193.071,171.369 188.5,175.5C 188.66,173.801 188.494,172.134 188,170.5C 184.685,167.461 181.185,164.794 177.5,162.5C 180.18,158.463 182.846,154.463 185.5,150.5 Z"/></g>
<g><path style="opacity:1" fill="#279973" d="M 15.5,62.5 C 17.153,62.6596 18.4863,63.3263 19.5,64.5C 9.35824,83.868 4.69157,104.535 5.5,126.5C 6.21082,137.435 8.21082,148.101 11.5,158.5C 14.8775,168.258 19.5441,177.258 25.5,185.5C 30.1362,193.651 36.1362,200.818 43.5,207C 46.8396,207.824 49.173,206.657 50.5,203.5C 64.1403,215.153 79.807,222.82 97.5,226.5C 97.5,227.167 97.8333,227.5 98.5,227.5C 98.3893,228.117 98.056,228.617 97.5,229C 80.4235,229.827 80.4235,231.827 97.5,235C 96.1916,235.824 94.6916,236.324 93,236.5C 91.7535,234.119 91.4202,234.453 92,237.5C 92.9947,238.066 93.828,238.733 94.5,239.5C 81.7569,237.287 70.0902,232.62 59.5,225.5C 42.4464,213.82 28.2797,199.153 17,181.5C 14.1207,175.741 11.2874,170.075 8.5,164.5C 1.97665,145.314 -0.356684,125.647 1.5,105.5C 3.35885,90.2567 8.02551,75.9234 15.5,62.5 Z"/></g>
<g><path style="opacity:1" fill="#1ba7a3" d="M 238.5,116.5 C 238.5,118.5 238.5,120.5 238.5,122.5C 237.036,163.113 219.702,194.779 186.5,217.5C 186.815,215.774 186.981,214.107 187,212.5C 186.085,213.328 185.419,214.328 185,215.5C 184.333,214.5 184.333,213.5 185,212.5C 188.038,210.997 189.871,208.997 190.5,206.5C 180.637,213.432 169.97,218.765 158.5,222.5C 156.265,221.752 156.598,220.919 159.5,220C 156.843,219.825 154.176,219.992 151.5,220.5C 165.8,215.851 178.8,208.851 190.5,199.5C 196.772,195.063 202.272,189.73 207,183.5C 207.691,185.891 208.691,185.891 210,183.5C 224.3,162.605 231.133,139.272 230.5,113.5C 231.117,113.389 231.617,113.056 232,112.5C 232.235,108.68 233.068,105.013 234.5,101.5C 235.106,106.886 236.44,111.886 238.5,116.5 Z"/></g>
<g><path style="opacity:1" fill="#2a9853" d="M 14.5,137.5 C 15.2304,143.088 16.5637,148.422 18.5,153.5C 20.6618,161.491 23.6618,169.158 27.5,176.5C 28.0545,180.012 27.3878,183.012 25.5,185.5C 19.5441,177.258 14.8775,168.258 11.5,158.5C 12.2161,156.444 12.8828,154.277 13.5,152C 13.0426,151.586 12.7093,151.086 12.5,150.5C 13.1136,146.033 13.7803,141.7 14.5,137.5 Z"/></g>
<g><path style="opacity:1" fill="#35bc60" d="M 177.5,162.5 C 181.185,164.794 184.685,167.461 188,170.5C 188.494,172.134 188.66,173.801 188.5,175.5C 186.212,179.456 183.212,182.789 179.5,185.5C 176.872,182.941 174.705,179.941 173,176.5C 172.667,176.833 172.333,177.167 172,177.5C 170.931,175.593 169.431,174.259 167.5,173.5C 170.833,169.833 174.167,166.167 177.5,162.5 Z"/></g>
<g><path style="opacity:1" fill="#2c958f" d="M 229.5,107.5 C 230.461,109.265 230.795,111.265 230.5,113.5C 231.133,139.272 224.3,162.605 210,183.5C 208.691,185.891 207.691,185.891 207,183.5C 202.272,189.73 196.772,195.063 190.5,199.5C 202.255,188.411 211.255,175.411 217.5,160.5C 220.589,153.837 222.922,146.837 224.5,139.5C 226.468,133.801 227.468,127.801 227.5,121.5C 228.216,116.936 228.883,112.269 229.5,107.5 Z"/></g>
<g><path style="opacity:1" fill="#34bd60" d="M 108.5,152.5 C 108.995,154.482 109.495,156.482 110,158.5C 112.565,161.193 114.398,164.193 115.5,167.5C 115.5,170.833 115.5,174.167 115.5,177.5C 112.724,174.217 110.557,170.55 109,166.5C 107.811,161.743 106.644,157.076 105.5,152.5C 106.5,152.5 107.5,152.5 108.5,152.5 Z"/></g>
<g><path style="opacity:1" fill="#29756b" d="M 115.5,152.5 C 116.493,161.318 116.827,170.318 116.5,179.5C 114.901,179.768 113.568,179.434 112.5,178.5C 113.791,178.737 114.791,178.404 115.5,177.5C 115.5,174.167 115.5,170.833 115.5,167.5C 115.5,162.5 115.5,157.5 115.5,152.5 Z"/></g>
<g><path style="opacity:1" fill="#283155" d="M 57.5,178.5 C 58.5,178.833 59.1667,179.5 59.5,180.5C 58.7784,180.918 58.2784,181.584 58,182.5C 57.6121,181.572 56.9454,180.905 56,180.5C 53.9452,181.692 51.9452,181.692 50,180.5C 51.3742,184.881 53.3742,189.214 56,193.5C 60.3413,197.544 64.6746,201.544 69,205.5C 69.3333,205.167 69.6667,204.833 70,204.5C 70.6284,208.127 72.7951,209.96 76.5,210C 78.3179,212.241 80.3179,213.407 82.5,213.5C 83.3857,214.325 83.719,215.325 83.5,216.5C 74.8093,213.655 66.8093,209.488 59.5,204C 53.3299,198.662 47.3299,193.162 41.5,187.5C 40.925,185.589 39.925,183.922 38.5,182.5C 34.7173,172.654 31.2173,162.654 28,152.5C 27.3333,149.167 27.3333,145.833 28,142.5C 28.3176,144.061 29.1509,145.228 30.5,146C 30.1119,147.808 30.1119,149.475 30.5,151C 33.3804,155.258 35.8804,159.758 38,164.5C 41.6586,167.854 45.3253,171.854 49,176.5C 49.3333,176.167 49.6667,175.833 50,175.5C 51.6729,178.929 54.1729,179.929 57.5,178.5 Z"/></g>
<g><path style="opacity:1" fill="#57bc29" d="M 128.5,162.5 C 131.17,165.318 133.004,168.651 134,172.5C 134.495,174.473 134.662,176.473 134.5,178.5C 132.5,178.833 130.5,179.167 128.5,179.5C 128.5,173.833 128.5,168.167 128.5,162.5 Z"/></g>
<g><path style="opacity:1" fill="#52bd7c" d="M 20.5,146.5 C 24.3755,159.584 30.3755,171.584 38.5,182.5C 39.925,183.922 40.925,185.589 41.5,187.5C 44.5633,192.072 48.23,196.239 52.5,200C 51.2068,200.49 49.8734,200.657 48.5,200.5C 44.5621,197.065 40.7288,193.398 37,189.5C 33.9701,184.985 30.8034,180.651 27.5,176.5C 23.6618,169.158 20.6618,161.491 18.5,153.5C 19.2216,153.918 19.7216,154.584 20,155.5C 20.498,152.518 20.6646,149.518 20.5,146.5 Z"/></g>
<g><path style="opacity:1" fill="#293059" d="M 59.5,180.5 C 70.264,191.219 82.9307,198.886 97.5,203.5C 107.943,206.19 118.61,207.19 129.5,206.5C 129.833,206.5 130.167,206.5 130.5,206.5C 123.63,207.199 116.63,207.866 109.5,208.5C 107.471,207.371 107.137,207.871 108.5,210C 105.28,212.171 102.113,214.338 99,216.5C 98.228,216.355 97.5613,216.022 97,215.5C 96.3551,216.646 95.5217,217.646 94.5,218.5C 95.2624,218.911 96.2624,219.077 97.5,219C 97.1667,219.333 96.8333,219.667 96.5,220C 97.4158,220.278 98.0825,220.778 98.5,221.5C 93.085,220.806 88.085,219.14 83.5,216.5C 83.719,215.325 83.3857,214.325 82.5,213.5C 80.3179,213.407 78.3179,212.241 76.5,210C 72.7951,209.96 70.6284,208.127 70,204.5C 69.6667,204.833 69.3333,205.167 69,205.5C 64.6746,201.544 60.3413,197.544 56,193.5C 53.3742,189.214 51.3742,184.881 50,180.5C 51.9452,181.692 53.9452,181.692 56,180.5C 56.9454,180.905 57.6121,181.572 58,182.5C 58.2784,181.584 58.7784,180.918 59.5,180.5 Z"/></g>
<g><path style="opacity:1" fill="#60b814" d="M 53.5,126.5 C 54.8206,145.141 62.4873,160.475 76.5,172.5C 88.6113,183.545 102.945,189.545 119.5,190.5C 124.596,194.441 128.93,199.274 132.5,205C 131.263,205.232 130.263,205.732 129.5,206.5C 118.61,207.19 107.943,206.19 97.5,203.5C 95.9787,198.987 93.312,195.153 89.5,192C 90.1667,191.667 90.8333,191.333 91.5,191C 89.8333,190.167 88.1667,189.333 86.5,188.5C 82.8744,183.539 78.8744,178.872 74.5,174.5C 64.0613,164.636 53.0613,156.302 41.5,149.5C 39.0898,144.54 37.5898,139.206 37,133.5C 36.5004,126.842 36.3337,120.175 36.5,113.5C 37.1653,111.302 37.8319,108.969 38.5,106.5C 43.2756,108.365 47.7756,110.698 52,113.5C 52.1753,118.019 52.6753,122.353 53.5,126.5 Z"/></g>
<g><path style="opacity:1" fill="#43bd48" d="M 167.5,173.5 C 169.431,174.259 170.931,175.593 172,177.5C 172.333,177.167 172.667,176.833 173,176.5C 174.705,179.941 176.872,182.941 179.5,185.5C 174.188,190.492 168.188,194.492 161.5,197.5C 158.179,192.848 154.513,188.515 150.5,184.5C 156.413,181.261 162.08,177.594 167.5,173.5 Z"/></g>
<g><path style="opacity:0.478" fill="#5cb480" d="M 235.5,166.5 C 228.313,185.223 216.98,200.89 201.5,213.5C 207.102,206.725 212.935,200.058 219,193.5C 224.835,184.99 229.835,175.99 234,166.5C 234.69,165.262 235.19,165.262 235.5,166.5 Z"/></g>
<g><path style="opacity:1" fill="#28985f" d="M 27.5,176.5 C 30.8034,180.651 33.9701,184.985 37,189.5C 40.7288,193.398 44.5621,197.065 48.5,200.5C 49.1667,201.5 49.8333,202.5 50.5,203.5C 49.173,206.657 46.8396,207.824 43.5,207C 36.1362,200.818 30.1362,193.651 25.5,185.5C 27.3878,183.012 28.0545,180.012 27.5,176.5 Z"/></g>
<g><path style="opacity:1" fill="#52bc2d" d="M 150.5,184.5 C 154.513,188.515 158.179,192.848 161.5,197.5C 151.784,202.514 141.45,205.514 130.5,206.5C 130.167,206.5 129.833,206.5 129.5,206.5C 130.263,205.732 131.263,205.232 132.5,205C 128.93,199.274 124.596,194.441 119.5,190.5C 123.371,190.815 127.038,190.482 130.5,189.5C 137.33,188.459 143.997,186.793 150.5,184.5 Z"/></g>
<g><path style="opacity:0.416" fill="#529a65" d="M 8.5,164.5 C 11.2874,170.075 14.1207,175.741 17,181.5C 28.2797,199.153 42.4464,213.82 59.5,225.5C 35.4203,211.415 18.087,191.415 7.5,165.5C 8.16667,165.5 8.5,165.167 8.5,164.5 Z"/></g>
<g><path style="opacity:1" fill="#3eb584" d="M 41.5,187.5 C 47.3299,193.162 53.3299,198.662 59.5,204C 66.8093,209.488 74.8093,213.655 83.5,216.5C 88.085,219.14 93.085,220.806 98.5,221.5C 99.5676,222.434 100.901,222.768 102.5,222.5C 100.031,223.317 97.3647,223.817 94.5,224C 95.5707,224.852 96.5707,225.685 97.5,226.5C 79.807,222.82 64.1403,215.153 50.5,203.5C 49.8333,202.5 49.1667,201.5 48.5,200.5C 49.8734,200.657 51.2068,200.49 52.5,200C 48.23,196.239 44.5633,192.072 41.5,187.5 Z"/></g>
<g><path style="opacity:1" fill="#179e98" d="M 186.5,217.5 C 161.604,234.055 134.271,240.222 104.5,236C 103.044,235.577 102.544,234.744 103,233.5C 103.333,233.833 103.667,234.167 104,234.5C 109.177,233.556 114.344,232.39 119.5,231C 117.942,230.79 116.609,230.29 115.5,229.5C 130.475,230.367 144.808,228.034 158.5,222.5C 169.97,218.765 180.637,213.432 190.5,206.5C 189.871,208.997 188.038,210.997 185,212.5C 184.333,213.5 184.333,214.5 185,215.5C 185.419,214.328 186.085,213.328 187,212.5C 186.981,214.107 186.815,215.774 186.5,217.5 Z"/></g>
<g><path style="opacity:1" fill="#31b6a4" d="M 158.5,222.5 C 144.808,228.034 130.475,230.367 115.5,229.5C 109.798,229.079 104.131,228.412 98.5,227.5C 97.8333,227.5 97.5,227.167 97.5,226.5C 96.5707,225.685 95.5707,224.852 94.5,224C 97.3647,223.817 100.031,223.317 102.5,222.5C 118.979,225.433 135.312,224.766 151.5,220.5C 154.176,219.992 156.843,219.825 159.5,220C 156.598,220.919 156.265,221.752 158.5,222.5 Z"/></g>
<g><path style="opacity:1" fill="#22a083" d="M 238.5,122.5 C 239.833,122.5 241.167,122.5 242.5,122.5C 242.609,135.953 240.276,148.953 235.5,161.5C 235.863,162.183 236.196,162.85 236.5,163.5C 236.737,164.791 236.404,165.791 235.5,166.5C 235.19,165.262 234.69,165.262 234,166.5C 229.835,175.99 224.835,184.99 219,193.5C 212.935,200.058 207.102,206.725 201.5,213.5C 201.167,214.5 200.5,215.167 199.5,215.5C 199.103,214.475 198.437,214.308 197.5,215C 166.998,238.473 132.665,246.64 94.5,239.5C 93.828,238.733 92.9947,238.066 92,237.5C 91.4202,234.453 91.7535,234.119 93,236.5C 94.6916,236.324 96.1916,235.824 97.5,235C 80.4235,231.827 80.4235,229.827 97.5,229C 98.056,228.617 98.3893,228.117 98.5,227.5C 104.131,228.412 109.798,229.079 115.5,229.5C 116.609,230.29 117.942,230.79 119.5,231C 114.344,232.39 109.177,233.556 104,234.5C 103.667,234.167 103.333,233.833 103,233.5C 102.544,234.744 103.044,235.577 104.5,236C 134.271,240.222 161.604,234.055 186.5,217.5C 219.702,194.779 237.036,163.113 238.5,122.5 Z"/></g>
<g><path style="opacity:0.827" fill="#589e70" d="M 199.5,215.5 C 178.334,232.111 154.334,241.444 127.5,243.5C 123.833,243.5 120.167,243.5 116.5,243.5C 109.064,242.813 101.73,241.48 94.5,239.5C 132.665,246.64 166.998,238.473 197.5,215C 198.437,214.308 199.103,214.475 199.5,215.5 Z"/></g>
</svg>
