<?xml version="1.0" encoding="UTF-8"?>
<!DOCTYPE svg PUBLIC "-//W3C//DTD SVG 1.1//EN" "http://www.w3.org/Graphics/SVG/1.1/DTD/svg11.dtd">
<svg xmlns="http://www.w3.org/2000/svg" version="1.1" width="32px" height="32px" style="shape-rendering:geometricPrecision; text-rendering:geometricPrecision; image-rendering:optimizeQuality; fill-rule:evenodd; clip-rule:evenodd" xmlns:xlink="http://www.w3.org/1999/xlink">
<g><path style="opacity:0.907" fill="#f9fcfd" d="M 9.5,-0.5 C 9.83333,-0.5 10.1667,-0.5 10.5,-0.5C 10.369,0.238911 10.5357,0.905578 11,1.5C 12.0113,0.663368 13.1779,0.330034 14.5,0.5C 12.1682,2.09551 9.50149,3.26218 6.5,4C 3.88205,5.36056 3.21538,7.19389 4.5,9.5C 2.97306,9.57298 1.97306,8.90632 1.5,7.5C 3.17292,3.82707 5.83959,1.16041 9.5,-0.5 Z"/></g>
<g><path style="opacity:0.999" fill="#f0f1f5" d="M 14.5,0.5 C 17.5641,0.143738 20.2307,0.977072 22.5,3C 18.3602,3.02074 15.6935,3.52074 14.5,4.5C 14.5,4.83333 14.5,5.16667 14.5,5.5C 12.4471,5.40206 10.7804,6.06873 9.5,7.5C 7.6203,7.22911 6.28696,7.89578 5.5,9.5C 5.16667,9.5 4.83333,9.5 4.5,9.5C 3.21538,7.19389 3.88205,5.36056 6.5,4C 9.50149,3.26218 12.1682,2.09551 14.5,0.5 Z"/></g>
<g><path style="opacity:0.913" fill="#f8fafa" d="M 10.5,-0.5 C 14.1667,-0.5 17.8333,-0.5 21.5,-0.5C 25.1203,1.45279 28.1203,4.11945 30.5,7.5C 30.3284,8.49162 30.6618,9.15829 31.5,9.5C 31.5,12.5 31.5,15.5 31.5,18.5C 29.5953,16.1196 28.262,13.4529 27.5,10.5C 27.5,10.1667 27.5,9.83333 27.5,9.5C 27.5,8.5 27.5,7.5 27.5,6.5C 23.3025,5.12452 18.9691,4.45786 14.5,4.5C 15.6935,3.52074 18.3602,3.02074 22.5,3C 20.2307,0.977072 17.5641,0.143738 14.5,0.5C 13.1779,0.330034 12.0113,0.663368 11,1.5C 10.5357,0.905578 10.369,0.238911 10.5,-0.5 Z"/></g>
<g><path style="opacity:1" fill="#ebebf3" d="M 14.5,5.5 C 14.5,5.16667 14.5,4.83333 14.5,4.5C 18.9691,4.45786 23.3025,5.12452 27.5,6.5C 27.5,7.5 27.5,8.5 27.5,9.5C 23.5239,7.088 19.1905,5.75466 14.5,5.5 Z"/></g>
<g><path style="opacity:0.004" fill="#f9fdfd" d="M 31.5,5.5 C 31.5,6.16667 31.5,6.83333 31.5,7.5C 31.1667,7.5 30.8333,7.5 30.5,7.5C 30.3284,6.50838 30.6618,5.84171 31.5,5.5 Z"/></g>
<g><path style="opacity:1" fill="#e1675b" d="M 17.5,7.5 C 17.7471,10.9387 17.4137,14.272 16.5,17.5C 15.2223,17.7822 14.2223,18.4489 13.5,19.5C 12.6993,17.9582 12.366,16.2915 12.5,14.5C 13.4682,12.3926 13.8016,10.0593 13.5,7.5C 14.8333,7.5 16.1667,7.5 17.5,7.5 Z"/></g>
<g><path style="opacity:1" fill="#432a3f" d="M 14.5,5.5 C 19.1905,5.75466 23.5239,7.088 27.5,9.5C 27.5,9.83333 27.5,10.1667 27.5,10.5C 27.3357,13.8174 26.3357,16.8174 24.5,19.5C 22.195,21.0445 21.8617,23.0445 23.5,25.5C 22.8333,25.5 22.1667,25.5 21.5,25.5C 21.5,25.1667 21.5,24.8333 21.5,24.5C 21.1289,20.9966 22.1289,17.9966 24.5,15.5C 27.4899,12.8258 27.1565,10.8258 23.5,9.5C 22.8333,9.16667 22.1667,8.83333 21.5,8.5C 20.4324,7.56552 19.099,7.23219 17.5,7.5C 16.1667,7.5 14.8333,7.5 13.5,7.5C 13.8016,10.0593 13.4682,12.3926 12.5,14.5C 12.5,12.1667 12.5,9.83333 12.5,7.5C 11.5,7.5 10.5,7.5 9.5,7.5C 10.7804,6.06873 12.4471,5.40206 14.5,5.5 Z"/></g>
<g><path style="opacity:0.997" fill="#f5f0f5" d="M 1.5,7.5 C 1.97306,8.90632 2.97306,9.57298 4.5,9.5C 3.76589,10.7079 3.43255,12.0413 3.5,13.5C 3.16667,14.1667 2.83333,14.8333 2.5,15.5C 1.77765,14.4489 0.777652,13.7822 -0.5,13.5C -0.5,12.1667 -0.5,10.8333 -0.5,9.5C 0.166667,8.83333 0.833333,8.16667 1.5,7.5 Z"/></g>
<g><path style="opacity:1" fill="#6c3343" d="M 9.5,7.5 C 9.5,10.1667 9.5,12.8333 9.5,15.5C 8.45476,13.2299 7.12143,11.2299 5.5,9.5C 6.28696,7.89578 7.6203,7.22911 9.5,7.5 Z"/></g>
<g><path style="opacity:1" fill="#54273d" d="M 4.5,9.5 C 4.83333,9.5 5.16667,9.5 5.5,9.5C 5.5,11.5 5.5,13.5 5.5,15.5C 4.83333,14.8333 4.16667,14.1667 3.5,13.5C 3.43255,12.0413 3.76589,10.7079 4.5,9.5 Z"/></g>
<g><path style="opacity:1" fill="#8d3e4c" d="M 17.5,7.5 C 19.099,7.23219 20.4324,7.56552 21.5,8.5C 22.1667,8.83333 22.8333,9.16667 23.5,9.5C 23.2053,11.7354 23.5386,13.7354 24.5,15.5C 22.1289,17.9966 21.1289,20.9966 21.5,24.5C 18.8333,23.8333 16.1667,23.1667 13.5,22.5C 15.2785,21.3303 16.2785,19.6636 16.5,17.5C 17.4137,14.272 17.7471,10.9387 17.5,7.5 Z"/></g>
<g><path style="opacity:1" fill="#e37063" d="M 23.5,9.5 C 27.1565,10.8258 27.4899,12.8258 24.5,15.5C 23.5386,13.7354 23.2053,11.7354 23.5,9.5 Z"/></g>
<g><path style="opacity:1" fill="#db7771" d="M 5.5,9.5 C 7.12143,11.2299 8.45476,13.2299 9.5,15.5C 9.71481,17.1788 9.04814,18.1788 7.5,18.5C 7.57298,16.9731 6.90632,15.9731 5.5,15.5C 5.5,13.5 5.5,11.5 5.5,9.5 Z"/></g>
<g><path style="opacity:1" fill="#da7470" d="M 9.5,7.5 C 10.5,7.5 11.5,7.5 12.5,7.5C 12.5,9.83333 12.5,12.1667 12.5,14.5C 12.366,16.2915 12.6993,17.9582 13.5,19.5C 11.7263,18.6304 10.393,17.297 9.5,15.5C 9.5,12.8333 9.5,10.1667 9.5,7.5 Z"/></g>
<g><path style="opacity:0.983" fill="#e8ebef" d="M 27.5,10.5 C 28.262,13.4529 29.5953,16.1196 31.5,18.5C 31.5,19.8333 31.5,21.1667 31.5,22.5C 31.1667,22.5 30.8333,22.5 30.5,22.5C 29.7081,20.2552 28.3747,19.9219 26.5,21.5C 27.6602,19.7973 26.9935,19.1307 24.5,19.5C 26.3357,16.8174 27.3357,13.8174 27.5,10.5 Z"/></g>
<g><path style="opacity:1" fill="#dcdce8" d="M 3.5,13.5 C 4.16667,14.1667 4.83333,14.8333 5.5,15.5C 5.42702,17.0269 6.09368,18.0269 7.5,18.5C 7.83333,19.8333 8.16667,21.1667 8.5,22.5C 8.5,23.5 8.5,24.5 8.5,25.5C 12.8333,25.5 17.1667,25.5 21.5,25.5C 22.1667,25.5 22.8333,25.5 23.5,25.5C 23.5,25.8333 23.5,26.1667 23.5,26.5C 21.1667,26.5 18.8333,26.5 16.5,26.5C 15.5,26.5 14.5,26.5 13.5,26.5C 11.5,26.5 9.5,26.5 7.5,26.5C 7.5,24.8333 7.5,23.1667 7.5,21.5C 5.4862,21.6085 3.81953,20.9418 2.5,19.5C 3.83333,18.1667 3.83333,16.8333 2.5,15.5C 2.83333,14.8333 3.16667,14.1667 3.5,13.5 Z"/></g>
<g><path style="opacity:0.929" fill="#f8f8f6" d="M -0.5,13.5 C 0.777652,13.7822 1.77765,14.4489 2.5,15.5C 3.83333,16.8333 3.83333,18.1667 2.5,19.5C 1.56552,20.5676 1.23219,21.901 1.5,23.5C 1.16667,23.5 0.833333,23.5 0.5,23.5C 0.67158,22.5084 0.338246,21.8417 -0.5,21.5C -0.5,18.8333 -0.5,16.1667 -0.5,13.5 Z"/></g>
<g><path style="opacity:1" fill="#301e3c" d="M 5.5,15.5 C 6.90632,15.9731 7.57298,16.9731 7.5,18.5C 6.09368,18.0269 5.42702,17.0269 5.5,15.5 Z"/></g>
<g><path style="opacity:1" fill="#dc706b" d="M 21.5,8.5 C 22.0289,13.3236 20.8622,17.6569 18,21.5C 17.8859,18.167 18.2192,14.8337 19,11.5C 19.2355,9.88066 20.0689,8.88066 21.5,8.5 Z"/></g>
<g><path style="opacity:0.999" fill="#f2f2f8" d="M 24.5,19.5 C 26.9935,19.1307 27.6602,19.7973 26.5,21.5C 25.8354,23.3691 25.1687,25.3691 24.5,27.5C 23.8933,27.3764 23.56,27.0431 23.5,26.5C 23.5,26.1667 23.5,25.8333 23.5,25.5C 21.8617,23.0445 22.195,21.0445 24.5,19.5 Z"/></g>
<g><path style="opacity:1" fill="#974954" d="M 9.5,15.5 C 10.393,17.297 11.7263,18.6304 13.5,19.5C 14.2223,18.4489 15.2223,17.7822 16.5,17.5C 16.2785,19.6636 15.2785,21.3303 13.5,22.5C 13.38,23.5862 12.7133,24.2528 11.5,24.5C 10.2613,24.0576 9.26133,23.3909 8.5,22.5C 8.16667,21.1667 7.83333,19.8333 7.5,18.5C 9.04814,18.1788 9.71481,17.1788 9.5,15.5 Z"/></g>
<g><path style="opacity:0.845" fill="#fafafc" d="M 2.5,19.5 C 3.81953,20.9418 5.4862,21.6085 7.5,21.5C 7.5,23.1667 7.5,24.8333 7.5,26.5C 9.5,26.5 11.5,26.5 13.5,26.5C 13.5,28.1667 13.5,29.8333 13.5,31.5C 12.1667,31.5 10.8333,31.5 9.5,31.5C 9.15829,30.6618 8.49162,30.3284 7.5,30.5C 4.78718,28.7865 2.78718,26.4532 1.5,23.5C 1.23219,21.901 1.56552,20.5676 2.5,19.5 Z"/></g>
<g><path style="opacity:1" fill="#1d0d2d" d="M 8.5,22.5 C 9.26133,23.3909 10.2613,24.0576 11.5,24.5C 12.7133,24.2528 13.38,23.5862 13.5,22.5C 16.1667,23.1667 18.8333,23.8333 21.5,24.5C 21.5,24.8333 21.5,25.1667 21.5,25.5C 17.1667,25.5 12.8333,25.5 8.5,25.5C 8.5,24.5 8.5,23.5 8.5,22.5 Z"/></g>
<g><path style="opacity:0.004" fill="#fcfcfc" d="M -0.5,23.5 C -0.166667,23.5 0.166667,23.5 0.5,23.5C 0.67158,24.4916 0.338246,25.1583 -0.5,25.5C -0.5,24.8333 -0.5,24.1667 -0.5,23.5 Z"/></g>
<g><path style="opacity:0.978" fill="#f8fbf9" d="M 30.5,22.5 C 30.5,23.1667 30.5,23.8333 30.5,24.5C 29.8333,24.5 29.5,24.8333 29.5,25.5C 28.8333,25.5 28.5,25.8333 28.5,26.5C 27.8333,26.5 27.5,26.8333 27.5,27.5C 26.8333,27.5 26.5,27.8333 26.5,28.5C 25.8333,28.5 25.5,28.8333 25.5,29.5C 25.1667,29.5 24.8333,29.5 24.5,29.5C 21.7238,28.5879 19.0572,27.5879 16.5,26.5C 18.8333,26.5 21.1667,26.5 23.5,26.5C 23.56,27.0431 23.8933,27.3764 24.5,27.5C 25.1687,25.3691 25.8354,23.3691 26.5,21.5C 28.3747,19.9219 29.7081,20.2552 30.5,22.5 Z"/></g>
<g><path style="opacity:0.008" fill="#f7faf8" d="M 30.5,24.5 C 30.8333,24.5 31.1667,24.5 31.5,24.5C 31.5,24.8333 31.5,25.1667 31.5,25.5C 31.1667,25.1667 30.8333,24.8333 30.5,24.5 Z"/></g>
<g><path style="opacity:0.008" fill="#f0f3ef" d="M 29.5,25.5 C 29.8333,25.5 30.1667,25.5 30.5,25.5C 30.3147,26.1701 29.9813,26.1701 29.5,25.5 Z"/></g>
<g><path style="opacity:0.992" fill="#faf5fb" d="M 13.5,26.5 C 14.5,26.5 15.5,26.5 16.5,26.5C 19.0572,27.5879 21.7238,28.5879 24.5,29.5C 24.5,29.8333 24.5,30.1667 24.5,30.5C 23.5084,30.3284 22.8417,30.6618 22.5,31.5C 19.5,31.5 16.5,31.5 13.5,31.5C 13.5,29.8333 13.5,28.1667 13.5,26.5 Z"/></g>
<g><path style="opacity:0.004" fill="#5c5e5c" d="M 28.5,26.5 C 28.8333,26.5 29.1667,26.5 29.5,26.5C 29.5,28.5 28.5,29.5 26.5,29.5C 26.5,29.1667 26.5,28.8333 26.5,28.5C 27.1667,28.5 27.5,28.1667 27.5,27.5C 28.1667,27.5 28.5,27.1667 28.5,26.5 Z"/></g>
<g><path style="opacity:0.008" fill="#fefffe" d="M 25.5,29.5 C 25.8333,29.5 26.1667,29.5 26.5,29.5C 26.3147,30.1701 25.9813,30.1701 25.5,29.5 Z"/></g>
<g><path style="opacity:0.006" fill="#fdfbfe" d="M 5.5,31.5 C 5.84171,30.6618 6.50838,30.3284 7.5,30.5C 7.5,30.8333 7.5,31.1667 7.5,31.5C 6.83333,31.5 6.16667,31.5 5.5,31.5 Z"/></g>
<g><path style="opacity:0.008" fill="#f5f3f6" d="M 24.5,30.5 C 24.8333,30.5 25.1667,30.5 25.5,30.5C 25.5,30.8333 25.5,31.1667 25.5,31.5C 25.1667,31.1667 24.8333,30.8333 24.5,30.5 Z"/></g>
</svg>
