<?xml version="1.0" encoding="UTF-8"?>
<!DOCTYPE svg PUBLIC "-//W3C//DTD SVG 1.1//EN" "http://www.w3.org/Graphics/SVG/1.1/DTD/svg11.dtd">
<svg xmlns="http://www.w3.org/2000/svg" version="1.1" width="50px" height="50px" style="shape-rendering:geometricPrecision; text-rendering:geometricPrecision; image-rendering:optimizeQuality; fill-rule:evenodd; clip-rule:evenodd" xmlns:xlink="http://www.w3.org/1999/xlink">
<g><path style="opacity:1" fill="#f4f3f7" d="M -0.5,-0.5 C 16.1667,-0.5 32.8333,-0.5 49.5,-0.5C 49.5,16.1667 49.5,32.8333 49.5,49.5C 32.8333,49.5 16.1667,49.5 -0.5,49.5C -0.5,32.8333 -0.5,16.1667 -0.5,-0.5 Z"/></g>
<g><path style="opacity:1" fill="#0b0859" d="M 16.5,0.5 C 30.8155,-1.8007 40.9821,3.53264 47,16.5C 48.2066,40.3334 37.0399,49.8334 13.5,45C 2.17822,37.7058 -1.65511,27.5392 2,14.5C 5.40839,8.25655 10.2417,3.58988 16.5,0.5 Z"/></g>
<g><path style="opacity:1" fill="#07055d" d="M 19.5,4.5 C 31.2824,3.56679 39.1158,8.56679 43,19.5C 43.6959,23.9054 43.3626,28.2388 42,32.5C 31.2761,46.3912 19.7761,47.0579 7.5,34.5C 1.80168,20.6298 5.80168,10.6298 19.5,4.5 Z"/></g>
<g><path style="opacity:1" fill="#9797b8" d="M 16.5,16.5 C 21.3054,15.5128 26.3054,15.1795 31.5,15.5C 30.4479,17.256 28.7812,17.9227 26.5,17.5C 23.3752,16.5206 20.0419,16.1872 16.5,16.5 Z"/></g>
<g><path style="opacity:1" fill="#e8e8ef" d="M 16.5,16.5 C 20.0419,16.1872 23.3752,16.5206 26.5,17.5C 28.1667,18.1667 29.8333,18.8333 31.5,19.5C 22.1667,19.8333 22.1667,20.1667 31.5,20.5C 28.3107,21.1661 24.9773,21.8328 21.5,22.5C 24.9773,23.1672 28.3107,23.8339 31.5,24.5C 18.1667,24.8333 18.1667,25.1667 31.5,25.5C 29.0314,26.3171 26.3647,26.8171 23.5,27C 26.1667,27.3333 28.8333,27.6667 31.5,28C 25.1426,28.9696 25.1426,30.1362 31.5,31.5C 26.5,31.5 21.5,31.5 16.5,31.5C 16.5,26.5 16.5,21.5 16.5,16.5 Z"/></g>
<g><path style="opacity:1" fill="#4b4b89" d="M 31.5,15.5 C 32.8333,16.8333 32.8333,18.1667 31.5,19.5C 29.8333,18.8333 28.1667,18.1667 26.5,17.5C 28.7812,17.9227 30.4479,17.256 31.5,15.5 Z"/></g>
<g><path style="opacity:1" fill="#64639b" d="M 31.5,20.5 C 32.8333,21.8333 32.8333,23.1667 31.5,24.5C 28.3107,23.8339 24.9773,23.1672 21.5,22.5C 24.9773,21.8328 28.3107,21.1661 31.5,20.5 Z"/></g>
<g><path style="opacity:1" fill="#4c4a8a" d="M 31.5,25.5 C 32.8333,27.5 32.8333,29.5 31.5,31.5C 25.1426,30.1362 25.1426,28.9696 31.5,28C 28.8333,27.6667 26.1667,27.3333 23.5,27C 26.3647,26.8171 29.0314,26.3171 31.5,25.5 Z"/></g>
</svg>
