<?xml version="1.0" encoding="UTF-8"?>
<!DOCTYPE svg PUBLIC "-//W3C//DTD SVG 1.1//EN" "http://www.w3.org/Graphics/SVG/1.1/DTD/svg11.dtd">
<svg xmlns="http://www.w3.org/2000/svg" version="1.1" width="64px" height="64px" style="shape-rendering:geometricPrecision; text-rendering:geometricPrecision; image-rendering:optimizeQuality; fill-rule:evenodd; clip-rule:evenodd" xmlns:xlink="http://www.w3.org/1999/xlink">
<g><path style="opacity:0.99" fill="#0d5e8e" d="M 21.5,-0.5 C 28.1667,-0.5 34.8333,-0.5 41.5,-0.5C 52.2564,3.9224 59.5897,11.5891 63.5,22.5C 63.5,28.5 63.5,34.5 63.5,40.5C 59.5897,51.4109 52.2564,59.0776 41.5,63.5C 34.8333,63.5 28.1667,63.5 21.5,63.5C 10.7436,59.0776 3.41031,51.4109 -0.5,40.5C -0.5,34.5 -0.5,28.5 -0.5,22.5C 3.41031,11.5891 10.7436,3.9224 21.5,-0.5 Z"/></g>
<g><path style="opacity:1" fill="#2a709a" d="M 37.5,15.5 C 29.7572,14.8701 22.4238,15.5367 15.5,17.5C 14.596,16.791 14.2627,15.791 14.5,14.5C 22.3516,14.1746 30.0182,14.508 37.5,15.5 Z"/></g>
<g><path style="opacity:1" fill="#e1e6ea" d="M 37.5,15.5 C 52.308,19.7855 56.1413,28.7855 49,42.5C 46.0151,45.4089 42.5151,47.4089 38.5,48.5C 30.6484,48.8254 22.9818,48.492 15.5,47.5C 16.2899,46.2058 17.2899,45.0391 18.5,44C 25.1667,43.6667 31.8333,43.3333 38.5,43C 35.931,40.5206 33.5977,37.854 31.5,35C 33.5,34.3333 35.5,34.3333 37.5,35C 39.3501,37.0176 41.3501,38.8509 43.5,40.5C 44.4776,40.0233 45.3109,39.3567 46,38.5C 50.245,29.0006 47.4116,23.0006 37.5,20.5C 33.3171,19.1889 28.9838,19.1889 24.5,20.5C 24.6236,21.1067 24.9569,21.44 25.5,21.5C 27.6,24.1041 29.9334,26.6041 32.5,29C 30.5,29.6667 28.5,29.6667 26.5,29C 23.1633,24.8045 19.4966,20.9711 15.5,17.5C 22.4238,15.5367 29.7572,14.8701 37.5,15.5 Z"/></g>
<g><path style="opacity:1" fill="#94b5c9" d="M 37.5,20.5 C 33.2984,20.1832 29.2984,20.5166 25.5,21.5C 24.9569,21.44 24.6236,21.1067 24.5,20.5C 28.9838,19.1889 33.3171,19.1889 37.5,20.5 Z"/></g>
<g><path style="opacity:1" fill="#2f759d" d="M 15.5,47.5 C 22.9818,48.492 30.6484,48.8254 38.5,48.5C 30.6572,49.8204 22.6572,49.8204 14.5,48.5C 14.6236,47.8933 14.9569,47.56 15.5,47.5 Z"/></g>
</svg>
