<?xml version="1.0" encoding="UTF-8"?>
<!DOCTYPE svg PUBLIC "-//W3C//DTD SVG 1.1//EN" "http://www.w3.org/Graphics/SVG/1.1/DTD/svg11.dtd">
<svg xmlns="http://www.w3.org/2000/svg" version="1.1" width="128px" height="128px" style="shape-rendering:geometricPrecision; text-rendering:geometricPrecision; image-rendering:optimizeQuality; fill-rule:evenodd; clip-rule:evenodd" xmlns:xlink="http://www.w3.org/1999/xlink">
<g><path style="opacity:0.867" fill="#050505" d="M 51.5,-0.5 C 59.5,-0.5 67.5,-0.5 75.5,-0.5C 103.633,6.6328 120.967,24.2995 127.5,52.5C 127.5,59.8333 127.5,67.1667 127.5,74.5C 120.904,102.762 103.57,120.429 75.5,127.5C 67.5,127.5 59.5,127.5 51.5,127.5C 22.9084,120.243 5.57509,102.243 -0.5,73.5C -0.5,66.8333 -0.5,60.1667 -0.5,53.5C 5.63155,24.702 22.9649,6.70197 51.5,-0.5 Z"/></g>
<g><path style="opacity:1" fill="#fbfbfb" d="M 51.5,5.5 C 87.8001,1.99439 110.967,17.6611 121,52.5C 124.444,87.7956 109.277,110.629 75.5,121C 38.6904,124.824 15.5237,108.991 6,73.5C 3.07021,38.6153 18.2369,15.9487 51.5,5.5 Z"/></g>
<g><path style="opacity:1" fill="#898989" d="M 50.5,35.5 C 49.8333,37.5 49.1667,39.5 48.5,41.5C 48.335,38.1501 48.5017,34.8168 49,31.5C 49.7914,32.745 50.2914,34.0783 50.5,35.5 Z"/></g>
<g><path style="opacity:1" fill="#060606" d="M 50.5,35.5 C 54.3428,48.535 58.3428,61.535 62.5,74.5C 52.2191,76.4762 41.5524,77.1428 30.5,76.5C 24.1414,75.1357 20.4747,71.1357 19.5,64.5C 20.2886,60.2939 22.2886,56.7939 25.5,54C 33.3539,49.906 41.0206,45.7393 48.5,41.5C 49.1667,39.5 49.8333,37.5 50.5,35.5 Z"/></g>
<g><path style="opacity:1" fill="#888888" d="M 67.5,30.5 C 67.5,32.5 67.5,34.5 67.5,36.5C 69.5,36.5 71.5,36.5 73.5,36.5C 73.5,34.5 73.5,32.5 73.5,30.5C 74.4682,32.6074 74.8016,34.9407 74.5,37.5C 71.8333,37.5 69.1667,37.5 66.5,37.5C 66.1984,34.9407 66.5318,32.6074 67.5,30.5 Z"/></g>
<g><path style="opacity:1" fill="#000000" d="M 67.5,30.5 C 69.5,30.5 71.5,30.5 73.5,30.5C 73.5,32.5 73.5,34.5 73.5,36.5C 71.5,36.5 69.5,36.5 67.5,36.5C 67.5,34.5 67.5,32.5 67.5,30.5 Z"/></g>
<g><path style="opacity:1" fill="#6e6e6e" d="M 96.5,50.5 C 85.6536,50.1722 74.9869,50.5056 64.5,51.5C 63.9569,51.44 63.6236,51.1067 63.5,50.5C 74.6596,49.1762 85.6596,49.1762 96.5,50.5 Z"/></g>
<g><path style="opacity:1" fill="#060606" d="M 96.5,50.5 C 105.076,52.5652 108.576,57.8985 107,66.5C 105.859,68.6089 104.359,70.4422 102.5,72C 94.2757,76.2742 86.2757,80.7742 78.5,85.5C 77.8333,87.1667 77.1667,88.8333 76.5,90.5C 72.5078,77.5217 68.5078,64.5217 64.5,51.5C 74.9869,50.5056 85.6536,50.1722 96.5,50.5 Z"/></g>
<g><path style="opacity:1" fill="#ededed" d="M 50.5,53.5 C 51.5,53.5 52.5,53.5 53.5,53.5C 54.5119,57.5152 55.5119,61.5152 56.5,65.5C 47.4754,65.8315 38.4754,65.4982 29.5,64.5C 36.7415,61.0483 43.7415,57.3817 50.5,53.5 Z"/></g>
<g><path style="opacity:1" fill="#f3f3f3" d="M 71.5,61.5 C 80.1922,61.1686 88.8589,61.502 97.5,62.5C 90.2029,66.1485 82.8696,69.8152 75.5,73.5C 74.914,73.2907 74.414,72.9574 74,72.5C 72.5597,68.9591 71.7264,65.2924 71.5,61.5 Z"/></g>
<g><path style="opacity:1" fill="#898989" d="M 62.5,74.5 C 63.4778,74.811 64.1445,75.4777 64.5,76.5C 53.0069,77.824 41.6735,77.824 30.5,76.5C 41.5524,77.1428 52.2191,76.4762 62.5,74.5 Z"/></g>
<g><path style="opacity:1" fill="#8a8a8a" d="M 59.5,96.5 C 59.5,94.5 59.5,92.5 59.5,90.5C 57.5,90.5 55.5,90.5 53.5,90.5C 53.5,92.5 53.5,94.5 53.5,96.5C 52.5318,94.3926 52.1984,92.0593 52.5,89.5C 55.1667,89.5 57.8333,89.5 60.5,89.5C 60.8016,92.0593 60.4682,94.3926 59.5,96.5 Z"/></g>
<g><path style="opacity:1" fill="#000000" d="M 59.5,96.5 C 57.5,96.5 55.5,96.5 53.5,96.5C 53.5,94.5 53.5,92.5 53.5,90.5C 55.5,90.5 57.5,90.5 59.5,90.5C 59.5,92.5 59.5,94.5 59.5,96.5 Z"/></g>
<g><path style="opacity:1" fill="#7a7a7a" d="M 78.5,85.5 C 78.6646,88.5184 78.498,91.5184 78,94.5C 77.2086,93.255 76.7086,91.9217 76.5,90.5C 77.1667,88.8333 77.8333,87.1667 78.5,85.5 Z"/></g>
</svg>
