<?xml version="1.0" encoding="UTF-8"?>
<!DOCTYPE svg PUBLIC "-//W3C//DTD SVG 1.1//EN" "http://www.w3.org/Graphics/SVG/1.1/DTD/svg11.dtd">
<svg xmlns="http://www.w3.org/2000/svg" version="1.1" width="64px" height="64px" style="shape-rendering:geometricPrecision; text-rendering:geometricPrecision; image-rendering:optimizeQuality; fill-rule:evenodd; clip-rule:evenodd" xmlns:xlink="http://www.w3.org/1999/xlink">
<g><path style="opacity:0.984" fill="#759ffb" d="M 34.5,-0.5 C 36.5,-0.5 38.5,-0.5 40.5,-0.5C 51.8074,3.47406 59.4741,11.1407 63.5,22.5C 63.5,28.5 63.5,34.5 63.5,40.5C 63.1667,40.5 62.8333,40.5 62.5,40.5C 61.6715,39.6676 60.8382,40.001 60,41.5C 56.5349,37.0332 52.7016,32.8666 48.5,29C 49.1667,28 49.8333,27 50.5,26C 42.9815,17.9825 35.6482,9.81579 28.5,1.5C 30.6309,0.831285 32.6309,0.164619 34.5,-0.5 Z"/></g>
<g><path style="opacity:0.914" fill="#8caffc" d="M 16.5,2.5 C 18.7167,6.42469 22.0501,10.0914 26.5,13.5C 23.1667,17.5 19.5,21.1667 15.5,24.5C 11.029,21.3698 7.69563,17.3698 5.5,12.5C 7.87134,7.79765 11.538,4.46432 16.5,2.5 Z"/></g>
<g><path style="opacity:1" fill="#fafbfe" d="M 44.5,31.5 C 42.8712,32.6253 41.3712,33.9586 40,35.5C 37.3176,32.6503 34.4843,29.9836 31.5,27.5C 28.8122,29.5211 26.4789,31.8544 24.5,34.5C 22.1715,35.7489 20.3382,35.0823 19,32.5C 17.8783,30.3762 16.3783,28.5429 14.5,27C 15.2524,26.3292 15.5858,25.4959 15.5,24.5C 19.5,21.1667 23.1667,17.5 26.5,13.5C 27.9616,12.5423 29.2949,11.3756 30.5,10C 31.1667,9.33333 31.8333,9.33333 32.5,10C 38.1995,15.3648 43.5328,21.0315 48.5,27C 46.9586,28.3712 45.6253,29.8712 44.5,31.5 Z"/></g>
<g><path style="opacity:0.963" fill="#7fa6fc" d="M 22.5,-0.5 C 26.5,-0.5 30.5,-0.5 34.5,-0.5C 32.6309,0.164619 30.6309,0.831285 28.5,1.5C 35.6482,9.81579 42.9815,17.9825 50.5,26C 49.8333,27 49.1667,28 48.5,29C 52.7016,32.8666 56.5349,37.0332 60,41.5C 60.8382,40.001 61.6715,39.6676 62.5,40.5C 61.9579,43.9122 60.6246,46.9122 58.5,49.5C 53.204,46.0523 48.3707,41.3856 44,35.5C 43.805,34.1807 43.9717,32.8474 44.5,31.5C 45.6253,29.8712 46.9586,28.3712 48.5,27C 43.5328,21.0315 38.1995,15.3648 32.5,10C 31.8333,9.33333 31.1667,9.33333 30.5,10C 29.2949,11.3756 27.9616,12.5423 26.5,13.5C 22.0501,10.0914 18.7167,6.42469 16.5,2.5C 18.5,1.5 20.5,0.5 22.5,-0.5 Z"/></g>
<g><path style="opacity:0.86" fill="#a6c0fb" d="M 1.5,18.5 C 2.56094,22.5799 5.06094,25.5799 9,27.5C 9.33333,28.5 9.66667,29.5 10,30.5C 13.4228,33.7583 16.5894,37.0916 19.5,40.5C 18.1667,40.5 16.8333,40.5 15.5,40.5C 15.5,44.1667 15.5,47.8333 15.5,51.5C 17.8333,51.5 20.1667,51.5 22.5,51.5C 23.1174,51.3893 23.6174,51.056 24,50.5C 26.273,56.2696 30.1063,60.603 35.5,63.5C 31.1667,63.5 26.8333,63.5 22.5,63.5C 11.1667,59.5 3.5,51.8333 -0.5,40.5C -0.5,34.5 -0.5,28.5 -0.5,22.5C 0.344644,21.3285 1.01131,19.9952 1.5,18.5 Z"/></g>
<g><path style="opacity:1" fill="#8fb0fa" d="M 44.5,31.5 C 43.9717,32.8474 43.805,34.1807 44,35.5C 48.3707,41.3856 53.204,46.0523 58.5,49.5C 57.1448,52.8553 54.8114,55.1886 51.5,56.5C 48.5159,56.2132 47.1826,54.5465 47.5,51.5C 46.8727,48.911 46.8727,46.411 47.5,44C 47.3613,42.699 46.6946,41.8656 45.5,41.5C 43.3926,40.5318 41.0593,40.1984 38.5,40.5C 38.5,43.1667 38.5,45.8333 38.5,48.5C 37.5,49.8333 36.5,49.8333 35.5,48.5C 35.5,45.8333 35.5,43.1667 35.5,40.5C 34.209,40.2627 33.209,40.596 32.5,41.5C 32.5,44.1667 32.5,46.8333 32.5,49.5C 31.5,49.5 30.5,49.5 29.5,49.5C 29.81,46.2869 29.4767,43.2869 28.5,40.5C 26.7484,38.7541 25.4151,36.7541 24.5,34.5C 26.4789,31.8544 28.8122,29.5211 31.5,27.5C 34.4843,29.9836 37.3176,32.6503 40,35.5C 41.3712,33.9586 42.8712,32.6253 44.5,31.5 Z"/></g>
<g><path style="opacity:1" fill="#6177aa" d="M 45.5,41.5 C 43.5,41.5 41.5,41.5 39.5,41.5C 39.5,44.8333 39.5,48.1667 39.5,51.5C 38.596,50.791 38.2627,49.791 38.5,48.5C 38.5,45.8333 38.5,43.1667 38.5,40.5C 41.0593,40.1984 43.3926,40.5318 45.5,41.5 Z"/></g>
<g><path style="opacity:1" fill="#4a597d" d="M 32.5,41.5 C 33.209,40.596 34.209,40.2627 35.5,40.5C 35.5,43.1667 35.5,45.8333 35.5,48.5C 35.5,49.1667 35.1667,49.5 34.5,49.5C 35.0356,46.3019 34.369,43.6353 32.5,41.5 Z"/></g>
<g><path style="opacity:1" fill="#7991c6" d="M 28.5,40.5 C 29.4767,43.2869 29.81,46.2869 29.5,49.5C 28.8343,46.9723 28.1676,44.3056 27.5,41.5C 26.52,44.0865 26.1866,46.7531 26.5,49.5C 25.5233,46.7131 25.19,43.7131 25.5,40.5C 26.5,40.5 27.5,40.5 28.5,40.5 Z"/></g>
<g><path style="opacity:0.948" fill="#99b7f9" d="M 5.5,12.5 C 7.69563,17.3698 11.029,21.3698 15.5,24.5C 15.5858,25.4959 15.2524,26.3292 14.5,27C 16.3783,28.5429 17.8783,30.3762 19,32.5C 20.3382,35.0823 22.1715,35.7489 24.5,34.5C 25.4151,36.7541 26.7484,38.7541 28.5,40.5C 27.5,40.5 26.5,40.5 25.5,40.5C 25.19,43.7131 25.5233,46.7131 26.5,49.5C 29.1667,53.5 31.8333,53.5 34.5,49.5C 35.1667,49.5 35.5,49.1667 35.5,48.5C 36.5,49.8333 37.5,49.8333 38.5,48.5C 38.2627,49.791 38.596,50.791 39.5,51.5C 41.0481,51.1788 41.7148,50.1788 41.5,48.5C 42.5,48.5 43.5,48.5 44.5,48.5C 44.5,49.5 44.5,50.5 44.5,51.5C 45.5,51.5 46.5,51.5 47.5,51.5C 47.1826,54.5465 48.5159,56.2132 51.5,56.5C 51.0472,57.4584 50.3805,58.2917 49.5,59C 46.4081,60.5459 43.4081,62.0459 40.5,63.5C 38.8333,63.5 37.1667,63.5 35.5,63.5C 30.1063,60.603 26.273,56.2696 24,50.5C 23.6174,51.056 23.1174,51.3893 22.5,51.5C 21.6649,50.0568 20.3316,49.0568 18.5,48.5C 23.8333,47.1667 23.8333,45.8333 18.5,44.5C 19.6888,43.5713 21.0222,43.238 22.5,43.5C 22.5,42.5 22.5,41.5 22.5,40.5C 21.5,40.5 20.5,40.5 19.5,40.5C 16.5894,37.0916 13.4228,33.7583 10,30.5C 9.66667,29.5 9.33333,28.5 9,27.5C 5.06094,25.5799 2.56094,22.5799 1.5,18.5C 2.3507,16.1184 3.68403,14.1184 5.5,12.5 Z"/></g>
<g><path style="opacity:1" fill="#2b3246" d="M 19.5,40.5 C 20.5,40.5 21.5,40.5 22.5,40.5C 22.5,41.5 22.5,42.5 22.5,43.5C 21.0222,43.238 19.6888,43.5713 18.5,44.5C 23.8333,45.8333 23.8333,47.1667 18.5,48.5C 20.3316,49.0568 21.6649,50.0568 22.5,51.5C 20.1667,51.5 17.8333,51.5 15.5,51.5C 15.5,47.8333 15.5,44.1667 15.5,40.5C 16.8333,40.5 18.1667,40.5 19.5,40.5 Z"/></g>
<g><path style="opacity:1" fill="#293045" d="M 45.5,41.5 C 46.6946,41.8656 47.3613,42.699 47.5,44C 46.8727,46.411 46.8727,48.911 47.5,51.5C 46.5,51.5 45.5,51.5 44.5,51.5C 44.5,50.5 44.5,49.5 44.5,48.5C 43.5,48.5 42.5,48.5 41.5,48.5C 41.7148,50.1788 41.0481,51.1788 39.5,51.5C 39.5,48.1667 39.5,44.8333 39.5,41.5C 41.5,41.5 43.5,41.5 45.5,41.5 Z"/></g>
<g><path style="opacity:1" fill="#82a3ec" d="M 41.5,43.5 C 42.675,43.281 43.675,43.6143 44.5,44.5C 42.9483,45.7979 41.9483,45.4646 41.5,43.5 Z"/></g>
<g><path style="opacity:1" fill="#272d41" d="M 29.5,49.5 C 30.5,49.5 31.5,49.5 32.5,49.5C 32.5,46.8333 32.5,44.1667 32.5,41.5C 34.369,43.6353 35.0356,46.3019 34.5,49.5C 31.8333,53.5 29.1667,53.5 26.5,49.5C 26.1866,46.7531 26.52,44.0865 27.5,41.5C 28.1676,44.3056 28.8343,46.9723 29.5,49.5 Z"/></g>
</svg>
