<?xml version="1.0" encoding="UTF-8"?>
<!DOCTYPE svg PUBLIC "-//W3C//DTD SVG 1.1//EN" "http://www.w3.org/Graphics/SVG/1.1/DTD/svg11.dtd">
<svg xmlns="http://www.w3.org/2000/svg" version="1.1" width="400px" height="400px" style="shape-rendering:geometricPrecision; text-rendering:geometricPrecision; image-rendering:optimizeQuality; fill-rule:evenodd; clip-rule:evenodd" xmlns:xlink="http://www.w3.org/1999/xlink">
<g><path style="opacity:1" fill="#e7d23e" d="M -0.5,-0.5 C 132.833,-0.5 266.167,-0.5 399.5,-0.5C 399.5,132.833 399.5,266.167 399.5,399.5C 266.167,399.5 132.833,399.5 -0.5,399.5C -0.5,266.167 -0.5,132.833 -0.5,-0.5 Z"/></g>
<g><path style="opacity:1" fill="#010100" d="M 180.5,96.5 C 180.833,96.5 181.167,96.5 181.5,96.5C 212.649,105.095 230.649,125.429 235.5,157.5C 235.5,159.833 235.5,162.167 235.5,164.5C 189.167,164.5 142.833,164.5 96.5,164.5C 96.3402,150.984 100.007,138.65 107.5,127.5C 109.167,124.833 110.833,122.167 112.5,119.5C 131.021,99.8816 153.687,92.2149 180.5,96.5 Z"/></g>
<g><path style="opacity:1" fill="#dccd59" d="M 180.5,96.5 C 153.687,92.2149 131.021,99.8816 112.5,119.5C 112.343,118.127 112.51,116.793 113,115.5C 114.791,114.088 115.958,112.255 116.5,110C 117.76,108.887 118.927,108.72 120,109.5C 122.253,106.637 125.086,104.637 128.5,103.5C 127.494,102.604 127.494,101.938 128.5,101.5C 129.736,102.246 131.07,102.579 132.5,102.5C 132.5,101.5 132.5,100.5 132.5,99.5C 134.541,99.1459 136.374,99.1459 138,99.5C 146.36,95.7012 155.193,94.0345 164.5,94.5C 169.5,94.6667 174.5,94.8333 179.5,95C 180.056,95.3826 180.389,95.8826 180.5,96.5 Z"/></g>
<g><path style="opacity:1" fill="#010000" d="M 243.5,96.5 C 256.849,100.179 270.183,103.845 283.5,107.5C 289.956,109.71 296.456,112.043 303,114.5C 303.5,151.165 303.667,187.832 303.5,224.5C 303.5,224.833 303.5,225.167 303.5,225.5C 302.359,227.243 300.692,228.243 298.5,228.5C 286.262,224.753 273.929,221.42 261.5,218.5C 258.093,216.926 254.427,215.926 250.5,215.5C 246.762,214.522 243.262,212.855 240,210.5C 239.333,173.5 239.333,136.5 240,99.5C 241.145,98.3636 242.312,97.3636 243.5,96.5 Z"/></g>
<g><path style="opacity:1" fill="#e3d148" d="M 277.5,290.5 C 281.513,286.485 285.179,282.152 288.5,277.5C 298.259,264.56 303.259,249.893 303.5,233.5C 303.158,232.662 302.492,232.328 301.5,232.5C 298.359,231.679 295.025,231.179 291.5,231C 295.297,229.576 299.297,229.076 303.5,229.5C 303.5,228.167 303.5,226.833 303.5,225.5C 303.5,225.167 303.5,224.833 303.5,224.5C 304.829,187.264 304.829,149.931 303.5,112.5C 304.568,111.566 305.901,111.232 307.5,111.5C 306.865,149.745 307.531,187.912 309.5,226C 306.754,230.527 307.42,234.527 311.5,238C 310.572,238.388 309.905,239.055 309.5,240C 308.815,242.795 308.315,245.628 308,248.5C 306.989,249.337 305.822,249.67 304.5,249.5C 301.682,254.818 299.682,260.484 298.5,266.5C 297.522,266.977 296.689,267.643 296,268.5C 293.672,273.163 291.339,277.83 289,282.5C 285.833,283.667 283.667,285.833 282.5,289C 280.975,290.009 279.308,290.509 277.5,290.5 Z"/></g>
<g><path style="opacity:1" fill="#dbcd69" d="M 283.5,107.5 C 284.833,107.5 286.167,107.5 287.5,107.5C 292.598,109.403 297.932,111.07 303.5,112.5C 304.829,149.931 304.829,187.264 303.5,224.5C 303.667,187.832 303.5,151.165 303,114.5C 296.456,112.043 289.956,109.71 283.5,107.5 Z"/></g>
<g><path style="opacity:1" fill="#e2cf52" d="M 287.5,107.5 C 286.167,107.5 284.833,107.5 283.5,107.5C 270.183,103.845 256.849,100.179 243.5,96.5C 241.833,96.5 240.167,96.5 238.5,96.5C 238.5,133.5 238.5,170.5 238.5,207.5C 237.504,207.586 236.671,207.252 236,206.5C 235.189,195.12 235.355,183.787 236.5,172.5C 234.833,170.667 233.167,168.833 231.5,167C 189.501,166.5 147.501,166.333 105.5,166.5C 105.392,168.514 106.058,170.18 107.5,171.5C 103.731,169.827 100.231,170.16 97,172.5C 96.3333,209.5 96.3333,246.5 97,283.5C 97.7172,284.044 98.2172,284.711 98.5,285.5C 97.1779,285.67 96.0113,285.337 95,284.5C 94.8332,248.162 94.3332,211.829 93.5,175.5C 92.8076,174.975 92.3076,174.308 92,173.5C 91.6924,174.308 91.1924,174.975 90.5,175.5C 90.0253,172.074 89.0253,168.908 87.5,166C 89.6983,164.33 90.0317,162.33 88.5,160C 89.7604,158.887 90.927,158.72 92,159.5C 92.3173,157.699 92.984,157.366 94,158.5C 94.0122,148.967 96.1789,139.967 100.5,131.5C 101.167,131.833 101.833,132.167 102.5,132.5C 102.698,129.215 104.365,127.548 107.5,127.5C 100.007,138.65 96.3402,150.984 96.5,164.5C 142.997,165.499 189.664,165.832 236.5,165.5C 236.806,162.615 236.473,159.948 235.5,157.5C 230.649,125.429 212.649,105.095 181.5,96.5C 184.86,96.3841 188.193,96.0508 191.5,95.5C 191.5,96.5 191.5,97.5 191.5,98.5C 193.451,98.2267 194.951,98.8934 196,100.5C 198.432,99.7071 200.766,99.3737 203,99.5C 203.154,102.525 204.654,104.191 207.5,104.5C 207.33,105.822 207.663,106.989 208.5,108C 212.478,110.758 216.311,113.591 220,116.5C 222.726,113.615 225.226,110.615 227.5,107.5C 226.469,105.618 225.635,103.618 225,101.5C 224.683,103.301 224.016,103.634 223,102.5C 220.444,103.219 219.277,104.886 219.5,107.5C 217.897,107.688 216.563,107.188 215.5,106C 219.372,101.3 223.372,96.8002 227.5,92.5C 228.799,93.09 229.632,94.09 230,95.5C 231.05,100.448 231.55,105.448 231.5,110.5C 230.5,110.5 229.5,110.5 228.5,110.5C 228.33,113.676 226.663,115.676 223.5,116.5C 222.754,117.736 222.421,119.07 222.5,120.5C 224.58,121.044 226.58,121.878 228.5,123C 228.167,123.333 227.833,123.667 227.5,124C 228.844,128.881 230.51,133.714 232.5,138.5C 233.325,139.386 234.325,139.719 235.5,139.5C 235.571,136.689 236.238,134.022 237.5,131.5C 235.465,127.561 234.131,123.394 233.5,119C 234.372,113.845 234.372,108.845 233.5,104C 234.308,103.692 234.975,103.192 235.5,102.5C 235.579,100.071 235.245,97.5709 234.5,95C 239.864,94.1705 245.198,94.3372 250.5,95.5C 255.099,97.8496 259.932,99.5163 265,100.5C 266.707,100.352 268.374,100.018 270,99.5C 271.811,100.424 271.645,101.257 269.5,102C 272.5,102.333 275.5,102.667 278.5,103C 281.347,105.03 284.347,106.53 287.5,107.5 Z"/></g>
<g><path style="opacity:1" fill="#655921" d="M 235.5,157.5 C 236.473,159.948 236.806,162.615 236.5,165.5C 189.664,165.832 142.997,165.499 96.5,164.5C 142.833,164.5 189.167,164.5 235.5,164.5C 235.5,162.167 235.5,159.833 235.5,157.5 Z"/></g>
<g><path style="opacity:1" fill="#020100" d="M 107.5,171.5 C 107.833,171.5 108.167,171.5 108.5,171.5C 116.9,174.435 125.567,176.769 134.5,178.5C 138.895,180.435 143.562,181.769 148.5,182.5C 151.614,183.956 154.948,185.122 158.5,186C 159.126,186.75 159.626,187.584 160,188.5C 160.667,225.167 160.667,261.833 160,298.5C 158.883,300.124 157.383,301.124 155.5,301.5C 149.482,299.829 143.482,298.163 137.5,296.5C 136.833,296.5 136.167,296.5 135.5,296.5C 123.51,292.081 111.177,288.414 98.5,285.5C 98.2172,284.711 97.7172,284.044 97,283.5C 96.3333,246.5 96.3333,209.5 97,172.5C 100.231,170.16 103.731,169.827 107.5,171.5 Z"/></g>
<g><path style="opacity:1" fill="#d5c45e" d="M 108.5,171.5 C 112.915,171.305 117.249,171.805 121.5,173C 125.922,174.801 130.255,176.634 134.5,178.5C 125.567,176.769 116.9,174.435 108.5,171.5 Z"/></g>
<g><path style="opacity:1" fill="#e7d23e" d="M 238.5,207.5 C 238.5,209.5 238.5,211.5 238.5,213.5C 242.462,214.376 246.462,215.042 250.5,215.5C 254.427,215.926 258.093,216.926 261.5,218.5C 262.842,219.793 264.509,220.626 266.5,221C 265.692,221.308 265.025,221.808 264.5,222.5C 273.697,222.435 282.363,224.435 290.5,228.5C 286.185,229.415 281.852,230.248 277.5,231C 239.664,231.167 201.998,231.667 164.5,232.5C 164.167,232.5 163.833,232.5 163.5,232.5C 162.423,216.978 162.256,201.311 163,185.5C 160.931,184.736 158.764,184.236 156.5,184C 156.833,183.667 157.167,183.333 157.5,183C 154.518,182.502 151.518,182.335 148.5,182.5C 143.562,181.769 138.895,180.435 134.5,178.5C 130.255,176.634 125.922,174.801 121.5,173C 117.249,171.805 112.915,171.305 108.5,171.5C 108.167,171.5 107.833,171.5 107.5,171.5C 106.058,170.18 105.392,168.514 105.5,166.5C 147.501,166.333 189.501,166.5 231.5,167C 233.167,168.833 234.833,170.667 236.5,172.5C 235.355,183.787 235.189,195.12 236,206.5C 236.671,207.252 237.504,207.586 238.5,207.5 Z"/></g>
<g><path style="opacity:1" fill="#cdbe5c" d="M 243.5,96.5 C 242.312,97.3636 241.145,98.3636 240,99.5C 239.333,136.5 239.333,173.5 240,210.5C 243.262,212.855 246.762,214.522 250.5,215.5C 246.462,215.042 242.462,214.376 238.5,213.5C 238.5,211.5 238.5,209.5 238.5,207.5C 238.5,170.5 238.5,133.5 238.5,96.5C 240.167,96.5 241.833,96.5 243.5,96.5 Z"/></g>
<g><path style="opacity:1" fill="#e0ce57" d="M 261.5,218.5 C 273.929,221.42 286.262,224.753 298.5,228.5C 300.692,228.243 302.359,227.243 303.5,225.5C 303.5,226.833 303.5,228.167 303.5,229.5C 299.297,229.076 295.297,229.576 291.5,231C 295.025,231.179 298.359,231.679 301.5,232.5C 255.833,232.5 210.167,232.5 164.5,232.5C 201.998,231.667 239.664,231.167 277.5,231C 281.852,230.248 286.185,229.415 290.5,228.5C 282.363,224.435 273.697,222.435 264.5,222.5C 265.025,221.808 265.692,221.308 266.5,221C 264.509,220.626 262.842,219.793 261.5,218.5 Z"/></g>
<g><path style="opacity:1" fill="#877b27" d="M 163.5,232.5 C 163.833,232.5 164.167,232.5 164.5,232.5C 210.167,232.5 255.833,232.5 301.5,232.5C 302.492,232.328 303.158,232.662 303.5,233.5C 257.167,233.5 210.833,233.5 164.5,233.5C 164.5,235.833 164.5,238.167 164.5,240.5C 163.527,238.052 163.194,235.385 163.5,232.5 Z"/></g>
<g><path style="opacity:1" fill="#010101" d="M 303.5,233.5 C 303.259,249.893 298.259,264.56 288.5,277.5C 267.158,300.674 241.158,308.007 210.5,299.5C 201.912,295.871 193.912,291.205 186.5,285.5C 175.819,274.48 168.486,261.48 164.5,246.5C 164.5,244.5 164.5,242.5 164.5,240.5C 164.5,238.167 164.5,235.833 164.5,233.5C 210.833,233.5 257.167,233.5 303.5,233.5 Z"/></g>
<g><path style="opacity:1" fill="#d5c862" d="M 148.5,182.5 C 151.518,182.335 154.518,182.502 157.5,183C 157.167,183.333 156.833,183.667 156.5,184C 158.764,184.236 160.931,184.736 163,185.5C 162.256,201.311 162.423,216.978 163.5,232.5C 163.194,235.385 163.527,238.052 164.5,240.5C 164.5,242.5 164.5,244.5 164.5,246.5C 162.678,263.137 161.844,280.137 162,297.5C 161.216,301.431 158.716,303.098 154.5,302.5C 148.848,301.336 143.181,300.336 137.5,299.5C 137.5,298.5 137.5,297.5 137.5,296.5C 143.482,298.163 149.482,299.829 155.5,301.5C 157.383,301.124 158.883,300.124 160,298.5C 160.667,261.833 160.667,225.167 160,188.5C 159.626,187.584 159.126,186.75 158.5,186C 154.948,185.122 151.614,183.956 148.5,182.5 Z"/></g>
<g><path style="opacity:1" fill="#d6c75a" d="M 98.5,285.5 C 111.177,288.414 123.51,292.081 135.5,296.5C 126.025,294.231 116.359,292.398 106.5,291C 104.092,288.602 101.426,286.769 98.5,285.5 Z"/></g>
<g><path style="opacity:1" fill="#d7c657" d="M 186.5,285.5 C 193.912,291.205 201.912,295.871 210.5,299.5C 202.877,298.401 195.877,295.734 189.5,291.5C 187.962,289.757 186.962,287.757 186.5,285.5 Z"/></g>
<g><path style="opacity:1" fill="#dac958" d="M 288.5,277.5 C 285.179,282.152 281.513,286.485 277.5,290.5C 275.19,293.905 271.856,295.739 267.5,296C 267.167,296.333 266.833,296.667 266.5,297C 267.308,297.308 267.975,297.808 268.5,298.5C 265.168,301.621 261.335,302.288 257,300.5C 241.934,305.61 226.767,305.777 211.5,301C 210.944,300.617 210.611,300.117 210.5,299.5C 241.158,308.007 267.158,300.674 288.5,277.5 Z"/></g>
</svg>
