<?xml version="1.0" encoding="UTF-8"?>
<!DOCTYPE svg PUBLIC "-//W3C//DTD SVG 1.1//EN" "http://www.w3.org/Graphics/SVG/1.1/DTD/svg11.dtd">
<svg xmlns="http://www.w3.org/2000/svg" version="1.1" width="64px" height="64px" style="shape-rendering:geometricPrecision; text-rendering:geometricPrecision; image-rendering:optimizeQuality; fill-rule:evenodd; clip-rule:evenodd" xmlns:xlink="http://www.w3.org/1999/xlink">
<g><path style="opacity:0.931" fill="#fdfefd" d="M 21.5,-0.5 C 28.1667,-0.5 34.8333,-0.5 41.5,-0.5C 52.2564,3.9224 59.5897,11.5891 63.5,22.5C 63.5,28.5 63.5,34.5 63.5,40.5C 59.5897,51.4109 52.2564,59.0776 41.5,63.5C 34.8333,63.5 28.1667,63.5 21.5,63.5C 10.7436,59.0776 3.41031,51.4109 -0.5,40.5C -0.5,34.5 -0.5,28.5 -0.5,22.5C 3.41031,11.5891 10.7436,3.9224 21.5,-0.5 Z"/></g>
<g><path style="opacity:1" fill="#80be52" d="M 29.5,20.5 C 29.5,20.8333 29.5,21.1667 29.5,21.5C 29.1667,21.5 28.8333,21.5 28.5,21.5C 27.8333,21.1667 27.1667,20.8333 26.5,20.5C 25.0813,19.5489 23.4147,19.2155 21.5,19.5C 21.5,18.1667 21.5,16.8333 21.5,15.5C 22.6591,13.6231 24.3258,13.1231 26.5,14C 26.9496,16.5332 27.9496,18.6998 29.5,20.5 Z"/></g>
<g><path style="opacity:1" fill="#1d8f50" d="M 41.5,15.5 C 41.5,16.8333 41.5,18.1667 41.5,19.5C 39.5853,19.2155 37.9187,19.5489 36.5,20.5C 36.1667,20.5 35.8333,20.5 35.5,20.5C 35.5,20.1667 35.5,19.8333 35.5,19.5C 34.4082,14.8775 36.0748,13.0442 40.5,14C 41.056,14.3826 41.3893,14.8826 41.5,15.5 Z"/></g>
<g><path style="opacity:1" fill="#a5d184" d="M 21.5,15.5 C 21.5,16.8333 21.5,18.1667 21.5,19.5C 23.4147,19.2155 25.0813,19.5489 26.5,20.5C 24.8008,20.3398 23.1341,20.5065 21.5,21C 20.8906,22.9483 20.224,24.7816 19.5,26.5C 19.5,24.8333 19.5,23.1667 19.5,21.5C 18.1667,21.5 16.8333,21.5 15.5,21.5C 16.9187,20.5489 18.5853,20.2155 20.5,20.5C 20.2155,18.5853 20.5489,16.9187 21.5,15.5 Z"/></g>
<g><path style="opacity:1" fill="#f6faf6" d="M 26.5,20.5 C 27.1667,20.8333 27.8333,21.1667 28.5,21.5C 29.127,26.7076 26.7937,29.2076 21.5,29C 20.1667,30.6667 20.1667,32.3333 21.5,34C 23.9739,34.0367 25.9739,34.87 27.5,36.5C 27.5,38.5 27.5,40.5 27.5,42.5C 25.4727,42.6621 23.4727,42.4955 21.5,42C 20.9011,40.3775 20.2344,38.8775 19.5,37.5C 18.3646,35.7868 16.698,35.1201 14.5,35.5C 13.1667,32.8333 13.1667,30.1667 14.5,27.5C 16.2915,27.634 17.9582,27.3007 19.5,26.5C 20.224,24.7816 20.8906,22.9483 21.5,21C 23.1341,20.5065 24.8008,20.3398 26.5,20.5 Z"/></g>
<g><path style="opacity:1" fill="#7ec19c" d="M 35.5,19.5 C 35.5,19.8333 35.5,20.1667 35.5,20.5C 35.5,22.5 35.5,24.5 35.5,26.5C 35.1667,26.5 34.8333,26.5 34.5,26.5C 34.5,24.8333 34.5,23.1667 34.5,21.5C 32.8333,21.5 31.1667,21.5 29.5,21.5C 29.5,21.1667 29.5,20.8333 29.5,20.5C 31.6208,20.6747 33.6208,20.3414 35.5,19.5 Z"/></g>
<g><path style="opacity:1" fill="#f6faf6" d="M 35.5,20.5 C 35.8333,20.5 36.1667,20.5 36.5,20.5C 40.8862,19.5744 43.2195,21.241 43.5,25.5C 43.5,26.1667 43.8333,26.5 44.5,26.5C 49.1521,27.1147 50.6521,29.7813 49,34.5C 48.3292,35.2524 47.4959,35.5858 46.5,35.5C 45.209,35.2627 44.209,35.596 43.5,36.5C 42.776,38.2184 42.1094,40.0517 41.5,42C 39.8659,42.4935 38.1992,42.6602 36.5,42.5C 35.8333,42.1667 35.1667,41.8333 34.5,41.5C 33.873,36.2924 36.2063,33.7924 41.5,34C 42.8333,32.3333 42.8333,30.6667 41.5,29C 39.0261,28.9633 37.0261,28.13 35.5,26.5C 35.5,24.5 35.5,22.5 35.5,20.5 Z"/></g>
<g><path style="opacity:1" fill="#7abb4b" d="M 15.5,21.5 C 16.8333,21.5 18.1667,21.5 19.5,21.5C 19.5,23.1667 19.5,24.8333 19.5,26.5C 17.9582,27.3007 16.2915,27.634 14.5,27.5C 14.1667,27.5 13.8333,27.5 13.5,27.5C 13.0535,24.9899 13.7202,22.9899 15.5,21.5 Z"/></g>
<g><path style="opacity:1" fill="#57af82" d="M 41.5,15.5 C 42.4511,16.9187 42.7845,18.5853 42.5,20.5C 44.4147,20.2155 46.0813,20.5489 47.5,21.5C 46.1667,21.5 44.8333,21.5 43.5,21.5C 43.5,22.8333 43.5,24.1667 43.5,25.5C 43.2195,21.241 40.8862,19.5744 36.5,20.5C 37.9187,19.5489 39.5853,19.2155 41.5,19.5C 41.5,18.1667 41.5,16.8333 41.5,15.5 Z"/></g>
<g><path style="opacity:1" fill="#028744" d="M 47.5,21.5 C 48.1667,21.5 48.5,21.8333 48.5,22.5C 48.5,23.8333 48.5,25.1667 48.5,26.5C 47.1667,26.5 45.8333,26.5 44.5,26.5C 43.8333,26.5 43.5,26.1667 43.5,25.5C 43.5,24.1667 43.5,22.8333 43.5,21.5C 44.8333,21.5 46.1667,21.5 47.5,21.5 Z"/></g>
<g><path style="opacity:1" fill="#45a573" d="M 48.5,22.5 C 49.2852,24.3736 49.9518,26.3736 50.5,28.5C 50.5,30.5 50.5,32.5 50.5,34.5C 49.9518,36.6264 49.2852,38.6264 48.5,40.5C 48.6347,38.4458 47.968,36.7791 46.5,35.5C 47.4959,35.5858 48.3292,35.2524 49,34.5C 50.6521,29.7813 49.1521,27.1147 44.5,26.5C 45.8333,26.5 47.1667,26.5 48.5,26.5C 48.5,25.1667 48.5,23.8333 48.5,22.5 Z"/></g>
<g><path style="opacity:1" fill="#78ba47" d="M 8.5,28.5 C 9.83333,28.5 11.1667,28.5 12.5,28.5C 12.5,30.5 12.5,32.5 12.5,34.5C 11.1667,34.5 9.83333,34.5 8.5,34.5C 5.83333,32.5 5.83333,30.5 8.5,28.5 Z"/></g>
<g><path style="opacity:1" fill="#229152" d="M 28.5,21.5 C 28.8333,21.5 29.1667,21.5 29.5,21.5C 31.1667,21.5 32.8333,21.5 34.5,21.5C 34.5,23.1667 34.5,24.8333 34.5,26.5C 34.5,26.8333 34.5,27.1667 34.5,27.5C 28.3261,26.1729 26.1594,28.5062 28,34.5C 28.3826,35.056 28.8826,35.3893 29.5,35.5C 29.5,36.1667 29.1667,36.5 28.5,36.5C 28.1667,36.5 27.8333,36.5 27.5,36.5C 25.9739,34.87 23.9739,34.0367 21.5,34C 20.1667,32.3333 20.1667,30.6667 21.5,29C 26.7937,29.2076 29.127,26.7076 28.5,21.5 Z"/></g>
<g><path style="opacity:1" fill="#f1f8f1" d="M 34.5,27.5 C 37.0547,33.0755 35.388,35.7422 29.5,35.5C 28.8826,35.3893 28.3826,35.056 28,34.5C 26.1594,28.5062 28.3261,26.1729 34.5,27.5 Z"/></g>
<g><path style="opacity:1" fill="#7ebd50" d="M 34.5,26.5 C 34.8333,26.5 35.1667,26.5 35.5,26.5C 37.0261,28.13 39.0261,28.9633 41.5,29C 42.8333,30.6667 42.8333,32.3333 41.5,34C 36.2063,33.7924 33.873,36.2924 34.5,41.5C 34.1667,41.5 33.8333,41.5 33.5,41.5C 31.8333,41.5 30.1667,41.5 28.5,41.5C 28.5,39.8333 28.5,38.1667 28.5,36.5C 29.1667,36.5 29.5,36.1667 29.5,35.5C 35.388,35.7422 37.0547,33.0755 34.5,27.5C 34.5,27.1667 34.5,26.8333 34.5,26.5 Z"/></g>
<g><path style="opacity:1" fill="#0c8a49" d="M 50.5,28.5 C 55.6673,27.4919 57.334,29.3252 55.5,34C 53.8659,34.4935 52.1992,34.6602 50.5,34.5C 50.5,32.5 50.5,30.5 50.5,28.5 Z"/></g>
<g><path style="opacity:1" fill="#bcdca3" d="M 8.5,28.5 C 9.91866,27.5489 11.5853,27.2155 13.5,27.5C 13.8333,27.5 14.1667,27.5 14.5,27.5C 13.1667,30.1667 13.1667,32.8333 14.5,35.5C 14.1667,35.5 13.8333,35.5 13.5,35.5C 11.5853,35.7845 9.91866,35.4511 8.5,34.5C 9.83333,34.5 11.1667,34.5 12.5,34.5C 12.5,32.5 12.5,30.5 12.5,28.5C 11.1667,28.5 9.83333,28.5 8.5,28.5 Z"/></g>
<g><path style="opacity:1" fill="#7bbb4b" d="M 13.5,35.5 C 13.8333,35.5 14.1667,35.5 14.5,35.5C 16.698,35.1201 18.3646,35.7868 19.5,37.5C 19.5,38.8333 19.5,40.1667 19.5,41.5C 18.1667,41.5 16.8333,41.5 15.5,41.5C 13.7202,40.0101 13.0535,38.0101 13.5,35.5 Z"/></g>
<g><path style="opacity:1" fill="#0d8948" d="M 46.5,35.5 C 47.968,36.7791 48.6347,38.4458 48.5,40.5C 48.5,41.1667 48.1667,41.5 47.5,41.5C 46.1667,41.5 44.8333,41.5 43.5,41.5C 43.5,39.8333 43.5,38.1667 43.5,36.5C 44.209,35.596 45.209,35.2627 46.5,35.5 Z"/></g>
<g><path style="opacity:1" fill="#a6d186" d="M 27.5,36.5 C 27.8333,36.5 28.1667,36.5 28.5,36.5C 28.5,38.1667 28.5,39.8333 28.5,41.5C 30.1667,41.5 31.8333,41.5 33.5,41.5C 33.5,41.8333 33.5,42.1667 33.5,42.5C 31.8008,42.3398 30.1341,42.5065 28.5,43C 27.7476,43.6708 27.4142,44.5041 27.5,45.5C 25.8863,43.9254 23.8863,43.2587 21.5,43.5C 21.5,44.8333 21.5,46.1667 21.5,47.5C 20.5489,46.0813 20.2155,44.4147 20.5,42.5C 18.5853,42.7845 16.9187,42.4511 15.5,41.5C 16.8333,41.5 18.1667,41.5 19.5,41.5C 19.5,40.1667 19.5,38.8333 19.5,37.5C 20.2344,38.8775 20.9011,40.3775 21.5,42C 23.4727,42.4955 25.4727,42.6621 27.5,42.5C 27.5,40.5 27.5,38.5 27.5,36.5 Z"/></g>
<g><path style="opacity:1" fill="#59b083" d="M 43.5,36.5 C 43.5,38.1667 43.5,39.8333 43.5,41.5C 44.8333,41.5 46.1667,41.5 47.5,41.5C 46.0813,42.4511 44.4147,42.7845 42.5,42.5C 42.7845,44.4147 42.4511,46.0813 41.5,47.5C 41.5,46.1667 41.5,44.8333 41.5,43.5C 39.5853,43.7845 37.9187,43.4511 36.5,42.5C 38.1992,42.6602 39.8659,42.4935 41.5,42C 42.1094,40.0517 42.776,38.2184 43.5,36.5 Z"/></g>
<g><path style="opacity:1" fill="#79ba49" d="M 27.5,45.5 C 26.3999,49.6466 24.3999,50.3133 21.5,47.5C 21.5,46.1667 21.5,44.8333 21.5,43.5C 23.8863,43.2587 25.8863,43.9254 27.5,45.5 Z"/></g>
<g><path style="opacity:1" fill="#1a8e4f" d="M 33.5,42.5 C 33.5,42.1667 33.5,41.8333 33.5,41.5C 33.8333,41.5 34.1667,41.5 34.5,41.5C 35.1667,41.8333 35.8333,42.1667 36.5,42.5C 37.9187,43.4511 39.5853,43.7845 41.5,43.5C 41.5,44.8333 41.5,46.1667 41.5,47.5C 40.6857,49.2726 39.3524,49.7726 37.5,49C 36.2401,46.6987 34.9067,44.5321 33.5,42.5 Z"/></g>
</svg>
