<?xml version="1.0" encoding="UTF-8"?>
<!DOCTYPE svg PUBLIC "-//W3C//DTD SVG 1.1//EN" "http://www.w3.org/Graphics/SVG/1.1/DTD/svg11.dtd">
<svg xmlns="http://www.w3.org/2000/svg" version="1.1" width="64px" height="63px" style="shape-rendering:geometricPrecision; text-rendering:geometricPrecision; image-rendering:optimizeQuality; fill-rule:evenodd; clip-rule:evenodd" xmlns:xlink="http://www.w3.org/1999/xlink">
<g><path style="opacity:1" fill="#f9fcfa" d="M -0.5,-0.5 C 20.8333,-0.5 42.1667,-0.5 63.5,-0.5C 63.5,20.5 63.5,41.5 63.5,62.5C 42.1667,62.5 20.8333,62.5 -0.5,62.5C -0.5,41.5 -0.5,20.5 -0.5,-0.5 Z"/></g>
<g><path style="opacity:1" fill="#27a64f" d="M 23.5,2.5 C 49.7173,1.21599 61.8839,13.5493 60,39.5C 55.2226,53.2774 45.5559,60.6107 31,61.5C 9.03502,57.8353 -0.298312,44.8353 3,22.5C 7.10568,12.8926 13.939,6.22589 23.5,2.5 Z"/></g>
<g><path style="opacity:1" fill="#eaf5ee" d="M 50.5,37.5 C 49.2241,36.6136 49.2241,35.6136 50.5,34.5C 51.7481,33.9598 52.9148,33.2931 54,32.5C 54.6667,29.1667 54.6667,25.8333 54,22.5C 51.5794,21.0394 49.0794,19.7061 46.5,18.5C 44.4192,20.5027 42.7526,20.5027 41.5,18.5C 43.4021,17.6321 45.2355,16.6321 47,15.5C 50.1513,17.7449 53.4847,19.7449 57,21.5C 56.5782,26.163 55.7448,30.8297 54.5,35.5C 53.1401,36.1799 51.8068,36.8466 50.5,37.5 Z"/></g>
<g><path style="opacity:1" fill="#62be80" d="M 18.5,20.5 C 19.609,20.4431 20.609,20.1098 21.5,19.5C 21.8333,19.5 22.1667,19.5 22.5,19.5C 20.5389,21.9635 18.3722,24.2968 16,26.5C 15.5012,30.4862 15.3345,34.4862 15.5,38.5C 14.209,38.7373 13.209,38.404 12.5,37.5C 13.7759,36.6136 13.7759,35.6136 12.5,34.5C 11.2519,33.9598 10.0852,33.2931 9,32.5C 8.33333,29.1667 8.33333,25.8333 9,22.5C 11.4206,21.0394 13.9206,19.7061 16.5,18.5C 17.5223,18.8555 18.189,19.5222 18.5,20.5 Z"/></g>
<g><path style="opacity:1" fill="#f1f8f3" d="M 18.5,20.5 C 17.6267,22.8863 16.1267,24.8863 14,26.5C 13.6667,28.8333 13.3333,31.1667 13,33.5C 10.5881,30.6381 9.92143,27.3048 11,23.5C 12.995,21.253 15.495,20.253 18.5,20.5 Z"/></g>
<g><path style="opacity:1" fill="#e9f5ed" d="M 21.5,19.5 C 20.609,20.1098 19.609,20.4431 18.5,20.5C 18.189,19.5222 17.5223,18.8555 16.5,18.5C 13.9206,19.7061 11.4206,21.0394 9,22.5C 8.33333,25.8333 8.33333,29.1667 9,32.5C 10.0852,33.2931 11.2519,33.9598 12.5,34.5C 13.7759,35.6136 13.7759,36.6136 12.5,37.5C 11.1932,36.8466 9.85989,36.1799 8.5,35.5C 7.25517,30.8297 6.42183,26.163 6,21.5C 9.12587,19.3632 12.4592,17.6965 16,16.5C 18.3987,16.6132 20.2321,17.6132 21.5,19.5 Z"/></g>
<g><path style="opacity:1" fill="#65bf82" d="M 23.5,19.5 C 29.31,18.5104 35.31,18.1771 41.5,18.5C 42.7526,20.5027 44.4192,20.5027 46.5,18.5C 49.0794,19.7061 51.5794,21.0394 54,22.5C 54.6667,25.8333 54.6667,29.1667 54,32.5C 52.9148,33.2931 51.7481,33.9598 50.5,34.5C 49.2241,35.6136 49.2241,36.6136 50.5,37.5C 49.791,38.404 48.791,38.7373 47.5,38.5C 49.3553,30.6298 47.0219,24.4631 40.5,20C 34.8431,19.5006 29.1764,19.3339 23.5,19.5 Z"/></g>
<g><path style="opacity:1" fill="#f5faf7" d="M 45.5,20.5 C 50.2407,20.8509 52.574,23.3509 52.5,28C 52.4366,30.2809 51.6032,32.1142 50,33.5C 50.5759,28.486 48.7426,24.6526 44.5,22C 45.056,21.6174 45.3893,21.1174 45.5,20.5 Z"/></g>
<g><path style="opacity:1" fill="#f9fcfa" d="M 22.5,19.5 C 22.8333,19.5 23.1667,19.5 23.5,19.5C 29.1764,19.3339 34.8431,19.5006 40.5,20C 47.0219,24.4631 49.3553,30.6298 47.5,38.5C 44.8697,40.6281 42.3697,42.9614 40,45.5C 39.2917,44.6195 38.4584,43.9528 37.5,43.5C 37.0113,42.0048 36.3446,40.6715 35.5,39.5C 34.6702,37.1764 33.3369,35.1764 31.5,33.5C 28.2227,37.3501 25.2227,41.3501 22.5,45.5C 19.8122,43.4789 17.4789,41.1456 15.5,38.5C 15.3345,34.4862 15.5012,30.4862 16,26.5C 18.3722,24.2968 20.5389,21.9635 22.5,19.5 Z"/></g>
<g><path style="opacity:1" fill="#39ac5c" d="M 38.5,35.5 C 40.337,35.6395 40.6704,36.3061 39.5,37.5C 38.7025,37.0431 38.3691,36.3764 38.5,35.5 Z"/></g>
<g><path style="opacity:1" fill="#53b670" d="M 20.5,35.5 C 21.675,35.281 22.675,35.6143 23.5,36.5C 21.9483,37.7979 20.9483,37.4646 20.5,35.5 Z"/></g>
<g><path style="opacity:1" fill="#88cd9e" d="M 35.5,39.5 C 36.3446,40.6715 37.0113,42.0048 37.5,43.5C 36.8333,43.8333 36.1667,44.1667 35.5,44.5C 35.1583,43.6618 34.4916,43.3284 33.5,43.5C 34.8062,42.5326 35.4729,41.1993 35.5,39.5 Z"/></g>
<g><path style="opacity:1" fill="#e8f5ec" d="M 33.5,43.5 C 34.4916,43.3284 35.1583,43.6618 35.5,44.5C 32.5051,49.723 29.5051,49.5563 26.5,44C 27,43.5 27.5,43 28,42.5C 29.5557,44.6348 31.3891,44.9681 33.5,43.5 Z"/></g>
</svg>
