<?xml version="1.0" encoding="UTF-8"?>
<!DOCTYPE svg PUBLIC "-//W3C//DTD SVG 1.1//EN" "http://www.w3.org/Graphics/SVG/1.1/DTD/svg11.dtd">
<svg xmlns="http://www.w3.org/2000/svg" version="1.1" width="64px" height="64px" style="shape-rendering:geometricPrecision; text-rendering:geometricPrecision; image-rendering:optimizeQuality; fill-rule:evenodd; clip-rule:evenodd" xmlns:xlink="http://www.w3.org/1999/xlink">
<g><path style="opacity:0.996" fill="#2fb6ea" d="M -0.5,-0.5 C 8.83333,-0.5 18.1667,-0.5 27.5,-0.5C 27.8174,2.57186 27.4841,5.57186 26.5,8.5C 19.9694,11.8963 17.4694,17.2296 19,24.5C 22.9729,30.4128 28.4729,34.2461 35.5,36C 38.8161,41.2082 37.4828,44.7082 31.5,46.5C 27.2579,45.7585 24.9245,43.2585 24.5,39C 17.0101,37.8201 14.8434,40.6534 18,47.5C 20.4503,50.626 23.4503,52.9594 27,54.5C 27.498,57.4816 27.6646,60.4816 27.5,63.5C 26.5,63.5 25.5,63.5 24.5,63.5C 12.234,59.5668 3.90067,51.5668 -0.5,39.5C -0.5,26.1667 -0.5,12.8333 -0.5,-0.5 Z"/></g>
<g><path style="opacity:0.998" fill="#fcfcfe" d="M 27.5,-0.5 C 30.8333,-0.5 34.1667,-0.5 37.5,-0.5C 37.5,-0.166667 37.5,0.166667 37.5,0.5C 37.3359,3.1873 37.5026,5.85397 38,8.5C 41.3603,10.3603 43.8603,13.027 45.5,16.5C 43.5,18.3271 41.3333,19.9938 39,21.5C 37.014,17.423 33.8473,15.923 29.5,17C 27.3985,18.7328 27.0652,20.7328 28.5,23C 33.8414,25.1071 38.8414,27.7738 43.5,31C 48.8059,40.2549 46.9725,47.7549 38,53.5C 37.502,56.4816 37.3354,59.4816 37.5,62.5C 37.5,62.8333 37.5,63.1667 37.5,63.5C 34.1667,63.5 30.8333,63.5 27.5,63.5C 27.6646,60.4816 27.498,57.4816 27,54.5C 23.4503,52.9594 20.4503,50.626 18,47.5C 14.8434,40.6534 17.0101,37.8201 24.5,39C 24.9245,43.2585 27.2579,45.7585 31.5,46.5C 37.4828,44.7082 38.8161,41.2082 35.5,36C 28.4729,34.2461 22.9729,30.4128 19,24.5C 17.4694,17.2296 19.9694,11.8963 26.5,8.5C 27.4841,5.57186 27.8174,2.57186 27.5,-0.5 Z"/></g>
<g><path style="opacity:0.988" fill="#745ddf" d="M 37.5,0.5 C 46.2682,1.76565 53.1015,6.09898 58,13.5C 60.3488,17.7415 62.1821,22.0748 63.5,26.5C 63.5,29.8333 63.5,33.1667 63.5,36.5C 60.5319,50.8015 51.8652,59.4682 37.5,62.5C 37.3354,59.4816 37.502,56.4816 38,53.5C 46.9725,47.7549 48.8059,40.2549 43.5,31C 38.8414,27.7738 33.8414,25.1071 28.5,23C 27.0652,20.7328 27.3985,18.7328 29.5,17C 33.8473,15.923 37.014,17.423 39,21.5C 41.3333,19.9938 43.5,18.3271 45.5,16.5C 43.8603,13.027 41.3603,10.3603 38,8.5C 37.5026,5.85397 37.3359,3.1873 37.5,0.5 Z"/></g>
</svg>
