<?xml version="1.0" encoding="UTF-8"?>
<!DOCTYPE svg PUBLIC "-//W3C//DTD SVG 1.1//EN" "http://www.w3.org/Graphics/SVG/1.1/DTD/svg11.dtd">
<svg xmlns="http://www.w3.org/2000/svg" version="1.1" width="64px" height="64px" style="shape-rendering:geometricPrecision; text-rendering:geometricPrecision; image-rendering:optimizeQuality; fill-rule:evenodd; clip-rule:evenodd" xmlns:xlink="http://www.w3.org/1999/xlink">
<g><path style="opacity:0.965" fill="#070811" d="M 21.5,-0.5 C 28.1667,-0.5 34.8333,-0.5 41.5,-0.5C 52.2564,3.9224 59.5897,11.5891 63.5,22.5C 63.5,28.5 63.5,34.5 63.5,40.5C 59.5897,51.4109 52.2564,59.0776 41.5,63.5C 34.8333,63.5 28.1667,63.5 21.5,63.5C 10.7436,59.0776 3.41031,51.4109 -0.5,40.5C -0.5,34.5 -0.5,28.5 -0.5,22.5C 3.41031,11.5891 10.7436,3.9224 21.5,-0.5 Z M 18.5,8.5 C 19.6266,9.12167 20.6266,9.95501 21.5,11C 17.3333,13.8333 13.8333,17.3333 11,21.5C 10.1667,20.6667 9.33333,19.8333 8.5,19C 12.0374,15.6309 15.3707,12.1309 18.5,8.5 Z M 45.5,9.5 C 49.1456,12.4789 52.479,15.8123 55.5,19.5C 54.5197,20.9814 53.353,22.3147 52,23.5C 50.3109,18.4748 47.1442,14.6415 42.5,12C 43.9423,11.6232 44.9423,10.7899 45.5,9.5 Z M 51.5,41.5 C 52.9616,42.4577 54.2949,43.6244 55.5,45C 52,48.5 48.5,52 45,55.5C 43.8333,54.3333 42.6667,53.1667 41.5,52C 45.7123,49.2889 49.0456,45.7889 51.5,41.5 Z M 11.5,42.5 C 14.4962,46.4928 18.1629,49.8261 22.5,52.5C 21.7248,54.4753 20.3914,55.3087 18.5,55C 15.5,52 12.5,49 9.5,46C 10.8228,45.1841 11.4894,44.0174 11.5,42.5 Z"/></g>
<g><path style="opacity:1" fill="#dbdbdd" d="M 32.5,28.5 C 31.8333,27.8333 31.1667,27.1667 30.5,26.5C 24.7442,23.0783 22.2442,24.745 23,31.5C 24.4659,33.3249 26.2992,33.8249 28.5,33C 31.601,31.0335 34.7676,29.2002 38,27.5C 40.3173,28.8264 42.6506,30.1597 45,31.5C 46.8295,37.9161 44.4961,41.5827 38,42.5C 33.1573,42.1869 31.3239,39.8536 32.5,35.5C 34.9692,39.8269 38.1358,40.4936 42,37.5C 42.9459,33.865 41.6126,31.5316 38,30.5C 34.2245,32.6375 30.3911,34.6375 26.5,36.5C 20.1124,34.862 18.1124,30.862 20.5,24.5C 22.0016,23.9169 23.3349,23.0836 24.5,22C 27.361,21.9153 30.0276,22.7486 32.5,24.5C 33.782,25.9584 33.782,27.2918 32.5,28.5 Z"/></g>
<g><path style="opacity:1" fill="#7f7f84" d="M 30.5,26.5 C 31.1667,27.1667 31.8333,27.8333 32.5,28.5C 32.44,29.0431 32.1067,29.3764 31.5,29.5C 30.6143,28.675 30.281,27.675 30.5,26.5 Z"/></g>
</svg>
