<?xml version="1.0" encoding="UTF-8"?>
<!DOCTYPE svg PUBLIC "-//W3C//DTD SVG 1.1//EN" "http://www.w3.org/Graphics/SVG/1.1/DTD/svg11.dtd">
<svg xmlns="http://www.w3.org/2000/svg" version="1.1" width="128px" height="128px" style="shape-rendering:geometricPrecision; text-rendering:geometricPrecision; image-rendering:optimizeQuality; fill-rule:evenodd; clip-rule:evenodd" xmlns:xlink="http://www.w3.org/1999/xlink">
<g><path style="opacity:0.012" fill="#295ae8" d="M 41.5,32.5 C 42.8333,33.1667 42.8333,33.1667 41.5,32.5 Z"/></g>
<g><path style="opacity:0.999" fill="#2e6ff0" d="M 41.5,33.5 C 47.3344,37.9209 53.6678,41.5876 60.5,44.5C 64.1638,47.3346 68.1638,49.668 72.5,51.5C 72.5,52.1667 72.8333,52.5 73.5,52.5C 73.7822,53.7777 74.4489,54.7777 75.5,55.5C 71.5,57.8333 67.5,60.1667 63.5,62.5C 50.465,55.3214 37.7983,47.6548 25.5,39.5C 29.1035,37.3596 32.7701,35.193 36.5,33C 38.1966,32.6155 39.8632,32.7822 41.5,33.5 Z"/></g>
<g><path style="opacity:0.999" fill="#2f70f1" d="M 100.5,38.5 C 100.719,39.675 100.386,40.675 99.5,41.5C 96.1389,43.5113 92.8056,45.5113 89.5,47.5C 84.6566,45.5824 80.3233,42.9157 76.5,39.5C 80.5746,37.045 84.7412,34.7116 89,32.5C 92.9648,34.3104 96.7981,36.3104 100.5,38.5 Z"/></g>
<g><path style="opacity:0.999" fill="#2b91f9" d="M 25.5,39.5 C 37.7983,47.6548 50.465,55.3214 63.5,62.5C 63.5,67.5 63.5,72.5 63.5,77.5C 59.7283,75.0661 55.7283,73.0661 51.5,71.5C 51.5,70.8333 51.1667,70.5 50.5,70.5C 46.9098,67.3607 42.9098,64.694 38.5,62.5C 37.5014,72.8119 37.1681,83.1452 37.5,93.5C 35.6137,92.6394 33.7804,91.6394 32,90.5C 31.586,90.9574 31.086,91.2907 30.5,91.5C 30.2635,90.7528 29.9302,89.9195 29.5,89C 27.2019,87.5623 25.0352,86.729 23,86.5C 22.3333,70.8333 22.3333,55.1667 23,39.5C 23.7697,38.4019 24.603,38.4019 25.5,39.5 Z"/></g>
<g><path style="opacity:0.999" fill="#2c93f9" d="M 76.5,39.5 C 80.3233,42.9157 84.6566,45.5824 89.5,47.5C 89.5,62.8333 89.5,78.1667 89.5,93.5C 84.2622,90.618 79.0955,88.2846 74,86.5C 74.1018,82.0442 73.2684,78.0442 71.5,74.5C 71.5,74.1667 71.5,73.8333 71.5,73.5C 72.4916,73.6716 73.1583,73.3382 73.5,72.5C 74.1667,72.5 74.5,72.1667 74.5,71.5C 75.1667,71.5 75.5,71.1667 75.5,70.5C 76.8333,65.5 76.8333,60.5 75.5,55.5C 74.4489,54.7777 73.7822,53.7777 73.5,52.5C 74.5573,51.794 74.2239,51.4607 72.5,51.5C 73.2668,47.5845 73.7668,43.5845 74,39.5C 74.7697,38.4019 75.603,38.4019 76.5,39.5 Z"/></g>
<g><path style="opacity:0.998" fill="#2cb8f7" d="M 100.5,38.5 C 101.688,39.0476 102.855,39.3809 104,39.5C 104.667,55.1667 104.667,70.8333 104,86.5C 102.346,86.2063 100.846,86.873 99.5,88.5C 98.5084,88.3284 97.8417,88.6618 97.5,89.5C 96.5084,89.3284 95.8417,89.6618 95.5,90.5C 94.8333,90.5 94.5,90.8333 94.5,91.5C 93.5084,91.3284 92.8417,91.6618 92.5,92.5C 91.5084,92.3284 90.8417,92.6618 90.5,93.5C 90.1667,93.5 89.8333,93.5 89.5,93.5C 89.5,78.1667 89.5,62.8333 89.5,47.5C 92.8056,45.5113 96.1389,43.5113 99.5,41.5C 100.386,40.675 100.719,39.675 100.5,38.5 Z"/></g>
<g><path style="opacity:0.016" fill="#437ffd" d="M 60.5,43.5 C 61.8333,44.1667 61.8333,44.1667 60.5,43.5 Z"/></g>
<g><path style="opacity:0.999" fill="#2bbcf7" d="M 75.5,55.5 C 76.8333,60.5 76.8333,65.5 75.5,70.5C 74.8333,70.5 74.5,70.8333 74.5,71.5C 73.8333,71.5 73.5,71.8333 73.5,72.5C 72.5084,72.3284 71.8417,72.6618 71.5,73.5C 70.5084,73.3284 69.8417,73.6618 69.5,74.5C 68.5084,74.3284 67.8417,74.6618 67.5,75.5C 66.8333,75.5 66.5,75.8333 66.5,76.5C 65.5084,76.3284 64.8417,76.6618 64.5,77.5C 64.1667,77.5 63.8333,77.5 63.5,77.5C 63.5,72.5 63.5,67.5 63.5,62.5C 67.5,60.1667 71.5,57.8333 75.5,55.5 Z"/></g>
<g><path style="opacity:0.997" fill="#2bbbf7" d="M 50.5,70.5 C 51.1667,70.5 51.5,70.8333 51.5,71.5C 50.5546,76.4053 50.2213,81.4053 50.5,86.5C 49.8333,86.5 49.5,86.8333 49.5,87.5C 48.8333,87.5 48.5,87.8333 48.5,88.5C 47.5084,88.3284 46.8417,88.6618 46.5,89.5C 45.5084,89.3284 44.8417,89.6618 44.5,90.5C 43.8333,90.5 43.5,90.8333 43.5,91.5C 42.5084,91.3284 41.8417,91.6618 41.5,92.5C 40.1667,92.8333 38.8333,93.1667 37.5,93.5C 37.1681,83.1452 37.5014,72.8119 38.5,62.5C 42.9098,64.694 46.9098,67.3607 50.5,70.5 Z"/></g>
<g><path style="opacity:0.008" fill="#21bebe" d="M 69.5,75.5 C 69.5,75.1667 69.5,74.8333 69.5,74.5C 70.1667,74.5 70.8333,74.5 71.5,74.5C 71.1583,75.3382 70.4916,75.6716 69.5,75.5 Z"/></g>
<g><path style="opacity:0.008" fill="#24bebc" d="M 67.5,76.5 C 67.5,76.1667 67.5,75.8333 67.5,75.5C 68.1667,75.5 68.8333,75.5 69.5,75.5C 69.1583,76.3382 68.4916,76.6716 67.5,76.5 Z"/></g>
<g><path style="opacity:0.016" fill="#3fbfff" d="M 66.5,76.5 C 66.8333,76.5 67.1667,76.5 67.5,76.5C 67.3147,77.1701 66.9813,77.1701 66.5,76.5 Z"/></g>
<g><path style="opacity:0.012" fill="#55fffe" d="M 64.5,77.5 C 65.8333,78.1667 65.8333,78.1667 64.5,77.5 Z"/></g>
<g><path style="opacity:0.008" fill="#35e2ff" d="M 64.5,78.5 C 64.1034,79.525 63.4368,79.6917 62.5,79C 63.0944,78.5357 63.7611,78.369 64.5,78.5 Z"/></g>
<g><path style="opacity:0.004" fill="#0000ff" d="M 51.5,85.5 C 52.8333,86.1667 52.8333,86.1667 51.5,85.5 Z"/></g>
<g><path style="opacity:0.008" fill="#7f7fff" d="M 50.5,86.5 C 50.8333,86.5 51.1667,86.5 51.5,86.5C 51.3147,87.1701 50.9813,87.1701 50.5,86.5 Z"/></g>
<g><path style="opacity:0.004" fill="#19fff7" d="M 49.5,87.5 C 49.8333,87.5 50.1667,87.5 50.5,87.5C 50.3147,88.1701 49.9813,88.1701 49.5,87.5 Z"/></g>
<g><path style="opacity:0.012" fill="#46aaff" d="M 48.5,88.5 C 48.8333,88.5 49.1667,88.5 49.5,88.5C 49.3147,89.1701 48.9813,89.1701 48.5,88.5 Z"/></g>
<g><path style="opacity:0.012" fill="#55fffe" d="M 99.5,88.5 C 100.833,89.1667 100.833,89.1667 99.5,88.5 Z"/></g>
<g><path style="opacity:0.004" fill="#3c4fff" d="M 46.5,90.5 C 46.5,90.1667 46.5,89.8333 46.5,89.5C 47.1667,89.5 47.8333,89.5 48.5,89.5C 48.1583,90.3382 47.4916,90.6716 46.5,90.5 Z"/></g>
<g><path style="opacity:0.004" fill="#3ae2fa" d="M 97.5,90.5 C 97.5,90.1667 97.5,89.8333 97.5,89.5C 98.1667,89.5 98.8333,89.5 99.5,89.5C 99.1583,90.3382 98.4916,90.6716 97.5,90.5 Z"/></g>
<g><path style="opacity:0.008" fill="#2894ff" d="M 44.5,91.5 C 44.5,91.1667 44.5,90.8333 44.5,90.5C 45.1667,90.5 45.8333,90.5 46.5,90.5C 46.1583,91.3382 45.4916,91.6716 44.5,91.5 Z"/></g>
<g><path style="opacity:0.008" fill="#35e2ff" d="M 95.5,91.5 C 95.5,91.1667 95.5,90.8333 95.5,90.5C 96.1667,90.5 96.8333,90.5 97.5,90.5C 97.1583,91.3382 96.4916,91.6716 95.5,91.5 Z"/></g>
<g><path style="opacity:0.012" fill="#46aaff" d="M 43.5,91.5 C 43.8333,91.5 44.1667,91.5 44.5,91.5C 44.3147,92.1701 43.9813,92.1701 43.5,91.5 Z"/></g>
<g><path style="opacity:0.012" fill="#55fffe" d="M 94.5,91.5 C 94.8333,91.5 95.1667,91.5 95.5,91.5C 95.3147,92.1701 94.9813,92.1701 94.5,91.5 Z"/></g>
<g><path style="opacity:0.004" fill="#4157ff" d="M 41.5,92.5 C 42.1667,92.5 42.8333,92.5 43.5,92.5C 42.8333,93.8333 42.1667,93.8333 41.5,92.5 Z"/></g>
<g><path style="opacity:0.004" fill="#32e9fa" d="M 92.5,93.5 C 92.5,93.1667 92.5,92.8333 92.5,92.5C 93.1667,92.5 93.8333,92.5 94.5,92.5C 94.1583,93.3382 93.4916,93.6716 92.5,93.5 Z"/></g>
<g><path style="opacity:0.008" fill="#288dff" d="M 90.5,94.5 C 90.5,94.1667 90.5,93.8333 90.5,93.5C 91.1667,93.5 91.8333,93.5 92.5,93.5C 92.1583,94.3382 91.4916,94.6716 90.5,94.5 Z"/></g>
<g><path style="opacity:0.012" fill="#44bfff" d="M 90.5,94.5 C 89.7494,95.5735 88.7494,95.7401 87.5,95C 88.448,94.5172 89.448,94.3505 90.5,94.5 Z"/></g>
</svg>
