<svg width="401" height="401" viewBox="0 0 401 401" fill="none" xmlns="http://www.w3.org/2000/svg">
<mask id="mask0_3392_2933" style="mask-type:alpha" maskUnits="userSpaceOnUse" x="0" y="0" width="401" height="401">
<circle cx="200.506" cy="200.635" r="199.5" fill="#D9D9D9" stroke="url(#paint0_linear_3392_2933)"/>
</mask>
<g mask="url(#mask0_3392_2933)">
<path d="M400.506 200.635C400.506 311.092 310.963 400.635 200.506 400.635C90.0494 400.635 0.506348 311.092 0.506348 200.635C0.506348 90.178 90.0494 0.634987 200.506 0.634987C310.963 0.634987 400.506 90.178 400.506 200.635Z" fill="black"/>
<path d="M400.506 200.635C400.506 311.092 310.963 400.635 200.506 400.635C90.0494 400.635 0.506348 311.092 0.506348 200.635C0.506348 90.178 90.0494 0.634987 200.506 0.634987C310.963 0.634987 400.506 90.178 400.506 200.635Z" fill="url(#paint1_radial_3392_2933)"/>
<path fill-rule="evenodd" clip-rule="evenodd" d="M200.506 380.635C299.918 380.635 380.506 300.046 380.506 200.635C380.506 101.224 299.918 20.635 200.506 20.635C101.095 20.635 20.5063 101.224 20.5063 200.635C20.5063 300.046 101.095 380.635 200.506 380.635ZM200.506 400.635C310.963 400.635 400.506 311.092 400.506 200.635C400.506 90.178 310.963 0.634987 200.506 0.634987C90.0494 0.634987 0.506348 90.178 0.506348 200.635C0.506348 311.092 90.0494 400.635 200.506 400.635Z" fill="url(#paint2_linear_3392_2933)"/>
<path fill-rule="evenodd" clip-rule="evenodd" d="M246.35 166.444L290.696 192.654V140.78L245.887 114.84L246.35 166.444Z" fill="white"/>
<path fill-rule="evenodd" clip-rule="evenodd" d="M246.35 219.395L245.887 270.999L290.696 245.064V193.19L246.35 219.395Z" fill="white"/>
<path fill-rule="evenodd" clip-rule="evenodd" d="M200.61 245.871L155.801 271.269L200.61 297.204L245.424 271.269L200.61 245.871Z" fill="white"/>
<path fill-rule="evenodd" clip-rule="evenodd" d="M154.876 219.395L110.53 193.19V286.701L155.338 312.635L154.876 219.395Z" fill="white"/>
<path fill-rule="evenodd" clip-rule="evenodd" d="M130.506 170.18C140.749 170.18 149.052 161.877 149.052 151.635C149.052 141.393 140.749 133.09 130.506 133.09C120.264 133.09 111.961 141.393 111.961 151.635C111.961 161.877 120.264 170.18 130.506 170.18ZM130.506 185.635C149.284 185.635 164.506 170.413 164.506 151.635C164.506 132.857 149.284 117.635 130.506 117.635C111.729 117.635 96.5063 132.857 96.5063 151.635C96.5063 170.413 111.729 185.635 130.506 185.635Z" fill="#C157F9"/>
<path fill-rule="evenodd" clip-rule="evenodd" d="M200.61 139.973L245.424 114.575L200.61 88.635L155.801 114.575L200.61 139.973Z" fill="#744EFF"/>
</g>
<defs>
<linearGradient id="paint0_linear_3392_2933" x1="400.506" y1="400.635" x2="-15.9361" y2="382.714" gradientUnits="userSpaceOnUse">
<stop stop-color="#C157F9"/>
<stop offset="1" stop-color="#7855F8"/>
</linearGradient>
<radialGradient id="paint1_radial_3392_2933" cx="0" cy="0" r="1" gradientUnits="userSpaceOnUse" gradientTransform="translate(136.506 128.635) rotate(76.7595) scale(279.428)">
<stop stop-color="#7855F8" stop-opacity="0.4"/>
<stop offset="1" stop-color="#7855F8" stop-opacity="0"/>
</radialGradient>
<linearGradient id="paint2_linear_3392_2933" x1="400.506" y1="400.635" x2="-15.9361" y2="382.714" gradientUnits="userSpaceOnUse">
<stop stop-color="#C157F9"/>
<stop offset="1" stop-color="#7855F8"/>
</linearGradient>
</defs>
</svg>
