<svg width="256" height="256" viewBox="0 0 256 256" fill="none" xmlns="http://www.w3.org/2000/svg">
<path d="M256 128C256 198.692 198.692 256 128 256C57.3076 256 -7.9333e-07 198.692 -5.11072e-07 128C-2.28815e-07 57.3076 57.3076 2.28815e-07 128 5.11072e-07C198.692 7.9333e-07 256 57.3076 256 128Z" fill="black"/>
<path fill-rule="evenodd" clip-rule="evenodd" d="M128 245.76C193.037 245.76 245.76 193.037 245.76 128C245.76 62.963 193.037 10.24 128 10.24C62.963 10.24 10.24 62.963 10.24 128C10.24 193.037 62.963 245.76 128 245.76ZM128 256C198.692 256 256 198.692 256 128C256 57.3076 198.692 7.93329e-07 128 5.11072e-07C57.3076 2.28815e-07 -2.28815e-07 57.3076 -5.11072e-07 128C-7.93329e-07 198.692 57.3076 256 128 256Z" fill="url(#paint0_linear_4666_200)"/>
<path fill-rule="evenodd" clip-rule="evenodd" d="M164.421 100.528L200.145 121.584V79.899L164.047 59.0564L164.421 100.528Z" fill="white"/>
<path fill-rule="evenodd" clip-rule="evenodd" d="M164.421 143.073L164.047 184.54L200.145 163.702V122.016L164.421 143.073Z" fill="white"/>
<path fill-rule="evenodd" clip-rule="evenodd" d="M127.575 164.348L91.4722 184.758L127.575 205.601L163.673 184.758L127.575 164.348Z" fill="white"/>
<path fill-rule="evenodd" clip-rule="evenodd" d="M90.7238 143.073L55 122.016V197.157L91.098 218L90.7238 143.073Z" fill="white"/>
<path fill-rule="evenodd" clip-rule="evenodd" d="M90.7238 100.528L91.098 59.0564L55 79.899V121.584L90.7238 100.528Z" fill="#C157F9"/>
<path fill-rule="evenodd" clip-rule="evenodd" d="M127.575 79.253L163.673 58.8426L127.575 38L91.4722 58.8426L127.575 79.253Z" fill="#7855F8"/>
<defs>
<linearGradient id="paint0_linear_4666_200" x1="256" y1="256" x2="-10.5232" y2="244.53" gradientUnits="userSpaceOnUse">
<stop stop-color="#C157F9"/>
<stop offset="1" stop-color="#7855F8"/>
</linearGradient>
</defs>
</svg>
