<?xml version="1.0" encoding="UTF-8"?>
<!DOCTYPE svg PUBLIC "-//W3C//DTD SVG 1.1//EN" "http://www.w3.org/Graphics/SVG/1.1/DTD/svg11.dtd">
<svg xmlns="http://www.w3.org/2000/svg" version="1.1" width="64px" height="64px" style="shape-rendering:geometricPrecision; text-rendering:geometricPrecision; image-rendering:optimizeQuality; fill-rule:evenodd; clip-rule:evenodd" xmlns:xlink="http://www.w3.org/1999/xlink">
<g><path style="opacity:0.932" fill="#0a255c" d="M 30.5,-0.5 C 34.1667,-0.5 37.8333,-0.5 41.5,-0.5C 43.2608,0.312714 44.9275,1.31271 46.5,2.5C 45.7611,2.36899 45.0944,2.53566 44.5,3C 43.1888,6.63955 40.8554,9.30621 37.5,11C 40.6946,11.1805 43.6946,11.6805 46.5,12.5C 38.1667,12.5 29.8333,12.5 21.5,12.5C 21.1667,12.5 20.8333,12.5 20.5,12.5C 25.0061,9.19602 28.3395,4.86269 30.5,-0.5 Z"/></g>
<g><path style="opacity:0.858" fill="#052a72" d="M 17.5,1.5 C 12.2612,11.6452 6.26125,21.3119 -0.5,30.5C -0.5,27.8333 -0.5,25.1667 -0.5,22.5C 2.56679,13.0918 8.56679,6.09175 17.5,1.5 Z"/></g>
<g><path style="opacity:0.885" fill="#0d2148" d="M 46.5,2.5 C 50.704,4.03316 54.0374,6.69983 56.5,10.5C 52.0137,17.7308 50.347,25.7308 51.5,34.5C 51.8168,38.7016 51.4834,42.7016 50.5,46.5C 50.5,38.1667 50.5,29.8333 50.5,21.5C 48.7354,20.5386 46.7354,20.2053 44.5,20.5C 44.5,21.8333 44.5,23.1667 44.5,24.5C 43.8826,24.3893 43.3826,24.056 43,23.5C 42.074,25.6917 40.9073,27.6917 39.5,29.5C 39.1667,29.5 38.8333,29.5 38.5,29.5C 37.4324,28.5655 36.099,28.2322 34.5,28.5C 34.373,25.755 35.5397,23.755 38,22.5C 38.49,21.2068 38.6567,19.8734 38.5,18.5C 42.7016,18.8168 46.7016,18.4834 50.5,17.5C 49.9202,15.2512 48.5869,13.5846 46.5,12.5C 43.6946,11.6805 40.6946,11.1805 37.5,11C 40.8554,9.30621 43.1888,6.63955 44.5,3C 45.0944,2.53566 45.7611,2.36899 46.5,2.5 Z"/></g>
<g><path style="opacity:1" fill="#38abf8" d="M 17.5,12.5 C 17.5,22.1667 17.5,31.8333 17.5,41.5C 15.8333,41.5 14.1667,41.5 12.5,41.5C 12.5,33.1667 12.5,24.8333 12.5,16.5C 13.5846,14.4131 15.2512,13.0798 17.5,12.5 Z"/></g>
<g><path style="opacity:1" fill="#1d8eda" d="M 21.5,12.5 C 29.8333,12.5 38.1667,12.5 46.5,12.5C 48.5869,13.5846 49.9202,15.2512 50.5,17.5C 40.8333,17.5 31.1667,17.5 21.5,17.5C 21.5,15.8333 21.5,14.1667 21.5,12.5 Z"/></g>
<g><path style="opacity:1" fill="#2578be" d="M 17.5,12.5 C 18.4731,14.9479 18.8064,17.6146 18.5,20.5C 18.5,27.8333 18.5,35.1667 18.5,42.5C 16.5,42.5 14.5,42.5 12.5,42.5C 12.5,42.1667 12.5,41.8333 12.5,41.5C 14.1667,41.5 15.8333,41.5 17.5,41.5C 17.5,31.8333 17.5,22.1667 17.5,12.5 Z"/></g>
<g><path style="opacity:0.949" fill="#111a36" d="M 56.5,10.5 C 59.3282,13.6751 61.3282,17.3418 62.5,21.5C 58.8052,25.7151 55.6386,30.3817 53,35.5C 52.6174,34.944 52.1174,34.6107 51.5,34.5C 50.347,25.7308 52.0137,17.7308 56.5,10.5 Z"/></g>
<g><path style="opacity:0.971" fill="#07296c" d="M 21.5,-0.5 C 24.5,-0.5 27.5,-0.5 30.5,-0.5C 28.3395,4.86269 25.0061,9.19602 20.5,12.5C 20.5,14.5 20.5,16.5 20.5,18.5C 19.8333,19.1667 19.1667,19.8333 18.5,20.5C 18.8064,17.6146 18.4731,14.9479 17.5,12.5C 15.2512,13.0798 13.5846,14.4131 12.5,16.5C 9.4862,24.8554 5.15286,32.5221 -0.5,39.5C -0.5,36.5 -0.5,33.5 -0.5,30.5C 6.26125,21.3119 12.2612,11.6452 17.5,1.5C 18.9952,1.01131 20.3285,0.344644 21.5,-0.5 Z"/></g>
<g><path style="opacity:1" fill="#1869ac" d="M 20.5,12.5 C 20.8333,12.5 21.1667,12.5 21.5,12.5C 21.5,14.1667 21.5,15.8333 21.5,17.5C 31.1667,17.5 40.8333,17.5 50.5,17.5C 46.7016,18.4834 42.7016,18.8168 38.5,18.5C 32.5,18.5 26.5,18.5 20.5,18.5C 20.5,16.5 20.5,14.5 20.5,12.5 Z"/></g>
<g><path style="opacity:1" fill="#0b2455" d="M 20.5,18.5 C 26.5,18.5 32.5,18.5 38.5,18.5C 38.6567,19.8734 38.49,21.2068 38,22.5C 35.5397,23.755 34.373,25.755 34.5,28.5C 36.099,28.2322 37.4324,28.5655 38.5,29.5C 36.8333,29.5 35.1667,29.5 33.5,29.5C 33.5,27.5 33.5,25.5 33.5,23.5C 32.1667,23.5 30.8333,23.5 29.5,23.5C 29.5,25.1667 29.5,26.8333 29.5,28.5C 27.8333,28.5 26.1667,28.5 24.5,28.5C 24.5,30.1667 24.5,31.8333 24.5,33.5C 26.1667,33.5 27.8333,33.5 29.5,33.5C 29.5,35.1667 29.5,36.8333 29.5,38.5C 30.8333,38.5 32.1667,38.5 33.5,38.5C 33.2488,40.1703 32.5822,41.6703 31.5,43C 32.056,43.3826 32.3893,43.8826 32.5,44.5C 25.6457,44.176 18.979,44.5093 12.5,45.5C 12.8588,47.371 13.8588,48.871 15.5,50C 24.1603,50.4998 32.8269,50.6664 41.5,50.5C 41.8333,50.5 42.1667,50.5 42.5,50.5C 40.0521,51.4731 37.3854,51.8064 34.5,51.5C 24.924,48.6992 19.2574,52.0325 17.5,61.5C 12.2617,58.9304 7.92835,55.2637 4.5,50.5C 7.71871,46.7293 9.88538,42.3959 11,37.5C 11.1981,39.3817 11.6981,41.0484 12.5,42.5C 14.5,42.5 16.5,42.5 18.5,42.5C 18.5,35.1667 18.5,27.8333 18.5,20.5C 19.1667,19.8333 19.8333,19.1667 20.5,18.5 Z"/></g>
<g><path style="opacity:0.951" fill="#0a2a69" d="M 12.5,16.5 C 12.5,24.8333 12.5,33.1667 12.5,41.5C 12.5,41.8333 12.5,42.1667 12.5,42.5C 11.6981,41.0484 11.1981,39.3817 11,37.5C 9.88538,42.3959 7.71871,46.7293 4.5,50.5C 2.44216,47.303 0.775495,43.9697 -0.5,40.5C -0.5,40.1667 -0.5,39.8333 -0.5,39.5C 5.15286,32.5221 9.4862,24.8554 12.5,16.5 Z"/></g>
<g><path style="opacity:1" fill="#0d5a97" d="M 50.5,21.5 C 48.8333,21.5 47.1667,21.5 45.5,21.5C 45.5,31.1667 45.5,40.8333 45.5,50.5C 44.5269,48.0521 44.1936,45.3854 44.5,42.5C 44.5,36.5 44.5,30.5 44.5,24.5C 44.5,23.1667 44.5,21.8333 44.5,20.5C 46.7354,20.2053 48.7354,20.5386 50.5,21.5 Z"/></g>
<g><path style="opacity:1" fill="#097ac5" d="M 50.5,21.5 C 50.5,29.8333 50.5,38.1667 50.5,46.5C 49.5,48.1667 48.1667,49.5 46.5,50.5C 46.1667,50.5 45.8333,50.5 45.5,50.5C 45.5,40.8333 45.5,31.1667 45.5,21.5C 47.1667,21.5 48.8333,21.5 50.5,21.5 Z"/></g>
<g><path style="opacity:1" fill="#0e1d40" d="M 44.5,24.5 C 44.5,30.5 44.5,36.5 44.5,42.5C 42.7973,41.3398 42.1307,42.0065 42.5,44.5C 39.1667,44.5 35.8333,44.5 32.5,44.5C 32.3893,43.8826 32.056,43.3826 31.5,43C 32.5822,41.6703 33.2488,40.1703 33.5,38.5C 34.4511,37.0813 34.7845,35.4147 34.5,33.5C 36.1667,33.5 37.8333,33.5 39.5,33.5C 39.5,32.1667 39.5,30.8333 39.5,29.5C 40.9073,27.6917 42.074,25.6917 43,23.5C 43.3826,24.056 43.8826,24.3893 44.5,24.5 Z"/></g>
<g><path style="opacity:1" fill="#1e7fc7" d="M 38.5,29.5 C 38.8333,29.5 39.1667,29.5 39.5,29.5C 39.5,30.8333 39.5,32.1667 39.5,33.5C 37.8333,33.5 36.1667,33.5 34.5,33.5C 34.7845,35.4147 34.4511,37.0813 33.5,38.5C 32.1667,38.5 30.8333,38.5 29.5,38.5C 29.5,36.8333 29.5,35.1667 29.5,33.5C 27.8333,33.5 26.1667,33.5 24.5,33.5C 24.5,31.8333 24.5,30.1667 24.5,28.5C 26.1667,28.5 27.8333,28.5 29.5,28.5C 29.5,26.8333 29.5,25.1667 29.5,23.5C 30.8333,23.5 32.1667,23.5 33.5,23.5C 33.5,25.5 33.5,27.5 33.5,29.5C 35.1667,29.5 36.8333,29.5 38.5,29.5 Z"/></g>
<g><path style="opacity:0.968" fill="#11172c" d="M 62.5,21.5 C 62.5,22.1667 62.8333,22.5 63.5,22.5C 63.5,25.8333 63.5,29.1667 63.5,32.5C 62.1109,35.0971 60.2775,37.4305 58,39.5C 54.7174,47.5573 50.8841,54.5573 46.5,60.5C 44.9275,61.6873 43.2608,62.6873 41.5,63.5C 40.8333,63.5 40.1667,63.5 39.5,63.5C 40.6,58.4262 42.9333,54.0928 46.5,50.5C 48.1667,49.5 49.5,48.1667 50.5,46.5C 51.4834,42.7016 51.8168,38.7016 51.5,34.5C 52.1174,34.6107 52.6174,34.944 53,35.5C 55.6386,30.3817 58.8052,25.7151 62.5,21.5 Z"/></g>
<g><path style="opacity:0.692" fill="#141524" d="M 63.5,32.5 C 63.5,35.1667 63.5,37.8333 63.5,40.5C 60.7481,49.5896 55.0815,56.2563 46.5,60.5C 50.8841,54.5573 54.7174,47.5573 58,39.5C 60.2775,37.4305 62.1109,35.0971 63.5,32.5 Z"/></g>
<g><path style="opacity:1" fill="#1b69a8" d="M 12.5,45.5 C 18.979,44.5093 25.6457,44.176 32.5,44.5C 35.8333,44.5 39.1667,44.5 42.5,44.5C 42.5,46.5 42.5,48.5 42.5,50.5C 42.1667,50.5 41.8333,50.5 41.5,50.5C 41.5,48.8333 41.5,47.1667 41.5,45.5C 31.8333,45.5 22.1667,45.5 12.5,45.5 Z"/></g>
<g><path style="opacity:1" fill="#2797e4" d="M 12.5,45.5 C 22.1667,45.5 31.8333,45.5 41.5,45.5C 41.5,47.1667 41.5,48.8333 41.5,50.5C 32.8269,50.6664 24.1603,50.4998 15.5,50C 13.8588,48.871 12.8588,47.371 12.5,45.5 Z"/></g>
<g><path style="opacity:0.985" fill="#0e1c3e" d="M 34.5,51.5 C 34.8039,52.1499 35.1373,52.8165 35.5,53.5C 33.7745,56.8669 32.1079,60.2003 30.5,63.5C 27.5,63.5 24.5,63.5 21.5,63.5C 20.3285,62.6554 18.9952,61.9887 17.5,61.5C 19.2574,52.0325 24.924,48.6992 34.5,51.5 Z"/></g>
<g><path style="opacity:0.993" fill="#101a34" d="M 44.5,42.5 C 44.1936,45.3854 44.5269,48.0521 45.5,50.5C 45.8333,50.5 46.1667,50.5 46.5,50.5C 42.9333,54.0928 40.6,58.4262 39.5,63.5C 36.5,63.5 33.5,63.5 30.5,63.5C 32.1079,60.2003 33.7745,56.8669 35.5,53.5C 35.1373,52.8165 34.8039,52.1499 34.5,51.5C 37.3854,51.8064 40.0521,51.4731 42.5,50.5C 42.5,48.5 42.5,46.5 42.5,44.5C 42.1307,42.0065 42.7973,41.3398 44.5,42.5 Z"/></g>
</svg>
