<?xml version="1.0" encoding="UTF-8"?>
<!DOCTYPE svg PUBLIC "-//W3C//DTD SVG 1.1//EN" "http://www.w3.org/Graphics/SVG/1.1/DTD/svg11.dtd">
<svg xmlns="http://www.w3.org/2000/svg" version="1.1" width="64px" height="64px" style="shape-rendering:geometricPrecision; text-rendering:geometricPrecision; image-rendering:optimizeQuality; fill-rule:evenodd; clip-rule:evenodd" xmlns:xlink="http://www.w3.org/1999/xlink">
<g><path style="opacity:0.936" fill="#c3bcfb" d="M 26.5,16.5 C 29.6868,15.1944 33.0202,15.1944 36.5,16.5C 37.1272,17.4168 37.4606,18.4168 37.5,19.5C 35.3926,20.4682 33.0593,20.8016 30.5,20.5C 29.5275,18.8608 28.1942,17.5274 26.5,16.5 Z"/></g>
<g><path style="opacity:0.598" fill="#eadff8" d="M 26.5,16.5 C 28.1942,17.5274 29.5275,18.8608 30.5,20.5C 30.5569,21.609 30.8902,22.609 31.5,23.5C 30.596,24.209 30.2627,25.209 30.5,26.5C 30.1667,26.5 29.8333,26.5 29.5,26.5C 28.7034,20.3366 27.0367,20.0033 24.5,25.5C 24.1667,25.5 23.8333,25.5 23.5,25.5C 23.1289,21.9966 24.1289,18.9966 26.5,16.5 Z"/></g>
<g><path style="opacity:0.945" fill="#d3bffd" d="M 37.5,19.5 C 38.4013,20.2905 39.0679,21.2905 39.5,22.5C 37.3926,23.4682 35.0593,23.8016 32.5,23.5C 32.1667,23.5 31.8333,23.5 31.5,23.5C 30.8902,22.609 30.5569,21.609 30.5,20.5C 33.0593,20.8016 35.3926,20.4682 37.5,19.5 Z"/></g>
<g><path style="opacity:0.663" fill="#9163de" d="M 29.5,26.5 C 28.1667,26.5 26.8333,26.5 25.5,26.5C 25.1667,26.5 24.8333,26.5 24.5,26.5C 24.5,26.1667 24.5,25.8333 24.5,25.5C 27.0367,20.0033 28.7034,20.3366 29.5,26.5 Z"/></g>
<g><path style="opacity:0.926" fill="#f5e5fc" d="M 31.5,23.5 C 31.8333,23.5 32.1667,23.5 32.5,23.5C 33.4552,25.7457 34.1218,28.079 34.5,30.5C 34.1667,31.1667 33.8333,31.8333 33.5,32.5C 31.9925,30.8185 30.9925,28.8185 30.5,26.5C 30.2627,25.209 30.596,24.209 31.5,23.5 Z"/></g>
<g><path style="opacity:0.942" fill="#e3bdfc" d="M 39.5,22.5 C 41.0828,24.6626 42.4161,26.9959 43.5,29.5C 40.3915,29.2641 37.3915,29.5975 34.5,30.5C 34.1218,28.079 33.4552,25.7457 32.5,23.5C 35.0593,23.8016 37.3926,23.4682 39.5,22.5 Z"/></g>
<g><path style="opacity:0.902" fill="#ebe2fb" d="M 24.5,26.5 C 24.8333,26.5 25.1667,26.5 25.5,26.5C 26.2271,28.9538 27.2271,31.2872 28.5,33.5C 27.1667,33.5 25.8333,33.5 24.5,33.5C 24.5,33.1667 24.5,32.8333 24.5,32.5C 23.6394,30.6137 22.6394,28.7804 21.5,27C 22.448,26.5172 23.448,26.3505 24.5,26.5 Z"/></g>
<g><path style="opacity:0.95" fill="#ccc0fc" d="M 23.5,25.5 C 23.8333,25.5 24.1667,25.5 24.5,25.5C 24.5,25.8333 24.5,26.1667 24.5,26.5C 23.448,26.3505 22.448,26.5172 21.5,27C 22.6394,28.7804 23.6394,30.6137 24.5,32.5C 21.9179,32.9746 19.9179,32.3079 18.5,30.5C 19.0781,27.6299 20.7448,25.9633 23.5,25.5 Z"/></g>
<g><path style="opacity:0.971" fill="#8b6be4" d="M 43.5,29.5 C 43.4431,30.609 43.1098,31.609 42.5,32.5C 42.5,33.1667 42.1667,33.5 41.5,33.5C 39.0521,32.5269 36.3854,32.1936 33.5,32.5C 33.8333,31.8333 34.1667,31.1667 34.5,30.5C 37.3915,29.5975 40.3915,29.2641 43.5,29.5 Z"/></g>
<g><path style="opacity:0.952" fill="#cebcfc" d="M 18.5,30.5 C 19.9179,32.3079 21.9179,32.9746 24.5,32.5C 24.5,32.8333 24.5,33.1667 24.5,33.5C 24.3404,35.153 23.6737,36.4863 22.5,37.5C 20.8439,35.9397 18.8439,34.9397 16.5,34.5C 16.6596,32.847 17.3263,31.5137 18.5,30.5 Z"/></g>
<g><path style="opacity:0.705" fill="#debcfb" d="M 42.5,32.5 C 42.8333,32.5 43.1667,32.5 43.5,32.5C 43.4208,33.9305 43.7542,35.2638 44.5,36.5C 43.3112,37.4287 41.9778,37.762 40.5,37.5C 40.5,37.1667 40.5,36.8333 40.5,36.5C 40.5569,35.391 40.8902,34.391 41.5,33.5C 42.1667,33.5 42.5,33.1667 42.5,32.5 Z"/></g>
<g><path style="opacity:0.655" fill="#ede2fb" d="M 43.5,32.5 C 46.7016,32.5367 48.3683,34.2033 48.5,37.5C 45.8806,37.9959 43.2139,37.9959 40.5,37.5C 41.9778,37.762 43.3112,37.4287 44.5,36.5C 43.7542,35.2638 43.4208,33.9305 43.5,32.5 Z"/></g>
<g><path style="opacity:0.974" fill="#796ee3" d="M 24.5,33.5 C 25.8333,33.5 27.1667,33.5 28.5,33.5C 27.5,35.5 26.5,37.5 25.5,39.5C 24.5,40.1667 23.5,40.8333 22.5,41.5C 22.5,40.8333 22.1667,40.5 21.5,40.5C 21.5569,39.391 21.8902,38.391 22.5,37.5C 23.6737,36.4863 24.3404,35.153 24.5,33.5 Z"/></g>
<g><path style="opacity:0.927" fill="#d7bbfa" d="M 16.5,34.5 C 18.8439,34.9397 20.8439,35.9397 22.5,37.5C 21.8902,38.391 21.5569,39.391 21.5,40.5C 21.1667,40.5 20.8333,40.5 20.5,40.5C 18.7354,39.5386 16.7354,39.2053 14.5,39.5C 14.5,40.5 14.5,41.5 14.5,42.5C 13.7326,41.828 13.0659,40.9947 12.5,40C 13.4881,37.833 14.8214,35.9997 16.5,34.5 Z"/></g>
<g><path style="opacity:0.909" fill="#f7e7fc" d="M 32.5,36.5 C 35.1667,36.5 37.8333,36.5 40.5,36.5C 40.5,36.8333 40.5,37.1667 40.5,37.5C 43.2139,37.9959 45.8806,37.9959 48.5,37.5C 49.3382,37.8417 49.6716,38.5084 49.5,39.5C 44.1563,39.666 38.8229,39.4994 33.5,39C 32.7476,38.3292 32.4142,37.4959 32.5,36.5 Z"/></g>
<g><path style="opacity:0.927" fill="#e1bbfb" d="M 20.5,40.5 C 19.6597,42.8525 18.3264,44.8525 16.5,46.5C 15.8333,45.1667 15.1667,43.8333 14.5,42.5C 14.5,41.5 14.5,40.5 14.5,39.5C 16.7354,39.2053 18.7354,39.5386 20.5,40.5 Z"/></g>
<g><path style="opacity:0.886" fill="#c1aef5" d="M 32.5,36.5 C 32.4142,37.4959 32.7476,38.3292 33.5,39C 38.8229,39.4994 44.1563,39.666 49.5,39.5C 50.8333,39.8333 50.8333,40.1667 49.5,40.5C 44.1563,40.334 38.8229,40.5006 33.5,41C 32.7476,41.6708 32.4142,42.5041 32.5,43.5C 31.2719,44.3065 30.2719,45.3065 29.5,46.5C 28.3871,45.0536 28.2204,43.3869 29,41.5C 30.1889,39.7669 31.3556,38.1002 32.5,36.5 Z"/></g>
<g><path style="opacity:1" fill="#746ce3" d="M 49.5,40.5 C 49.5,40.8333 49.5,41.1667 49.5,41.5C 43.9908,41.8749 38.6575,42.5416 33.5,43.5C 33.1667,43.5 32.8333,43.5 32.5,43.5C 32.4142,42.5041 32.7476,41.6708 33.5,41C 38.8229,40.5006 44.1563,40.334 49.5,40.5 Z"/></g>
<g><path style="opacity:0.947" fill="#7c68e3" d="M 49.5,41.5 C 48.8333,42.5 48.1667,43.5 47.5,44.5C 42.9296,43.559 38.263,43.2256 33.5,43.5C 38.6575,42.5416 43.9908,41.8749 49.5,41.5 Z"/></g>
<g><path style="opacity:1" fill="#dbc5f3" d="M 25.5,39.5 C 25.8925,41.2838 26.5592,42.9505 27.5,44.5C 25.396,44.7989 23.396,44.4656 21.5,43.5C 21.8627,42.8165 22.1961,42.1499 22.5,41.5C 23.5,40.8333 24.5,40.1667 25.5,39.5 Z"/></g>
<g><path style="opacity:1" fill="#9064e2" d="M 32.5,43.5 C 32.8333,43.5 33.1667,43.5 33.5,43.5C 38.263,43.2256 42.9296,43.559 47.5,44.5C 47.1961,45.1499 46.8627,45.8165 46.5,46.5C 40.6796,47.8157 35.0129,47.8157 29.5,46.5C 30.2719,45.3065 31.2719,44.3065 32.5,43.5 Z"/></g>
<g><path style="opacity:0.786" fill="#9563de" d="M 20.5,40.5 C 20.8333,40.5 21.1667,40.5 21.5,40.5C 22.1667,40.5 22.5,40.8333 22.5,41.5C 22.1961,42.1499 21.8627,42.8165 21.5,43.5C 23.396,44.4656 25.396,44.7989 27.5,44.5C 27.1961,45.1499 26.8627,45.8165 26.5,46.5C 23.0202,47.8056 19.6868,47.8056 16.5,46.5C 18.3264,44.8525 19.6597,42.8525 20.5,40.5 Z"/></g>
</svg>
