<?xml version="1.0" encoding="UTF-8"?>
<!DOCTYPE svg PUBLIC "-//W3C//DTD SVG 1.1//EN" "http://www.w3.org/Graphics/SVG/1.1/DTD/svg11.dtd">
<svg xmlns="http://www.w3.org/2000/svg" version="1.1" width="59px" height="64px" style="shape-rendering:geometricPrecision; text-rendering:geometricPrecision; image-rendering:optimizeQuality; fill-rule:evenodd; clip-rule:evenodd" xmlns:xlink="http://www.w3.org/1999/xlink">
<g><path style="opacity:0.998" fill="#03b9de" d="M 44.5,11.5 C 45.4916,11.3284 46.1583,11.6618 46.5,12.5C 43.2234,12.2161 40.0567,12.5495 37,13.5C 36.5017,16.8168 36.335,20.1501 36.5,23.5C 36.1667,23.5 35.8333,23.5 35.5,23.5C 32.2171,19.8792 28.8838,16.2125 25.5,12.5C 31.7985,11.5037 38.1318,11.1703 44.5,11.5 Z"/></g>
<g><path style="opacity:1" fill="#03bce9" d="M 46.5,12.5 C 49.5,13.5 51.5,15.5 52.5,18.5C 52.1667,18.5 51.8333,18.5 51.5,18.5C 50.2689,17.2823 49.1022,15.949 48,14.5C 46.6015,15.0509 45.2682,15.3842 44,15.5C 43.9664,20.5886 43.7998,25.5886 43.5,30.5C 40.8061,28.4728 38.4728,26.1395 36.5,23.5C 36.335,20.1501 36.5017,16.8168 37,13.5C 40.0567,12.5495 43.2234,12.2161 46.5,12.5 Z"/></g>
<g><path style="opacity:1" fill="#09b9eb" d="M 51.5,18.5 C 49.8908,18.0941 48.5575,18.0941 47.5,18.5C 47.4929,22.6625 47.6596,26.9959 48,31.5C 49.7787,28.7236 50.7787,29.0569 51,32.5C 52.772,28.687 53.6053,24.687 53.5,20.5C 54.6341,22.9664 54.8007,25.633 54,28.5C 53.5762,31.0254 52.4095,33.0254 50.5,34.5C 47.6737,34.0023 45.3403,32.6689 43.5,30.5C 43.7998,25.5886 43.9664,20.5886 44,15.5C 45.2682,15.3842 46.6015,15.0509 48,14.5C 49.1022,15.949 50.2689,17.2823 51.5,18.5 Z"/></g>
<g><path style="opacity:1" fill="#09c2f4" d="M 20.5,11.5 C 20.8333,11.5 21.1667,11.5 21.5,11.5C 22.5664,13.7014 23.233,16.0347 23.5,18.5C 21.4457,28.4377 19.7791,38.4377 18.5,48.5C 17.6618,48.1583 17.3284,47.4916 17.5,46.5C 19.8939,36.3102 20.3939,25.9768 19,15.5C 18.6174,16.056 18.1174,16.3893 17.5,16.5C 18.241,14.6458 19.241,12.9791 20.5,11.5 Z"/></g>
<g><path style="opacity:1" fill="#17acc5" d="M 44.5,11.5 C 38.1318,11.1703 31.7985,11.5037 25.5,12.5C 28.8838,16.2125 32.2171,19.8792 35.5,23.5C 35.6309,24.3764 35.2975,25.0431 34.5,25.5C 33.2638,24.7542 31.9305,24.4208 30.5,24.5C 29.1667,23.5 27.8333,22.5 26.5,21.5C 25.8333,20.1667 24.8333,19.1667 23.5,18.5C 23.233,16.0347 22.5664,13.7014 21.5,11.5C 29.1667,10.1667 36.8333,10.1667 44.5,11.5 Z"/></g>
<g><path style="opacity:1" fill="#20c2f7" d="M 17.5,46.5 C 16.1667,36.5 16.1667,26.5 17.5,16.5C 18.1174,16.3893 18.6174,16.056 19,15.5C 20.3939,25.9768 19.8939,36.3102 17.5,46.5 Z"/></g>
<g><path style="opacity:1" fill="#03c0f7" d="M 51.5,18.5 C 51.8333,18.5 52.1667,18.5 52.5,18.5C 53.3382,18.8417 53.6716,19.5084 53.5,20.5C 53.6053,24.687 52.772,28.687 51,32.5C 50.7787,29.0569 49.7787,28.7236 48,31.5C 47.6596,26.9959 47.4929,22.6625 47.5,18.5C 48.5575,18.0941 49.8908,18.0941 51.5,18.5 Z"/></g>
<g><path style="opacity:1" fill="#00baf1" d="M 23.5,18.5 C 24.8333,19.1667 25.8333,20.1667 26.5,21.5C 26.7948,24.9878 26.7948,28.6544 26.5,32.5C 25.5,32.5 24.5,32.5 23.5,32.5C 23.5,35.5 23.5,38.5 23.5,41.5C 22.5,41.5 21.5,41.5 20.5,41.5C 20.8064,44.3854 20.4731,47.0521 19.5,49.5C 18.8333,49.5 18.5,49.1667 18.5,48.5C 19.7791,38.4377 21.4457,28.4377 23.5,18.5 Z"/></g>
<g><path style="opacity:1" fill="#c94840" d="M 11.5,16.5 C 10.1667,26.5 10.1667,36.5 11.5,46.5C 9.97306,46.573 8.97306,45.9063 8.5,44.5C 7.56044,36.2212 7.22711,27.8878 7.5,19.5C 8.52613,18.147 9.85946,17.147 11.5,16.5 Z"/></g>
<g><path style="opacity:1" fill="#01adea" d="M 26.5,21.5 C 27.8333,22.5 29.1667,23.5 30.5,24.5C 30.5,24.8333 30.5,25.1667 30.5,25.5C 29.2172,28.3654 29.2172,31.3654 30.5,34.5C 29.3493,35.731 28.1827,35.731 27,34.5C 26.5017,37.8168 26.335,41.1501 26.5,44.5C 25.5,44.5 24.5,44.5 23.5,44.5C 22.9898,47.3878 23.6565,49.7211 25.5,51.5C 25.5,52.1667 25.1667,52.5 24.5,52.5C 23.5,52.5 22.5,52.5 21.5,52.5C 20.8333,51.5 20.1667,50.5 19.5,49.5C 20.4731,47.0521 20.8064,44.3854 20.5,41.5C 21.5,41.5 22.5,41.5 23.5,41.5C 23.5,38.5 23.5,35.5 23.5,32.5C 24.5,32.5 25.5,32.5 26.5,32.5C 26.7948,28.6544 26.7948,24.9878 26.5,21.5 Z"/></g>
<g><path style="opacity:1" fill="#7e47cc" d="M 20.5,11.5 C 19.241,12.9791 18.241,14.6458 17.5,16.5C 16.1667,26.5 16.1667,36.5 17.5,46.5C 17.3284,47.4916 17.6618,48.1583 18.5,48.5C 18.5,49.1667 18.8333,49.5 19.5,49.5C 20.1667,50.5 20.8333,51.5 21.5,52.5C 18.8808,52.0745 16.5475,51.0745 14.5,49.5C 13.2194,38.2908 13.2194,27.1241 14.5,16C 13.9056,15.5357 13.2389,15.369 12.5,15.5C 14.5792,13.127 17.2459,11.7936 20.5,11.5 Z"/></g>
<g><path style="opacity:1" fill="#ecb61d" d="M 12.5,15.5 C 13.2389,15.369 13.9056,15.5357 14.5,16C 13.2194,27.1241 13.2194,38.2908 14.5,49.5C 13.1667,48.8333 12.1667,47.8333 11.5,46.5C 10.1667,36.5 10.1667,26.5 11.5,16.5C 11.5,15.8333 11.8333,15.5 12.5,15.5 Z"/></g>
<g><path style="opacity:0.98" fill="#3d5a81" d="M 5.5,20.5 C 5.5,27.8333 5.5,35.1667 5.5,42.5C 4.54163,42.0472 3.7083,41.3805 3,40.5C 2.33333,34.5 2.33333,28.5 3,22.5C 3.7083,21.6195 4.54163,20.9528 5.5,20.5 Z"/></g>
<g><path style="opacity:1" fill="#1cadd3" d="M 35.5,23.5 C 35.8333,23.5 36.1667,23.5 36.5,23.5C 38.4728,26.1395 40.8061,28.4728 43.5,30.5C 45.3403,32.6689 47.6737,34.0023 50.5,34.5C 49.4726,36.1942 48.1392,37.5275 46.5,38.5C 46.1667,38.5 45.8333,38.5 45.5,38.5C 44.8333,38.1667 44.1667,37.8333 43.5,37.5C 41.1667,34.5 38.5,31.8333 35.5,29.5C 34.0552,27.9373 32.3885,26.604 30.5,25.5C 30.5,25.1667 30.5,24.8333 30.5,24.5C 31.9305,24.4208 33.2638,24.7542 34.5,25.5C 35.2975,25.0431 35.6309,24.3764 35.5,23.5 Z"/></g>
<g><path style="opacity:1" fill="#34cccc" d="M 7.5,19.5 C 7.22711,27.8878 7.56044,36.2212 8.5,44.5C 6.97306,44.573 5.97306,43.9063 5.5,42.5C 5.5,35.1667 5.5,27.8333 5.5,20.5C 6.16667,20.1667 6.83333,19.8333 7.5,19.5 Z"/></g>
<g><path style="opacity:1" fill="#00a1e5" d="M 30.5,25.5 C 32.3885,26.604 34.0552,27.9373 35.5,29.5C 33.8962,32.4032 32.8962,35.7366 32.5,39.5C 31.5,38.8333 30.5,38.1667 29.5,37.5C 28.5159,40.4281 28.1826,43.4281 28.5,46.5C 27.5,46.5 26.5,46.5 25.5,46.5C 25.5,48.1667 25.5,49.8333 25.5,51.5C 23.6565,49.7211 22.9898,47.3878 23.5,44.5C 24.5,44.5 25.5,44.5 26.5,44.5C 26.335,41.1501 26.5017,37.8168 27,34.5C 28.1827,35.731 29.3493,35.731 30.5,34.5C 29.2172,31.3654 29.2172,28.3654 30.5,25.5 Z"/></g>
<g><path style="opacity:1" fill="#0190dd" d="M 35.5,29.5 C 38.5,31.8333 41.1667,34.5 43.5,37.5C 41.9065,40.0609 40.9065,43.0609 40.5,46.5C 38.4759,44.6419 36.3092,42.9752 34,41.5C 33.502,44.4816 33.3354,47.4816 33.5,50.5C 31.5165,50.6168 29.8498,49.9501 28.5,48.5C 27.6143,49.325 27.281,50.325 27.5,51.5C 26.8333,51.5 26.1667,51.5 25.5,51.5C 25.5,49.8333 25.5,48.1667 25.5,46.5C 26.5,46.5 27.5,46.5 28.5,46.5C 28.1826,43.4281 28.5159,40.4281 29.5,37.5C 30.5,38.1667 31.5,38.8333 32.5,39.5C 32.8962,35.7366 33.8962,32.4032 35.5,29.5 Z"/></g>
<g><path style="opacity:1" fill="#0179d0" d="M 43.5,37.5 C 44.1667,37.8333 44.8333,38.1667 45.5,38.5C 45.5122,42.5937 45.1788,46.7603 44.5,51C 38.8431,51.4994 33.1764,51.6661 27.5,51.5C 27.281,50.325 27.6143,49.325 28.5,48.5C 29.8498,49.9501 31.5165,50.6168 33.5,50.5C 33.3354,47.4816 33.502,44.4816 34,41.5C 36.3092,42.9752 38.4759,44.6419 40.5,46.5C 40.9065,43.0609 41.9065,40.0609 43.5,37.5 Z"/></g>
<g><path style="opacity:0.997" fill="#1057a2" d="M 45.5,38.5 C 45.8333,38.5 46.1667,38.5 46.5,38.5C 50.1895,41.1907 53.1895,44.524 55.5,48.5C 54.9598,49.7481 54.2931,50.9148 53.5,52C 48.4417,53.1161 43.2751,53.6161 38,53.5C 33.3205,53.4991 28.8205,53.1658 24.5,52.5C 25.1667,52.5 25.5,52.1667 25.5,51.5C 26.1667,51.5 26.8333,51.5 27.5,51.5C 33.1764,51.6661 38.8431,51.4994 44.5,51C 45.1788,46.7603 45.5122,42.5937 45.5,38.5 Z"/></g>
</svg>
