<?xml version="1.0" encoding="UTF-8"?>
<!DOCTYPE svg PUBLIC "-//W3C//DTD SVG 1.1//EN" "http://www.w3.org/Graphics/SVG/1.1/DTD/svg11.dtd">
<svg xmlns="http://www.w3.org/2000/svg" version="1.1" width="64px" height="64px" style="shape-rendering:geometricPrecision; text-rendering:geometricPrecision; image-rendering:optimizeQuality; fill-rule:evenodd; clip-rule:evenodd" xmlns:xlink="http://www.w3.org/1999/xlink">
<g><path style="opacity:1" fill="#fcfcfb" d="M -0.5,-0.5 C 7.5,-0.5 15.5,-0.5 23.5,-0.5C 20.8197,1.27345 17.8197,2.60678 14.5,3.5C 12.1727,3.24707 10.1727,3.91374 8.5,5.5C 7.18004,7.98596 5.3467,9.98596 3,11.5C 2.32798,14.1777 1.16132,16.511 -0.5,18.5C -0.5,12.1667 -0.5,5.83333 -0.5,-0.5 Z"/></g>
<g><path style="opacity:1" fill="#fcf8f6" d="M 37.5,-0.5 C 46.1667,-0.5 54.8333,-0.5 63.5,-0.5C 63.5,8.16667 63.5,16.8333 63.5,25.5C 62.8333,25.5 62.5,25.1667 62.5,24.5C 61.5637,16.9621 57.897,11.2954 51.5,7.5C 50.5637,6.02561 49.2303,5.02561 47.5,4.5C 44.4039,2.28526 41.0705,0.618594 37.5,-0.5 Z"/></g>
<g><path style="opacity:1" fill="#e08887" d="M 23.5,-0.5 C 24.8333,-0.5 26.1667,-0.5 27.5,-0.5C 25.3012,1.09849 22.9679,2.43182 20.5,3.5C 15.9066,4.25287 12.5733,6.75287 10.5,11C 8.54826,11.3661 6.88159,12.1995 5.5,13.5C 7.79457,9.53841 10.7946,6.20507 14.5,3.5C 17.8197,2.60678 20.8197,1.27345 23.5,-0.5 Z"/></g>
<g><path style="opacity:1" fill="#dd8282" d="M 35.5,-0.5 C 36.1667,-0.5 36.8333,-0.5 37.5,-0.5C 41.0705,0.618594 44.4039,2.28526 47.5,4.5C 45.7839,4.37133 44.1172,4.038 42.5,3.5C 39.9453,2.53887 37.612,1.20553 35.5,-0.5 Z"/></g>
<g><path style="opacity:1" fill="#f47276" d="M 27.5,-0.5 C 30.1667,-0.5 32.8333,-0.5 35.5,-0.5C 37.612,1.20553 39.9453,2.53887 42.5,3.5C 38.8333,3.5 35.1667,3.5 31.5,3.5C 31.5,4.83333 31.5,6.16667 31.5,7.5C 35.6605,8.86133 39.9938,9.86133 44.5,10.5C 41.5673,12.7381 41.9007,13.7381 45.5,13.5C 44.5985,17.2407 45.9319,19.2407 49.5,19.5C 49.5,20.8333 49.5,22.1667 49.5,23.5C 48.5,23.5 47.5,23.5 46.5,23.5C 46.1667,23.5 45.8333,23.5 45.5,23.5C 45.6716,22.5084 45.3382,21.8417 44.5,21.5C 43.4189,17.6848 42.0856,14.0181 40.5,10.5C 38.5,10.5 36.5,10.5 34.5,10.5C 34.1667,10.5 33.8333,10.5 33.5,10.5C 31.0521,9.52693 28.3854,9.1936 25.5,9.5C 25.9371,7.92558 26.9371,6.75891 28.5,6C 26.3475,3.83494 23.6808,3.0016 20.5,3.5C 22.9679,2.43182 25.3012,1.09849 27.5,-0.5 Z"/></g>
<g><path style="opacity:1" fill="#feeee8" d="M 14.5,3.5 C 10.7946,6.20507 7.79457,9.53841 5.5,13.5C 2.61067,17.0644 0.610668,21.0644 -0.5,25.5C -0.5,23.1667 -0.5,20.8333 -0.5,18.5C 1.16132,16.511 2.32798,14.1777 3,11.5C 5.3467,9.98596 7.18004,7.98596 8.5,5.5C 10.1727,3.91374 12.1727,3.24707 14.5,3.5 Z"/></g>
<g><path style="opacity:1" fill="#f37273" d="M 20.5,3.5 C 23.6808,3.0016 26.3475,3.83494 28.5,6C 26.9371,6.75891 25.9371,7.92558 25.5,9.5C 23.5615,11.1628 21.2282,11.8294 18.5,11.5C 18.5,13.5 18.5,15.5 18.5,17.5C 18.5,18.1667 18.5,18.8333 18.5,19.5C 18.1667,19.5 17.8333,19.5 17.5,19.5C 16.8826,19.6107 16.3826,19.944 16,20.5C 15.8171,23.3647 15.3171,26.0314 14.5,28.5C 14.3354,25.4816 14.502,22.4816 15,19.5C 18.1651,17.2932 18.3317,14.7932 15.5,12C 17.0446,10.3594 16.7113,9.19277 14.5,8.5C 13.4877,11.3381 11.4877,12.6714 8.5,12.5C 7.19025,14.8304 5.85692,17.1637 4.5,19.5C 4.51715,17.4352 4.85048,15.4352 5.5,13.5C 6.88159,12.1995 8.54826,11.3661 10.5,11C 12.5733,6.75287 15.9066,4.25287 20.5,3.5 Z"/></g>
<g><path style="opacity:1" fill="#de767d" d="M 34.5,10.5 C 36.5,10.5 38.5,10.5 40.5,10.5C 42.0856,14.0181 43.4189,17.6848 44.5,21.5C 43.2719,20.6935 42.2719,19.6935 41.5,18.5C 40.5624,14.5652 38.229,11.8986 34.5,10.5 Z"/></g>
<g><path style="opacity:1" fill="#de747a" d="M 25.5,9.5 C 28.3854,9.1936 31.0521,9.52693 33.5,10.5C 28.2737,9.46544 24.2737,11.1321 21.5,15.5C 20.5,16.1667 19.5,16.8333 18.5,17.5C 18.5,15.5 18.5,13.5 18.5,11.5C 21.2282,11.8294 23.5615,11.1628 25.5,9.5 Z"/></g>
<g><path style="opacity:1" fill="#4b0e11" d="M 33.5,10.5 C 33.8333,10.5 34.1667,10.5 34.5,10.5C 38.229,11.8986 40.5624,14.5652 41.5,18.5C 40.8333,18.5 40.1667,18.5 39.5,18.5C 36.8988,12.9378 32.5655,11.1044 26.5,13C 25.0577,13.3768 24.0577,14.2101 23.5,15.5C 22.8333,15.5 22.1667,15.5 21.5,15.5C 24.2737,11.1321 28.2737,9.46544 33.5,10.5 Z"/></g>
<g><path style="opacity:1" fill="#d37979" d="M 39.5,18.5 C 39.573,20.0269 38.9063,21.0269 37.5,21.5C 37.7086,15.4152 34.7086,12.7485 28.5,13.5C 28.366,15.2915 28.6993,16.9582 29.5,18.5C 29.1667,18.5 28.8333,18.5 28.5,18.5C 27.3406,16.7497 25.674,15.7497 23.5,15.5C 24.0577,14.2101 25.0577,13.3768 26.5,13C 32.5655,11.1044 36.8988,12.9378 39.5,18.5 Z"/></g>
<g><path style="opacity:1" fill="#f57171" d="M 42.5,3.5 C 44.1172,4.038 45.7839,4.37133 47.5,4.5C 49.2303,5.02561 50.5637,6.02561 51.5,7.5C 51.5,8.5 51.5,9.5 51.5,10.5C 52.5,10.5 53.5,10.5 54.5,10.5C 57.1456,14.4344 59.1456,18.7677 60.5,23.5C 59.5,23.5 58.5,23.5 57.5,23.5C 57.8076,21.076 57.4742,18.7427 56.5,16.5C 55.6694,22.8072 55.1694,29.1406 55,35.5C 54.3028,37.5844 53.1361,39.2511 51.5,40.5C 49.194,35.125 47.5273,29.4583 46.5,23.5C 47.5,23.5 48.5,23.5 49.5,23.5C 49.5,22.1667 49.5,20.8333 49.5,19.5C 45.9319,19.2407 44.5985,17.2407 45.5,13.5C 41.9007,13.7381 41.5673,12.7381 44.5,10.5C 39.9938,9.86133 35.6605,8.86133 31.5,7.5C 31.5,6.16667 31.5,4.83333 31.5,3.5C 35.1667,3.5 38.8333,3.5 42.5,3.5 Z"/></g>
<g><path style="opacity:1" fill="#935056" d="M 23.5,15.5 C 25.674,15.7497 27.3406,16.7497 28.5,18.5C 27.0813,19.4511 25.4147,19.7845 23.5,19.5C 24.4054,18.2976 24.4054,16.9643 23.5,15.5 Z"/></g>
<g><path style="opacity:1" fill="#f37276" d="M 37.5,21.5 C 37.1667,22.1667 36.8333,22.8333 36.5,23.5C 35.8018,26.8973 35.1352,30.3973 34.5,34C 34.1667,34.1667 33.8333,34.3333 33.5,34.5C 32.6733,32.838 31.5067,31.5046 30,30.5C 29.5172,29.552 29.3505,28.552 29.5,27.5C 29.8333,27.5 30.1667,27.5 30.5,27.5C 31.5,27.5 32.5,27.5 33.5,27.5C 33.9227,25.2188 33.256,23.5521 31.5,22.5C 31.1667,21.5 30.5,20.8333 29.5,20.5C 29.5,19.8333 29.5,19.1667 29.5,18.5C 28.6993,16.9582 28.366,15.2915 28.5,13.5C 34.7086,12.7485 37.7086,15.4152 37.5,21.5 Z"/></g>
<g><path style="opacity:1" fill="#701c24" d="M 28.5,18.5 C 28.8333,18.5 29.1667,18.5 29.5,18.5C 29.5,19.1667 29.5,19.8333 29.5,20.5C 27.5,20.5 25.5,20.5 23.5,20.5C 23.5,20.1667 23.5,19.8333 23.5,19.5C 25.4147,19.7845 27.0813,19.4511 28.5,18.5 Z"/></g>
<g><path style="opacity:1" fill="#dd8182" d="M 51.5,7.5 C 57.897,11.2954 61.5637,16.9621 62.5,24.5C 61.8333,24.1667 61.1667,23.8333 60.5,23.5C 59.1456,18.7677 57.1456,14.4344 54.5,10.5C 53.5,10.5 52.5,10.5 51.5,10.5C 51.5,9.5 51.5,8.5 51.5,7.5 Z"/></g>
<g><path style="opacity:1" fill="#e77c7d" d="M 5.5,13.5 C 4.85048,15.4352 4.51715,17.4352 4.5,19.5C 3.9729,22.2314 3.13956,24.8981 2,27.5C 1.2917,28.3805 0.458367,29.0472 -0.5,29.5C -0.5,28.1667 -0.5,26.8333 -0.5,25.5C 0.610668,21.0644 2.61067,17.0644 5.5,13.5 Z"/></g>
<g><path style="opacity:1" fill="#f67170" d="M 14.5,28.5 C 14.5524,32.1981 14.8857,35.8648 15.5,39.5C 15.6816,41.5914 15.3482,43.5914 14.5,45.5C 15.2427,46.1818 15.9094,46.8485 16.5,47.5C 12.7222,45.6957 10.0555,42.6957 8.5,38.5C 7.83333,38.8333 7.16667,39.1667 6.5,39.5C 6.75582,35.4744 6.25582,31.4744 5,27.5C 3.21536,31.3048 2.38203,35.3048 2.5,39.5C 1.97789,37.7809 0.977893,36.4475 -0.5,35.5C -0.5,33.5 -0.5,31.5 -0.5,29.5C 0.458367,29.0472 1.2917,28.3805 2,27.5C 3.13956,24.8981 3.9729,22.2314 4.5,19.5C 5.85692,17.1637 7.19025,14.8304 8.5,12.5C 11.4877,12.6714 13.4877,11.3381 14.5,8.5C 16.7113,9.19277 17.0446,10.3594 15.5,12C 18.3317,14.7932 18.1651,17.2932 15,19.5C 14.502,22.4816 14.3354,25.4816 14.5,28.5 Z"/></g>
<g><path style="opacity:1" fill="#d67379" d="M 25.5,22.5 C 26.9527,24.229 28.9527,25.229 31.5,25.5C 32.7733,24.7435 32.7733,24.0768 31.5,23.5C 31.5,23.1667 31.5,22.8333 31.5,22.5C 33.256,23.5521 33.9227,25.2188 33.5,27.5C 32.5,27.5 31.5,27.5 30.5,27.5C 29.5729,25.5241 28.2395,25.1908 26.5,26.5C 27.325,27.3857 28.325,27.719 29.5,27.5C 29.3505,28.552 29.5172,29.552 30,30.5C 31.5067,31.5046 32.6733,32.838 33.5,34.5C 33.8333,34.3333 34.1667,34.1667 34.5,34C 35.1352,30.3973 35.8018,26.8973 36.5,23.5C 37.5191,26.8724 37.5191,30.2057 36.5,33.5C 36.5,33.8333 36.5,34.1667 36.5,34.5C 35.197,36.1423 33.8637,37.8089 32.5,39.5C 31.8333,38.8333 31.1667,38.1667 30.5,37.5C 30.7971,33.7554 29.2971,31.0887 26,29.5C 25.2352,29.5699 24.7352,29.9033 24.5,30.5C 23.8476,29.5514 23.5143,28.3847 23.5,27C 23.3068,24.9919 23.9735,23.4919 25.5,22.5 Z"/></g>
<g><path style="opacity:1" fill="#4a0f11" d="M 25.5,22.5 C 27.6208,22.3253 29.6208,22.6586 31.5,23.5C 32.7733,24.0768 32.7733,24.7435 31.5,25.5C 28.9527,25.229 26.9527,24.229 25.5,22.5 Z"/></g>
<g><path style="opacity:1" fill="#9a3d44" d="M 30.5,27.5 C 30.1667,27.5 29.8333,27.5 29.5,27.5C 28.325,27.719 27.325,27.3857 26.5,26.5C 28.2395,25.1908 29.5729,25.5241 30.5,27.5 Z"/></g>
<g><path style="opacity:1" fill="#f8726d" d="M 60.5,23.5 C 61.1667,23.8333 61.8333,24.1667 62.5,24.5C 62.5,25.1667 62.8333,25.5 63.5,25.5C 63.5,29.5 63.5,33.5 63.5,37.5C 62.8333,38.1667 62.1667,38.8333 61.5,39.5C 58.8556,42.4802 56.189,45.4802 53.5,48.5C 52.2801,48.1131 51.6135,47.2798 51.5,46C 52.7547,44.1132 52.7547,42.2799 51.5,40.5C 53.1361,39.2511 54.3028,37.5844 55,35.5C 55.1694,29.1406 55.6694,22.8072 56.5,16.5C 57.4742,18.7427 57.8076,21.076 57.5,23.5C 58.5,23.5 59.5,23.5 60.5,23.5 Z"/></g>
<g><path style="opacity:1" fill="#221623" d="M 39.5,18.5 C 40.1667,18.5 40.8333,18.5 41.5,18.5C 42.2719,19.6935 43.2719,20.6935 44.5,21.5C 45.3382,21.8417 45.6716,22.5084 45.5,23.5C 45.5,26.1667 45.5,28.8333 45.5,31.5C 44.5489,32.9187 44.2155,34.5853 44.5,36.5C 42.9256,36.9371 41.7589,37.9371 41,39.5C 40.3292,38.7476 39.4959,38.4142 38.5,38.5C 38.1583,37.6618 37.4916,37.3284 36.5,37.5C 36.5,37.1667 36.5,36.8333 36.5,36.5C 37.675,36.719 38.675,36.3857 39.5,35.5C 40.5785,32.7931 41.5785,30.1264 42.5,27.5C 41.448,27.3505 40.448,27.5172 39.5,28C 39.0108,30.2092 38.0108,32.0425 36.5,33.5C 37.5191,30.2057 37.5191,26.8724 36.5,23.5C 36.8333,22.8333 37.1667,22.1667 37.5,21.5C 38.9063,21.0269 39.573,20.0269 39.5,18.5 Z"/></g>
<g><path style="opacity:1" fill="#c97a82" d="M 23.5,20.5 C 25.5,20.5 27.5,20.5 29.5,20.5C 30.5,20.8333 31.1667,21.5 31.5,22.5C 31.5,22.8333 31.5,23.1667 31.5,23.5C 29.6208,22.6586 27.6208,22.3253 25.5,22.5C 23.9735,23.4919 23.3068,24.9919 23.5,27C 23.5143,28.3847 23.8476,29.5514 24.5,30.5C 24.5476,31.5071 23.5476,31.8404 21.5,31.5C 21.5,30.5 21.5,29.5 21.5,28.5C 22.0784,25.7196 22.7451,23.0529 23.5,20.5 Z"/></g>
<g><path style="opacity:1" fill="#11181e" d="M 36.5,36.5 C 36.5,35.8333 36.5,35.1667 36.5,34.5C 36.5,34.1667 36.5,33.8333 36.5,33.5C 38.0108,32.0425 39.0108,30.2092 39.5,28C 40.448,27.5172 41.448,27.3505 42.5,27.5C 41.5785,30.1264 40.5785,32.7931 39.5,35.5C 38.675,36.3857 37.675,36.719 36.5,36.5 Z"/></g>
<g><path style="opacity:1" fill="#38131a" d="M 17.5,19.5 C 17.8333,19.5 18.1667,19.5 18.5,19.5C 18.3337,26.8409 18.5003,34.1742 19,41.5C 19.2784,42.4158 19.7784,43.0825 20.5,43.5C 20.5,44.8333 20.5,46.1667 20.5,47.5C 19.4415,46.3998 18.6082,45.0664 18,43.5C 17.6317,39.1503 17.1317,34.817 16.5,30.5C 17.0147,26.7883 17.348,23.1216 17.5,19.5 Z"/></g>
<g><path style="opacity:1" fill="#431622" d="M 21.5,28.5 C 21.5,29.5 21.5,30.5 21.5,31.5C 23.5476,31.8404 24.5476,31.5071 24.5,30.5C 24.7352,29.9033 25.2352,29.5699 26,29.5C 29.2971,31.0887 30.7971,33.7554 30.5,37.5C 29.8333,37.5 29.1667,37.5 28.5,37.5C 28.5858,36.5041 28.2524,35.6708 27.5,35C 25.8659,34.5065 24.1992,34.3398 22.5,34.5C 24.0419,33.8365 25.7086,33.1698 27.5,32.5C 27.3333,32.1667 27.1667,31.8333 27,31.5C 25,32.1667 23,32.8333 21,33.5C 20.2204,31.6131 20.3871,29.9464 21.5,28.5 Z"/></g>
<g><path style="opacity:1" fill="#b27685" d="M 22.5,34.5 C 24.1992,34.3398 25.8659,34.5065 27.5,35C 28.2524,35.6708 28.5858,36.5041 28.5,37.5C 26.2394,37.6453 23.906,37.6453 21.5,37.5C 20.3347,36.1405 20.668,35.1405 22.5,34.5 Z"/></g>
<g><path style="opacity:1" fill="#411115" d="M 36.5,34.5 C 36.5,35.1667 36.5,35.8333 36.5,36.5C 36.5,36.8333 36.5,37.1667 36.5,37.5C 35.3995,38.6049 34.7329,39.9382 34.5,41.5C 34.1667,41.5 33.8333,41.5 33.5,41.5C 33.6716,40.5084 33.3382,39.8417 32.5,39.5C 33.8637,37.8089 35.197,36.1423 36.5,34.5 Z"/></g>
<g><path style="opacity:1" fill="#7e2f30" d="M 45.5,31.5 C 45.3184,33.5914 45.6518,35.5914 46.5,37.5C 46.0431,38.2975 45.3764,38.6309 44.5,38.5C 44.5,38.1667 44.5,37.8333 44.5,37.5C 44.5,37.1667 44.5,36.8333 44.5,36.5C 44.2155,34.5853 44.5489,32.9187 45.5,31.5 Z"/></g>
<g><path style="opacity:1" fill="#f96f6e" d="M 16.5,47.5 C 16.6104,50.0588 15.9438,52.3921 14.5,54.5C 13.8216,51.1638 11.8216,49.1638 8.5,48.5C 9.24585,47.2638 9.57918,45.9305 9.5,44.5C 8.12656,44.6567 6.79323,44.49 5.5,44C 5.08527,41.9737 4.08527,40.4737 2.5,39.5C 2.38203,35.3048 3.21536,31.3048 5,27.5C 6.25582,31.4744 6.75582,35.4744 6.5,39.5C 7.16667,39.1667 7.83333,38.8333 8.5,38.5C 10.0555,42.6957 12.7222,45.6957 16.5,47.5 Z"/></g>
<g><path style="opacity:1" fill="#24151c" d="M 21.5,15.5 C 22.1667,15.5 22.8333,15.5 23.5,15.5C 24.4054,16.9643 24.4054,18.2976 23.5,19.5C 23.5,19.8333 23.5,20.1667 23.5,20.5C 22.7451,23.0529 22.0784,25.7196 21.5,28.5C 20.3871,29.9464 20.2204,31.6131 21,33.5C 23,32.8333 25,32.1667 27,31.5C 27.1667,31.8333 27.3333,32.1667 27.5,32.5C 25.7086,33.1698 24.0419,33.8365 22.5,34.5C 20.668,35.1405 20.3347,36.1405 21.5,37.5C 23.906,37.6453 26.2394,37.6453 28.5,37.5C 29.1667,37.5 29.8333,37.5 30.5,37.5C 31.1667,38.1667 31.8333,38.8333 32.5,39.5C 33.3382,39.8417 33.6716,40.5084 33.5,41.5C 33.5,43.1667 33.5,44.8333 33.5,46.5C 33.5,47.8333 32.8333,48.5 31.5,48.5C 31.2924,46.0799 31.6258,43.7466 32.5,41.5C 28.964,39.9102 25.2974,39.4102 21.5,40C 20.6634,41.0113 20.33,42.1779 20.5,43.5C 19.7784,43.0825 19.2784,42.4158 19,41.5C 18.5003,34.1742 18.3337,26.8409 18.5,19.5C 18.5,18.8333 18.5,18.1667 18.5,17.5C 19.5,16.8333 20.5,16.1667 21.5,15.5 Z"/></g>
<g><path style="opacity:1" fill="#32121d" d="M 44.5,36.5 C 44.5,36.8333 44.5,37.1667 44.5,37.5C 43.5318,39.6074 43.1984,41.9407 43.5,44.5C 43.5,45.1667 43.1667,45.5 42.5,45.5C 40.4224,43.6096 39.0891,41.2762 38.5,38.5C 39.4959,38.4142 40.3292,38.7476 41,39.5C 41.7589,37.9371 42.9256,36.9371 44.5,36.5 Z"/></g>
<g><path style="opacity:1" fill="#161824" d="M 31.5,48.5 C 31.5,49.5 31.5,50.5 31.5,51.5C 29.8333,51.5 28.1667,51.5 26.5,51.5C 25.5084,51.6716 24.8417,51.3382 24.5,50.5C 23.713,48.8958 22.3797,48.2291 20.5,48.5C 20.5,48.1667 20.5,47.8333 20.5,47.5C 20.5,46.1667 20.5,44.8333 20.5,43.5C 20.33,42.1779 20.6634,41.0113 21.5,40C 25.2974,39.4102 28.964,39.9102 32.5,41.5C 31.6258,43.7466 31.2924,46.0799 31.5,48.5 Z"/></g>
<g><path style="opacity:1" fill="#d88182" d="M -0.5,35.5 C 0.977893,36.4475 1.97789,37.7809 2.5,39.5C 3.3705,42.1123 4.03717,44.779 4.5,47.5C 2.28526,44.4039 0.618594,41.0705 -0.5,37.5C -0.5,36.8333 -0.5,36.1667 -0.5,35.5 Z"/></g>
<g><path style="opacity:1" fill="#d07f85" d="M 44.5,37.5 C 44.5,37.8333 44.5,38.1667 44.5,38.5C 44.366,40.2915 44.6993,41.9582 45.5,43.5C 45.1583,44.3382 44.4916,44.6716 43.5,44.5C 43.1984,41.9407 43.5318,39.6074 44.5,37.5 Z"/></g>
<g><path style="opacity:1" fill="#cb7178" d="M 36.5,37.5 C 37.4916,37.3284 38.1583,37.6618 38.5,38.5C 39.0891,41.2762 40.4224,43.6096 42.5,45.5C 42.5,45.8333 42.5,46.1667 42.5,46.5C 40.0661,45.2287 38.5661,43.2287 38,40.5C 36.9887,41.3366 35.8221,41.67 34.5,41.5C 34.7329,39.9382 35.3995,38.6049 36.5,37.5 Z"/></g>
<g><path style="opacity:1" fill="#59191f" d="M 45.5,43.5 C 47.1765,44.1834 47.8432,45.5168 47.5,47.5C 46.1667,47.5 44.8333,47.5 43.5,47.5C 43.5,46.8333 43.1667,46.5 42.5,46.5C 42.5,46.1667 42.5,45.8333 42.5,45.5C 43.1667,45.5 43.5,45.1667 43.5,44.5C 44.4916,44.6716 45.1583,44.3382 45.5,43.5 Z"/></g>
<g><path style="opacity:1" fill="#f17375" d="M 2.5,39.5 C 4.08527,40.4737 5.08527,41.9737 5.5,44C 6.79323,44.49 8.12656,44.6567 9.5,44.5C 9.57918,45.9305 9.24585,47.2638 8.5,48.5C 11.8216,49.1638 13.8216,51.1638 14.5,54.5C 15.9438,52.3921 16.6104,50.0588 16.5,47.5C 15.9094,46.8485 15.2427,46.1818 14.5,45.5C 15.3482,43.5914 15.6816,41.5914 15.5,39.5C 16.7034,43.331 17.7034,47.331 18.5,51.5C 20.7451,52.2082 22.7451,53.2082 24.5,54.5C 22.7376,54.6427 21.0709,54.3094 19.5,53.5C 18.1667,54.1667 17.1667,55.1667 16.5,56.5C 20.4142,57.4591 24.0809,58.9591 27.5,61C 28.5981,61.7697 28.5981,62.603 27.5,63.5C 26.8333,63.5 26.1667,63.5 25.5,63.5C 24.5,62.8333 23.5,62.1667 22.5,61.5C 20.8148,59.1824 18.4815,58.1824 15.5,58.5C 15.5,57.5 15.5,56.5 15.5,55.5C 11.6576,54.5273 8.82423,52.1939 7,48.5C 6.32924,47.7476 5.4959,47.4142 4.5,47.5C 4.03717,44.779 3.3705,42.1123 2.5,39.5 Z"/></g>
<g><path style="opacity:1" fill="#f5716e" d="M 43.5,47.5 C 45.7879,48.0735 47.9546,49.0735 50,50.5C 50.1667,51.3333 50.3333,52.1667 50.5,53C 49.4383,54.841 48.4383,56.6743 47.5,58.5C 44.8127,58.6641 42.146,58.4974 39.5,58C 38.1667,57.3333 38.1667,56.6667 39.5,56C 38.2068,55.51 36.8734,55.3433 35.5,55.5C 35.7995,50.3662 38.4661,47.6995 43.5,47.5 Z"/></g>
<g><path style="opacity:1" fill="#ec7576" d="M 45.5,23.5 C 45.8333,23.5 46.1667,23.5 46.5,23.5C 47.5273,29.4583 49.194,35.125 51.5,40.5C 52.7547,42.2799 52.7547,44.1132 51.5,46C 51.6135,47.2798 52.2801,48.1131 53.5,48.5C 56.189,45.4802 58.8556,42.4802 61.5,39.5C 59.843,48.143 55.1764,54.4763 47.5,58.5C 48.4383,56.6743 49.4383,54.841 50.5,53C 50.3333,52.1667 50.1667,51.3333 50,50.5C 47.9546,49.0735 45.7879,48.0735 43.5,47.5C 44.8333,47.5 46.1667,47.5 47.5,47.5C 47.8432,45.5168 47.1765,44.1834 45.5,43.5C 44.6993,41.9582 44.366,40.2915 44.5,38.5C 45.3764,38.6309 46.0431,38.2975 46.5,37.5C 45.6518,35.5914 45.3184,33.5914 45.5,31.5C 45.5,28.8333 45.5,26.1667 45.5,23.5 Z"/></g>
<g><path style="opacity:1" fill="#de777a" d="M 17.5,19.5 C 17.348,23.1216 17.0147,26.7883 16.5,30.5C 17.1317,34.817 17.6317,39.1503 18,43.5C 18.6082,45.0664 19.4415,46.3998 20.5,47.5C 20.5,47.8333 20.5,48.1667 20.5,48.5C 20.9103,51.4307 22.2436,52.0974 24.5,50.5C 24.8417,51.3382 25.5084,51.6716 26.5,51.5C 28.6934,52.7969 31.0268,52.7969 33.5,51.5C 33.2907,50.914 32.9574,50.414 32.5,50C 35.9535,49.3716 36.2869,48.2049 33.5,46.5C 33.5,44.8333 33.5,43.1667 33.5,41.5C 33.8333,41.5 34.1667,41.5 34.5,41.5C 34.7151,43.7743 35.3818,45.941 36.5,48C 35.7008,50.149 34.8675,52.3157 34,54.5C 30.9832,54.781 27.8166,54.781 24.5,54.5C 22.7451,53.2082 20.7451,52.2082 18.5,51.5C 17.7034,47.331 16.7034,43.331 15.5,39.5C 14.8857,35.8648 14.5524,32.1981 14.5,28.5C 15.3171,26.0314 15.8171,23.3647 16,20.5C 16.3826,19.944 16.8826,19.6107 17.5,19.5 Z"/></g>
<g><path style="opacity:1" fill="#501d21" d="M 20.5,48.5 C 22.3797,48.2291 23.713,48.8958 24.5,50.5C 22.2436,52.0974 20.9103,51.4307 20.5,48.5 Z"/></g>
<g><path style="opacity:1" fill="#611f20" d="M 33.5,46.5 C 36.2869,48.2049 35.9535,49.3716 32.5,50C 32.9574,50.414 33.2907,50.914 33.5,51.5C 31.0268,52.7969 28.6934,52.7969 26.5,51.5C 28.1667,51.5 29.8333,51.5 31.5,51.5C 31.5,50.5 31.5,49.5 31.5,48.5C 32.8333,48.5 33.5,47.8333 33.5,46.5 Z"/></g>
<g><path style="opacity:1" fill="#fbfefd" d="M 63.5,45.5 C 63.5,51.5 63.5,57.5 63.5,63.5C 57.8333,63.5 52.1667,63.5 46.5,63.5C 53.856,59.1427 59.5227,53.1427 63.5,45.5 Z"/></g>
<g><path style="opacity:1" fill="#fcf8f7" d="M -0.5,37.5 C 0.618594,41.0705 2.28526,44.4039 4.5,47.5C 6.78325,52.2241 10.1166,56.0574 14.5,59C 16.9088,60.7068 19.5755,61.5402 22.5,61.5C 23.5,62.1667 24.5,62.8333 25.5,63.5C 16.8333,63.5 8.16667,63.5 -0.5,63.5C -0.5,54.8333 -0.5,46.1667 -0.5,37.5 Z"/></g>
<g><path style="opacity:1" fill="#f37472" d="M 42.5,46.5 C 43.1667,46.5 43.5,46.8333 43.5,47.5C 38.4661,47.6995 35.7995,50.3662 35.5,55.5C 36.8734,55.3433 38.2068,55.51 39.5,56C 38.1667,56.6667 38.1667,57.3333 39.5,58C 42.146,58.4974 44.8127,58.6641 47.5,58.5C 44.3418,60.5505 41.0085,62.2172 37.5,63.5C 34.1667,63.5 30.8333,63.5 27.5,63.5C 28.5981,62.603 28.5981,61.7697 27.5,61C 24.0809,58.9591 20.4142,57.4591 16.5,56.5C 17.1667,55.1667 18.1667,54.1667 19.5,53.5C 21.0709,54.3094 22.7376,54.6427 24.5,54.5C 27.8166,54.781 30.9832,54.781 34,54.5C 34.8675,52.3157 35.7008,50.149 36.5,48C 35.3818,45.941 34.7151,43.7743 34.5,41.5C 35.8221,41.67 36.9887,41.3366 38,40.5C 38.5661,43.2287 40.0661,45.2287 42.5,46.5 Z"/></g>
<g><path style="opacity:1" fill="#feedea" d="M 63.5,37.5 C 63.5,40.1667 63.5,42.8333 63.5,45.5C 59.5227,53.1427 53.856,59.1427 46.5,63.5C 43.5,63.5 40.5,63.5 37.5,63.5C 41.0085,62.2172 44.3418,60.5505 47.5,58.5C 55.1764,54.4763 59.843,48.143 61.5,39.5C 62.1667,38.8333 62.8333,38.1667 63.5,37.5 Z"/></g>
<g><path style="opacity:1" fill="#db8184" d="M 4.5,47.5 C 5.4959,47.4142 6.32924,47.7476 7,48.5C 8.82423,52.1939 11.6576,54.5273 15.5,55.5C 15.5,56.5 15.5,57.5 15.5,58.5C 18.4815,58.1824 20.8148,59.1824 22.5,61.5C 19.5755,61.5402 16.9088,60.7068 14.5,59C 10.1166,56.0574 6.78325,52.2241 4.5,47.5 Z"/></g>
</svg>
