<?xml version="1.0" encoding="UTF-8"?>
<!DOCTYPE svg PUBLIC "-//W3C//DTD SVG 1.1//EN" "http://www.w3.org/Graphics/SVG/1.1/DTD/svg11.dtd">
<svg xmlns="http://www.w3.org/2000/svg" version="1.1" width="250px" height="250px" style="shape-rendering:geometricPrecision; text-rendering:geometricPrecision; image-rendering:optimizeQuality; fill-rule:evenodd; clip-rule:evenodd" xmlns:xlink="http://www.w3.org/1999/xlink">
<g><path style="opacity:0.976" fill="#fefeff" d="M 100.5,-0.5 C 116.5,-0.5 132.5,-0.5 148.5,-0.5C 194.336,10.1143 226.169,37.781 244,82.5C 245.715,88.0737 247.048,93.7404 248,99.5C 248.383,100.056 248.883,100.389 249.5,100.5C 249.5,116.5 249.5,132.5 249.5,148.5C 238.422,194.745 210.756,226.578 166.5,244C 160.987,245.969 155.321,247.303 149.5,248C 148.944,248.383 148.611,248.883 148.5,249.5C 132.5,249.5 116.5,249.5 100.5,249.5C 54.6641,238.886 22.8307,211.219 5,166.5C 3.28515,160.926 1.95182,155.26 1,149.5C 0.617425,148.944 0.117425,148.611 -0.5,148.5C -0.5,132.5 -0.5,116.5 -0.5,100.5C 10.5776,54.2553 38.2443,22.422 82.5,5C 88.6931,3.34154 94.6931,1.50821 100.5,-0.5 Z"/></g>
<g><path style="opacity:1" fill="#85dbff" d="M 90.5,52.5 C 87.0977,52.3424 83.7644,52.6758 80.5,53.5C 80.6107,52.8826 80.944,52.3826 81.5,52C 84.6965,51.1955 87.6965,51.3622 90.5,52.5 Z"/></g>
<g><path style="opacity:1" fill="#28bfff" d="M 90.5,52.5 C 93.0316,53.5957 95.3649,54.9291 97.5,56.5C 95.4884,55.9862 93.4884,55.8195 91.5,56C 95.6163,59.9139 98.6163,64.4139 100.5,69.5C 102.655,69.372 104.655,69.872 106.5,71C 110.557,76.0585 114.224,81.3918 117.5,87C 116.175,92.9323 116.175,98.7657 117.5,104.5C 117.44,105.043 117.107,105.376 116.5,105.5C 115.67,99.8624 115.17,94.1958 115,88.5C 113.258,85.2543 110.758,82.921 107.5,81.5C 107.027,80.0937 106.027,79.427 104.5,79.5C 99.3521,76.4247 94.0188,73.5913 88.5,71C 84.673,70.0239 81.3396,70.8572 78.5,73.5C 77.1667,73.5 75.8333,73.5 74.5,73.5C 73.1317,69.3088 71.1317,65.4755 68.5,62C 69.756,61.5831 70.4226,60.7498 70.5,59.5C 73.4658,57.0116 76.7991,55.0116 80.5,53.5C 83.7644,52.6758 87.0977,52.3424 90.5,52.5 Z"/></g>
<g><path style="opacity:1" fill="#23bbff" d="M 97.5,56.5 C 103.473,59.8212 109.473,63.1545 115.5,66.5C 115.973,67.9063 116.973,68.573 118.5,68.5C 123.413,71.1183 127.746,74.4516 131.5,78.5C 131.791,84.923 131.458,91.2564 130.5,97.5C 126.034,99.5665 121.701,101.9 117.5,104.5C 116.175,98.7657 116.175,92.9323 117.5,87C 114.224,81.3918 110.557,76.0585 106.5,71C 104.655,69.872 102.655,69.372 100.5,69.5C 98.6163,64.4139 95.6163,59.9139 91.5,56C 93.4884,55.8195 95.4884,55.9862 97.5,56.5 Z"/></g>
<g><path style="opacity:1" fill="#2fc6ff" d="M 70.5,59.5 C 70.4226,60.7498 69.756,61.5831 68.5,62C 71.1317,65.4755 73.1317,69.3088 74.5,73.5C 75.8333,73.5 77.1667,73.5 78.5,73.5C 76.7798,74.3077 75.1131,75.3077 73.5,76.5C 71.9731,76.427 70.9731,77.0937 70.5,78.5C 65.7369,80.2014 61.7369,82.8681 58.5,86.5C 57.0783,86.2914 55.745,85.7914 54.5,85C 55.1667,84.6667 55.8333,84.3333 56.5,84C 55.376,83.7508 54.376,83.2508 53.5,82.5C 52.8721,80.7419 51.8721,79.2419 50.5,78C 50.9574,77.586 51.2907,77.086 51.5,76.5C 50.2713,75.7189 48.938,75.2189 47.5,75C 48.8228,74.1841 49.4894,73.0174 49.5,71.5C 56.3293,67.2505 63.3293,63.2505 70.5,59.5 Z"/></g>
<g><path style="opacity:1" fill="#b4e7ff" d="M 115.5,66.5 C 117.027,66.427 118.027,67.0937 118.5,68.5C 116.973,68.573 115.973,67.9063 115.5,66.5 Z"/></g>
<g><path style="opacity:1" fill="#32ccff" d="M 49.5,71.5 C 49.4894,73.0174 48.8228,74.1841 47.5,75C 48.938,75.2189 50.2713,75.7189 51.5,76.5C 51.2907,77.086 50.9574,77.586 50.5,78C 51.8721,79.2419 52.8721,80.7419 53.5,82.5C 54.376,83.2508 55.376,83.7508 56.5,84C 55.8333,84.3333 55.1667,84.6667 54.5,85C 55.745,85.7914 57.0783,86.2914 58.5,86.5C 57.3851,96.1196 57.2184,105.786 58,115.5C 58.4709,117.246 59.1376,118.913 60,120.5C 66.914,125.375 74.0807,129.875 81.5,134C 84.5,134.667 87.5,134.667 90.5,134C 92.5766,132.295 94.91,131.128 97.5,130.5C 97.0629,132.074 96.0629,133.241 94.5,134C 95.8333,135.667 95.8333,137.333 94.5,139C 97.4275,140.911 99.4275,143.411 100.5,146.5C 97.8142,148.857 94.8142,150.857 91.5,152.5C 87.4659,152.495 83.4659,152.162 79.5,151.5C 74.0554,148.892 68.722,146.058 63.5,143C 62.6195,142.292 61.9528,141.458 61.5,140.5C 61.33,139.178 61.6634,138.011 62.5,137C 60.5,135.667 58.5,134.333 56.5,133C 56.8333,132.667 57.1667,132.333 57.5,132C 54.931,129.521 52.5977,126.854 50.5,124C 50.9574,123.586 51.2907,123.086 51.5,122.5C 49.5571,120.031 47.0571,117.365 44,114.5C 43.6667,115.833 43.3333,117.167 43,118.5C 42.3333,104.833 42.3333,91.1667 43,77.5C 44.0386,76.7562 44.5386,75.7562 44.5,74.5C 45.6594,72.7497 47.326,71.7497 49.5,71.5 Z"/></g>
<g><path style="opacity:1" fill="#b0e8ff" d="M 73.5,76.5 C 73.0269,77.9063 72.0269,78.573 70.5,78.5C 70.9731,77.0937 71.9731,76.427 73.5,76.5 Z"/></g>
<g><path style="opacity:1" fill="#96dfff" d="M 104.5,79.5 C 106.027,79.427 107.027,80.0937 107.5,81.5C 105.973,81.573 104.973,80.9063 104.5,79.5 Z"/></g>
<g><path style="opacity:1" fill="#c0ebff" d="M 131.5,78.5 C 132.165,81.4815 132.498,84.6482 132.5,88C 132.485,91.5758 131.818,94.7425 130.5,97.5C 131.458,91.2564 131.791,84.923 131.5,78.5 Z"/></g>
<g><path style="opacity:1" fill="#58c6ff" d="M 166.5,96.5 C 162.102,96.2941 157.768,96.6274 153.5,97.5C 155.031,95.3199 157.198,94.3199 160,94.5C 162.484,94.4967 164.651,95.1634 166.5,96.5 Z"/></g>
<g><path style="opacity:1" fill="#17b3ff" d="M 166.5,96.5 C 171.806,99.488 177.139,102.488 182.5,105.5C 182.973,106.906 183.973,107.573 185.5,107.5C 187.456,108.492 189.456,109.492 191.5,110.5C 191.973,111.906 192.973,112.573 194.5,112.5C 198.698,114.433 202.365,117.099 205.5,120.5C 205.667,136.503 205.5,152.503 205,168.5C 203.745,167.789 202.579,166.956 201.5,166C 199.94,161.119 197.106,156.619 193,152.5C 192.667,153.5 192.333,154.5 192,155.5C 191.829,147.989 191.329,140.655 190.5,133.5C 190.5,132.833 190.167,132.5 189.5,132.5C 189.573,130.973 188.906,129.973 187.5,129.5C 186.71,128.206 185.71,127.039 184.5,126C 179.08,123.632 174.08,120.798 169.5,117.5C 168.145,114.482 165.812,113.149 162.5,113.5C 161.391,112.71 160.058,112.21 158.5,112C 164.365,111.207 164.698,109.873 159.5,108C 158.423,104.587 156.256,102.087 153,100.5C 152.53,99.4232 152.697,98.4232 153.5,97.5C 157.768,96.6274 162.102,96.2941 166.5,96.5 Z"/></g>
<g><path style="opacity:1" fill="#23baff" d="M 153.5,97.5 C 152.697,98.4232 152.53,99.4232 153,100.5C 156.256,102.087 158.423,104.587 159.5,108C 164.698,109.873 164.365,111.207 158.5,112C 160.058,112.21 161.391,112.71 162.5,113.5C 160.585,113.216 158.919,113.549 157.5,114.5C 156.508,114.328 155.842,114.662 155.5,115.5C 153.326,115.75 151.659,116.75 150.5,118.5C 149.609,119.11 148.609,119.443 147.5,119.5C 144.5,119.5 141.5,119.5 138.5,119.5C 138.785,117.712 138.452,116.045 137.5,114.5C 135.459,113.764 133.459,112.931 131.5,112C 133.025,110.991 134.692,110.491 136.5,110.5C 136.5,109.5 136.5,108.5 136.5,107.5C 141.665,103.414 147.332,100.08 153.5,97.5 Z"/></g>
<g><path style="opacity:1" fill="#96dbff" d="M 182.5,105.5 C 184.027,105.427 185.027,106.094 185.5,107.5C 183.973,107.573 182.973,106.906 182.5,105.5 Z"/></g>
<g><path style="opacity:1" fill="#b3e5ff" d="M 191.5,110.5 C 193.027,110.427 194.027,111.094 194.5,112.5C 192.973,112.573 191.973,111.906 191.5,110.5 Z"/></g>
<g><path style="opacity:1" fill="#2bc0ff" d="M 136.5,107.5 C 136.5,108.5 136.5,109.5 136.5,110.5C 134.692,110.491 133.025,110.991 131.5,112C 133.459,112.931 135.459,113.764 137.5,114.5C 138.452,116.045 138.785,117.712 138.5,119.5C 141.5,119.5 144.5,119.5 147.5,119.5C 140.024,124.957 132.024,129.623 123.5,133.5C 122.5,133.5 121.5,133.5 120.5,133.5C 120.191,130.654 118.525,129.154 115.5,129C 115.957,128.586 116.291,128.086 116.5,127.5C 114.833,126.5 113.5,125.167 112.5,123.5C 113.612,122.735 114.279,121.735 114.5,120.5C 115.29,119.599 116.29,118.932 117.5,118.5C 119.027,118.573 120.027,117.906 120.5,116.5C 125.47,113.011 130.803,110.011 136.5,107.5 Z"/></g>
<g><path style="opacity:1" fill="#68cbff" d="M 157.5,114.5 C 158.919,113.549 160.585,113.216 162.5,113.5C 165.812,113.149 168.145,114.482 169.5,117.5C 167.804,117.315 166.471,116.481 165.5,115C 162.854,114.503 160.187,114.336 157.5,114.5 Z"/></g>
<g><path style="opacity:1" fill="#55d5ff" d="M 44.5,74.5 C 44.5386,75.7562 44.0386,76.7562 43,77.5C 42.3333,91.1667 42.3333,104.833 43,118.5C 43.3333,117.167 43.6667,115.833 44,114.5C 47.0571,117.365 49.5571,120.031 51.5,122.5C 51.2907,123.086 50.9574,123.586 50.5,124C 52.5977,126.854 54.931,129.521 57.5,132C 57.1667,132.333 56.8333,132.667 56.5,133C 58.5,134.333 60.5,135.667 62.5,137C 61.6634,138.011 61.33,139.178 61.5,140.5C 56.2432,138.538 51.2432,136.038 46.5,133C 43.8647,131.039 42.0314,128.539 41,125.5C 40.3333,109.833 40.3333,94.1667 41,78.5C 41.66,76.6763 42.8267,75.343 44.5,74.5 Z"/></g>
<g><path style="opacity:1" fill="#a5e2ff" d="M 155.5,115.5 C 154.341,117.25 152.674,118.25 150.5,118.5C 151.659,116.75 153.326,115.75 155.5,115.5 Z"/></g>
<g><path style="opacity:1" fill="#91dfff" d="M 120.5,116.5 C 120.027,117.906 119.027,118.573 117.5,118.5C 117.973,117.094 118.973,116.427 120.5,116.5 Z"/></g>
<g><path style="opacity:1" fill="#2ec6ff" d="M 114.5,120.5 C 114.279,121.735 113.612,122.735 112.5,123.5C 113.5,125.167 114.833,126.5 116.5,127.5C 116.291,128.086 115.957,128.586 115.5,129C 118.525,129.154 120.191,130.654 120.5,133.5C 121.5,133.5 122.5,133.5 123.5,133.5C 116.328,138.589 108.661,142.923 100.5,146.5C 99.4275,143.411 97.4275,140.911 94.5,139C 95.8333,137.333 95.8333,135.667 94.5,134C 96.0629,133.241 97.0629,132.074 97.5,130.5C 102.665,126.414 108.332,123.08 114.5,120.5 Z"/></g>
<g><path style="opacity:1" fill="#e4f6ff" d="M 187.5,129.5 C 188.906,129.973 189.573,130.973 189.5,132.5C 189.827,142.015 189.494,151.348 188.5,160.5C 188.786,150.115 188.452,139.782 187.5,129.5 Z"/></g>
<g><path style="opacity:1" fill="#5dcbff" d="M 189.5,132.5 C 190.167,132.5 190.5,132.833 190.5,133.5C 190.832,143.19 190.498,152.856 189.5,162.5C 188.817,162.863 188.15,163.196 187.5,163.5C 187.557,162.391 187.89,161.391 188.5,160.5C 189.494,151.348 189.827,142.015 189.5,132.5 Z"/></g>
<g><path style="opacity:1" fill="#95e2ff" d="M 129.5,144.5 C 130.209,143.596 131.209,143.263 132.5,143.5C 132.249,149.892 132.582,156.225 133.5,162.5C 132.883,162.389 132.383,162.056 132,161.5C 132.126,155.412 131.292,149.745 129.5,144.5 Z"/></g>
<g><path style="opacity:1" fill="#2dc5ff" d="M 129.5,144.5 C 131.292,149.745 132.126,155.412 132,161.5C 132.383,162.056 132.883,162.389 133.5,162.5C 136.458,166.651 140.458,169.318 145.5,170.5C 145.973,171.906 146.973,172.573 148.5,172.5C 150.635,174.071 152.968,175.404 155.5,176.5C 155.5,176.833 155.5,177.167 155.5,177.5C 154.427,178.251 154.26,179.251 155,180.5C 156.925,181.88 158.759,183.38 160.5,185C 159.23,187.626 159.896,189.793 162.5,191.5C 164.214,190.391 164.881,191.058 164.5,193.5C 166.5,193.5 168.5,193.5 170.5,193.5C 169.035,194.737 167.368,195.737 165.5,196.5C 161.802,196.448 158.135,196.114 154.5,195.5C 152.632,194.737 150.965,193.737 149.5,192.5C 149.027,191.094 148.027,190.427 146.5,190.5C 145.29,190.068 144.29,189.401 143.5,188.5C 141.434,186.801 139.1,185.468 136.5,184.5C 131.062,181.947 125.729,179.113 120.5,176C 118.383,174.269 116.883,172.102 116,169.5C 115.17,163.472 115.336,157.472 116.5,151.5C 120.615,148.707 124.949,146.374 129.5,144.5 Z"/></g>
<g><path style="opacity:1" fill="#72dbff" d="M 79.5,151.5 C 83.4659,152.162 87.4659,152.495 91.5,152.5C 87.3109,155.251 83.3109,154.917 79.5,151.5 Z"/></g>
<g><path style="opacity:1" fill="#25baff" d="M 205.5,120.5 C 206.662,136.661 206.828,152.995 206,169.5C 205.208,171.587 204.041,173.421 202.5,175C 198.44,176.689 194.773,178.856 191.5,181.5C 190.391,181.557 189.391,181.89 188.5,182.5C 186.897,182.688 185.563,182.188 184.5,181C 184.833,180.667 185.167,180.333 185.5,180C 183.516,177.017 181.183,174.35 178.5,172C 178.978,170.697 179.645,169.531 180.5,168.5C 182.619,166.6 184.953,164.934 187.5,163.5C 188.15,163.196 188.817,162.863 189.5,162.5C 190.498,152.856 190.832,143.19 190.5,133.5C 191.329,140.655 191.829,147.989 192,155.5C 192.333,154.5 192.667,153.5 193,152.5C 197.106,156.619 199.94,161.119 201.5,166C 202.579,166.956 203.745,167.789 205,168.5C 205.5,152.503 205.667,136.503 205.5,120.5 Z"/></g>
<g><path style="opacity:1" fill="#b7eaff" d="M 145.5,170.5 C 147.027,170.427 148.027,171.094 148.5,172.5C 146.973,172.573 145.973,171.906 145.5,170.5 Z"/></g>
<g><path style="opacity:1" fill="#27c0ff" d="M 180.5,168.5 C 179.645,169.531 178.978,170.697 178.5,172C 181.183,174.35 183.516,177.017 185.5,180C 185.167,180.333 184.833,180.667 184.5,181C 185.563,182.188 186.897,182.688 188.5,182.5C 188.5,182.833 188.5,183.167 188.5,183.5C 182.245,186.432 176.245,189.766 170.5,193.5C 168.5,193.5 166.5,193.5 164.5,193.5C 164.881,191.058 164.214,190.391 162.5,191.5C 159.896,189.793 159.23,187.626 160.5,185C 158.759,183.38 156.925,181.88 155,180.5C 154.26,179.251 154.427,178.251 155.5,177.5C 158.272,178.767 160.939,178.767 163.5,177.5C 169.067,174.218 174.733,171.218 180.5,168.5 Z"/></g>
<g><path style="opacity:1" fill="#ace7ff" d="M 155.5,177.5 C 155.5,177.167 155.5,176.833 155.5,176.5C 158.096,177.265 160.763,177.599 163.5,177.5C 160.939,178.767 158.272,178.767 155.5,177.5 Z"/></g>
<g><path style="opacity:1" fill="#b0e7ff" d="M 191.5,181.5 C 191.027,182.906 190.027,183.573 188.5,183.5C 188.5,183.167 188.5,182.833 188.5,182.5C 189.391,181.89 190.391,181.557 191.5,181.5 Z"/></g>
<g><path style="opacity:1" fill="#76d9ff" d="M 136.5,184.5 C 139.1,185.468 141.434,186.801 143.5,188.5C 140.454,188.275 138.121,186.942 136.5,184.5 Z"/></g>
<g><path style="opacity:1" fill="#98e3ff" d="M 146.5,190.5 C 148.027,190.427 149.027,191.094 149.5,192.5C 147.973,192.573 146.973,191.906 146.5,190.5 Z"/></g>
<g><path style="opacity:1" fill="#7edaff" d="M 154.5,195.5 C 158.135,196.114 161.802,196.448 165.5,196.5C 164.207,197.158 162.707,197.492 161,197.5C 158.456,197.664 156.29,196.997 154.5,195.5 Z"/></g>
</svg>
