<?xml version="1.0" encoding="UTF-8"?>
<!DOCTYPE svg PUBLIC "-//W3C//DTD SVG 1.1//EN" "http://www.w3.org/Graphics/SVG/1.1/DTD/svg11.dtd">
<svg xmlns="http://www.w3.org/2000/svg" version="1.1" width="64px" height="64px" style="shape-rendering:geometricPrecision; text-rendering:geometricPrecision; image-rendering:optimizeQuality; fill-rule:evenodd; clip-rule:evenodd" xmlns:xlink="http://www.w3.org/1999/xlink">
<g><path style="opacity:0.981" fill="#f56f6f" d="M 21.5,-0.5 C 28.1667,-0.5 34.8333,-0.5 41.5,-0.5C 52.2564,3.9224 59.5897,11.5891 63.5,22.5C 63.5,28.5 63.5,34.5 63.5,40.5C 62.0293,44.9783 59.696,48.9783 56.5,52.5C 59.8523,42.2071 56.5189,35.2071 46.5,31.5C 44.8899,28.8112 44.0566,25.8112 44,22.5C 41.8328,20.1698 40.1662,17.5032 39,14.5C 27.9993,8.41007 20.4993,11.4101 16.5,23.5C 16.7757,30.0553 17.2757,36.722 18,43.5C 19.0804,45.9962 20.4138,48.3295 22,50.5C 22.957,48.2908 24.1236,48.4575 25.5,51C 27.4727,51.4955 29.4727,51.6621 31.5,51.5C 35.747,57.9486 41.747,60.2819 49.5,58.5C 47.1367,60.6801 44.47,62.3468 41.5,63.5C 34.8333,63.5 28.1667,63.5 21.5,63.5C 10.7436,59.0776 3.41031,51.4109 -0.5,40.5C -0.5,34.5 -0.5,28.5 -0.5,22.5C 3.41031,11.5891 10.7436,3.9224 21.5,-0.5 Z"/></g>
<g><path style="opacity:1" fill="#14090a" d="M 46.5,31.5 C 42.3344,30.9439 38.6677,31.9439 35.5,34.5C 36.7769,31.36 36.7769,28.1933 35.5,25C 36.1643,22.8336 37.1643,20.8336 38.5,19C 38.3569,16.849 37.3569,15.1824 35.5,14C 31.7446,13.2446 28.0779,13.4113 24.5,14.5C 22.9261,16.1016 22.2594,18.1016 22.5,20.5C 22.4165,24.3182 21.9165,27.9848 21,31.5C 22.4936,32.7472 23.9936,32.7472 25.5,31.5C 24.0811,29.8734 24.4144,29.3734 26.5,30C 29.1979,32.2986 30.8646,35.1319 31.5,38.5C 30.1667,42.8333 30.1667,47.1667 31.5,51.5C 29.4727,51.6621 27.4727,51.4955 25.5,51C 24.1236,48.4575 22.957,48.2908 22,50.5C 20.4138,48.3295 19.0804,45.9962 18,43.5C 17.2757,36.722 16.7757,30.0553 16.5,23.5C 20.4993,11.4101 27.9993,8.41007 39,14.5C 40.1662,17.5032 41.8328,20.1698 44,22.5C 44.0566,25.8112 44.8899,28.8112 46.5,31.5 Z"/></g>
<g><path style="opacity:1" fill="#4f2424" d="M 24.5,14.5 C 24.3601,16.1238 25.0267,17.2904 26.5,18C 25.5,18.3333 24.5,18.6667 23.5,19C 25.5,19.3333 27.5,19.6667 29.5,20C 27.1902,20.4966 24.8568,20.6633 22.5,20.5C 22.2594,18.1016 22.9261,16.1016 24.5,14.5 Z"/></g>
<g><path style="opacity:1" fill="#e96a6a" d="M 35.5,34.5 C 33.8058,35.5274 32.4725,36.8608 31.5,38.5C 30.8646,35.1319 29.1979,32.2986 26.5,30C 24.4144,29.3734 24.0811,29.8734 25.5,31.5C 23.9936,32.7472 22.4936,32.7472 21,31.5C 21.9165,27.9848 22.4165,24.3182 22.5,20.5C 24.8568,20.6633 27.1902,20.4966 29.5,20C 27.5,19.6667 25.5,19.3333 23.5,19C 24.5,18.6667 25.5,18.3333 26.5,18C 25.0267,17.2904 24.3601,16.1238 24.5,14.5C 28.0779,13.4113 31.7446,13.2446 35.5,14C 37.3569,15.1824 38.3569,16.849 38.5,19C 37.1643,20.8336 36.1643,22.8336 35.5,25C 36.7769,28.1933 36.7769,31.36 35.5,34.5 Z"/></g>
<g><path style="opacity:1" fill="#af4f4f" d="M 25.5,22.5 C 26.8021,24.0276 28.4687,25.0276 30.5,25.5C 28.8863,27.0746 26.8863,27.7413 24.5,27.5C 24.2155,25.5853 24.5489,23.9187 25.5,22.5 Z"/></g>
<g><path style="opacity:1" fill="#180b0b" d="M 25.5,22.5 C 27.2624,22.3573 28.9291,22.6906 30.5,23.5C 31.7733,24.2565 31.7733,24.9232 30.5,25.5C 28.4687,25.0276 26.8021,24.0276 25.5,22.5 Z"/></g>
<g><path style="opacity:0.978" fill="#1f1a50" d="M 46.5,31.5 C 56.5189,35.2071 59.8523,42.2071 56.5,52.5C 54.7607,55.2427 52.4274,57.2427 49.5,58.5C 41.747,60.2819 35.747,57.9486 31.5,51.5C 30.1667,47.1667 30.1667,42.8333 31.5,38.5C 32.4725,36.8608 33.8058,35.5274 35.5,34.5C 38.6677,31.9439 42.3344,30.9439 46.5,31.5 Z"/></g>
<g><path style="opacity:1" fill="#c75a5a" d="M 20.5,34.5 C 22.8333,34.5 25.1667,34.5 27.5,34.5C 27.7213,38.7954 26.3879,39.4621 23.5,36.5C 21.3802,37.8715 20.3802,37.2048 20.5,34.5 Z"/></g>
<g><path style="opacity:1" fill="#0897dd" d="M 42.5,36.5 C 47.4928,36.997 48.4928,39.1637 45.5,43C 40.3823,42.8242 39.3823,40.6576 42.5,36.5 Z"/></g>
<g><path style="opacity:1" fill="#5d61db" d="M 36.5,37.5 C 37.8703,44.0135 41.7037,46.0135 48,43.5C 48.8333,41.5 49.6667,39.5 50.5,37.5C 53.9107,40.3761 54.244,43.5428 51.5,47C 46.1667,47.6667 40.8333,47.6667 35.5,47C 34.0103,43.6028 34.3436,40.4361 36.5,37.5 Z"/></g>
<g><path style="opacity:1" fill="#0897dd" d="M 40.5,48.5 C 42.8333,48.5 45.1667,48.5 47.5,48.5C 44.862,57.6703 42.5286,57.6703 40.5,48.5 Z"/></g>
</svg>
