<?xml version="1.0" encoding="UTF-8"?>
<!DOCTYPE svg PUBLIC "-//W3C//DTD SVG 1.1//EN" "http://www.w3.org/Graphics/SVG/1.1/DTD/svg11.dtd">
<svg xmlns="http://www.w3.org/2000/svg" version="1.1" width="64px" height="64px" style="shape-rendering:geometricPrecision; text-rendering:geometricPrecision; image-rendering:optimizeQuality; fill-rule:evenodd; clip-rule:evenodd" xmlns:xlink="http://www.w3.org/1999/xlink">
<g><path style="opacity:1" fill="#292b38" d="M 22.5,2.5 C 27.6946,2.17949 32.6946,2.51283 37.5,3.5C 39.9862,4.66243 42.4862,5.99577 45,7.5C 45.4966,9.80982 45.6633,12.1432 45.5,14.5C 45.5,14.8333 45.5,15.1667 45.5,15.5C 44.6981,16.9516 44.1981,18.6183 44,20.5C 43.6258,19.5838 43.1258,18.7504 42.5,18C 45.397,9.12609 42.0636,4.79276 32.5,5C 33.3567,5.68909 34.0233,6.52242 34.5,7.5C 33.4513,9.21555 32.118,10.5489 30.5,11.5C 29.8333,11.5 29.1667,11.5 28.5,11.5C 27.8333,11.5 27.5,11.1667 27.5,10.5C 26.7934,8.8656 25.6268,7.53227 24,6.5C 23.1932,10.449 22.6932,10.449 22.5,6.5C 19.7835,6.6785 17.1168,7.1785 14.5,8C 15.1667,8.33333 15.8333,8.66667 16.5,9C 13.5222,11.8295 10.1888,13.9961 6.5,15.5C 4.4904,20.2234 3.4904,25.2234 3.5,30.5C 3.5,34.5 3.5,38.5 3.5,42.5C -2.15564,25.6496 2.51103,12.4829 17.5,3C 19.1341,2.50649 20.8008,2.33982 22.5,2.5 Z"/></g>
<g><path style="opacity:1" fill="#292b3f" d="M 45.5,15.5 C 45.5,15.8333 45.5,16.1667 45.5,16.5C 45.5,17.1667 45.5,17.8333 45.5,18.5C 42.8929,28.2445 36.5595,32.0778 26.5,30C 24.9336,29.3918 23.6002,28.5585 22.5,27.5C 21.8333,26.1667 20.8333,25.1667 19.5,24.5C 19.1667,23.1667 18.8333,21.8333 18.5,20.5C 22.6723,18.6279 24.8389,15.2945 25,10.5C 25.7697,9.40191 26.603,9.40191 27.5,10.5C 27.5,11.1667 27.8333,11.5 28.5,11.5C 27.8333,12.5 27.1667,13.5 26.5,14.5C 24.9735,15.4919 24.3068,16.9919 24.5,19C 24.3068,21.0081 24.9735,22.5081 26.5,23.5C 27.2858,25.7351 28.9524,26.7351 31.5,26.5C 33.3545,26.6598 34.6879,25.9931 35.5,24.5C 35.8333,24.5 36.1667,24.5 36.5,24.5C 39.1667,20.8333 39.1667,17.1667 36.5,13.5C 34.8583,11.9192 32.8583,11.2525 30.5,11.5C 32.118,10.5489 33.4513,9.21555 34.5,7.5C 34.0233,6.52242 33.3567,5.68909 32.5,5C 42.0636,4.79276 45.397,9.12609 42.5,18C 43.1258,18.7504 43.6258,19.5838 44,20.5C 44.1981,18.6183 44.6981,16.9516 45.5,15.5 Z"/></g>
<g><path style="opacity:1" fill="#2c2f3f" d="M 27.5,10.5 C 26.603,9.40191 25.7697,9.40191 25,10.5C 24.8389,15.2945 22.6723,18.6279 18.5,20.5C 18.1667,19.8333 17.8333,19.1667 17.5,18.5C 17.413,12.8716 15.5797,12.2049 12,16.5C 10.5886,18.6504 9.75526,20.9837 9.5,23.5C 8.52333,26.2869 8.19,29.2869 8.5,32.5C 6.4458,32.6347 4.77914,31.968 3.5,30.5C 3.4904,25.2234 4.4904,20.2234 6.5,15.5C 10.1888,13.9961 13.5222,11.8295 16.5,9C 15.8333,8.66667 15.1667,8.33333 14.5,8C 17.1168,7.1785 19.7835,6.6785 22.5,6.5C 22.6932,10.449 23.1932,10.449 24,6.5C 25.6268,7.53227 26.7934,8.8656 27.5,10.5 Z"/></g>
<g><path style="opacity:1" fill="#212230" d="M 37.5,3.5 C 40.1667,3.5 42.8333,3.5 45.5,3.5C 49.1219,5.7867 52.4552,8.45337 55.5,11.5C 59.3818,21.8656 60.3818,32.5323 58.5,43.5C 57.109,49.6373 53.7756,54.3039 48.5,57.5C 39.4376,60.4443 30.4376,60.7777 21.5,58.5C 27.5092,58.6662 33.5092,58.4995 39.5,58C 42.802,57.3392 45.802,56.1725 48.5,54.5C 50.9842,52.8802 52.4842,50.5469 53,47.5C 54.6128,42.1762 54.7795,36.8429 53.5,31.5C 54.705,24.7486 53.0384,18.9153 48.5,14C 47.4232,13.5304 46.4232,13.6971 45.5,14.5C 45.6633,12.1432 45.4966,9.80982 45,7.5C 42.4862,5.99577 39.9862,4.66243 37.5,3.5 Z"/></g>
<g><path style="opacity:1" fill="#1f6eae" d="M 26.5,14.5 C 26.5,17.5 26.5,20.5 26.5,23.5C 24.9735,22.5081 24.3068,21.0081 24.5,19C 24.3068,16.9919 24.9735,15.4919 26.5,14.5 Z"/></g>
<g><path style="opacity:1" fill="#206caa" d="M 36.5,13.5 C 39.1667,17.1667 39.1667,20.8333 36.5,24.5C 36.5,20.8333 36.5,17.1667 36.5,13.5 Z"/></g>
<g><path style="opacity:1" fill="#1e7bb2" d="M 28.5,11.5 C 29.1667,11.5 29.8333,11.5 30.5,11.5C 32.8583,11.2525 34.8583,11.9192 36.5,13.5C 36.5,17.1667 36.5,20.8333 36.5,24.5C 36.1667,24.5 35.8333,24.5 35.5,24.5C 34.6879,25.9931 33.3545,26.6598 31.5,26.5C 28.9524,26.7351 27.2858,25.7351 26.5,23.5C 26.5,20.5 26.5,17.5 26.5,14.5C 27.1667,13.5 27.8333,12.5 28.5,11.5 Z"/></g>
<g><path style="opacity:1" fill="#1e98c3" d="M 35.5,24.5 C 32.9407,24.8016 30.6074,24.4682 28.5,23.5C 27.3622,20.6965 27.1955,17.6965 28,14.5C 30.3333,13.1667 32.6667,13.1667 35,14.5C 35.4983,17.8168 35.665,21.1501 35.5,24.5 Z"/></g>
<g><path style="opacity:1" fill="#1b1c22" d="M 55.5,11.5 C 56.1667,11.8333 56.8333,12.1667 57.5,12.5C 62.2086,21.1582 63.542,30.3248 61.5,40C 61.2849,41.9078 60.2849,43.0744 58.5,43.5C 60.3818,32.5323 59.3818,21.8656 55.5,11.5 Z"/></g>
<g><path style="opacity:1" fill="#5957a1" d="M 17.5,18.5 C 15.7,17.3948 14.5334,18.0614 14,20.5C 12.7959,26.1148 14.9626,29.4482 20.5,30.5C 20.8333,31.1667 21.1667,31.8333 21.5,32.5C 18.1849,31.6712 14.8516,30.8379 11.5,30C 10.8906,28.0517 10.224,26.2184 9.5,24.5C 9.5,24.1667 9.5,23.8333 9.5,23.5C 9.75526,20.9837 10.5886,18.6504 12,16.5C 15.5797,12.2049 17.413,12.8716 17.5,18.5 Z"/></g>
<g><path style="opacity:1" fill="#6e73b2" d="M 17.5,18.5 C 17.8333,19.1667 18.1667,19.8333 18.5,20.5C 18.8333,21.8333 19.1667,23.1667 19.5,24.5C 18.0688,23.0975 16.9022,21.4308 16,19.5C 15.3188,24.1287 16.8188,27.7954 20.5,30.5C 14.9626,29.4482 12.7959,26.1148 14,20.5C 14.5334,18.0614 15.7,17.3948 17.5,18.5 Z"/></g>
<g><path style="opacity:1" fill="#38a7cb" d="M 28.5,23.5 C 28.3367,21.1432 28.5034,18.8098 29,16.5C 30.3117,14.3424 31.9783,14.0091 34,15.5C 34.4974,18.146 34.6641,20.8127 34.5,23.5C 32.5,23.5 30.5,23.5 28.5,23.5 Z"/></g>
<g><path style="opacity:0.683" fill="#161718" d="M 21.5,-0.5 C 28.1667,-0.5 34.8333,-0.5 41.5,-0.5C 48.374,1.93701 53.7073,6.27035 57.5,12.5C 56.8333,12.1667 56.1667,11.8333 55.5,11.5C 52.4552,8.45337 49.1219,5.7867 45.5,3.5C 38.8768,0.687029 31.8768,-0.146305 24.5,1C 23.5842,1.27842 22.9175,1.77842 22.5,2.5C 20.8008,2.33982 19.1341,2.50649 17.5,3C 2.51103,12.4829 -2.15564,25.6496 3.5,42.5C 4.63777,46.1089 6.30444,49.4422 8.5,52.5C 9.99232,55.3231 12.3257,56.9898 15.5,57.5C 15.8333,58.1667 16.1667,58.8333 16.5,59.5C 16.1667,59.5 15.8333,59.5 15.5,59.5C 11.6681,58.1816 8.5014,55.8483 6,52.5C 3.53607,48.5661 1.36941,44.5661 -0.5,40.5C -0.5,34.5 -0.5,28.5 -0.5,22.5C 3.4366,11.5638 10.7699,3.89715 21.5,-0.5 Z"/></g>
<g><path style="opacity:1" fill="#1e1e23" d="M 45.5,3.5 C 42.8333,3.5 40.1667,3.5 37.5,3.5C 32.6946,2.51283 27.6946,2.17949 22.5,2.5C 22.9175,1.77842 23.5842,1.27842 24.5,1C 31.8768,-0.146305 38.8768,0.687029 45.5,3.5 Z"/></g>
<g><path style="opacity:1" fill="#757eb6" d="M 24.5,32.5 C 23.5,32.5 22.5,32.5 21.5,32.5C 21.1667,31.8333 20.8333,31.1667 20.5,30.5C 16.8188,27.7954 15.3188,24.1287 16,19.5C 16.9022,21.4308 18.0688,23.0975 19.5,24.5C 19.5,26.5 20.5,27.5 22.5,27.5C 23.6002,28.5585 24.9336,29.3918 26.5,30C 36.5595,32.0778 42.8929,28.2445 45.5,18.5C 46.1499,18.1961 46.8165,17.8627 47.5,17.5C 50.0162,26.2894 46.6829,31.1227 37.5,32C 33.1794,32.499 28.8461,32.6657 24.5,32.5 Z"/></g>
<g><path style="opacity:1" fill="#6262aa" d="M 24.5,32.5 C 28.8461,32.6657 33.1794,32.499 37.5,32C 46.6829,31.1227 50.0162,26.2894 47.5,17.5C 46.8165,17.8627 46.1499,18.1961 45.5,18.5C 45.5,17.8333 45.5,17.1667 45.5,16.5C 47.2741,15.119 48.7741,15.4523 50,17.5C 50.5497,20.2634 51.3831,22.9301 52.5,25.5C 52.2811,26.938 51.7811,28.2713 51,29.5C 50.6667,29.1667 50.3333,28.8333 50,28.5C 47.0309,31.159 43.5309,32.659 39.5,33C 34.3158,33.8163 29.3158,33.6497 24.5,32.5 Z"/></g>
<g><path style="opacity:1" fill="#544f9e" d="M 53.5,31.5 C 51.6644,33.588 49.3311,34.9213 46.5,35.5C 35.495,35.6665 24.495,35.4998 13.5,35C 9.95043,32.4536 8.6171,28.9536 9.5,24.5C 10.224,26.2184 10.8906,28.0517 11.5,30C 14.8516,30.8379 18.1849,31.6712 21.5,32.5C 22.5,32.5 23.5,32.5 24.5,32.5C 29.3158,33.6497 34.3158,33.8163 39.5,33C 43.5309,32.659 47.0309,31.159 50,28.5C 50.3333,28.8333 50.6667,29.1667 51,29.5C 51.7811,28.2713 52.2811,26.938 52.5,25.5C 51.3831,22.9301 50.5497,20.2634 50,17.5C 48.7741,15.4523 47.2741,15.119 45.5,16.5C 45.5,16.1667 45.5,15.8333 45.5,15.5C 45.5,15.1667 45.5,14.8333 45.5,14.5C 46.4232,13.6971 47.4232,13.5304 48.5,14C 53.0384,18.9153 54.705,24.7486 53.5,31.5 Z"/></g>
<g><path style="opacity:1" fill="#585b91" d="M 19.5,24.5 C 20.8333,25.1667 21.8333,26.1667 22.5,27.5C 20.5,27.5 19.5,26.5 19.5,24.5 Z"/></g>
<g><path style="opacity:1" fill="#222336" d="M 53.5,31.5 C 54.7795,36.8429 54.6128,42.1762 53,47.5C 52.4842,50.5469 50.9842,52.8802 48.5,54.5C 47.2502,54.4226 46.4169,53.756 46,52.5C 44.2215,53.4791 42.5548,53.1458 41,51.5C 39.0565,52.807 37.2232,52.807 35.5,51.5C 37.4247,48.6512 39.0914,45.6512 40.5,42.5C 40.3918,41.5581 40.0585,40.7247 39.5,40C 37.8659,39.5065 36.1992,39.3398 34.5,39.5C 34.9175,38.7784 35.5842,38.2784 36.5,38C 35.5,37.6667 34.5,37.3333 33.5,37C 38.0195,36.8247 42.3528,36.3247 46.5,35.5C 49.3311,34.9213 51.6644,33.588 53.5,31.5 Z"/></g>
<g><path style="opacity:1" fill="#26283f" d="M 9.5,23.5 C 9.5,23.8333 9.5,24.1667 9.5,24.5C 8.6171,28.9536 9.95043,32.4536 13.5,35C 24.495,35.4998 35.495,35.6665 46.5,35.5C 42.3528,36.3247 38.0195,36.8247 33.5,37C 34.5,37.3333 35.5,37.6667 36.5,38C 35.5842,38.2784 34.9175,38.7784 34.5,39.5C 30.8183,39.3347 27.1516,39.5014 23.5,40C 22.944,40.3826 22.6107,40.8826 22.5,41.5C 21.7109,41.7828 21.0442,42.2828 20.5,43C 16.4452,43.2315 12.4452,43.7315 8.5,44.5C 7.52242,44.0233 6.68909,43.3567 6,42.5C 6.49195,45.8496 7.32528,49.183 8.5,52.5C 6.30444,49.4422 4.63777,46.1089 3.5,42.5C 3.5,38.5 3.5,34.5 3.5,30.5C 4.77914,31.968 6.4458,32.6347 8.5,32.5C 8.19,29.2869 8.52333,26.2869 9.5,23.5 Z"/></g>
<g><path style="opacity:1" fill="#1e233a" d="M 22.5,41.5 C 23.7058,45.5767 25.7058,49.2433 28.5,52.5C 28.5,52.8333 28.5,53.1667 28.5,53.5C 27.5416,53.9528 26.7083,54.6195 26,55.5C 20.2428,55.0948 14.4095,54.0948 8.5,52.5C 7.32528,49.183 6.49195,45.8496 6,42.5C 6.68909,43.3567 7.52242,44.0233 8.5,44.5C 12.4452,43.7315 16.4452,43.2315 20.5,43C 21.0442,42.2828 21.7109,41.7828 22.5,41.5 Z"/></g>
<g><path style="opacity:0.843" fill="#151517" d="M 57.5,12.5 C 60.4273,15.2886 62.4273,18.622 63.5,22.5C 63.5,28.5 63.5,34.5 63.5,40.5C 59.5634,51.4362 52.2301,59.1028 41.5,63.5C 34.8333,63.5 28.1667,63.5 21.5,63.5C 19.364,62.3472 17.364,61.0138 15.5,59.5C 15.8333,59.5 16.1667,59.5 16.5,59.5C 21.3072,61.4 26.3072,62.4 31.5,62.5C 33.8333,62.3333 36.1667,62.1667 38.5,62C 42.2299,61.0892 45.5632,59.5892 48.5,57.5C 53.7756,54.3039 57.109,49.6373 58.5,43.5C 60.2849,43.0744 61.2849,41.9078 61.5,40C 63.542,30.3248 62.2086,21.1582 57.5,12.5 Z"/></g>
<g><path style="opacity:1" fill="#2569a6" d="M 34.5,39.5 C 36.1992,39.3398 37.8659,39.5065 39.5,40C 40.0585,40.7247 40.3918,41.5581 40.5,42.5C 39.0914,45.6512 37.4247,48.6512 35.5,51.5C 34.8333,51.5 34.5,51.8333 34.5,52.5C 32.5,52.5 30.5,52.5 28.5,52.5C 25.7058,49.2433 23.7058,45.5767 22.5,41.5C 22.6107,40.8826 22.944,40.3826 23.5,40C 27.1516,39.5014 30.8183,39.3347 34.5,39.5 Z"/></g>
<g><path style="opacity:1" fill="#3096c3" d="M 33.5,49.5 C 31.9652,50.7879 30.2985,50.7879 28.5,49.5C 26.6565,47.0177 25.3231,44.351 24.5,41.5C 28.8333,41.5 33.1667,41.5 37.5,41.5C 37.47,44.8515 36.1367,47.5182 33.5,49.5 Z"/></g>
<g><path style="opacity:1" fill="#4bafd0" d="M 33.5,49.5 C 29.4819,48.9615 28.1485,46.7948 29.5,43C 31.1341,42.5065 32.8008,42.3398 34.5,42.5C 34.3259,44.861 33.9926,47.1944 33.5,49.5 Z"/></g>
<g><path style="opacity:1" fill="#1d2135" d="M 35.5,51.5 C 37.2232,52.807 39.0565,52.807 41,51.5C 42.5548,53.1458 44.2215,53.4791 46,52.5C 46.4169,53.756 47.2502,54.4226 48.5,54.5C 45.802,56.1725 42.802,57.3392 39.5,58C 33.5092,58.4995 27.5092,58.6662 21.5,58.5C 19.4352,58.4828 17.4352,58.1495 15.5,57.5C 12.3257,56.9898 9.99232,55.3231 8.5,52.5C 14.4095,54.0948 20.2428,55.0948 26,55.5C 26.7083,54.6195 27.5416,53.9528 28.5,53.5C 30.9007,55.0622 32.9007,54.7288 34.5,52.5C 34.5,51.8333 34.8333,51.5 35.5,51.5 Z"/></g>
<g><path style="opacity:1" fill="#215598" d="M 28.5,53.5 C 28.5,53.1667 28.5,52.8333 28.5,52.5C 30.5,52.5 32.5,52.5 34.5,52.5C 32.9007,54.7288 30.9007,55.0622 28.5,53.5 Z"/></g>
<g><path style="opacity:1" fill="#191a21" d="M 15.5,57.5 C 17.4352,58.1495 19.4352,58.4828 21.5,58.5C 30.4376,60.7777 39.4376,60.4443 48.5,57.5C 45.5632,59.5892 42.2299,61.0892 38.5,62C 36.1667,62.1667 33.8333,62.3333 31.5,62.5C 26.3072,62.4 21.3072,61.4 16.5,59.5C 16.1667,58.8333 15.8333,58.1667 15.5,57.5 Z"/></g>
</svg>
