<?xml version="1.0" encoding="UTF-8"?>
<!DOCTYPE svg PUBLIC "-//W3C//DTD SVG 1.1//EN" "http://www.w3.org/Graphics/SVG/1.1/DTD/svg11.dtd">
<svg xmlns="http://www.w3.org/2000/svg" version="1.1" width="120px" height="120px" style="shape-rendering:geometricPrecision; text-rendering:geometricPrecision; image-rendering:optimizeQuality; fill-rule:evenodd; clip-rule:evenodd" xmlns:xlink="http://www.w3.org/1999/xlink">
<g><path style="opacity:0.973" fill="#1e1a4d" d="M 48.5,-0.5 C 55.8333,-0.5 63.1667,-0.5 70.5,-0.5C 96.5,6.16667 112.833,22.5 119.5,48.5C 119.5,55.8333 119.5,63.1667 119.5,70.5C 112.833,96.5 96.5,112.833 70.5,119.5C 63.1667,119.5 55.8333,119.5 48.5,119.5C 22.5,112.833 6.16667,96.5 -0.5,70.5C -0.5,63.1667 -0.5,55.8333 -0.5,48.5C 6.16667,22.5 22.5,6.16667 48.5,-0.5 Z"/></g>
<g><path style="opacity:1" fill="#329bd3" d="M 57.5,4.5 C 61.1378,3.73656 62.6378,5.0699 62,8.5C 57.4155,10.4126 55.9155,9.0793 57.5,4.5 Z"/></g>
<g><path style="opacity:1" fill="#5c61a6" d="M 52.5,5.5 C 54.178,6.7471 55.5113,8.41376 56.5,10.5C 61.2909,12.2685 64.2909,10.6019 65.5,5.5C 68.9845,7.59948 69.3178,10.0995 66.5,13C 61.8333,13.6667 57.1667,13.6667 52.5,13C 49.9142,10.506 49.9142,8.00603 52.5,5.5 Z"/></g>
<g><path style="opacity:1" fill="#4f677c" d="M 75.5,9.5 C 74.5418,11.3024 73.8751,13.3024 73.5,15.5C 72.8333,15.5 72.1667,15.5 71.5,15.5C 71.5,13.1667 71.5,10.8333 71.5,8.5C 73.099,8.23219 74.4324,8.56552 75.5,9.5 Z"/></g>
<g><path style="opacity:1" fill="#5082c0" d="M 43.5,9.5 C 44.4067,11.6568 45.0733,13.9902 45.5,16.5C 41.7356,17.5481 38.069,18.8815 34.5,20.5C 34.6107,19.8826 34.944,19.3826 35.5,19C 34.1387,17.4157 33.472,15.5824 33.5,13.5C 36.6142,11.6092 39.9475,10.2759 43.5,9.5 Z"/></g>
<g><path style="opacity:1" fill="#bbd5ed" d="M 75.5,9.5 C 79.5931,10.3824 83.2597,12.049 86.5,14.5C 83.5159,14.7868 82.1826,16.4535 82.5,19.5C 79.6179,17.8921 76.6179,16.5587 73.5,15.5C 73.8751,13.3024 74.5418,11.3024 75.5,9.5 Z"/></g>
<g><path style="opacity:1" fill="#3295cd" d="M 56.5,14.5 C 58.5,14.5 60.5,14.5 62.5,14.5C 60.5,22.5 58.5,22.5 56.5,14.5 Z"/></g>
<g><path style="opacity:1" fill="#e9f0f7" d="M 86.5,14.5 C 91.7383,17.0696 96.0716,20.7363 99.5,25.5C 99.1551,28.1979 97.8218,30.1979 95.5,31.5C 91.7934,26.7923 87.4601,22.7923 82.5,19.5C 82.1826,16.4535 83.5159,14.7868 86.5,14.5 Z"/></g>
<g><path style="opacity:1" fill="#6471b2" d="M 33.5,13.5 C 33.472,15.5824 34.1387,17.4157 35.5,19C 34.944,19.3826 34.6107,19.8826 34.5,20.5C 28.1295,25.8695 22.4629,31.8695 17.5,38.5C 15.7354,37.5386 13.7354,37.2053 11.5,37.5C 16.395,27.2714 23.7283,19.2714 33.5,13.5 Z"/></g>
<g><path style="opacity:1" fill="#1d3b60" d="M 43.5,9.5 C 44.5676,8.56552 45.901,8.23219 47.5,8.5C 47.1432,20.3063 52.8099,25.1396 64.5,23C 67.7168,21.2845 70.0502,18.7845 71.5,15.5C 72.1667,15.5 72.8333,15.5 73.5,15.5C 73.4431,16.609 73.1098,17.609 72.5,18.5C 67.8426,25.061 61.5093,27.2277 53.5,25C 50.6424,23.3059 48.309,21.1393 46.5,18.5C 46.6716,17.5084 46.3382,16.8417 45.5,16.5C 45.0733,13.9902 44.4067,11.6568 43.5,9.5 Z"/></g>
<g><path style="opacity:1" fill="#97cbea" d="M 99.5,25.5 C 101.522,27.5313 103.189,29.8646 104.5,32.5C 103.578,34.8163 101.911,36.483 99.5,37.5C 98.1667,35.5 96.8333,33.5 95.5,31.5C 97.8218,30.1979 99.1551,28.1979 99.5,25.5 Z"/></g>
<g><path style="opacity:1" fill="#41a6da" d="M 104.5,32.5 C 107.86,37.2372 109.86,42.5705 110.5,48.5C 110.5,49.8333 110.5,51.1667 110.5,52.5C 108.297,52.9349 106.297,52.9349 104.5,52.5C 103.829,47.155 102.163,42.155 99.5,37.5C 101.911,36.483 103.578,34.8163 104.5,32.5 Z"/></g>
<g><path style="opacity:1" fill="#9d9fcb" d="M 11.5,37.5 C 13.7354,37.2053 15.7354,37.5386 17.5,38.5C 16.1307,42.9334 14.7974,47.2667 13.5,51.5C 11.5,50.1667 9.5,50.1667 7.5,51.5C 8.21588,46.6334 9.54921,41.9667 11.5,37.5 Z"/></g>
<g><path style="opacity:1" fill="#b4b6d4" d="M 13.5,51.5 C 13.5,54.8333 13.5,58.1667 13.5,61.5C 12.5655,60.4324 12.2322,59.099 12.5,57.5C 10.8333,57.5 9.16667,57.5 7.5,57.5C 7.5,59.8333 7.5,62.1667 7.5,64.5C 6.33758,60.3131 6.33758,55.9798 7.5,51.5C 9.5,50.1667 11.5,50.1667 13.5,51.5 Z"/></g>
<g><path style="opacity:1" fill="#eaeff5" d="M 13.5,61.5 C 14.0808,71.5815 17.4141,80.5815 23.5,88.5C 22.075,89.922 21.075,91.5887 20.5,93.5C 12.6652,85.4901 8.33183,75.8234 7.5,64.5C 7.5,62.1667 7.5,59.8333 7.5,57.5C 9.16667,57.5 10.8333,57.5 12.5,57.5C 12.2322,59.099 12.5655,60.4324 13.5,61.5 Z"/></g>
<g><path style="opacity:1" fill="#5184c0" d="M 110.5,48.5 C 113.265,58.8283 112.265,68.8283 107.5,78.5C 105.388,77.7249 103.388,77.7249 101.5,78.5C 104.072,70.0451 105.072,61.3784 104.5,52.5C 106.297,52.9349 108.297,52.9349 110.5,52.5C 110.5,51.1667 110.5,49.8333 110.5,48.5 Z"/></g>
<g><path style="opacity:1" fill="#3666a7" d="M 73.5,15.5 C 76.6179,16.5587 79.6179,17.8921 82.5,19.5C 87.4601,22.7923 91.7934,26.7923 95.5,31.5C 96.8333,33.5 98.1667,35.5 99.5,37.5C 102.163,42.155 103.829,47.155 104.5,52.5C 105.072,61.3784 104.072,70.0451 101.5,78.5C 97.345,85.7997 92.0117,92.133 85.5,97.5C 75.8453,103.871 65.1786,106.204 53.5,104.5C 46.8924,104.19 40.8924,102.19 35.5,98.5C 31.0507,95.6223 27.0507,92.289 23.5,88.5C 17.4141,80.5815 14.0808,71.5815 13.5,61.5C 13.5,58.1667 13.5,54.8333 13.5,51.5C 14.7974,47.2667 16.1307,42.9334 17.5,38.5C 22.4629,31.8695 28.1295,25.8695 34.5,20.5C 38.069,18.8815 41.7356,17.5481 45.5,16.5C 46.3382,16.8417 46.6716,17.5084 46.5,18.5C 37.238,20.1313 29.9046,24.7979 24.5,32.5C 8.7639,60.4562 14.4306,82.6228 41.5,99C 63.6559,107.239 81.8226,102.073 96,83.5C 103.897,68.4816 104.564,53.1482 98,37.5C 91.879,27.8667 83.379,21.5334 72.5,18.5C 73.1098,17.609 73.4431,16.609 73.5,15.5 Z"/></g>
<g><path style="opacity:1" fill="#3875ba" d="M 46.5,18.5 C 48.309,21.1393 50.6424,23.3059 53.5,25C 61.5093,27.2277 67.8426,25.061 72.5,18.5C 83.379,21.5334 91.879,27.8667 98,37.5C 104.564,53.1482 103.897,68.4816 96,83.5C 81.8226,102.073 63.6559,107.239 41.5,99C 14.4306,82.6228 8.7639,60.4562 24.5,32.5C 29.9046,24.7979 37.238,20.1313 46.5,18.5 Z"/></g>
<g><path style="opacity:1" fill="#f4f7fb" d="M 56.5,36.5 C 61.3673,35.5331 63.534,37.5331 63,42.5C 66.9439,43.9427 69.7772,46.6094 71.5,50.5C 70.8291,51.9458 69.6624,52.6125 68,52.5C 65.8693,51.4598 64.036,49.9598 62.5,48C 54.5205,46.2955 52.1872,48.9622 55.5,56C 59.2192,56.3884 62.8859,57.0551 66.5,58C 72.9573,61.8917 74.1239,67.0584 70,73.5C 68.005,75.747 65.505,76.747 62.5,76.5C 62.5,78.8333 62.5,81.1667 62.5,83.5C 57.728,84.3968 55.3947,82.3968 55.5,77.5C 49.9026,75.9071 46.9026,72.2404 46.5,66.5C 48.5,66.5 50.5,66.5 52.5,66.5C 53.5601,72.0953 56.8935,73.9286 62.5,72C 65.608,70.0604 66.2747,67.3937 64.5,64C 59.4531,62.4384 54.4531,60.7717 49.5,59C 44.5114,50.4716 46.8448,44.9716 56.5,42.5C 56.5,40.5 56.5,38.5 56.5,36.5 Z"/></g>
<g><path style="opacity:1" fill="#f6f9fc" d="M 68.5,26.5 C 89.3692,33.892 97.5359,48.5586 93,70.5C 89.1444,82.8583 80.9777,90.525 68.5,93.5C 68.2011,91.396 68.5344,89.396 69.5,87.5C 86.4694,78.9959 91.9694,65.6626 86,47.5C 82.1925,40.3572 76.5258,35.3572 69,32.5C 68.5045,30.5273 68.3379,28.5273 68.5,26.5 Z"/></g>
<g><path style="opacity:1" fill="#f5f8fb" d="M 47.5,26.5 C 48.5,26.5 49.5,26.5 50.5,26.5C 50.7989,28.604 50.4656,30.604 49.5,32.5C 30.1929,42.929 25.6929,57.929 36,77.5C 39.6983,81.9308 44.1983,85.2641 49.5,87.5C 50.4656,89.396 50.7989,91.396 50.5,93.5C 37.9966,90.4978 29.8299,82.8311 26,70.5C 21.7159,50.0702 28.8826,35.4035 47.5,26.5 Z"/></g>
<g><path style="opacity:1" fill="#6270b2" d="M 107.5,78.5 C 103.844,89.165 97.1772,97.4983 87.5,103.5C 87.7475,101.142 87.0808,99.1417 85.5,97.5C 92.0117,92.133 97.345,85.7997 101.5,78.5C 103.388,77.7249 105.388,77.7249 107.5,78.5 Z"/></g>
<g><path style="opacity:1" fill="#9cc4e5" d="M 23.5,88.5 C 27.0507,92.289 31.0507,95.6223 35.5,98.5C 34.0956,100.255 33.0956,102.255 32.5,104.5C 29.3785,102.552 26.3785,100.385 23.5,98C 21.8588,96.871 20.8588,95.371 20.5,93.5C 21.075,91.5887 22.075,89.922 23.5,88.5 Z"/></g>
<g><path style="opacity:1" fill="#5084c1" d="M 85.5,97.5 C 87.0808,99.1417 87.7475,101.142 87.5,103.5C 80.7021,107.545 73.3687,110.211 65.5,111.5C 65.9175,110.778 66.5842,110.278 67.5,110C 66.6198,108.644 66.2865,107.144 66.5,105.5C 61.9677,105.818 57.6344,105.485 53.5,104.5C 65.1786,106.204 75.8453,103.871 85.5,97.5 Z"/></g>
<g><path style="opacity:1" fill="#419ad1" d="M 35.5,98.5 C 40.8924,102.19 46.8924,104.19 53.5,104.5C 57.6344,105.485 61.9677,105.818 66.5,105.5C 66.2865,107.144 66.6198,108.644 67.5,110C 66.5842,110.278 65.9175,110.778 65.5,111.5C 53.612,113.039 42.612,110.705 32.5,104.5C 33.0956,102.255 34.0956,100.255 35.5,98.5 Z"/></g>
</svg>
