<?xml version="1.0" encoding="UTF-8"?>
<!DOCTYPE svg PUBLIC "-//W3C//DTD SVG 1.1//EN" "http://www.w3.org/Graphics/SVG/1.1/DTD/svg11.dtd">
<svg xmlns="http://www.w3.org/2000/svg" version="1.1" width="64px" height="64px" style="shape-rendering:geometricPrecision; text-rendering:geometricPrecision; image-rendering:optimizeQuality; fill-rule:evenodd; clip-rule:evenodd" xmlns:xlink="http://www.w3.org/1999/xlink">
<g><path style="opacity:1" fill="#30c8a6" d="M 21.5,-0.5 C 28.1667,-0.5 34.8333,-0.5 41.5,-0.5C 52.2301,3.89715 59.5634,11.5638 63.5,22.5C 63.5,28.5 63.5,34.5 63.5,40.5C 62.4335,42.964 61.1002,45.2974 59.5,47.5C 55.6091,44.114 51.7758,40.4473 48,36.5C 47.3828,35.5509 47.5494,34.7175 48.5,34C 46.9632,32.8904 46.2965,31.3904 46.5,29.5C 46.9528,28.5416 47.6195,27.7083 48.5,27C 42.6243,21.2921 36.9576,15.4588 31.5,9.5C 30.4822,10.1925 29.4822,10.8592 28.5,11.5C 25.479,7.81228 22.1456,4.47895 18.5,1.5C 19.5,0.833333 20.5,0.166667 21.5,-0.5 Z"/></g>
<g><path style="opacity:0.999" fill="#57d2b7" d="M 18.5,1.5 C 22.1456,4.47895 25.479,7.81228 28.5,11.5C 26.8333,13.8333 24.8333,15.8333 22.5,17.5C 17.9437,14.0286 14.6104,9.69522 12.5,4.5C 14.2163,2.97516 16.2163,1.97516 18.5,1.5 Z"/></g>
<g><path style="opacity:1" fill="#fafdfc" d="M 46.5,29.5 C 44.5,30.8333 42.8333,32.5 41.5,34.5C 40.8826,34.6107 40.3826,34.944 40,35.5C 37.3176,32.6503 34.4843,29.9836 31.5,27.5C 28.4789,29.8544 25.8123,32.5211 23.5,35.5C 19.7121,33.5467 16.7121,30.7134 14.5,27C 14.9783,25.6974 15.645,24.5307 16.5,23.5C 18.8333,21.8333 20.8333,19.8333 22.5,17.5C 24.8333,15.8333 26.8333,13.8333 28.5,11.5C 29.4822,10.8592 30.4822,10.1925 31.5,9.5C 36.9576,15.4588 42.6243,21.2921 48.5,27C 47.6195,27.7083 46.9528,28.5416 46.5,29.5 Z"/></g>
<g><path style="opacity:0.997" fill="#99e0d0" d="M 5.5,12.5 C 7.79568,14.4006 9.62901,16.7339 11,19.5C 12.451,21.4641 14.2843,22.7974 16.5,23.5C 15.645,24.5307 14.9783,25.6974 14.5,27C 16.7121,30.7134 19.7121,33.5467 23.5,35.5C 25.1667,37.5 26.8333,39.5 28.5,41.5C 27.3336,43.166 27.3336,44.8327 28.5,46.5C 30.3334,47.0521 32.0001,47.8855 33.5,49C 31.7601,50.827 30.0935,50.6603 28.5,48.5C 27.8933,48.6236 27.56,48.9569 27.5,49.5C 26.8571,47.9236 25.8571,46.5903 24.5,45.5C 24.5,44.1667 24.5,42.8333 24.5,41.5C 23.5,41.5 22.5,41.5 21.5,41.5C 21.5,44.1667 21.5,46.8333 21.5,49.5C 20.5,49.5 19.5,49.5 18.5,49.5C 17.8343,46.9723 17.1676,44.3056 16.5,41.5C 15.52,44.0865 15.1866,46.7531 15.5,49.5C 14.834,46.6417 14.1674,43.6417 13.5,40.5C 8.7532,35.1532 4.08654,29.8199 -0.5,24.5C -0.5,23.8333 -0.5,23.1667 -0.5,22.5C 0.983589,18.8677 2.98359,15.5344 5.5,12.5 Z"/></g>
<g><path style="opacity:1" fill="#77dac4" d="M 12.5,4.5 C 14.6104,9.69522 17.9437,14.0286 22.5,17.5C 20.8333,19.8333 18.8333,21.8333 16.5,23.5C 14.2843,22.7974 12.451,21.4641 11,19.5C 9.62901,16.7339 7.79568,14.4006 5.5,12.5C 7.09413,9.2358 9.42747,6.56913 12.5,4.5 Z"/></g>
<g><path style="opacity:0.979" fill="#56cfb4" d="M 46.5,29.5 C 46.2965,31.3904 46.9632,32.8904 48.5,34C 47.5494,34.7175 47.3828,35.5509 48,36.5C 51.7758,40.4473 55.6091,44.114 59.5,47.5C 57.984,50.5331 55.984,53.1997 53.5,55.5C 51.1394,53.8061 49.1394,51.8061 47.5,49.5C 47.6633,47.1432 47.4966,44.8098 47,42.5C 46.6174,41.944 46.1174,41.6107 45.5,41.5C 44.791,40.596 43.791,40.2627 42.5,40.5C 41.365,39.5255 40.365,38.3588 39.5,37C 40.756,36.5831 41.4226,35.7498 41.5,34.5C 42.8333,32.5 44.5,30.8333 46.5,29.5 Z"/></g>
<g><path style="opacity:0.872" fill="#c0ede2" d="M -0.5,24.5 C 4.08654,29.8199 8.7532,35.1532 13.5,40.5C 14.1674,43.6417 14.834,46.6417 15.5,49.5C 15.8333,50.5 16.5,51.1667 17.5,51.5C 17.5,52.1667 17.8333,52.5 18.5,52.5C 21.8062,56.4729 25.4729,60.1396 29.5,63.5C 27.1667,63.5 24.8333,63.5 22.5,63.5C 11.1667,59.5 3.5,51.8333 -0.5,40.5C -0.5,35.1667 -0.5,29.8333 -0.5,24.5 Z"/></g>
<g><path style="opacity:1" fill="#4a8f86" d="M 42.5,40.5 C 43.791,40.2627 44.791,40.596 45.5,41.5C 42.9179,41.0254 40.9179,41.6921 39.5,43.5C 38.596,42.791 38.2627,41.791 38.5,40.5C 39.8333,40.5 41.1667,40.5 42.5,40.5 Z"/></g>
<g><path style="opacity:1" fill="#394952" d="M 24.5,45.5 C 25.016,50.186 23.016,52.5193 18.5,52.5C 17.8333,52.5 17.5,52.1667 17.5,51.5C 18.8734,51.6567 20.2068,51.49 21.5,51C 20.2625,50.7679 19.2625,50.2679 18.5,49.5C 19.5,49.5 20.5,49.5 21.5,49.5C 21.5,46.8333 21.5,44.1667 21.5,41.5C 22.5,41.5 23.5,41.5 24.5,41.5C 24.5,42.8333 24.5,44.1667 24.5,45.5 Z"/></g>
<g><path style="opacity:1" fill="#202635" d="M 45.5,41.5 C 46.1174,41.6107 46.6174,41.944 47,42.5C 47.4966,44.8098 47.6633,47.1432 47.5,49.5C 47.1667,50.5 46.5,51.1667 45.5,51.5C 43.4727,51.6621 41.4727,51.4955 39.5,51C 40.8143,48.3953 40.8143,45.8953 39.5,43.5C 40.9179,41.6921 42.9179,41.0254 45.5,41.5 Z"/></g>
<g><path style="opacity:1" fill="#2c3b45" d="M 32.5,52.5 C 30.0672,52.7271 28.4006,51.7271 27.5,49.5C 27.56,48.9569 27.8933,48.6236 28.5,48.5C 30.0935,50.6603 31.7601,50.827 33.5,49C 32.0001,47.8855 30.3334,47.0521 28.5,46.5C 27.3336,44.8327 27.3336,43.166 28.5,41.5C 30.9358,39.9829 33.1024,40.3162 35,42.5C 34.6811,44.5951 34.8477,46.5951 35.5,48.5C 35.2462,50.4172 34.2462,51.7505 32.5,52.5 Z"/></g>
<g><path style="opacity:1" fill="#79c4b5" d="M 30.5,43.5 C 32.337,43.6395 32.6704,44.3061 31.5,45.5C 30.7025,45.0431 30.3691,44.3764 30.5,43.5 Z"/></g>
<g><path style="opacity:1" fill="#60b9a8" d="M 42.5,43.5 C 43.5,43.5 44.5,43.5 45.5,43.5C 45.5,45.5 45.5,47.5 45.5,49.5C 44.5,49.5 43.5,49.5 42.5,49.5C 42.5,47.5 42.5,45.5 42.5,43.5 Z"/></g>
<g><path style="opacity:1" fill="#222835" d="M 18.5,49.5 C 19.2625,50.2679 20.2625,50.7679 21.5,51C 20.2068,51.49 18.8734,51.6567 17.5,51.5C 16.5,51.1667 15.8333,50.5 15.5,49.5C 15.1866,46.7531 15.52,44.0865 16.5,41.5C 17.1676,44.3056 17.8343,46.9723 18.5,49.5 Z"/></g>
<g><path style="opacity:1" fill="#4c8079" d="M 39.5,43.5 C 40.8143,45.8953 40.8143,48.3953 39.5,51C 41.4727,51.4955 43.4727,51.6621 45.5,51.5C 43.3926,52.4682 41.0593,52.8016 38.5,52.5C 39.1587,49.5448 39.4921,46.5448 39.5,43.5 Z"/></g>
<g><path style="opacity:0.966" fill="#ace7d9" d="M 24.5,45.5 C 25.8571,46.5903 26.8571,47.9236 27.5,49.5C 28.4006,51.7271 30.0672,52.7271 32.5,52.5C 34.0882,56.7488 36.7549,60.0821 40.5,62.5C 40.5,62.8333 40.5,63.1667 40.5,63.5C 36.8333,63.5 33.1667,63.5 29.5,63.5C 25.4729,60.1396 21.8062,56.4729 18.5,52.5C 23.016,52.5193 25.016,50.186 24.5,45.5 Z"/></g>
<g><path style="opacity:0.99" fill="#7ddbc6" d="M 41.5,34.5 C 41.4226,35.7498 40.756,36.5831 39.5,37C 40.365,38.3588 41.365,39.5255 42.5,40.5C 41.1667,40.5 39.8333,40.5 38.5,40.5C 38.2627,41.791 38.596,42.791 39.5,43.5C 39.4921,46.5448 39.1587,49.5448 38.5,52.5C 41.0593,52.8016 43.3926,52.4682 45.5,51.5C 46.5,51.1667 47.1667,50.5 47.5,49.5C 49.1394,51.8061 51.1394,53.8061 53.5,55.5C 49.9293,59.1207 45.596,61.454 40.5,62.5C 36.7549,60.0821 34.0882,56.7488 32.5,52.5C 34.2462,51.7505 35.2462,50.4172 35.5,48.5C 34.8477,46.5951 34.6811,44.5951 35,42.5C 33.1024,40.3162 30.9358,39.9829 28.5,41.5C 26.8333,39.5 25.1667,37.5 23.5,35.5C 25.8123,32.5211 28.4789,29.8544 31.5,27.5C 34.4843,29.9836 37.3176,32.6503 40,35.5C 40.3826,34.944 40.8826,34.6107 41.5,34.5 Z"/></g>
</svg>
