<?xml version="1.0" encoding="UTF-8"?>
<!DOCTYPE svg PUBLIC "-//W3C//DTD SVG 1.1//EN" "http://www.w3.org/Graphics/SVG/1.1/DTD/svg11.dtd">
<svg xmlns="http://www.w3.org/2000/svg" version="1.1" width="181px" height="181px" style="shape-rendering:geometricPrecision; text-rendering:geometricPrecision; image-rendering:optimizeQuality; fill-rule:evenodd; clip-rule:evenodd" xmlns:xlink="http://www.w3.org/1999/xlink">
<g><path style="opacity:0.988" fill="#2774ca" d="M 74.5,-0.5 C 84.5,-0.5 94.5,-0.5 104.5,-0.5C 158.337,14.2066 183.171,49.5399 179,105.5C 172.691,137.805 154.524,160.638 124.5,174C 117.821,176.495 111.154,178.662 104.5,180.5C 94.5,180.5 84.5,180.5 74.5,180.5C 33.7879,171.121 8.78788,146.121 -0.5,105.5C -0.5,95.1667 -0.5,84.8333 -0.5,74.5C 8.78788,33.8788 33.7879,8.87877 74.5,-0.5 Z"/></g>
<g><path style="opacity:1" fill="#f8fafd" d="M 66.5,26.5 C 68.4672,26.2606 70.3005,26.5939 72,27.5C 72.6667,30.5 72.6667,33.5 72,36.5C 35.5575,54.389 25.2241,82.0557 41,119.5C 48.6232,131.461 58.9566,140.128 72,145.5C 72.6667,148.5 72.6667,151.5 72,154.5C 71.1074,155.081 70.1074,155.415 69,155.5C 39.1987,144.435 23.3654,122.935 21.5,91C 23.5721,60.3195 38.5721,38.8195 66.5,26.5 Z"/></g>
<g><path style="opacity:1" fill="#f9fbfd" d="M 107.5,26.5 C 131.607,33.1047 147.441,48.438 155,72.5C 161.097,99.5364 154.264,122.703 134.5,142C 126.951,148.193 118.451,152.693 109,155.5C 108.228,155.355 107.561,155.022 107,154.5C 106.333,151.5 106.333,148.5 107,145.5C 141.642,128.572 152.642,101.905 140,65.5C 132.094,52.2574 121.094,42.5907 107,36.5C 106.253,33.0764 106.42,29.7431 107.5,26.5 Z"/></g>
<g><path style="opacity:1" fill="#f8fafd" d="M 85.5,45.5 C 89.0071,44.9935 92.1737,45.6602 95,47.5C 95.1764,50.8818 95.6764,54.2152 96.5,57.5C 104.545,59.5447 109.545,64.5447 111.5,72.5C 111.43,73.7716 111.097,74.9383 110.5,76C 107.5,76.6667 104.5,76.6667 101.5,76C 98.3103,67.738 92.3103,64.738 83.5,67C 78.0758,69.017 76.2425,72.8503 78,78.5C 78.4652,79.9308 79.2986,81.0975 80.5,82C 88.5566,83.7869 96.5566,85.7869 104.5,88C 110.98,91.1243 114.313,96.291 114.5,103.5C 113.61,115.389 107.277,122.055 95.5,123.5C 95.6653,127.182 95.4986,130.848 95,134.5C 91.3333,137.167 87.6667,137.167 84,134.5C 83.5017,131.183 83.335,127.85 83.5,124.5C 71.2483,122.761 64.915,115.928 64.5,104C 67.8333,103.333 71.1667,103.333 74.5,104C 79.1478,115.443 87.1478,118.443 98.5,113C 103.756,107.924 103.756,102.924 98.5,98C 90.3989,96.3674 82.3989,94.3674 74.5,92C 65.1034,85.4922 62.9367,76.9922 68,66.5C 71.92,61.2919 77.0867,58.2919 83.5,57.5C 82.9905,53.1869 83.6571,49.1869 85.5,45.5 Z"/></g>
</svg>
