<?xml version="1.0" encoding="UTF-8"?>
<!DOCTYPE svg PUBLIC "-//W3C//DTD SVG 1.1//EN" "http://www.w3.org/Graphics/SVG/1.1/DTD/svg11.dtd">
<svg xmlns="http://www.w3.org/2000/svg" version="1.1" width="200px" height="200px" style="shape-rendering:geometricPrecision; text-rendering:geometricPrecision; image-rendering:optimizeQuality; fill-rule:evenodd; clip-rule:evenodd" xmlns:xlink="http://www.w3.org/1999/xlink">
<g><path style="opacity:0.992" fill="#305cff" d="M 85.5,-0.5 C 94.8333,-0.5 104.167,-0.5 113.5,-0.5C 161.167,9.16667 189.833,37.8333 199.5,85.5C 199.5,94.8333 199.5,104.167 199.5,113.5C 189.833,161.167 161.167,189.833 113.5,199.5C 104.167,199.5 94.8333,199.5 85.5,199.5C 37.8333,189.833 9.16667,161.167 -0.5,113.5C -0.5,104.167 -0.5,94.8333 -0.5,85.5C 9.16667,37.8333 37.8333,9.16667 85.5,-0.5 Z"/></g>
<g><path style="opacity:1" fill="#f9faff" d="M 83.5,24.5 C 90.263,24.5472 92.263,27.7139 89.5,34C 72.3431,37.2369 58.3431,45.5703 47.5,59C 54.8189,63.6621 62.4855,67.8287 70.5,71.5C 78.1667,66 85.8333,60.5 93.5,55C 98.2574,54.1902 102.924,54.5236 107.5,56C 114.5,61.1667 121.5,66.3333 128.5,71.5C 135.833,67.8333 143.167,64.1667 150.5,60.5C 151.583,59.635 151.749,58.635 151,57.5C 140.131,45.3123 126.631,37.6456 110.5,34.5C 108.605,32.1329 108.105,29.4663 109,26.5C 109.956,25.1059 111.289,24.4393 113,24.5C 135.112,28.6266 152.445,39.9599 165,58.5C 165.667,60.5 165.667,62.5 165,64.5C 152.964,71.3516 140.631,77.685 128,83.5C 118.392,77.2827 108.892,70.9494 99.5,64.5C 90.7765,69.7149 82.4432,75.5482 74.5,82C 72.9556,83.1871 71.2889,83.5205 69.5,83C 57.4306,77.2159 45.5973,71.0492 34,64.5C 33.3333,62.5 33.3333,60.5 34,58.5C 46.3312,40.9871 62.8312,29.6538 83.5,24.5 Z"/></g>
<g><path style="opacity:1" fill="#fafaff" d="M 75.5,128.5 C 81.979,129.491 88.6457,129.824 95.5,129.5C 95.5,143.5 95.5,157.5 95.5,171.5C 92.4603,175.473 89.2936,175.473 86,171.5C 85.5002,160.839 85.3335,150.172 85.5,139.5C 76.98,140.95 69.48,138.95 63,133.5C 60.5224,130.211 58.8558,126.544 58,122.5C 57.832,113.482 57.332,104.482 56.5,95.5C 49.1667,91.8333 41.8333,88.1667 34.5,84.5C 27.8454,112.033 35.1787,135.199 56.5,154C 61.0026,157.755 66.0026,160.755 71.5,163C 75.0719,165.626 75.4052,168.626 72.5,172C 70.1667,172.667 67.8333,172.667 65.5,172C 30.8778,152.525 16.7111,123.025 23,83.5C 23.6159,79.0493 25.4492,75.2159 28.5,72C 30.9129,71.5162 33.2462,71.8495 35.5,73C 46.7316,78.1975 57.5649,84.0308 68,90.5C 68.3333,101.167 68.6667,111.833 69,122.5C 70.4055,125.409 72.5722,127.409 75.5,128.5 Z"/></g>
<g><path style="opacity:1" fill="#fafaff" d="M 103.5,171.5 C 103.5,157.5 103.5,143.5 103.5,129.5C 110.022,129.823 116.355,129.49 122.5,128.5C 126.02,127.817 128.52,125.817 130,122.5C 130.333,111.833 130.667,101.167 131,90.5C 142.102,83.6972 153.602,77.5306 165.5,72C 168.636,70.9595 171.136,71.7928 173,74.5C 183.29,108.618 175.456,137.785 149.5,162C 144.503,165.834 139.17,169.167 133.5,172C 128.643,173.753 125.643,172.253 124.5,167.5C 124.876,165.617 125.876,164.117 127.5,163C 155.231,148.719 168.398,125.885 167,94.5C 166.273,91.1358 165.44,87.8025 164.5,84.5C 157.167,88.1667 149.833,91.8333 142.5,95.5C 141.668,104.816 141.168,114.149 141,123.5C 136.28,136.12 127.114,141.453 113.5,139.5C 113.667,150.172 113.5,160.839 113,171.5C 109.706,175.473 106.54,175.473 103.5,171.5 Z"/></g>
<g><path style="opacity:1" fill="#c3cfff" d="M 75.5,128.5 C 82.5,128.5 89.5,128.5 96.5,128.5C 96.8293,143.01 96.4959,157.343 95.5,171.5C 95.5,157.5 95.5,143.5 95.5,129.5C 88.6457,129.824 81.979,129.491 75.5,128.5 Z"/></g>
<g><path style="opacity:1" fill="#c3cfff" d="M 122.5,128.5 C 116.355,129.49 110.022,129.823 103.5,129.5C 103.5,143.5 103.5,157.5 103.5,171.5C 102.504,157.343 102.171,143.01 102.5,128.5C 109.167,128.5 115.833,128.5 122.5,128.5 Z"/></g>
</svg>
