<?xml version="1.0" encoding="UTF-8"?>
<!DOCTYPE svg PUBLIC "-//W3C//DTD SVG 1.1//EN" "http://www.w3.org/Graphics/SVG/1.1/DTD/svg11.dtd">
<svg xmlns="http://www.w3.org/2000/svg" version="1.1" width="300px" height="300px" style="shape-rendering:geometricPrecision; text-rendering:geometricPrecision; image-rendering:optimizeQuality; fill-rule:evenodd; clip-rule:evenodd" xmlns:xlink="http://www.w3.org/1999/xlink">
<g><path style="opacity:1" fill="#fdfefd" d="M -0.5,-0.5 C 44.8333,-0.5 90.1667,-0.5 135.5,-0.5C 76.1026,7.79956 34.2693,39.4662 10,94.5C 4.93525,108.091 1.76858,122.091 0.5,136.5C 0.166667,136.5 -0.166667,136.5 -0.5,136.5C -0.5,90.8333 -0.5,45.1667 -0.5,-0.5 Z"/></g>
<g><path style="opacity:1" fill="#fdfefd" d="M 160.5,-0.5 C 206.833,-0.5 253.167,-0.5 299.5,-0.5C 299.5,44.5 299.5,89.5 299.5,134.5C 285.656,55.9884 239.322,10.9884 160.5,-0.5 Z"/></g>
<g><path style="opacity:1" fill="#27a17c" d="M 135.5,-0.5 C 143.833,-0.5 152.167,-0.5 160.5,-0.5C 239.322,10.9884 285.656,55.9884 299.5,134.5C 299.5,141.833 299.5,149.167 299.5,156.5C 292.601,222.796 257.934,267.629 195.5,291C 133.837,308.208 81.004,293.708 37,247.5C 10.5609,215.348 -1.60572,178.348 0.5,136.5C 1.76858,122.091 4.93525,108.091 10,94.5C 34.2693,39.4662 76.1026,7.79956 135.5,-0.5 Z"/></g>
<g><path style="opacity:1" fill="#e5f0ec" d="M 168.5,109.5 C 168.167,109.5 167.833,109.5 167.5,109.5C 183.992,108.503 200.658,108.17 217.5,108.5C 217.5,96.8333 217.5,85.1667 217.5,73.5C 171.167,73.5 124.833,73.5 78.5,73.5C 78.5,85.1667 78.5,96.8333 78.5,108.5C 95.3417,108.17 112.008,108.503 128.5,109.5C 111.5,109.5 94.5,109.5 77.5,109.5C 77.5,97.1667 77.5,84.8333 77.5,72.5C 124.5,72.5 171.5,72.5 218.5,72.5C 218.5,84.8333 218.5,97.1667 218.5,109.5C 201.833,109.5 185.167,109.5 168.5,109.5 Z"/></g>
<g><path style="opacity:1" fill="#fcfdfd" d="M 167.5,109.5 C 167.5,116.833 167.5,124.167 167.5,131.5C 170.833,131.5 174.167,131.5 177.5,131.5C 193.426,132.488 209.093,134.988 224.5,139C 228.327,140.746 231.993,142.746 235.5,145C 237.934,148.716 238.101,152.549 236,156.5C 227.216,161.763 217.716,165.263 207.5,167C 197.186,168.402 186.852,169.569 176.5,170.5C 173.5,170.5 170.5,170.5 167.5,170.5C 167.5,192.833 167.5,215.167 167.5,237.5C 154.5,237.5 141.5,237.5 128.5,237.5C 128.5,215.167 128.5,192.833 128.5,170.5C 127.167,170.5 125.833,170.5 124.5,170.5C 119.737,170.774 115.07,170.441 110.5,169.5C 106.081,168.028 101.414,167.362 96.5,167.5C 85.8788,166.845 75.8788,164.011 66.5,159C 59.8333,153.667 59.8333,148.333 66.5,143C 75.5709,138.149 85.2375,135.315 95.5,134.5C 101.373,134.404 107.04,133.737 112.5,132.5C 117.74,131.551 123.073,131.218 128.5,131.5C 128.5,124.167 128.5,116.833 128.5,109.5C 112.008,108.503 95.3417,108.17 78.5,108.5C 78.5,96.8333 78.5,85.1667 78.5,73.5C 124.833,73.5 171.167,73.5 217.5,73.5C 217.5,85.1667 217.5,96.8333 217.5,108.5C 200.658,108.17 183.992,108.503 167.5,109.5 Z"/></g>
<g><path style="opacity:1" fill="#72b79f" d="M 167.5,109.5 C 167.833,109.5 168.167,109.5 168.5,109.5C 168.5,116.5 168.5,123.5 168.5,130.5C 171.713,130.19 174.713,130.523 177.5,131.5C 174.167,131.5 170.833,131.5 167.5,131.5C 167.5,124.167 167.5,116.833 167.5,109.5 Z"/></g>
<g><path style="opacity:1" fill="#cde5dd" d="M 112.5,132.5 C 107.04,133.737 101.373,134.404 95.5,134.5C 100.929,132.988 106.596,132.321 112.5,132.5 Z"/></g>
<g><path style="opacity:1" fill="#2ba17c" d="M 192.5,162.5 C 184.656,162.82 176.989,163.487 169.5,164.5C 144.06,165.318 118.726,164.152 93.5,161C 85.6564,159.167 77.9897,156.834 70.5,154C 67.8333,152 67.8333,150 70.5,148C 89.0754,140.518 108.409,136.685 128.5,136.5C 128.5,144.167 128.5,151.833 128.5,159.5C 141.5,159.5 154.5,159.5 167.5,159.5C 167.5,151.833 167.5,144.167 167.5,136.5C 186.929,137.204 205.929,140.37 224.5,146C 233.887,149.832 233.554,153.165 223.5,156C 213.331,159 202.998,161.167 192.5,162.5 Z"/></g>
<g><path style="opacity:1" fill="#fdfdfd" d="M -0.5,136.5 C -0.166667,136.5 0.166667,136.5 0.5,136.5C -1.60572,178.348 10.5609,215.348 37,247.5C 81.004,293.708 133.837,308.208 195.5,291C 257.934,267.629 292.601,222.796 299.5,156.5C 299.5,204.167 299.5,251.833 299.5,299.5C 199.5,299.5 99.5,299.5 -0.5,299.5C -0.5,245.167 -0.5,190.833 -0.5,136.5 Z"/></g>
<g><path style="opacity:1" fill="#badbcf" d="M 192.5,162.5 C 185.07,164.197 177.403,164.864 169.5,164.5C 176.989,163.487 184.656,162.82 192.5,162.5 Z"/></g>
<g><path style="opacity:1" fill="#c2dfd4" d="M 96.5,167.5 C 101.414,167.362 106.081,168.028 110.5,169.5C 105.586,169.638 100.919,168.972 96.5,167.5 Z"/></g>
<g><path style="opacity:1" fill="#70b69d" d="M 176.5,170.5 C 174.052,171.473 171.385,171.806 168.5,171.5C 168.831,193.673 168.497,215.673 167.5,237.5C 167.5,215.167 167.5,192.833 167.5,170.5C 170.5,170.5 173.5,170.5 176.5,170.5 Z"/></g>
<g><path style="opacity:1" fill="#45a989" d="M 124.5,170.5 C 125.833,170.5 127.167,170.5 128.5,170.5C 128.5,192.833 128.5,215.167 128.5,237.5C 127.503,215.673 127.169,193.673 127.5,171.5C 126.209,171.737 125.209,171.404 124.5,170.5 Z"/></g>
</svg>
