<?xml version="1.0" encoding="UTF-8"?>
<!DOCTYPE svg PUBLIC "-//W3C//DTD SVG 1.1//EN" "http://www.w3.org/Graphics/SVG/1.1/DTD/svg11.dtd">
<svg xmlns="http://www.w3.org/2000/svg" version="1.1" width="64px" height="64px" style="shape-rendering:geometricPrecision; text-rendering:geometricPrecision; image-rendering:optimizeQuality; fill-rule:evenodd; clip-rule:evenodd" xmlns:xlink="http://www.w3.org/1999/xlink">
<g><path style="opacity:0.886" fill="#7ad984" d="M 52.5,8.5 C 52.1667,9.16667 51.8333,9.83333 51.5,10.5C 50.5,9.83333 49.5,9.16667 48.5,8.5C 47.1007,7.11028 45.4341,6.11028 43.5,5.5C 33.0104,0.815564 23.0104,1.81556 13.5,8.5C 13.1667,7.83333 12.8333,7.16667 12.5,6.5C 26.6668,-1.83406 40.0001,-1.16739 52.5,8.5 Z"/></g>
<g><path style="opacity:1" fill="#0c1126" d="M 43.5,5.5 C 45.4341,6.11028 47.1007,7.11028 48.5,8.5C 41.5464,12.1455 34.5464,15.4788 27.5,18.5C 22.2621,17.7333 20.2621,19.7333 21.5,24.5C 15.0087,27.5785 8.67537,30.9118 2.5,34.5C 2.5,34.1667 2.5,33.8333 2.5,33.5C 2.5,31.5 2.5,29.5 2.5,27.5C 16.0825,19.8774 29.7492,12.5441 43.5,5.5 Z"/></g>
<g><path style="opacity:1" fill="#162045" d="M 48.5,8.5 C 49.5,9.16667 50.5,9.83333 51.5,10.5C 54.2281,13.899 56.5615,17.5657 58.5,21.5C 57.2652,21.2786 56.2652,20.6119 55.5,19.5C 54.7132,20.2421 54.0465,21.0754 53.5,22C 48.8268,23.6699 44.4934,25.8366 40.5,28.5C 32.9129,28.1858 25.4129,28.5192 18,29.5C 17.2174,31.4335 17.7174,32.9335 19.5,34C 25.1569,34.4994 30.8236,34.6661 36.5,34.5C 35.1667,35.5 33.8333,36.5 32.5,37.5C 28.1869,36.9905 24.1869,37.6571 20.5,39.5C 16.9408,43.1154 12.6074,45.4488 7.5,46.5C 4.68817,43.0876 3.02151,39.0876 2.5,34.5C 8.67537,30.9118 15.0087,27.5785 21.5,24.5C 27.8421,24.6662 34.1754,24.4995 40.5,24C 41.8333,22.3333 41.8333,20.6667 40.5,19C 36.1794,18.501 31.8461,18.3343 27.5,18.5C 34.5464,15.4788 41.5464,12.1455 48.5,8.5 Z"/></g>
<g><path style="opacity:1" fill="#060914" d="M 43.5,5.5 C 29.7492,12.5441 16.0825,19.8774 2.5,27.5C 3.88635,19.7121 7.55302,13.3787 13.5,8.5C 23.0104,1.81556 33.0104,0.815564 43.5,5.5 Z"/></g>
<g><path style="opacity:1" fill="#ca72ca" d="M 27.5,18.5 C 31.8461,18.3343 36.1794,18.501 40.5,19C 41.8333,20.6667 41.8333,22.3333 40.5,24C 34.1754,24.4995 27.8421,24.6662 21.5,24.5C 20.2621,19.7333 22.2621,17.7333 27.5,18.5 Z"/></g>
<g><path style="opacity:0.945" fill="#afcf6f" d="M 52.5,8.5 C 56.8346,12.5291 59.5013,17.5291 60.5,23.5C 59.8333,23.5 59.5,23.8333 59.5,24.5C 58.596,23.791 58.2627,22.791 58.5,21.5C 56.5615,17.5657 54.2281,13.899 51.5,10.5C 51.8333,9.83333 52.1667,9.16667 52.5,8.5 Z"/></g>
<g><path style="opacity:0.635" fill="#d8c262" d="M 12.5,6.5 C 12.8333,7.16667 13.1667,7.83333 13.5,8.5C 7.55302,13.3787 3.88635,19.7121 2.5,27.5C 2.5,29.5 2.5,31.5 2.5,33.5C 1.83333,33.8333 1.16667,34.1667 0.5,34.5C 0.175577,23.1646 4.17558,13.8313 12.5,6.5 Z"/></g>
<g><path style="opacity:1" fill="#1e2d62" d="M 58.5,21.5 C 58.2627,22.791 58.596,23.791 59.5,24.5C 59.8494,30.9678 59.1827,37.3011 57.5,43.5C 53.4515,49.8822 48.1182,54.8822 41.5,58.5C 29.8378,61.5623 19.5045,59.229 10.5,51.5C 9.07501,50.078 8.07501,48.4113 7.5,46.5C 12.6074,45.4488 16.9408,43.1154 20.5,39.5C 20.33,40.8221 20.6634,41.9887 21.5,43C 27.8333,43.6667 34.1667,43.6667 40.5,43C 41.8333,41.3333 41.8333,39.6667 40.5,38C 37.854,37.5026 35.1873,37.3359 32.5,37.5C 33.8333,36.5 35.1667,35.5 36.5,34.5C 39.6852,34.9804 42.5185,34.3137 45,32.5C 45.6378,29.0699 44.1378,27.7366 40.5,28.5C 44.4934,25.8366 48.8268,23.6699 53.5,22C 54.0465,21.0754 54.7132,20.2421 55.5,19.5C 56.2652,20.6119 57.2652,21.2786 58.5,21.5 Z"/></g>
<g><path style="opacity:1" fill="#f6b758" d="M 40.5,28.5 C 44.1378,27.7366 45.6378,29.0699 45,32.5C 42.5185,34.3137 39.6852,34.9804 36.5,34.5C 30.8236,34.6661 25.1569,34.4994 19.5,34C 17.7174,32.9335 17.2174,31.4335 18,29.5C 25.4129,28.5192 32.9129,28.1858 40.5,28.5 Z"/></g>
<g><path style="opacity:0.85" fill="#edbc62" d="M 60.5,23.5 C 62.8678,30.9435 62.2011,37.9435 58.5,44.5C 57.8333,44.5 57.5,44.1667 57.5,43.5C 59.1827,37.3011 59.8494,30.9678 59.5,24.5C 59.5,23.8333 59.8333,23.5 60.5,23.5 Z"/></g>
<g><path style="opacity:1" fill="#6ed987" d="M 32.5,37.5 C 35.1873,37.3359 37.854,37.5026 40.5,38C 41.8333,39.6667 41.8333,41.3333 40.5,43C 34.1667,43.6667 27.8333,43.6667 21.5,43C 20.6634,41.9887 20.33,40.8221 20.5,39.5C 24.1869,37.6571 28.1869,36.9905 32.5,37.5 Z"/></g>
<g><path style="opacity:0.996" fill="#e7a0a9" d="M 2.5,33.5 C 2.5,33.8333 2.5,34.1667 2.5,34.5C 3.02151,39.0876 4.68817,43.0876 7.5,46.5C 8.07501,48.4113 9.07501,50.078 10.5,51.5C 9.66175,51.8417 9.32842,52.5084 9.5,53.5C 6.90391,50.6101 4.57058,47.4434 2.5,44C 2.83333,43.6667 3.16667,43.3333 3.5,43C 1.61186,40.1832 0.61186,37.3498 0.5,34.5C 1.16667,34.1667 1.83333,33.8333 2.5,33.5 Z"/></g>
<g><path style="opacity:1" fill="#df91a4" d="M 57.5,43.5 C 57.5,44.1667 57.8333,44.5 58.5,44.5C 55.2891,52.3302 49.9557,57.3302 42.5,59.5C 42.5,58.8333 42.1667,58.5 41.5,58.5C 48.1182,54.8822 53.4515,49.8822 57.5,43.5 Z"/></g>
<g><path style="opacity:0.745" fill="#d070c8" d="M 10.5,51.5 C 19.5045,59.229 29.8378,61.5623 41.5,58.5C 42.1667,58.5 42.5,58.8333 42.5,59.5C 30.0384,63.8168 19.0384,61.8168 9.5,53.5C 9.32842,52.5084 9.66175,51.8417 10.5,51.5 Z"/></g>
</svg>
