<svg width="401" height="401" viewBox="0 0 401 401" fill="none" xmlns="http://www.w3.org/2000/svg">
<mask id="mask0_3441_2922" style="mask-type:alpha" maskUnits="userSpaceOnUse" x="0" y="0" width="401" height="401">
<circle cx="200.453" cy="200.13" r="199.5" fill="#D9D9D9" stroke="url(#paint0_linear_3441_2922)"/>
</mask>
<g mask="url(#mask0_3441_2922)">
<path d="M400.453 200.13C400.453 310.587 310.91 400.13 200.453 400.13C89.9964 400.13 0.453369 310.587 0.453369 200.13C0.453369 89.6729 89.9964 0.129883 200.453 0.129883C310.91 0.129883 400.453 89.6729 400.453 200.13Z" fill="black"/>
<path d="M400.453 200.13C400.453 310.587 310.91 400.13 200.453 400.13C89.9964 400.13 0.453369 310.587 0.453369 200.13C0.453369 89.6729 89.9964 0.129883 200.453 0.129883C310.91 0.129883 400.453 89.6729 400.453 200.13Z" fill="url(#paint1_radial_3441_2922)"/>
<path fill-rule="evenodd" clip-rule="evenodd" d="M200.453 380.13C299.865 380.13 380.453 299.541 380.453 200.13C380.453 100.719 299.865 20.1299 200.453 20.1299C101.042 20.1299 20.4534 100.719 20.4534 200.13C20.4534 299.541 101.042 380.13 200.453 380.13ZM200.453 400.13C310.91 400.13 400.453 310.587 400.453 200.13C400.453 89.6729 310.91 0.129883 200.453 0.129883C89.9964 0.129883 0.453369 89.6729 0.453369 200.13C0.453369 310.587 89.9964 400.13 200.453 400.13Z" fill="url(#paint2_linear_3441_2922)"/>
<path fill-rule="evenodd" clip-rule="evenodd" d="M246.297 165.939L290.643 192.149V140.275L245.834 114.335L246.297 165.939Z" fill="white"/>
<path fill-rule="evenodd" clip-rule="evenodd" d="M246.297 218.89L245.834 270.494L290.643 244.559V192.685L246.297 218.89Z" fill="white"/>
<path fill-rule="evenodd" clip-rule="evenodd" d="M200.557 245.366L155.748 270.764L200.557 296.699L245.371 270.764L200.557 245.366Z" fill="white"/>
<path fill-rule="evenodd" clip-rule="evenodd" d="M154.823 218.89L110.477 192.685V286.196L155.285 312.13L154.823 218.89Z" fill="white"/>
<path fill-rule="evenodd" clip-rule="evenodd" d="M200.557 139.468L245.371 114.07L200.557 88.1299L155.748 114.07L200.557 139.468Z" fill="#744EFF"/>
<path d="M115.2 134H127.696L110.976 178H97.072L80.352 134H93.288L104.112 168.76L115.2 134ZM154.275 178.88C149.641 178.88 145.593 177.971 142.131 176.152C138.729 174.333 136.089 171.723 134.211 168.32C132.334 164.917 131.395 160.811 131.395 156C131.395 151.189 132.334 147.083 134.211 143.68C136.089 140.277 138.699 137.667 142.043 135.848C145.446 134.029 149.318 133.12 153.659 133.12C158.118 133.12 161.902 134.029 165.011 135.848C168.121 137.608 170.497 140.043 172.139 143.152C173.782 146.203 174.603 149.693 174.603 153.624C174.603 154.797 174.574 155.912 174.515 156.968C174.457 158.024 174.369 158.963 174.251 159.784H139.139V151.424H168.971L163.163 153.536C163.163 149.84 162.313 146.995 160.611 145C158.969 143.005 156.622 142.008 153.571 142.008C151.342 142.008 149.406 142.536 147.763 143.592C146.179 144.648 144.977 146.232 144.155 148.344C143.334 150.397 142.923 153.008 142.923 156.176C142.923 159.285 143.363 161.867 144.243 163.92C145.182 165.915 146.473 167.411 148.115 168.408C149.817 169.405 151.841 169.904 154.187 169.904C156.769 169.904 158.851 169.405 160.435 168.408C162.019 167.411 163.251 166.032 164.131 164.272L173.723 167.968C172.785 170.256 171.347 172.221 169.411 173.864C167.534 175.507 165.275 176.768 162.635 177.648C160.054 178.469 157.267 178.88 154.275 178.88Z" fill="#C157F9"/>
</g>
<defs>
<linearGradient id="paint0_linear_3441_2922" x1="400.453" y1="400.13" x2="-15.9891" y2="382.209" gradientUnits="userSpaceOnUse">
<stop stop-color="#C157F9"/>
<stop offset="1" stop-color="#7855F8"/>
</linearGradient>
<radialGradient id="paint1_radial_3441_2922" cx="0" cy="0" r="1" gradientUnits="userSpaceOnUse" gradientTransform="translate(136.453 128.13) rotate(76.7595) scale(279.428)">
<stop stop-color="#7855F8" stop-opacity="0.4"/>
<stop offset="1" stop-color="#7855F8" stop-opacity="0"/>
</radialGradient>
<linearGradient id="paint2_linear_3441_2922" x1="400.453" y1="400.13" x2="-15.9891" y2="382.209" gradientUnits="userSpaceOnUse">
<stop stop-color="#C157F9"/>
<stop offset="1" stop-color="#7855F8"/>
</linearGradient>
</defs>
</svg>
