<svg width="256" height="256" viewBox="0 0 256 256" fill="none" xmlns="http://www.w3.org/2000/svg">
<path d="M256 128C256 198.692 198.692 256 128 256C57.3076 256 -7.9333e-07 198.692 -5.11072e-07 128C-2.28815e-07 57.3076 57.3076 2.28815e-07 128 5.11072e-07C198.692 7.9333e-07 256 57.3076 256 128Z" fill="black"/>
<path fill-rule="evenodd" clip-rule="evenodd" d="M128 245.76C193.037 245.76 245.76 193.037 245.76 128C245.76 62.963 193.037 10.24 128 10.24C62.963 10.24 10.24 62.963 10.24 128C10.24 193.037 62.963 245.76 128 245.76ZM128 256C198.692 256 256 198.692 256 128C256 57.3076 198.692 7.93329e-07 128 5.11072e-07C57.3076 2.28815e-07 -2.28815e-07 57.3076 -5.11072e-07 128C-7.93329e-07 198.692 57.3076 256 128 256Z" fill="url(#paint0_linear_4666_200)"/>
<defs>
<linearGradient id="paint0_linear_4666_200" x1="256" y1="256" x2="-10.5232" y2="244.53" gradientUnits="userSpaceOnUse">
<stop stop-color="#C157F9"/>
<stop offset="1" stop-color="#7855F8"/>
</linearGradient>
</defs>
</svg>
