<?xml version="1.0" standalone="no"?>
<!DOCTYPE svg PUBLIC "-//W3C//DTD SVG 20010904//EN"
 "http://www.w3.org/TR/2001/REC-SVG-20010904/DTD/svg10.dtd">
<svg version="1.0" xmlns="http://www.w3.org/2000/svg"
 width="256.000000pt" height="256.000000pt" viewBox="0 0 256.000000 256.000000"
 preserveAspectRatio="xMidYMid meet">

<g transform="translate(0.000000,256.000000) scale(0.100000,-0.100000)"
fill="#000000" stroke="none">
<path d="M1227 2218 c-12 -13 -208 -352 -435 -755 -283 -502 -412 -741 -412
-761 0 -17 9 -40 19 -53 l19 -24 259 0 258 0 45 27 c25 14 55 37 67 50 29 32
519 881 534 925 6 20 9 61 6 94 -4 51 -19 83 -122 266 -64 114 -127 218 -141
231 -14 12 -36 22 -50 22 -14 0 -35 -10 -47 -22z"/>
<path d="M1762 1283 c-17 -15 -262 -426 -316 -530 -22 -44 -20 -67 8 -100 l24
-28 332 0 332 0 24 28 c13 15 24 39 24 51 0 25 -287 535 -323 574 -25 27 -76
29 -105 5z"/>
</g>
</svg>
