<?xml version="1.0" encoding="UTF-8"?>
<!DOCTYPE svg PUBLIC "-//W3C//DTD SVG 1.1//EN" "http://www.w3.org/Graphics/SVG/1.1/DTD/svg11.dtd">
<svg xmlns="http://www.w3.org/2000/svg" version="1.1" width="192px" height="192px" style="shape-rendering:geometricPrecision; text-rendering:geometricPrecision; image-rendering:optimizeQuality; fill-rule:evenodd; clip-rule:evenodd" xmlns:xlink="http://www.w3.org/1999/xlink">
<g><path style="opacity:0.989" fill="#f0b90e" d="M 81.5,-0.5 C 90.8333,-0.5 100.167,-0.5 109.5,-0.5C 154.502,9.16869 181.835,36.502 191.5,81.5C 191.5,90.8333 191.5,100.167 191.5,109.5C 181.831,154.502 154.498,181.835 109.5,191.5C 100.167,191.5 90.8333,191.5 81.5,191.5C 36.498,181.831 9.16465,154.498 -0.5,109.5C -0.5,100.167 -0.5,90.8333 -0.5,81.5C 9.16869,36.498 36.502,9.16465 81.5,-0.5 Z"/></g>
<g><path style="opacity:1" fill="#fefdfb" d="M 92.5,32.5 C 94.9892,32.2978 97.3225,32.7978 99.5,34C 109.038,39.5971 118.371,45.4304 127.5,51.5C 124.003,54.083 120.336,56.4164 116.5,58.5C 109.451,54.2831 102.284,50.2831 95,46.5C 87.6448,50.914 80.1448,54.7473 72.5,58C 69.5,56.1667 66.5,54.3333 63.5,52.5C 62.479,51.9984 62.3123,51.3317 63,50.5C 73.1472,44.8511 82.9805,38.8511 92.5,32.5 Z"/></g>
<g><path style="opacity:1" fill="#fefefb" d="M 51.5,56.5 C 56.1051,58.4711 60.4385,60.9711 64.5,64C 60.7478,66.2933 56.9144,68.4599 53,70.5C 52.6667,75.5 52.3333,80.5 52,85.5C 48.3333,83.1667 44.6667,80.8333 41,78.5C 40.3333,73.5 40.3333,68.5 41,63.5C 44.6515,61.2673 48.1515,58.934 51.5,56.5 Z"/></g>
<g><path style="opacity:1" fill="#fefcf7" d="M 94.5,56.5 C 99.4009,58.1534 103.234,60.82 106,64.5C 102.576,66.9183 98.9098,68.9183 95,70.5C 91.5946,68.5467 88.0946,66.7134 84.5,65C 83.2888,64.1072 83.2888,63.2739 84.5,62.5C 88.1352,60.8355 91.4685,58.8355 94.5,56.5 Z"/></g>
<g><path style="opacity:1" fill="#fefcf6" d="M 136.5,56.5 C 141.051,58.3741 145.385,60.7075 149.5,63.5C 150.833,68.5 150.833,73.5 149.5,78.5C 145.583,80.7078 141.75,83.0411 138,85.5C 137.667,80.5 137.333,75.5 137,70.5C 133.41,67.9536 129.577,65.7869 125.5,64C 129.345,61.637 133.011,59.137 136.5,56.5 Z"/></g>
<g><path style="opacity:1" fill="#fefefd" d="M 71.5,69.5 C 72.8734,69.3433 74.2068,69.51 75.5,70C 81.786,73.9658 88.286,77.4658 95,80.5C 102.378,77.2277 109.545,73.5611 116.5,69.5C 127.877,72.6085 131.544,79.9418 127.5,91.5C 121.003,94.9141 114.67,98.5808 108.5,102.5C 107.833,111.167 107.167,119.833 106.5,128.5C 102.546,131.484 98.2126,133.317 93.5,134C 90.2936,131.966 86.9603,130.133 83.5,128.5C 82.8333,119.833 82.1667,111.167 81.5,102.5C 75.3303,98.5808 68.9969,94.9141 62.5,91.5C 61.1667,86.1667 61.1667,80.8333 62.5,75.5C 65.7376,73.7247 68.7376,71.7247 71.5,69.5 Z"/></g>
<g><path style="opacity:1" fill="#f7dc86" d="M 41.5,89.5 C 40.5046,101.989 40.1713,114.656 40.5,127.5C 39.1748,114.661 39.1748,101.661 40.5,88.5C 41.1067,88.6236 41.44,88.9569 41.5,89.5 Z"/></g>
<g><path style="opacity:1" fill="#fefefc" d="M 41.5,89.5 C 44.8056,91.4887 48.1389,93.4887 51.5,95.5C 52.1667,104.167 52.8333,112.833 53.5,121.5C 60.2209,125.191 66.8876,128.858 73.5,132.5C 73.8195,137.363 73.4861,142.03 72.5,146.5C 61.4675,140.656 50.8008,134.322 40.5,127.5C 40.1713,114.656 40.5046,101.989 41.5,89.5 Z"/></g>
<g><path style="opacity:1" fill="#fefdf8" d="M 149.5,88.5 C 150.825,101.673 150.825,115.006 149.5,128.5C 138.42,134.455 127.587,140.788 117,147.5C 116.171,142.467 116.338,137.467 117.5,132.5C 123.997,129.086 130.33,125.419 136.5,121.5C 137.167,112.833 137.833,104.167 138.5,95.5C 142.401,93.3919 146.067,91.0585 149.5,88.5 Z"/></g>
<g><path style="opacity:1" fill="#fefdfb" d="M 61.5,101.5 C 65.2996,103.234 68.9663,105.234 72.5,107.5C 73.6623,112.467 73.8289,117.467 73,122.5C 69.3333,120.167 65.6667,117.833 62,115.5C 61.5008,110.845 61.3342,106.179 61.5,101.5 Z"/></g>
<g><path style="opacity:1" fill="#f5d162" d="M 128.5,101.5 C 129.164,103.81 129.497,106.31 129.5,109C 129.475,111.929 128.809,114.429 127.5,116.5C 128.445,111.595 128.779,106.595 128.5,101.5 Z"/></g>
<g><path style="opacity:1" fill="#fefefb" d="M 128.5,101.5 C 128.779,106.595 128.445,111.595 127.5,116.5C 123.888,118.272 120.388,120.272 117,122.5C 116.333,117.833 116.333,113.167 117,108.5C 120.719,105.941 124.552,103.608 128.5,101.5 Z"/></g>
<g><path style="opacity:1" fill="#f6d368" d="M 73.5,132.5 C 74.8137,137.348 74.8137,142.348 73.5,147.5C 72.8933,147.376 72.56,147.043 72.5,146.5C 73.4861,142.03 73.8195,137.363 73.5,132.5 Z"/></g>
<g><path style="opacity:1" fill="#fefdfa" d="M 82.5,138.5 C 86.5746,140.955 90.7412,143.288 95,145.5C 99.1479,143.426 103.148,141.093 107,138.5C 107.829,143.533 107.662,148.533 106.5,153.5C 102.781,155.719 98.9479,157.719 95,159.5C 91.0521,157.719 87.2188,155.719 83.5,153.5C 82.5059,148.544 82.1725,143.544 82.5,138.5 Z"/></g>
</svg>
