<?xml version="1.0" encoding="UTF-8"?>
<!DOCTYPE svg PUBLIC "-//W3C//DTD SVG 1.1//EN" "http://www.w3.org/Graphics/SVG/1.1/DTD/svg11.dtd">
<svg xmlns="http://www.w3.org/2000/svg" version="1.1" width="256px" height="256px" style="shape-rendering:geometricPrecision; text-rendering:geometricPrecision; image-rendering:optimizeQuality; fill-rule:evenodd; clip-rule:evenodd" xmlns:xlink="http://www.w3.org/1999/xlink">
<g><path style="opacity:1" fill="#fcfcfc" d="M 119.5,-0.5 C 124.833,-0.5 130.167,-0.5 135.5,-0.5C 140.633,0.664857 145.966,1.33152 151.5,1.5C 155.335,1.4165 159.002,2.08317 162.5,3.5C 162.47,4.49722 162.97,5.16389 164,5.5C 169.542,7.0928 175.042,8.75946 180.5,10.5C 181.552,12.256 183.219,12.9227 185.5,12.5C 185.369,13.3764 185.702,14.0431 186.5,14.5C 190.111,16.4753 193.777,18.1419 197.5,19.5C 198.167,19.8333 198.833,20.1667 199.5,20.5C 199.833,21.1667 200.167,21.8333 200.5,22.5C 203.079,25.1348 206.079,27.3015 209.5,29C 214.973,34.473 220.473,39.973 226,45.5C 230.337,52.6569 234.837,59.6569 239.5,66.5C 239.957,67.2975 240.624,67.6309 241.5,67.5C 242.674,68.5137 243.34,69.847 243.5,71.5C 247.763,83.4721 250.929,95.8055 253,108.5C 253.671,109.252 254.504,109.586 255.5,109.5C 255.5,118.833 255.5,128.167 255.5,137.5C 254.199,141.943 253.532,146.609 253.5,151.5C 253.5,151.833 253.5,152.167 253.5,152.5C 251.612,154.988 250.945,157.988 251.5,161.5C 248.507,166.615 246.34,172.282 245,178.5C 240.886,185.667 237.053,193 233.5,200.5C 231.983,200.511 230.816,201.177 230,202.5C 228.92,204.996 227.586,207.33 226,209.5C 220.5,215 215,220.5 209.5,226C 203.892,229.276 198.558,232.943 193.5,237C 189.458,238.737 185.458,240.57 181.5,242.5C 180.702,242.957 180.369,243.624 180.5,244.5C 171.96,247.234 163.293,249.568 154.5,251.5C 153.287,251.747 152.62,252.414 152.5,253.5C 152.167,253.5 151.833,253.5 151.5,253.5C 137.67,253.982 124.003,254.648 110.5,255.5C 109.5,255.5 108.5,255.5 107.5,255.5C 106.817,253.824 105.483,253.157 103.5,253.5C 102.833,253.5 102.167,253.5 101.5,253.5C 101.53,252.503 101.03,251.836 100,251.5C 91.3399,249.71 82.8399,247.377 74.5,244.5C 72.4471,244.598 70.7804,243.931 69.5,242.5C 67.1493,239.804 64.1493,237.804 60.5,236.5C 59.8933,236.624 59.56,236.957 59.5,237.5C 57.9699,236.789 56.6366,235.789 55.5,234.5C 53.6663,230.7 50.6663,228.2 46.5,227C 36.7705,217.552 27.7705,207.719 19.5,197.5C 18.1452,192.771 15.8119,188.771 12.5,185.5C 12.9227,183.219 12.256,181.552 10.5,180.5C 8.42619,173.708 6.42619,166.874 4.5,160C 4.16389,158.97 3.49722,158.47 2.5,158.5C 1.63137,156.283 1.29803,153.95 1.5,151.5C 1.84316,149.517 1.17649,148.183 -0.5,147.5C -0.5,146.5 -0.5,145.5 -0.5,144.5C 0.472137,131.004 1.1388,117.337 1.5,103.5C 1.5,102.833 1.5,102.167 1.5,101.5C 2.49722,101.53 3.16389,101.03 3.5,100C 5.29147,91.3324 7.62481,82.8324 10.5,74.5C 10.4021,72.4471 11.0687,70.7804 12.5,69.5C 13.3764,69.6309 14.0431,69.2975 14.5,68.5C 16.5266,64.4469 18.5266,60.4469 20.5,56.5C 28.1023,46.9487 36.4357,37.782 45.5,29C 51.1082,25.7238 56.4415,22.0571 61.5,18C 64.3821,16.3921 67.3821,15.0587 70.5,14C 71.2524,13.3292 71.5858,12.4959 71.5,11.5C 78.3905,9.2606 85.3905,7.09393 92.5,5C 93.056,4.61742 93.3893,4.11742 93.5,3.5C 96.8499,3.66501 100.183,3.49834 103.5,3C 108.829,1.24765 114.162,0.0809825 119.5,-0.5 Z"/></g>
<g><path style="opacity:0.82" fill="#a19fa8" d="M 135.5,-0.5 C 140.833,-0.5 146.167,-0.5 151.5,-0.5C 151.5,0.166667 151.5,0.833333 151.5,1.5C 145.966,1.33152 140.633,0.664857 135.5,-0.5 Z"/></g>
<g><path style="opacity:0.846" fill="#b8b5bd" d="M 103.5,-0.5 C 108.833,-0.5 114.167,-0.5 119.5,-0.5C 114.162,0.0809825 108.829,1.24765 103.5,3C 100.183,3.49834 96.8499,3.66501 93.5,3.5C 97.1069,2.58664 100.44,1.25331 103.5,-0.5 Z"/></g>
<g><path style="opacity:0.843" fill="#9d9aa4" d="M 93.5,3.5 C 93.3893,4.11742 93.056,4.61742 92.5,5C 85.3905,7.09393 78.3905,9.2606 71.5,11.5C 78.0654,7.08575 85.3987,4.41908 93.5,3.5 Z"/></g>
<g><path style="opacity:0.145" fill="#8a8793" d="M 162.5,3.5 C 167.903,4.68468 173.237,6.18468 178.5,8C 179.756,8.41691 180.423,9.25025 180.5,10.5C 175.042,8.75946 169.542,7.0928 164,5.5C 162.97,5.16389 162.47,4.49722 162.5,3.5 Z"/></g>
<g><path style="opacity:1" fill="#87848f" d="M 117.5,8.5 C 144.847,7.16997 170.18,13.67 193.5,28C 198.638,31.5513 203.305,35.5513 207.5,40C 205.304,42.5299 202.804,44.6966 200,46.5C 173.808,25.8217 143.975,16.9883 110.5,20C 88.9959,23.586 70.3293,32.7527 54.5,47.5C 50.8394,45.3741 48.6727,42.3741 48,38.5C 67.7533,20.4213 90.92,10.4213 117.5,8.5 Z"/></g>
<g><path style="opacity:0.953" fill="#94909c" d="M 180.5,10.5 C 182.553,10.4021 184.22,11.0687 185.5,12.5C 183.219,12.9227 181.552,12.256 180.5,10.5 Z"/></g>
<g><path style="opacity:0.596" fill="#7b7683" d="M 185.5,12.5 C 190.513,13.3657 194.513,15.699 197.5,19.5C 193.777,18.1419 190.111,16.4753 186.5,14.5C 185.702,14.0431 185.369,13.3764 185.5,12.5 Z"/></g>
<g><path style="opacity:0.039" fill="#403a4f" d="M 199.5,20.5 C 201.027,20.427 202.027,21.0937 202.5,22.5C 201.833,22.5 201.167,22.5 200.5,22.5C 200.167,21.8333 199.833,21.1667 199.5,20.5 Z"/></g>
<g><path style="opacity:0.706" fill="#9895a0" d="M 71.5,11.5 C 71.5858,12.4959 71.2524,13.3292 70.5,14C 67.3821,15.0587 64.3821,16.3921 61.5,18C 56.4415,22.0571 51.1082,25.7238 45.5,29C 36.4357,37.782 28.1023,46.9487 20.5,56.5C 22.1396,52.5591 24.3063,48.8924 27,45.5C 37.3581,33.4647 49.1915,23.2981 62.5,15C 65.5212,13.8202 68.5212,12.6535 71.5,11.5 Z"/></g>
<g><path style="opacity:1" fill="#87848f" d="M 38.5,46.5 C 42.3324,48.1676 44.9991,51.001 46.5,55C 18.4972,87.844 11.6639,124.677 26,165.5C 31.1899,178.058 38.0232,189.558 46.5,200C 44.6966,202.804 42.5299,205.304 40,207.5C 30.4669,198.14 23.1336,187.14 18,174.5C 3.83146,138.37 5.49813,103.036 23,68.5C 27.6336,60.7147 32.8003,53.3814 38.5,46.5 Z"/></g>
<g><path style="opacity:1" fill="#87848f" d="M 213.5,47.5 C 214.552,47.3505 215.552,47.5172 216.5,48C 236.144,70.3515 246.144,96.5181 246.5,126.5C 246.268,157.729 235.768,184.729 215,207.5C 212.034,205.702 209.534,203.369 207.5,200.5C 236.622,164.486 242.789,124.819 226,81.5C 221.201,71.539 215.034,62.539 207.5,54.5C 209.523,52.1472 211.523,49.8138 213.5,47.5 Z"/></g>
<g><path style="opacity:1" fill="#f09345" d="M 143.5,79.5 C 154.234,79.3711 163.567,82.8711 171.5,90C 176.963,99.9384 176.796,109.772 171,119.5C 168.842,120.826 167.008,122.493 165.5,124.5C 171.812,126.571 176.979,130.238 181,135.5C 186.935,151.176 183.435,164.176 170.5,174.5C 165.066,176.202 159.733,177.869 154.5,179.5C 150.821,179.724 147.154,180.058 143.5,180.5C 143.825,188.019 143.492,195.352 142.5,202.5C 138.5,202.5 134.5,202.5 130.5,202.5C 130.825,195.313 130.491,188.313 129.5,181.5C 125.833,180.167 122.167,180.167 118.5,181.5C 117.509,188.313 117.175,195.313 117.5,202.5C 113.5,202.5 109.5,202.5 105.5,202.5C 105.5,195.167 105.5,187.833 105.5,180.5C 96.5,180.5 87.5,180.5 78.5,180.5C 78.9494,175.137 79.6161,169.804 80.5,164.5C 84.5138,164.666 88.5138,164.499 92.5,164C 93.3333,163.167 94.1667,162.333 95,161.5C 95.8331,139.826 95.6664,118.159 94.5,96.5C 93.354,95.8551 92.354,95.0217 91.5,94C 86.8452,93.5008 82.1785,93.3342 77.5,93.5C 77.1805,88.6367 77.5139,83.97 78.5,79.5C 87.5,79.5 96.5,79.5 105.5,79.5C 105.5,72.1667 105.5,64.8333 105.5,57.5C 109.833,57.5 114.167,57.5 118.5,57.5C 118.5,64.5 118.5,71.5 118.5,78.5C 122.167,78.5 125.833,78.5 129.5,78.5C 129.5,71.5 129.5,64.5 129.5,57.5C 133.833,57.5 138.167,57.5 142.5,57.5C 142.175,65.0191 142.508,72.3524 143.5,79.5 Z"/></g>
<g><path style="opacity:1" fill="#f9d1af" d="M 143.5,79.5 C 142.508,72.3524 142.175,65.0191 142.5,57.5C 138.167,57.5 133.833,57.5 129.5,57.5C 129.5,64.5 129.5,71.5 129.5,78.5C 125.833,78.5 122.167,78.5 118.5,78.5C 118.5,71.5 118.5,64.5 118.5,57.5C 114.167,57.5 109.833,57.5 105.5,57.5C 105.5,64.8333 105.5,72.1667 105.5,79.5C 96.5,79.5 87.5,79.5 78.5,79.5C 86.9839,78.507 95.6506,78.1736 104.5,78.5C 104.5,71.1667 104.5,63.8333 104.5,56.5C 109.5,56.5 114.5,56.5 119.5,56.5C 119.5,63.5 119.5,70.5 119.5,77.5C 122.5,77.5 125.5,77.5 128.5,77.5C 128.5,70.5 128.5,63.5 128.5,56.5C 133.5,56.5 138.5,56.5 143.5,56.5C 143.5,64.1667 143.5,71.8333 143.5,79.5 Z"/></g>
<g><path style="opacity:0.729" fill="#827e8b" d="M 200.5,22.5 C 201.167,22.5 201.833,22.5 202.5,22.5C 219.456,34.1193 232.456,49.1193 241.5,67.5C 240.624,67.6309 239.957,67.2975 239.5,66.5C 234.837,59.6569 230.337,52.6569 226,45.5C 220.473,39.973 214.973,34.473 209.5,29C 206.079,27.3015 203.079,25.1348 200.5,22.5 Z"/></g>
<g><path style="opacity:0.792" fill="#9b98a2" d="M 20.5,56.5 C 18.5266,60.4469 16.5266,64.4469 14.5,68.5C 14.0431,69.2975 13.3764,69.6309 12.5,69.5C 13.9312,64.2845 16.5978,59.9511 20.5,56.5 Z"/></g>
<g><path style="opacity:0.657" fill="#aeabb3" d="M 10.5,74.5 C 7.62481,82.8324 5.29147,91.3324 3.5,100C 3.16389,101.03 2.49722,101.53 1.5,101.5C 2.70255,94.0231 4.53589,86.6898 7,79.5C 7.54935,77.2404 8.71602,75.5738 10.5,74.5 Z"/></g>
<g><path style="opacity:1" fill="#fefcfa" d="M 147.5,100.5 C 149.734,104.961 150.067,109.627 148.5,114.5C 139.742,120.105 130.075,122.439 119.5,121.5C 119.5,112.5 119.5,103.5 119.5,94.5C 125.842,94.3338 132.175,94.5005 138.5,95C 141.865,96.3439 144.865,98.1773 147.5,100.5 Z"/></g>
<g><path style="opacity:1" fill="#a29ea8" d="M 243.5,71.5 C 248.385,80.4839 251.718,90.1506 253.5,100.5C 253.64,102.03 254.307,103.03 255.5,103.5C 255.5,105.5 255.5,107.5 255.5,109.5C 254.504,109.586 253.671,109.252 253,108.5C 250.929,95.8055 247.763,83.4721 243.5,71.5 Z"/></g>
<g><path style="opacity:1" fill="#f9cda9" d="M 147.5,100.5 C 150.012,102.237 151.012,104.737 150.5,108C 150.333,109.833 150.167,111.667 150,113.5C 149.617,114.056 149.117,114.389 148.5,114.5C 150.067,109.627 149.734,104.961 147.5,100.5 Z"/></g>
<g><path style="opacity:0.999" fill="#d0cfd4" d="M -0.5,103.5 C 0.166667,103.5 0.833333,103.5 1.5,103.5C 1.1388,117.337 0.472137,131.004 -0.5,144.5C -0.5,130.833 -0.5,117.167 -0.5,103.5 Z"/></g>
<g><path style="opacity:1" fill="#fefdfb" d="M 119.5,135.5 C 127.174,135.334 134.841,135.5 142.5,136C 158.347,140.735 160.68,149.068 149.5,161C 145.986,162.562 142.319,163.395 138.5,163.5C 132.167,163.5 125.833,163.5 119.5,163.5C 119.5,154.167 119.5,144.833 119.5,135.5 Z"/></g>
<g><path style="opacity:0.416" fill="#93909b" d="M 255.5,137.5 C 255.5,142.167 255.5,146.833 255.5,151.5C 254.833,151.5 254.167,151.5 253.5,151.5C 253.532,146.609 254.199,141.943 255.5,137.5 Z"/></g>
<g><path style="opacity:0.11" fill="#7e7a88" d="M -0.5,147.5 C 1.17649,148.183 1.84316,149.517 1.5,151.5C 0.833333,151.5 0.166667,151.5 -0.5,151.5C -0.5,150.167 -0.5,148.833 -0.5,147.5 Z"/></g>
<g><path style="opacity:0.729" fill="#928f99" d="M 253.5,152.5 C 253.58,155.781 252.913,158.781 251.5,161.5C 250.945,157.988 251.612,154.988 253.5,152.5 Z"/></g>
<g><path style="opacity:0.769" fill="#a8a5ae" d="M 2.5,158.5 C 3.49722,158.47 4.16389,158.97 4.5,160C 6.42619,166.874 8.42619,173.708 10.5,180.5C 8.71602,179.426 7.54935,177.76 7,175.5C 5.18778,169.9 3.68778,164.233 2.5,158.5 Z"/></g>
<g><path style="opacity:1" fill="#fad8bc" d="M 119.5,135.5 C 119.5,144.833 119.5,154.167 119.5,163.5C 125.833,163.5 132.167,163.5 138.5,163.5C 132.021,164.491 125.354,164.824 118.5,164.5C 118.173,154.652 118.506,144.986 119.5,135.5 Z"/></g>
<g><path style="opacity:0.149" fill="#84808c" d="M 251.5,161.5 C 250.345,167.466 248.679,173.299 246.5,179C 243.007,186.846 238.673,194.013 233.5,200.5C 237.053,193 240.886,185.667 245,178.5C 246.34,172.282 248.507,166.615 251.5,161.5 Z"/></g>
<g><path style="opacity:1" fill="#f9cba5" d="M 170.5,174.5 C 165.782,177.737 160.448,179.404 154.5,179.5C 159.733,177.869 165.066,176.202 170.5,174.5 Z"/></g>
<g><path style="opacity:1" fill="#f9d5b6" d="M 78.5,180.5 C 87.5,180.5 96.5,180.5 105.5,180.5C 105.5,187.833 105.5,195.167 105.5,202.5C 104.509,195.687 104.175,188.687 104.5,181.5C 95.6506,181.826 86.9839,181.493 78.5,180.5 Z"/></g>
<g><path style="opacity:0.604" fill="#928f98" d="M 10.5,180.5 C 12.256,181.552 12.9227,183.219 12.5,185.5C 11.0687,184.22 10.4021,182.553 10.5,180.5 Z"/></g>
<g><path style="opacity:1" fill="#f4a96a" d="M 118.5,181.5 C 118.5,188.5 118.5,195.5 118.5,202.5C 114.167,203.833 109.833,203.833 105.5,202.5C 109.5,202.5 113.5,202.5 117.5,202.5C 117.175,195.313 117.509,188.313 118.5,181.5 Z"/></g>
<g><path style="opacity:1" fill="#f9d6b7" d="M 129.5,181.5 C 129.5,188.5 129.5,195.5 129.5,202.5C 128.509,195.687 128.175,188.687 128.5,181.5C 125.5,181.5 122.5,181.5 119.5,181.5C 119.825,188.687 119.491,195.687 118.5,202.5C 118.5,195.5 118.5,188.5 118.5,181.5C 122.167,180.167 125.833,180.167 129.5,181.5 Z"/></g>
<g><path style="opacity:1" fill="#f3ae73" d="M 129.5,181.5 C 130.491,188.313 130.825,195.313 130.5,202.5C 134.5,202.5 138.5,202.5 142.5,202.5C 138.167,203.833 133.833,203.833 129.5,202.5C 129.5,195.5 129.5,188.5 129.5,181.5 Z"/></g>
<g><path style="opacity:0.729" fill="#888692" d="M 12.5,185.5 C 15.8119,188.771 18.1452,192.771 19.5,197.5C 16.1881,194.229 13.8548,190.229 12.5,185.5 Z"/></g>
<g><path style="opacity:1" fill="#87848e" d="M 101.5,232.5 C 104.577,233.856 107.91,234.689 111.5,235C 122.167,235.667 132.833,235.667 143.5,235C 148.232,234.885 152.566,233.718 156.5,231.5C 172.896,226.636 187.563,218.636 200.5,207.5C 202.719,210.215 205.052,212.715 207.5,215C 184.499,235.896 157.332,246.396 126,246.5C 116.051,246.611 106.218,245.611 96.5,243.5C 87.2054,239.569 77.8721,235.735 68.5,232C 61.2183,227.441 54.3849,222.274 48,216.5C 48.6422,212.649 50.8089,209.649 54.5,207.5C 67.7432,220.29 83.4098,228.623 101.5,232.5 Z"/></g>
<g><path style="opacity:0.094" fill="#8f8c98" d="M 19.5,197.5 C 27.7705,207.719 36.7705,217.552 46.5,227C 50.6663,228.2 53.6663,230.7 55.5,234.5C 40.1425,225.468 28.1425,213.134 19.5,197.5 Z"/></g>
<g><path style="opacity:1" fill="#d6d5d8" d="M 156.5,231.5 C 152.566,233.718 148.232,234.885 143.5,235C 132.833,235.667 122.167,235.667 111.5,235C 107.91,234.689 104.577,233.856 101.5,232.5C 119.898,235.452 138.231,235.118 156.5,231.5 Z"/></g>
<g><path style="opacity:0.02" fill="#7c7884" d="M 233.5,200.5 C 232.191,203.778 230.358,206.778 228,209.5C 217.642,221.535 205.809,231.702 192.5,240C 188.578,241.798 184.578,243.298 180.5,244.5C 180.369,243.624 180.702,242.957 181.5,242.5C 185.458,240.57 189.458,238.737 193.5,237C 198.558,232.943 203.892,229.276 209.5,226C 215,220.5 220.5,215 226,209.5C 227.586,207.33 228.92,204.996 230,202.5C 230.816,201.177 231.983,200.511 233.5,200.5 Z"/></g>
<g><path style="opacity:0.451" fill="#8e8c97" d="M 69.5,242.5 C 65.701,241.579 62.3677,239.912 59.5,237.5C 59.56,236.957 59.8933,236.624 60.5,236.5C 64.1493,237.804 67.1493,239.804 69.5,242.5 Z"/></g>
<g><path style="opacity:0.769" fill="#9895a0" d="M 180.5,244.5 C 180.631,245.376 180.298,246.043 179.5,246.5C 170.752,249.861 161.752,252.195 152.5,253.5C 152.62,252.414 153.287,251.747 154.5,251.5C 163.293,249.568 171.96,247.234 180.5,244.5 Z"/></g>
<g><path style="opacity:0.729" fill="#a8a5ae" d="M 74.5,244.5 C 82.8399,247.377 91.3399,249.71 100,251.5C 101.03,251.836 101.53,252.503 101.5,253.5C 92.6247,251.987 83.958,249.653 75.5,246.5C 74.7025,246.043 74.3691,245.376 74.5,244.5 Z"/></g>
<g><path style="opacity:0.027" fill="#827f8c" d="M 103.5,253.5 C 105.483,253.157 106.817,253.824 107.5,255.5C 106.167,255.5 104.833,255.5 103.5,255.5C 103.5,254.833 103.5,254.167 103.5,253.5 Z"/></g>
<g><path style="opacity:0.035" fill="#b0aeb6" d="M 151.5,253.5 C 151.5,254.167 151.5,254.833 151.5,255.5C 137.833,255.5 124.167,255.5 110.5,255.5C 124.003,254.648 137.67,253.982 151.5,253.5 Z"/></g>
</svg>
