<?xml version="1.0" encoding="UTF-8"?>
<!DOCTYPE svg PUBLIC "-//W3C//DTD SVG 1.1//EN" "http://www.w3.org/Graphics/SVG/1.1/DTD/svg11.dtd">
<svg xmlns="http://www.w3.org/2000/svg" version="1.1" width="250px" height="250px" style="shape-rendering:geometricPrecision; text-rendering:geometricPrecision; image-rendering:optimizeQuality; fill-rule:evenodd; clip-rule:evenodd" xmlns:xlink="http://www.w3.org/1999/xlink">
<g><path style="opacity:0.994" fill="#01a3ff" d="M 108.5,-0.5 C 119.167,-0.5 129.833,-0.5 140.5,-0.5C 201.171,11.5039 237.504,47.8372 249.5,108.5C 249.5,119.167 249.5,129.833 249.5,140.5C 237.496,201.171 201.163,237.504 140.5,249.5C 129.833,249.5 119.167,249.5 108.5,249.5C 47.8294,237.496 11.4961,201.163 -0.5,140.5C -0.5,129.833 -0.5,119.167 -0.5,108.5C 11.5039,47.8294 47.8372,11.4961 108.5,-0.5 Z"/></g>
<g><path style="opacity:1" fill="#fbfdff" d="M 123.5,38.5 C 124.661,51.9938 124.827,65.6604 124,79.5C 109.651,88.0666 95.4844,96.0666 81.5,103.5C 95.5,81.8333 109.5,60.1667 123.5,38.5 Z"/></g>
<g><path style="opacity:1" fill="#98d9ff" d="M 123.5,38.5 C 123.56,37.9569 123.893,37.6236 124.5,37.5C 139.352,59.2155 153.685,81.2155 167.5,103.5C 153.283,95.5589 138.95,87.8923 124.5,80.5C 124.5,96.8333 124.5,113.167 124.5,129.5C 109.563,121.697 94.8964,113.363 80.5,104.5C 80.6236,103.893 80.9569,103.56 81.5,103.5C 95.4844,96.0666 109.651,88.0666 124,79.5C 124.827,65.6604 124.661,51.9938 123.5,38.5 Z"/></g>
<g><path style="opacity:1" fill="#34b5ff" d="M 167.5,103.5 C 168.043,103.56 168.376,103.893 168.5,104.5C 154.104,113.363 139.437,121.697 124.5,129.5C 124.5,113.167 124.5,96.8333 124.5,80.5C 138.95,87.8923 153.283,95.5589 167.5,103.5 Z"/></g>
<g><path style="opacity:1" fill="#fcfeff" d="M 74.5,116.5 C 90.3278,147.492 106.661,178.158 123.5,208.5C 123.5,209.5 123.5,210.5 123.5,211.5C 121.5,211.5 119.5,211.5 117.5,211.5C 115.265,211.795 113.265,211.461 111.5,210.5C 109.485,209.076 107.152,208.41 104.5,208.5C 77.822,198.47 63.822,179.137 62.5,150.5C 62.1799,139.78 64.6799,129.78 70,120.5C 70.8763,118.365 72.3763,117.031 74.5,116.5 Z"/></g>
<g><path style="opacity:1" fill="#33b5ff" d="M 176.5,116.5 C 158.485,147.191 141.485,178.525 125.5,210.5C 124.503,188.673 124.169,166.673 124.5,144.5C 141.302,135.265 157.969,125.765 174.5,116C 175.437,115.308 176.103,115.475 176.5,116.5 Z"/></g>
<g><path style="opacity:1" fill="#97d9ff" d="M 176.5,116.5 C 187.777,134.83 189.611,154.163 182,174.5C 171.644,196.362 154.477,208.695 130.5,211.5C 128.585,211.784 126.919,211.451 125.5,210.5C 141.485,178.525 158.485,147.191 176.5,116.5 Z"/></g>
<g><path style="opacity:1" fill="#99daff" d="M 74.5,116.5 C 90.8333,125.833 107.167,135.167 123.5,144.5C 123.5,165.833 123.5,187.167 123.5,208.5C 106.661,178.158 90.3278,147.492 74.5,116.5 Z"/></g>
<g><path style="opacity:1" fill="#80cfff" d="M 123.5,144.5 C 123.833,144.5 124.167,144.5 124.5,144.5C 124.169,166.673 124.503,188.673 125.5,210.5C 126.919,211.451 128.585,211.784 130.5,211.5C 126.167,212.833 121.833,212.833 117.5,211.5C 119.5,211.5 121.5,211.5 123.5,211.5C 123.5,210.5 123.5,209.5 123.5,208.5C 123.5,187.167 123.5,165.833 123.5,144.5 Z"/></g>
<g><path style="opacity:1" fill="#c1e7ff" d="M 104.5,208.5 C 107.152,208.41 109.485,209.076 111.5,210.5C 108.848,210.59 106.515,209.924 104.5,208.5 Z"/></g>
</svg>
