<?xml version="1.0" encoding="UTF-8"?>
<!DOCTYPE svg PUBLIC "-//W3C//DTD SVG 1.1//EN" "http://www.w3.org/Graphics/SVG/1.1/DTD/svg11.dtd">
<svg xmlns="http://www.w3.org/2000/svg" version="1.1" width="128px" height="128px" style="shape-rendering:geometricPrecision; text-rendering:geometricPrecision; image-rendering:optimizeQuality; fill-rule:evenodd; clip-rule:evenodd" xmlns:xlink="http://www.w3.org/1999/xlink">
<g><path style="opacity:0.985" fill="#315dfe" d="M 52.5,-0.5 C 59.8333,-0.5 67.1667,-0.5 74.5,-0.5C 103.176,6.17555 120.842,23.8422 127.5,52.5C 127.5,59.8333 127.5,67.1667 127.5,74.5C 120.824,103.176 103.158,120.842 74.5,127.5C 67.1667,127.5 59.8333,127.5 52.5,127.5C 47.7084,126.236 43.0417,124.569 38.5,122.5C 38.5,122.167 38.5,121.833 38.5,121.5C 46.107,120.53 52.4404,117.197 57.5,111.5C 60.9868,110.555 62.3201,108.222 61.5,104.5C 66.8458,85.8694 60.8458,72.5361 43.5,64.5C 43.9804,61.3148 43.3137,58.4815 41.5,56C 34.283,52.2246 26.9497,48.7246 19.5,45.5C 18.5581,45.6082 17.7247,45.9415 17,46.5C 13.8915,54.5237 12.7249,62.8571 13.5,71.5C 8.93649,76.2928 6.26982,81.9595 5.5,88.5C 5.16667,88.5 4.83333,88.5 4.5,88.5C 2.21936,84.0389 0.552689,79.3723 -0.5,74.5C -0.5,67.1667 -0.5,59.8333 -0.5,52.5C 6.17555,23.8245 23.8422,6.15779 52.5,-0.5 Z"/></g>
<g><path style="opacity:1" fill="#f7f8ff" d="M 52.5,15.5 C 57.2411,15.1614 58.5744,17.1614 56.5,21.5C 45.898,23.7958 37.2313,29.1291 30.5,37.5C 34.8056,40.6571 39.4722,43.3238 44.5,45.5C 49.6383,42.1947 54.6383,38.6947 59.5,35C 63.4525,34.0885 67.1191,34.7552 70.5,37C 74.3244,40.0791 78.3244,42.9124 82.5,45.5C 87.5,43 92.5,40.5 97.5,38C 90.5053,29.334 81.5053,24.0007 70.5,22C 69.4238,20.2739 69.2571,18.4406 70,16.5C 84.7655,17.3922 96.4322,24.0588 105,36.5C 105.667,38.1667 105.667,39.8333 105,41.5C 97.5794,45.7105 89.9128,49.3772 82,52.5C 80.3732,52.3749 78.8732,51.8749 77.5,51C 72.9671,47.5722 68.3004,44.4055 63.5,41.5C 58.3536,43.9106 53.6869,47.0772 49.5,51C 47.3046,52.373 44.9712,52.7063 42.5,52C 35.8333,48.6667 29.1667,45.3333 22.5,42C 21.4238,40.2739 21.2571,38.4406 22,36.5C 29.6529,25.6537 39.8196,18.6537 52.5,15.5 Z"/></g>
<g><path style="opacity:1" fill="#f3f4fb" d="M 43.5,64.5 C 41.0971,64.552 38.7638,64.2186 36.5,63.5C 36.719,62.325 36.3857,61.325 35.5,60.5C 31.3942,58.3637 27.2275,56.3637 23,54.5C 22.228,54.6448 21.5613,54.9781 21,55.5C 20.5014,59.1516 20.3347,62.8183 20.5,66.5C 17.8883,67.7787 15.5549,69.4453 13.5,71.5C 12.7249,62.8571 13.8915,54.5237 17,46.5C 17.7247,45.9415 18.5581,45.6082 19.5,45.5C 26.9497,48.7246 34.283,52.2246 41.5,56C 43.3137,58.4815 43.9804,61.3148 43.5,64.5 Z"/></g>
<g><path style="opacity:1" fill="#f7f8ff" d="M 105.5,45.5 C 106.873,45.3433 108.207,45.51 109.5,46C 118.478,73.7358 110.478,95.0691 85.5,110C 79.9925,110.514 78.6592,108.514 81.5,104C 102.089,93.0167 109.589,76.5167 104,54.5C 99.7725,56.3637 95.6058,58.3637 91.5,60.5C 90.6697,66.4725 90.1697,72.4725 90,78.5C 87.1995,86.8244 81.3662,90.491 72.5,89.5C 72.6663,96.175 72.4996,102.842 72,109.5C 70,112.167 68,112.167 66,109.5C 65.5002,100.506 65.3336,91.5062 65.5,82.5C 70.9586,82.8967 76.2919,82.3967 81.5,81C 82.1258,80.2496 82.6258,79.4162 83,78.5C 83.3333,71.5 83.6667,64.5 84,57.5C 91.1482,53.3456 98.3149,49.3456 105.5,45.5 Z"/></g>
<g><path style="opacity:1" fill="#385df4" d="M 36.5,63.5 C 30.8466,63.0506 25.5133,64.0506 20.5,66.5C 20.3347,62.8183 20.5014,59.1516 21,55.5C 21.5613,54.9781 22.228,54.6448 23,54.5C 27.2275,56.3637 31.3942,58.3637 35.5,60.5C 36.3857,61.325 36.719,62.325 36.5,63.5 Z"/></g>
<g><path style="opacity:1" fill="#fb3838" d="M 36.5,63.5 C 38.7638,64.2186 41.0971,64.552 43.5,64.5C 60.8458,72.5361 66.8458,85.8694 61.5,104.5C 59.9291,106.635 58.5957,108.968 57.5,111.5C 52.4404,117.197 46.107,120.53 38.5,121.5C 34.1667,121.5 29.8333,121.5 25.5,121.5C 24.2196,120.069 22.5529,119.402 20.5,119.5C 20.0269,118.094 19.0269,117.427 17.5,117.5C 16.4154,115.413 14.7488,114.08 12.5,113.5C 10.7376,112.738 9.73758,111.404 9.5,109.5C 9.25027,107.326 8.25027,105.659 6.5,104.5C 6.32588,102.139 5.99255,99.8056 5.5,97.5C 5.5,94.5 5.5,91.5 5.5,88.5C 6.26982,81.9595 8.93649,76.2928 13.5,71.5C 15.5549,69.4453 17.8883,67.7787 20.5,66.5C 25.5133,64.0506 30.8466,63.0506 36.5,63.5 Z"/></g>
<g><path style="opacity:1" fill="#fff6f5" d="M 12.5,79.5 C 15.8333,79.5 19.1667,79.5 22.5,79.5C 22.7908,84.9116 23.6241,90.2449 25,95.5C 26.0118,90.4534 27.1785,85.4534 28.5,80.5C 32.0447,79.2086 35.5447,79.2086 39,80.5C 40.3354,85.8577 41.6688,91.191 43,96.5C 43.3611,91.0773 44.1944,85.744 45.5,80.5C 48.4459,79.3452 51.4459,79.1786 54.5,80C 51.9501,88.3654 49.7835,96.8654 48,105.5C 44.27,106.46 40.4367,106.793 36.5,106.5C 35.9785,101.412 34.9785,96.4124 33.5,91.5C 31.7552,96.3993 30.4219,101.399 29.5,106.5C 25.8333,106.5 22.1667,106.5 18.5,106.5C 17.2863,97.3132 15.2863,88.3132 12.5,79.5 Z"/></g>
<g><path style="opacity:1" fill="#6d2329" d="M 4.5,88.5 C 4.83333,88.5 5.16667,88.5 5.5,88.5C 5.5,91.5 5.5,94.5 5.5,97.5C 5.16667,97.5 4.83333,97.5 4.5,97.5C 3.16667,94.5 3.16667,91.5 4.5,88.5 Z"/></g>
<g><path style="opacity:0.063" fill="#231621" d="M 4.5,97.5 C 4.83333,97.5 5.16667,97.5 5.5,97.5C 5.99255,99.8056 6.32588,102.139 6.5,104.5C 5.07619,102.485 4.40953,100.152 4.5,97.5 Z"/></g>
<g><path style="opacity:0.565" fill="#2f1822" d="M 6.5,104.5 C 8.25027,105.659 9.25027,107.326 9.5,109.5C 7.74973,108.341 6.74973,106.674 6.5,104.5 Z"/></g>
<g><path style="opacity:1" fill="#c2bfcf" d="M 61.5,104.5 C 62.3201,108.222 60.9868,110.555 57.5,111.5C 58.5957,108.968 59.9291,106.635 61.5,104.5 Z"/></g>
<g><path style="opacity:1" fill="#481e24" d="M 12.5,113.5 C 14.7488,114.08 16.4154,115.413 17.5,117.5C 15.2512,116.92 13.5846,115.587 12.5,113.5 Z"/></g>
<g><path style="opacity:0.627" fill="#371a22" d="M 17.5,117.5 C 19.0269,117.427 20.0269,118.094 20.5,119.5C 18.9731,119.573 17.9731,118.906 17.5,117.5 Z"/></g>
<g><path style="opacity:0.376" fill="#221620" d="M 20.5,119.5 C 22.5529,119.402 24.2196,120.069 25.5,121.5C 23.4471,121.598 21.7804,120.931 20.5,119.5 Z"/></g>
<g><path style="opacity:1" fill="#632227" d="M 25.5,121.5 C 29.8333,121.5 34.1667,121.5 38.5,121.5C 38.5,121.833 38.5,122.167 38.5,122.5C 33.9839,123.588 29.6505,123.255 25.5,121.5 Z"/></g>
</svg>
